<svg width="44" height="51" viewBox="0 0 44 51" fill="none" xmlns="http://www.w3.org/2000/svg">
<path fill-rule="evenodd" clip-rule="evenodd" d="M22 7.74854C10.402 7.74854 0.999999 17.1506 0.999998 28.7485C0.999997 40.3465 10.402 49.7485 22 49.7485C33.598 49.7485 43 40.3465 43 28.7485C43 17.1506 33.598 7.74854 22 7.74854ZM22 6.74854C9.84974 6.74854 -8.29187e-07 16.5983 -1.8914e-06 28.7485C-2.95361e-06 40.8988 9.84973 50.7485 22 50.7485C34.1503 50.7485 44 40.8988 44 28.7485C44 16.5983 34.1503 6.74854 22 6.74854Z" fill="url(#paint0_linear_26_3308)"/>
<path d="M19.78 10.8313L15.4586 18.1616L15.8427 19.25L15.8427 19.41L15.8107 19.506L12.2256 25.748L17.6993 25.748L18.2115 25.1719L32.8722 25.1719L22.1808 6.66994L19.78 10.8313Z" fill="url(#paint1_linear_26_3308)"/>
<path d="M20.356 1.19619L20.0679 1.74036L16.3227 8.20643L16.6108 8.91066L11.5211 17.7135L8.89629 22.2589L8 23.8274L9.63252 25.748L10.2407 25.748L11.3611 25.748L15.0743 19.282L14.6581 18.0976L19.1396 10.4471L22.1805 5.19747L33.7362 25.1719L35.4008 25.1719L36.265 22.7711L35.9449 22.2589L32.2318 15.7929L31.4635 15.6648L26.3739 6.862L23.749 2.31655L22.8528 0.748046L20.356 1.19619Z" fill="url(#paint2_linear_26_3308)"/>
<path d="M16.8906 32.2988H15.4727V40.748H14.6582V32.2988H13.2285V31.5781H16.8906V32.2988Z" fill="#07EDE4"/>
<path d="M23.5188 40.0977C23.5188 40.2891 23.4563 40.4453 23.3313 40.5664C23.2102 40.6875 23.0539 40.748 22.8625 40.748H20.2961C20.1047 40.748 19.9484 40.6875 19.8273 40.5664C19.7063 40.4453 19.6457 40.2891 19.6457 40.0977V32.2285C19.6457 32.0371 19.7063 31.8809 19.8273 31.7598C19.9484 31.6387 20.1047 31.5781 20.2961 31.5781H22.8625C23.0539 31.5781 23.2102 31.6387 23.3313 31.7598C23.4563 31.8809 23.5188 32.0371 23.5188 32.2285V40.0977ZM22.7043 40.0273V32.2988H20.4602V40.0273H22.7043Z" fill="#07EDE4"/>
<path d="M30.4223 36.4531C30.4223 36.6445 30.3598 36.8027 30.2348 36.9277C30.1137 37.0488 29.9574 37.1094 29.766 37.1094H27.6039V40.748H26.7895V31.5781H29.766C29.9574 31.5781 30.1137 31.6387 30.2348 31.7598C30.3598 31.8809 30.4223 32.0371 30.4223 32.2285V36.4531ZM29.6078 36.3828V32.2988H27.6039V36.3828H29.6078Z" fill="#07EDE4"/>
<defs>
<linearGradient id="paint0_linear_26_3308" x1="22" y1="50.7485" x2="22" y2="6.74854" gradientUnits="userSpaceOnUse">
<stop stop-color="#07EFE2"/>
<stop offset="1" stop-color="#0B3C62"/>
</linearGradient>
<linearGradient id="paint1_linear_26_3308" x1="82.1039" y1="43.5777" x2="2.52648" y2="9.99901" gradientUnits="userSpaceOnUse">
<stop stop-color="#FF00D9"/>
<stop offset="0.39" stop-color="#8A42FF"/>
<stop offset="0.6" stop-color="#00D5FF"/>
<stop offset="1" stop-color="#0CFFD2"/>
</linearGradient>
<linearGradient id="paint2_linear_26_3308" x1="83" y1="41.4011" x2="3.42253" y2="7.85432" gradientUnits="userSpaceOnUse">
<stop stop-color="#FF00D9"/>
<stop offset="0.39" stop-color="#8A42FF"/>
<stop offset="0.6" stop-color="#00D5FF"/>
<stop offset="1" stop-color="#0CFFD2"/>
</linearGradient>
</defs>
</svg>
