<svg width="361" height="27" viewBox="0 0 361 27" fill="none" xmlns="http://www.w3.org/2000/svg">
<rect width="5.4838" height="10.8943" transform="matrix(1 0 -0.711865 0.702316 253.299 3.03516)" fill="#00BCD6"/>
<rect width="5.4838" height="10.8943" transform="matrix(1 0 -0.711865 0.702316 288.707 3.03516)" fill="#00BCD6"/>
<rect width="5.4838" height="10.8943" transform="matrix(1 0 -0.711865 0.702316 324.116 3.03516)" fill="#00BCD6"/>
<rect width="5.4838" height="10.8943" transform="matrix(1 0 -0.711865 0.702316 262.151 3.03516)" fill="#00BCD6"/>
<rect width="5.4838" height="10.8943" transform="matrix(1 0 -0.711865 0.702316 297.559 3.03516)" fill="#00BCD6"/>
<rect width="5.4838" height="10.8943" transform="matrix(1 0 -0.711865 0.702316 332.968 3.03516)" fill="#00BCD6"/>
<rect width="5.4838" height="10.8943" transform="matrix(1 0 -0.711865 0.702316 271.003 3.03516)" fill="#00BCD6"/>
<rect width="5.4838" height="10.8943" transform="matrix(1 0 -0.711865 0.702316 306.412 3.03516)" fill="#00BCD6"/>
<rect width="5.4838" height="10.8943" transform="matrix(1 0 -0.711865 0.702316 279.855 3.03516)" fill="#00BCD6"/>
<rect width="5.4838" height="10.8943" transform="matrix(1 0 -0.711865 0.702316 315.264 3.03516)" fill="#00BCD6"/>
</svg>
