<svg width="736" height="19" viewBox="0 0 736 19" fill="none" xmlns="http://www.w3.org/2000/svg">
<rect width="12.7037" height="25.2376" transform="matrix(1 0 -0.711865 0.702316 483.874 0.436035)" fill="#00BCD6"/>
<rect width="12.7037" height="25.2376" transform="matrix(1 0 -0.711865 0.702316 565.901 0.436035)" fill="#00BCD6"/>
<rect width="12.7037" height="25.2376" transform="matrix(1 0 -0.711865 0.702316 647.927 0.436035)" fill="#00BCD6"/>
<rect width="12.7037" height="25.2376" transform="matrix(1 0 -0.711865 0.702316 504.381 0.436035)" fill="#00BCD6"/>
<rect width="12.7037" height="25.2376" transform="matrix(1 0 -0.711865 0.702316 586.407 0.436035)" fill="#00BCD6"/>
<rect width="12.7037" height="25.2376" transform="matrix(1 0 -0.711865 0.702316 668.434 0.436035)" fill="#00BCD6"/>
<rect width="12.7037" height="25.2376" transform="matrix(1 0 -0.711865 0.702316 524.888 0.436035)" fill="#00BCD6"/>
<rect width="12.7037" height="25.2376" transform="matrix(1 0 -0.711865 0.702316 606.914 0.436035)" fill="#00BCD6"/>
<rect width="12.7037" height="25.2376" transform="matrix(1 0 -0.711865 0.702316 545.394 0.436035)" fill="#00BCD6"/>
<rect width="12.7037" height="25.2376" transform="matrix(1 0 -0.711865 0.702316 627.421 0.436035)" fill="#00BCD6"/>
</svg>
