<svg width="736" height="18" viewBox="0 0 736 18" fill="none" xmlns="http://www.w3.org/2000/svg">
<line x1="368" y1="7.59639" x2="613.615" y2="7.59639" stroke="#00BCD6" stroke-width="1.68807"/>
<rect width="12.7037" height="25.2376" transform="matrix(1 0 -0.711865 0.702316 158.077 0)" fill="#00BCD6"/>
<rect width="12.7037" height="25.2376" transform="matrix(1 0 -0.711865 0.702316 240.103 0)" fill="#00BCD6"/>
<rect width="12.7037" height="25.2376" transform="matrix(1 0 -0.711865 0.702316 322.13 0)" fill="#00BCD6"/>
<rect width="12.7037" height="25.2376" transform="matrix(1 0 -0.711865 0.702316 178.583 0)" fill="#00BCD6"/>
<rect width="12.7037" height="25.2376" transform="matrix(1 0 -0.711865 0.702316 260.609 0)" fill="#00BCD6"/>
<rect width="12.7037" height="25.2376" transform="matrix(1 0 -0.711865 0.702316 342.636 0)" fill="#00BCD6"/>
<rect width="12.7037" height="25.2376" transform="matrix(1 0 -0.711865 0.702316 199.09 0)" fill="#00BCD6"/>
<rect width="12.7037" height="25.2376" transform="matrix(1 0 -0.711865 0.702316 281.116 0)" fill="#00BCD6"/>
<rect width="12.7037" height="25.2376" transform="matrix(1 0 -0.711865 0.702316 219.596 0)" fill="#00BCD6"/>
<rect width="12.7037" height="25.2376" transform="matrix(1 0 -0.711865 0.702316 301.623 0)" fill="#00BCD6"/>
</svg>
