<svg width="360" height="22" viewBox="0 0 360 22" fill="none" xmlns="http://www.w3.org/2000/svg">
<line x1="184" y1="8" x2="290" y2="8" stroke="#00BCD6" stroke-width="2"/>
<rect width="5.4838" height="10.8943" transform="matrix(1 0 -0.711865 0.702316 93.7554 5)" fill="#00BCD6"/>
<rect width="5.4838" height="10.8943" transform="matrix(1 0 -0.711865 0.702316 129.164 5)" fill="#00BCD6"/>
<rect width="5.4838" height="10.8943" transform="matrix(1 0 -0.711865 0.702316 164.572 5)" fill="#00BCD6"/>
<rect width="5.4838" height="10.8943" transform="matrix(1 0 -0.711865 0.702316 102.607 5)" fill="#00BCD6"/>
<rect width="5.4838" height="10.8943" transform="matrix(1 0 -0.711865 0.702316 138.016 5)" fill="#00BCD6"/>
<rect width="5.4838" height="10.8943" transform="matrix(1 0 -0.711865 0.702316 173.424 5)" fill="#00BCD6"/>
<rect width="5.4838" height="10.8943" transform="matrix(1 0 -0.711865 0.702316 111.459 5)" fill="#00BCD6"/>
<rect width="5.4838" height="10.8943" transform="matrix(1 0 -0.711865 0.702316 146.868 5)" fill="#00BCD6"/>
<rect width="5.4838" height="10.8943" transform="matrix(1 0 -0.711865 0.702316 120.312 5)" fill="#00BCD6"/>
<rect width="5.4838" height="10.8943" transform="matrix(1 0 -0.711865 0.702316 155.72 5)" fill="#00BCD6"/>
</svg>
