<svg width="126" height="126" viewBox="0 0 126 126" fill="none" xmlns="http://www.w3.org/2000/svg">
<path fill-rule="evenodd" clip-rule="evenodd" d="M62.9534 6.20447L100.05 26.1921V66.1728L62.9534 86.1659L25.8564 66.1728V26.1921L62.9534 6.20447Z" fill="#0068FF"/>
<path fill-rule="evenodd" clip-rule="evenodd" d="M41.1103 34.4152L48.939 32.2271L57.0132 27.8782L62.9534 22.6398V6.20447L44.4078 16.201L25.8564 26.1921L41.1103 34.4152Z" fill="url(#paint0_radial_348_4506)"/>
<path fill-rule="evenodd" clip-rule="evenodd" d="M62.9536 22.6398L68.8938 27.8782L76.968 32.2271L84.8025 34.4152L100.051 26.1921L81.505 16.201L62.9536 6.20447V22.6398Z" fill="url(#paint1_radial_348_4506)"/>
<path fill-rule="evenodd" clip-rule="evenodd" d="M84.8025 34.4153L82.9141 41.8308V50.5341L84.8025 57.9552L100.051 66.1728V46.1852V26.1921L84.8025 34.4153Z" fill="url(#paint2_radial_348_4506)"/>
<path fill-rule="evenodd" clip-rule="evenodd" d="M84.8025 57.9553L76.968 60.1379L68.8938 64.4923L62.9536 69.7252V86.166L81.505 76.1695L100.051 66.173L84.8025 57.9553Z" fill="url(#paint3_radial_348_4506)"/>
<path fill-rule="evenodd" clip-rule="evenodd" d="M62.9534 69.7252L57.0132 64.4923L48.939 60.1379L41.1103 57.9553L25.8564 66.173L44.4078 76.1695L62.9534 86.166V69.7252Z" fill="url(#paint4_radial_348_4506)"/>
<path fill-rule="evenodd" clip-rule="evenodd" d="M41.1103 57.9552L42.9988 50.5341V41.8308L41.1103 34.4153L25.8564 26.1921V46.1852V66.1728L41.1103 57.9552Z" fill="url(#paint5_radial_348_4506)"/>
<path style="mix-blend-mode:multiply" fill-rule="evenodd" clip-rule="evenodd" d="M86.229 44.6737C86.229 41.1106 99.7055 28.8386 100.056 38.4641V26.1921L88.4332 32.4563L86.2348 41.1105V44.6737H86.229Z" fill="url(#paint6_radial_348_4506)"/>
<path style="mix-blend-mode:screen" fill-rule="evenodd" clip-rule="evenodd" d="M42.6362 17.1507C45.8051 17.0961 48.4419 26.0177 47.9508 29.188L56.0251 24.8391C54.0197 22.962 52.7626 11.6995 58.5333 8.58923L42.6362 17.1507Z" fill="url(#paint7_radial_348_4506)"/>
<path style="mix-blend-mode:screen" fill-rule="evenodd" clip-rule="evenodd" d="M94.6945 69.0597C89.7717 68.7323 86.6963 68.2684 82.2353 61.6386L79.2945 62.4571L73.2549 65.7093C76.3945 67.7282 82.3815 73.5886 80.569 76.6662L94.6887 69.0597H94.6945Z" fill="url(#paint8_radial_348_4506)"/>
<path fill-rule="evenodd" clip-rule="evenodd" d="M69.881 24.8389L79.3 29.9136L86.2282 41.1106V51.2599L79.3 62.4569L69.881 67.5315H56.0245L46.6114 62.4569L39.6831 51.2599V41.1106L46.6114 29.9136L56.0245 24.8389H69.881Z" fill="url(#paint9_radial_348_4506)"/>
<path fill-rule="evenodd" clip-rule="evenodd" d="M56.0249 24.8386L62.9532 18.7326L69.8815 24.8386H56.0249Z" fill="url(#paint10_radial_348_4506)"/>
<path fill-rule="evenodd" clip-rule="evenodd" d="M79.3008 29.9134L88.4274 32.4561L86.2291 41.1104L79.3008 29.9134Z" fill="url(#paint11_radial_348_4506)"/>
<path fill-rule="evenodd" clip-rule="evenodd" d="M86.2291 51.2599L88.4274 59.9086L79.3008 62.4569L86.2291 51.2599Z" fill="url(#paint12_radial_348_4506)"/>
<path fill-rule="evenodd" clip-rule="evenodd" d="M56.0249 67.5315L62.9532 73.6375L69.8815 67.5315H56.0249Z" fill="url(#paint13_radial_348_4506)"/>
<path fill-rule="evenodd" clip-rule="evenodd" d="M39.6837 51.2599L37.4795 59.9086L46.612 62.4569L39.6837 51.2599Z" fill="url(#paint14_radial_348_4506)"/>
<path fill-rule="evenodd" clip-rule="evenodd" d="M46.612 29.9134L37.4795 32.4561L39.6837 41.1104L46.612 29.9134Z" fill="url(#paint15_radial_348_4506)"/>
<path style="mix-blend-mode:screen" fill-rule="evenodd" clip-rule="evenodd" d="M43.1443 56.8581L62.9528 46.185L43.1443 35.5118L39.6831 41.1103V51.2596L43.1443 56.8581Z" fill="url(#paint16_radial_348_4506)"/>
<path style="mix-blend-mode:screen" fill-rule="evenodd" clip-rule="evenodd" d="M43.144 35.5121L62.9525 46.1852V24.8389H56.0242L46.6111 29.9136L43.144 35.5121Z" fill="url(#paint17_radial_348_4506)"/>
<path style="mix-blend-mode:screen" opacity="0.5" fill-rule="evenodd" clip-rule="evenodd" d="M62.9536 24.8389V46.1852L82.762 35.5121L79.3008 29.9136L69.8819 24.8389H62.9536Z" fill="url(#paint18_radial_348_4506)"/>
<path style="mix-blend-mode:screen" opacity="0.75" fill-rule="evenodd" clip-rule="evenodd" d="M82.7621 35.5118L62.9536 46.185L82.7621 56.8581L86.2291 51.2596V41.1103L82.7621 35.5118Z" fill="url(#paint19_radial_348_4506)"/>
<path style="mix-blend-mode:screen" opacity="0.5" fill-rule="evenodd" clip-rule="evenodd" d="M82.762 56.8582L62.9536 46.1851V67.5314H69.8819L79.3008 62.4567L82.762 56.8582Z" fill="url(#paint20_radial_348_4506)"/>
<path style="mix-blend-mode:screen" opacity="0.5" fill-rule="evenodd" clip-rule="evenodd" d="M62.9525 67.5314V46.1851L43.144 56.8582L46.6111 62.4567L56.0242 67.5314H62.9525Z" fill="url(#paint21_radial_348_4506)"/>
<path style="mix-blend-mode:screen" fill-rule="evenodd" clip-rule="evenodd" d="M51.3184 64.9948L56.0249 67.9413C57.3053 69.2291 61.0355 72.5685 61.6786 73.9764C62.503 75.7825 62.7836 81.4792 62.959 84.3167C63.1403 81.3155 63.3741 75.9517 64.1693 73.9382C64.3213 73.5562 64.5376 73.1906 64.8241 72.8414L67.2855 69.8184L64.5084 71.4008C64.0465 71.6627 63.5262 71.7664 63.0233 71.7173C61.7079 71.5864 58.9132 69.4255 58.3051 68.1323L61.5675 67.5266L56.7674 67.1829L51.3242 64.9948H51.3184Z" fill="url(#paint22_radial_348_4506)"/>
<path style="mix-blend-mode:screen" fill-rule="evenodd" clip-rule="evenodd" d="M51.3184 27.3756L56.0249 24.429C57.3053 23.1413 61.0355 19.8018 61.6786 18.394C62.503 16.5879 62.7836 10.2636 62.959 7.42618C63.1403 10.4273 63.3741 16.4132 64.1693 18.4267C64.3213 18.8087 64.5376 19.1743 64.8241 19.5235L67.2855 22.5465L64.5084 20.9641C64.0465 20.7021 63.5203 20.5603 63.0233 20.6476C61.3454 20.9313 58.8371 22.8684 58.3051 24.2326L61.5675 24.8383L56.7674 25.182L51.3242 27.3701L51.3184 27.3756Z" fill="url(#paint23_radial_348_4506)"/>
<path style="mix-blend-mode:screen" fill-rule="evenodd" clip-rule="evenodd" d="M51.3184 27.3761L46.2318 29.7061C44.396 30.0989 39.4322 31.4413 37.8009 31.2557C35.7137 31.0211 30.2763 28.391 27.5576 27.1142C30.2529 28.7621 35.1232 31.6377 36.5907 33.2856C37.4268 34.2241 38.3154 36.6633 38.8533 37.8637C38.8241 36.6796 38.4908 34.4097 39.2217 33.4711C39.9993 32.4726 42.9109 31.3321 44.9105 31.4522L43.8405 34.3878L46.5592 30.6828L51.3125 27.3761H51.3184Z" fill="url(#paint24_radial_348_4506)"/>
<path style="mix-blend-mode:screen" fill-rule="evenodd" clip-rule="evenodd" d="M86.2282 46.1851L86.6141 51.4616C87.1695 53.1423 88.4032 57.824 89.3854 59.0518C90.6483 60.6178 95.0742 63.308 97.6175 64.8631C94.7409 63.5098 90.3735 61.4036 88.105 61.0435C87.6723 60.9725 87.228 60.9671 86.7603 61.0216L82.7261 61.5018L85.5792 60.0503C86.0587 59.8103 86.4095 59.4392 86.6141 59.0081C87.152 57.8786 86.5849 54.6919 85.6436 53.4042L83.4511 55.7396L85.5266 51.6853L86.2165 46.1905L86.2282 46.1851Z" fill="url(#paint25_radial_348_4506)"/>
<path style="mix-blend-mode:multiply" fill-rule="evenodd" clip-rule="evenodd" d="M49.9154 64.2418C46.6062 62.4575 28.4874 67.2157 37.2398 72.3122L25.8506 66.1789L37.4737 59.9147L46.6003 62.4629L49.9095 64.2473L49.9154 64.2418Z" fill="url(#paint26_radial_348_4506)"/>
<path fill-rule="evenodd" clip-rule="evenodd" d="M23.921 25.0573C29.0193 22.3072 34.1234 19.5625 39.2217 16.8123C47.1614 12.5343 55.1011 8.25634 63.0467 3.97835V0.398804C59.5738 2.27043 56.0366 4.12568 52.5871 6.03004C51.5581 6.59753 50.9793 7.02315 50.0496 7.6834C49.4007 8.14175 48.0267 8.56191 47.1789 8.9657C45.2846 9.87696 43.2208 11.072 41.3498 12.076C40.4495 12.5616 39.5432 13.0527 38.6428 13.5384C37.836 13.9749 37.6372 14.1277 37.2163 14.9134C37.0701 15.1863 37.0584 15.1863 36.6959 15.1917C35.4096 15.2081 35.2284 15.3772 34.1585 15.9556C31.5918 17.3362 29.031 18.7167 26.4643 20.1027C25.6516 20.5447 24.2835 21.1885 23.6813 21.8161C23.4357 22.0725 22.8861 22.1653 22.5353 22.3017C21.8747 22.5527 21.2198 22.9347 20.6001 23.2675L23.921 25.0573Z" fill="url(#paint27_radial_348_4506)"/>
<path fill-rule="evenodd" clip-rule="evenodd" d="M63.041 3.97822C76.0849 11.0064 89.1229 18.0345 102.167 25.0572L105.488 23.2674C104.681 22.8309 103.874 22.3998 103.067 21.9633C101.319 21.0247 99.5767 20.0807 97.8286 19.1422C96.934 18.662 96.0395 18.1764 95.1449 17.6962C93.9756 17.0632 92.6367 16.2665 91.4031 15.8027C90.5027 15.4644 90.0759 14.9951 89.2632 14.5313C88.5558 14.1275 87.8074 13.7401 87.0883 13.3527C85.3869 12.436 83.6855 11.492 81.9783 10.5862C81.4755 10.3188 81.2942 10.2752 80.7271 10.1769C80.3646 10.1169 80.3412 9.92049 80.0898 9.67494C79.6923 9.29297 78.4411 8.68183 77.8856 8.38172C77.5465 8.20165 77.2016 8.02158 76.8625 7.83606C75.5821 7.15943 74.5764 6.77747 73.2434 6.23727C71.963 5.71889 72.5944 5.768 71.7291 5.14594C71.0217 4.63847 69.8933 4.07644 69.0981 3.65082C67.081 2.56496 65.0698 1.47909 63.0527 0.393219V3.97277L63.041 3.97822Z" fill="url(#paint28_radial_348_4506)"/>
<path fill-rule="evenodd" clip-rule="evenodd" d="M57.1128 9.35881L63.0413 6.16123V3.97858L23.9214 25.063L25.9443 26.1488L41.2275 17.9203L57.1128 9.35881Z" fill="url(#paint29_radial_348_4506)"/>
<path fill-rule="evenodd" clip-rule="evenodd" d="M63.041 6.16123L81.5924 16.1578L100.144 26.1488L102.167 25.0575L63.041 3.97858V6.16123Z" fill="url(#paint30_radial_348_4506)"/>
<path fill-rule="evenodd" clip-rule="evenodd" d="M23.921 67.2207V25.0574L20.6001 23.2676C20.6001 24.5444 20.5651 25.8977 20.606 27.1691C20.6645 28.5059 20.9802 29.4336 21.3076 30.6886C21.6116 31.8399 20.7872 31.0378 20.6235 32.5275C20.5241 33.4224 20.5943 34.601 20.5943 35.5286C20.5943 39.7084 20.5592 43.9209 20.5943 48.0952C20.6001 48.941 20.5943 49.252 20.9334 50.0323C21.1263 50.4743 20.7463 51.8603 20.6703 52.4387C20.5124 53.6719 20.5884 55.4562 20.5884 56.744C20.5884 57.8353 20.5534 58.9757 20.5884 60.0616C20.6118 60.7328 20.8457 60.891 21.3953 61.2293C21.8747 61.524 21.4479 61.5404 21.1088 61.7259C20.4423 62.086 20.5826 62.7463 20.5826 63.3683C20.5826 65.2509 20.6177 67.4499 19.9453 69.3597L23.9035 67.2262L23.921 67.2207Z" fill="url(#paint31_radial_348_4506)"/>
<path fill-rule="evenodd" clip-rule="evenodd" d="M23.9214 25.0629V67.2208L25.9443 66.1295V46.1418V26.1488L23.9214 25.0629Z" fill="url(#paint32_radial_348_4506)"/>
<path fill-rule="evenodd" clip-rule="evenodd" d="M100.144 38.4206V46.1417V66.1293L102.166 67.2207V25.0573L100.144 26.1486V38.4206Z" fill="url(#paint33_radial_348_4506)"/>
<path fill-rule="evenodd" clip-rule="evenodd" d="M102.166 25.0568V67.2201L106.048 69.31C106.048 68.6007 105.487 67.5912 105.487 66.8764C105.487 62.2382 105.504 57.5946 105.487 52.962C105.487 52.4109 105.534 51.7833 105.177 51.3141C104.996 51.0794 105.2 50.1409 105.241 49.8244C105.434 48.4985 105.487 47.4235 105.487 46.0812C105.487 44.4551 105.516 42.7854 105.487 41.1647C105.475 40.5481 105.37 40.1007 105.317 39.5168C105.271 38.9875 105.452 38.4473 105.481 37.8799C105.528 36.8758 105.493 35.7409 105.493 34.7205V23.2561L102.172 25.0459L102.166 25.0568Z" fill="url(#paint34_radial_348_4506)"/>
<path fill-rule="evenodd" clip-rule="evenodd" d="M44.4957 76.1261L37.3336 72.2683L25.9443 66.1296L23.9214 67.2209L63.0413 88.3053V86.1227L44.4957 76.1261Z" fill="url(#paint35_radial_348_4506)"/>
<path fill-rule="evenodd" clip-rule="evenodd" d="M63.0414 88.3052C60.9542 87.1811 58.8669 86.0571 56.7797 84.933C56.1892 84.6165 55.5986 84.2946 55.0081 83.9781C52.956 82.8704 50.9038 81.7682 48.8516 80.6605C46.7644 79.5364 44.6771 78.4123 42.5899 77.2883C41.9643 76.95 41.3387 76.6117 40.7131 76.2788C38.6258 75.1547 36.5386 74.0307 34.4513 72.9066C33.7907 72.5519 33.13 72.1972 32.4693 71.8371C29.7214 70.3584 26.9735 68.8742 24.2256 67.3954L23.9098 67.2263L19.9517 69.3598C20.8637 69.4798 21.9804 69.7636 22.6762 70.1401C24.1028 70.9095 25.5235 71.7007 26.9559 72.4537C27.6809 72.8357 28.1253 73.0157 28.9087 73.2558C29.2946 73.3759 29.3881 73.616 29.7097 73.867C30.347 74.3526 31.7093 75.0238 32.4693 75.433C33.4749 75.9732 34.4864 76.5134 35.4979 77.0482C35.9832 77.3046 36.7023 77.7521 37.2402 77.3865C37.4039 77.2774 37.4624 77.1846 37.7196 77.2664C37.8716 77.3156 38.6843 78.4123 38.8656 78.6088C39.345 79.1381 39.877 79.4054 40.5085 79.7492C42.5957 80.8733 44.683 81.9973 46.7644 83.1214C48.1208 83.8526 49.4772 84.5838 50.8336 85.315C51.3657 85.5987 52.2602 86.1498 52.8273 86.2371C53.032 86.2699 53.6926 86.259 53.7803 86.2917C53.909 86.3354 53.909 86.4445 53.9616 86.5754C54.2247 87.2521 54.8795 87.4922 55.5051 87.8305C58.0133 89.1837 60.5215 90.537 63.0297 91.8847V88.3052H63.0414Z" fill="url(#paint36_radial_348_4506)"/>
<path fill-rule="evenodd" clip-rule="evenodd" d="M73.5416 80.4642L63.041 86.1227V88.3053L102.167 67.2209L100.144 66.1296L89.4269 71.9027L81.5924 76.1261L73.5416 80.4642Z" fill="url(#paint37_radial_348_4506)"/>
<path fill-rule="evenodd" clip-rule="evenodd" d="M102.167 67.2207L63.041 88.2997V91.8792C63.7134 91.5136 64.3916 91.1535 65.0639 90.7879C66.9173 89.7893 68.7707 88.7908 70.6241 87.7922C71.7701 87.1811 72.9043 86.7064 73.7228 85.7078C73.9216 85.4677 74.3075 84.8948 74.6525 84.9111C75.2839 84.9439 75.471 85.184 76.0732 84.7529C76.1609 84.6929 76.4941 84.3655 76.5468 84.3491C76.5468 84.3491 76.8625 84.3327 76.9794 84.3054C77.3127 84.2236 77.6986 83.9835 78.0026 83.8143C78.3709 83.6124 78.7451 83.416 79.1134 83.2141C80.4289 82.5048 81.7386 81.8008 83.0541 81.0915C83.7264 80.7259 84.3988 80.3658 85.077 80.0002C85.7494 79.6346 86.4217 79.2744 87.1 78.9088C87.7723 78.5432 88.4505 78.1831 89.1229 77.8175C90.2104 77.2337 91.3797 76.6334 92.4379 76.0223C92.9992 75.6949 93.1922 75.5639 93.5547 75.0565C93.7242 74.8218 94.4375 74.6145 94.7415 74.4944C95.8992 74.0361 96.8112 73.6705 97.9163 73.0812L101.88 70.9476C102.301 70.7184 104.85 69.9491 106.055 69.2997L102.173 67.2098L102.167 67.2207Z" fill="url(#paint38_radial_348_4506)"/>
<path style="mix-blend-mode:screen" fill-rule="evenodd" clip-rule="evenodd" d="M44.8398 13.7839L61.6489 4.25667C61.9588 4.08206 62.2102 3.85834 62.3915 3.59642C62.8417 2.96345 62.9235 1.5611 63.0405 0.786255C63.1574 1.54473 63.2451 2.99073 63.666 3.61824C63.8356 3.86925 64.0636 4.08751 64.3501 4.26758L68.9046 7.13777L64.1279 4.9824C63.4263 4.66592 62.6721 4.68229 61.9881 5.03151L44.8457 13.7839H44.8398Z" fill="url(#paint39_radial_348_4506)"/>
<path style="mix-blend-mode:screen" fill-rule="evenodd" clip-rule="evenodd" d="M79.0605 79.6727L101.202 68.2193C101.518 68.0556 101.851 67.9628 102.19 67.941C103.003 67.8919 104.341 68.5248 105.125 68.8195C104.47 68.3393 103.195 67.5645 102.827 66.8988C102.675 66.6259 102.593 66.3149 102.576 65.9875L102.161 56.1001L101.734 65.7965C101.699 66.555 101.295 67.188 100.6 67.5808L79.0547 79.6782L79.0605 79.6727Z" fill="url(#paint40_radial_348_4506)"/>
<path style="mix-blend-mode:screen" fill-rule="evenodd" clip-rule="evenodd" d="M42.1214 15.2517L24.8797 24.075C24.5639 24.2387 24.2307 24.326 23.8974 24.3479C23.0847 24.3915 21.74 23.7585 20.9624 23.4639C21.6289 23.9495 22.8801 24.708 23.2484 25.3901C23.4005 25.6738 23.4823 25.9903 23.4882 26.3286L23.9267 49.372L24.3827 26.5141C24.4002 25.7448 24.8036 25.09 25.5052 24.6862L42.1273 15.2462L42.1214 15.2517Z" fill="url(#paint41_radial_348_4506)"/>
<path style="mix-blend-mode:screen" fill-rule="evenodd" clip-rule="evenodd" d="M42.1214 77.0312L24.8797 68.2078C24.5639 68.0441 24.2307 67.9568 23.8974 67.935C23.0847 67.8913 21.74 68.5243 20.9624 68.8135C21.6231 68.3333 22.8918 67.5639 23.2543 66.8873C23.4063 66.609 23.4882 66.3035 23.4998 65.9652L23.9208 54.1134L24.3535 65.7796C24.3827 66.5381 24.7803 67.1765 25.476 67.5694L42.1214 77.0203V77.0312Z" fill="url(#paint42_radial_348_4506)"/>
<path style="mix-blend-mode:screen" fill-rule="evenodd" clip-rule="evenodd" d="M22.8923 61.6932C22.3544 61.7151 21.6528 61.7696 21.3722 62.2007C21.1617 62.5226 20.6881 67.7337 21.1792 67.7719C21.6879 67.8101 22.2959 67.4063 22.7403 66.9643C23.4185 66.2932 23.3542 62.9919 23.2314 62.1298C23.208 61.9551 23.0852 61.6878 22.8981 61.6987L22.8923 61.6932Z" fill="url(#paint43_radial_348_4506)"/>
<path style="mix-blend-mode:screen" fill-rule="evenodd" clip-rule="evenodd" d="M23.1091 49.6281C22.197 49.6827 21.1096 52.0127 21.0745 52.973C20.9985 55.0029 20.9283 57.0328 21.0511 59.0626C21.1037 59.9848 22.8694 61.2507 23.1383 60.7214C23.3605 60.2849 23.4307 59.7829 23.4482 59.3027C23.4833 58.3041 23.6236 49.5954 23.115 49.6281H23.1091Z" fill="url(#paint44_radial_348_4506)"/>
<path style="mix-blend-mode:screen" opacity="0.5" fill-rule="evenodd" clip-rule="evenodd" d="M23.0203 30.7704C21.851 30.9832 20.9213 32.0964 20.9038 33.1768C20.8395 38.1041 20.8746 43.0315 21.0558 47.9533C21.1143 49.5303 23.2775 47.1294 23.3243 45.4487C23.4471 40.8324 23.4763 36.2052 23.3769 31.5889C23.3711 31.2943 23.3243 30.7159 23.0144 30.7704H23.0203Z" fill="url(#paint45_radial_348_4506)"/>
<path style="mix-blend-mode:screen" fill-rule="evenodd" clip-rule="evenodd" d="M37.7017 15.8519C37.4503 15.6337 35.6671 15.6173 35.0474 15.9502C31.4868 17.8654 27.9262 19.7807 24.4474 21.8215C23.9797 22.0943 23.4944 23.2457 23.5704 23.7204C23.6055 23.955 24.6053 23.7968 24.8099 23.6986C28.7915 21.7014 32.7789 19.6934 36.6961 17.5872C37.0995 17.3689 37.9999 16.1084 37.7017 15.8519Z" fill="url(#paint46_radial_348_4506)"/>
<path style="mix-blend-mode:screen" fill-rule="evenodd" clip-rule="evenodd" d="M39.2047 13.6908C42.2683 11.9174 45.408 10.2423 48.6412 8.75806C49.6643 8.28879 53.3244 8.55071 52.2252 9.18913C50.8278 10.0076 39.2515 16.7302 38.7896 16.0972C38.3862 15.5352 38.6727 13.9964 39.2047 13.6908Z" fill="url(#paint47_radial_348_4506)"/>
<path style="mix-blend-mode:screen" fill-rule="evenodd" clip-rule="evenodd" d="M61.9774 3.59643C61.533 4.24577 56.8206 6.54846 54.0376 8.17999C52.7514 8.93301 50.5121 7.75438 51.3716 7.23054C54.7276 5.18976 57.8847 3.46001 61.3869 1.73026C63.0064 0.933594 62.0709 3.46547 61.9774 3.59643Z" fill="url(#paint48_radial_348_4506)"/>
<path style="mix-blend-mode:screen" opacity="0.5" fill-rule="evenodd" clip-rule="evenodd" d="M22.898 68.9279C23.2078 68.6878 23.6171 68.5296 24.0205 68.4968C25.0612 68.4095 28.8615 70.2702 29.0603 71.0014C29.2123 71.5635 29.2708 72.442 29.072 72.7475C28.6043 73.4514 23.3891 70.363 22.6407 69.7573C22.3893 69.5554 22.3718 69.3371 22.8921 68.9334L22.898 68.9279Z" fill="url(#paint49_radial_348_4506)"/>
<path style="mix-blend-mode:screen" opacity="0.5" fill-rule="evenodd" clip-rule="evenodd" d="M54.1779 85.3093C53.8681 85.5494 53.4588 85.7076 53.0554 85.7404C52.0147 85.8277 39.6607 78.8868 39.2222 78.2539C38.8013 77.6427 38.392 76.4368 38.5908 76.1367C39.0585 75.4328 53.5582 83.394 54.4293 84.4799C54.6281 84.7254 54.6983 84.9 54.1779 85.3038V85.3093Z" fill="url(#paint50_radial_348_4506)"/>
<path style="mix-blend-mode:screen" opacity="0.5" fill-rule="evenodd" clip-rule="evenodd" d="M55.7851 85.2222C56.8258 85.1348 62.4327 88.2233 62.6315 88.9545C62.7835 89.5165 62.842 90.395 62.6432 90.7006C62.1755 91.4045 54.4813 87.252 54.3819 86.4499C54.3176 85.937 55.0484 85.2876 55.7851 85.2276V85.2222Z" fill="url(#paint51_radial_348_4506)"/>
<path style="mix-blend-mode:screen" fill-rule="evenodd" clip-rule="evenodd" d="M73.3488 83.874C72.3081 83.7867 63.7603 88.1247 63.5615 88.8559C63.4095 89.4179 63.3511 90.2965 63.5498 90.602C64.0176 91.3059 72.2497 86.586 72.998 85.9748C73.6587 85.4346 73.9043 83.9231 73.3488 83.874Z" fill="url(#paint52_radial_348_4506)"/>
<path style="mix-blend-mode:screen" fill-rule="evenodd" clip-rule="evenodd" d="M92.9407 73.2879C91.9 73.2006 74.8979 82.1113 74.6991 82.8424C74.5471 83.4045 74.6641 83.9229 74.8687 84.2284C75.3364 84.9323 91.8473 75.9998 92.5899 75.3942C93.2505 74.854 93.4961 73.337 92.9407 73.2934V73.2879Z" fill="url(#paint53_radial_348_4506)"/>
<path style="mix-blend-mode:screen" fill-rule="evenodd" clip-rule="evenodd" d="M101.787 68.399C100.857 68.6555 94.2562 72.0549 93.958 72.4915C93.6248 72.9826 93.73 73.9429 93.9463 74.2376C94.2913 74.7123 103.085 70.1015 103.623 69.7577C104.348 69.2939 102.313 68.2571 101.781 68.4045L101.787 68.399Z" fill="url(#paint54_radial_348_4506)"/>
<path style="mix-blend-mode:screen" fill-rule="evenodd" clip-rule="evenodd" d="M63.7952 3.40576C64.2395 4.0551 66.3209 4.86814 69.1039 6.49967C70.3902 7.25269 72.6294 6.07405 71.77 5.55022C68.414 3.50944 67.8878 3.26935 64.3857 1.5396C62.7662 0.737475 63.7016 3.2748 63.7952 3.40576Z" fill="url(#paint55_radial_348_4506)"/>
<path style="mix-blend-mode:screen" fill-rule="evenodd" clip-rule="evenodd" d="M79.4933 9.59826C76.4297 7.82485 77.6984 8.45782 74.4652 6.97362C73.4479 6.50435 70.0802 6.84266 70.8929 7.58476C71.881 8.49056 79.4407 12.6376 79.9026 11.9992C80.306 11.4371 80.0195 9.89837 79.4875 9.5928L79.4933 9.59826Z" fill="url(#paint56_radial_348_4506)"/>
<path style="mix-blend-mode:screen" opacity="0.5" fill-rule="evenodd" clip-rule="evenodd" d="M80.9145 13.2273C84.2705 14.6952 98.5889 22.4927 101.565 24.2497C102.524 24.8172 104.845 23.333 103.822 22.8637C103.12 22.5418 96.3555 19.1423 90.3919 15.9338C85.3521 13.2219 81.3354 10.4063 80.6046 10.7446C80.1603 10.9519 80.3532 12.9763 80.9145 13.2219V13.2273Z" fill="url(#paint57_radial_348_4506)"/>
<path style="mix-blend-mode:screen" opacity="0.3" fill-rule="evenodd" clip-rule="evenodd" d="M105.12 37.9079C105.184 33.0243 105.172 30.094 104.991 25.0576C104.933 23.4424 102.758 25.3959 102.722 26.1271C102.53 30.2359 102.547 34.2411 102.646 38.9229C102.693 41.0782 105.108 39.1793 105.12 37.9079Z" fill="url(#paint58_radial_348_4506)"/>
<path style="mix-blend-mode:screen" opacity="0.3" fill-rule="evenodd" clip-rule="evenodd" d="M104.639 50.0045C103.832 50.1737 102.686 48.5585 102.651 47.5982C102.575 45.5683 102.505 43.5384 102.628 41.5086C102.68 40.5864 104.446 39.3205 104.715 39.8498C104.937 40.2863 105.007 40.7883 105.025 41.2685C105.06 42.267 105.224 49.8845 104.639 50.0045Z" fill="url(#paint59_radial_348_4506)"/>
<path style="mix-blend-mode:screen" opacity="0.3" fill-rule="evenodd" clip-rule="evenodd" d="M104.92 53.6119C104.972 58.4956 104.967 61.4258 104.809 66.4622C104.756 68.0774 102.879 66.1239 102.85 65.3927C102.686 61.2839 102.698 57.2787 102.786 52.5969C102.827 50.4416 104.908 52.3405 104.926 53.6119H104.92Z" fill="url(#paint60_radial_348_4506)"/>
<defs>
<radialGradient id="paint0_radial_348_4506" cx="0" cy="0" r="1" gradientUnits="userSpaceOnUse" gradientTransform="translate(59.6968 22.9727) scale(59.0979 55.1556)">
<stop stop-color="#8CE4FF"/>
<stop offset="1" stop-color="#217CFF"/>
</radialGradient>
<radialGradient id="paint1_radial_348_4506" cx="0" cy="0" r="1" gradientUnits="userSpaceOnUse" gradientTransform="translate(86.4279 34.0987) scale(54.7538 51.1013)">
<stop stop-color="#007BFF"/>
<stop offset="1" stop-color="#0050EB"/>
</radialGradient>
<radialGradient id="paint2_radial_348_4506" cx="0" cy="0" r="1" gradientUnits="userSpaceOnUse" gradientTransform="translate(76.1904 29.2478) scale(45.1653 42.1524)">
<stop stop-color="#3BB2FF"/>
<stop offset="1" stop-color="#0068FF"/>
</radialGradient>
<radialGradient id="paint3_radial_348_4506" cx="0" cy="0" r="1" gradientUnits="userSpaceOnUse" gradientTransform="translate(80.4643 36.4944) scale(81.2275 75.8089)">
<stop stop-color="#8CE4FF"/>
<stop offset="1" stop-color="#217CFF"/>
</radialGradient>
<radialGradient id="paint4_radial_348_4506" cx="0" cy="0" r="1" gradientUnits="userSpaceOnUse" gradientTransform="translate(66.9584 74.478) scale(55.5899 51.8816)">
<stop stop-color="#007BFF"/>
<stop offset="1" stop-color="#0050EB"/>
</radialGradient>
<radialGradient id="paint5_radial_348_4506" cx="0" cy="0" r="1" gradientUnits="userSpaceOnUse" gradientTransform="translate(51.7922 26.585) scale(49.4451 46.1467)">
<stop stop-color="#3BB2FF"/>
<stop offset="1" stop-color="#0068FF"/>
</radialGradient>
<radialGradient id="paint6_radial_348_4506" cx="0" cy="0" r="1" gradientUnits="userSpaceOnUse" gradientTransform="translate(106.622 51.8874) scale(28.6252 26.7156)">
<stop offset="0.63" stop-color="white"/>
<stop offset="0.68" stop-color="#FAFBFD"/>
<stop offset="0.74" stop-color="#EBF0F8"/>
<stop offset="0.8" stop-color="#D3DFF0"/>
<stop offset="0.86" stop-color="#B2C7E4"/>
<stop offset="0.93" stop-color="#87A8D6"/>
<stop offset="1" stop-color="#5282C4"/>
</radialGradient>
<radialGradient id="paint7_radial_348_4506" cx="0" cy="0" r="1" gradientUnits="userSpaceOnUse" gradientTransform="translate(56.4577 26.9508) scale(59.3727 55.412)">
<stop stop-color="#5CE4FF"/>
<stop offset="1"/>
</radialGradient>
<radialGradient id="paint8_radial_348_4506" cx="0" cy="0" r="1" gradientUnits="userSpaceOnUse" gradientTransform="translate(79.312 58.6702) scale(24.8599 23.2016)">
<stop stop-color="#5CE4FF"/>
<stop offset="1"/>
</radialGradient>
<radialGradient id="paint9_radial_348_4506" cx="0" cy="0" r="1" gradientUnits="userSpaceOnUse" gradientTransform="translate(53.4461 25.8593) scale(59.4195 55.4557)">
<stop stop-color="#36A1FF"/>
<stop offset="1" stop-color="#0049FF"/>
</radialGradient>
<radialGradient id="paint10_radial_348_4506" cx="0" cy="0" r="1" gradientUnits="userSpaceOnUse" gradientTransform="translate(55.3525 9.52728) scale(36.179 33.7656)">
<stop stop-color="#DBF7FF"/>
<stop offset="1" stop-color="#5CC3FF"/>
</radialGradient>
<radialGradient id="paint11_radial_348_4506" cx="0" cy="0" r="1" gradientUnits="userSpaceOnUse" gradientTransform="translate(94.4027 17.2867) scale(29.3151 27.3595)">
<stop stop-color="#8CE4FF"/>
<stop offset="1" stop-color="#217CFF"/>
</radialGradient>
<radialGradient id="paint12_radial_348_4506" cx="0" cy="0" r="1" gradientUnits="userSpaceOnUse" gradientTransform="translate(88.5268 59.4393) scale(35.8926 33.4982)">
<stop stop-color="#8CE4FF"/>
<stop offset="1" stop-color="#217CFF"/>
</radialGradient>
<radialGradient id="paint13_radial_348_4506" cx="0" cy="0" r="1" gradientUnits="userSpaceOnUse" gradientTransform="translate(67.2738 61.873) scale(34.7232 32.4069)">
<stop stop-color="#B3EDFF"/>
<stop offset="1" stop-color="#2795FF"/>
</radialGradient>
<radialGradient id="paint14_radial_348_4506" cx="0" cy="0" r="1" gradientUnits="userSpaceOnUse" gradientTransform="translate(38.5904 61.6984) scale(40.0028 37.3342)">
<stop stop-color="#3BB2FF"/>
<stop offset="1" stop-color="#0068FF"/>
</radialGradient>
<radialGradient id="paint15_radial_348_4506" cx="0" cy="0" r="1" gradientUnits="userSpaceOnUse" gradientTransform="translate(46.191 30.3499) scale(53.3039 49.748)">
<stop stop-color="#DBF7FF"/>
<stop offset="1" stop-color="#5CC3FF"/>
</radialGradient>
<radialGradient id="paint16_radial_348_4506" cx="0" cy="0" r="1" gradientUnits="userSpaceOnUse" gradientTransform="translate(-12.7145 57.633) scale(76.3864 71.2908)">
<stop stop-color="#5CE4FF"/>
<stop offset="1"/>
</radialGradient>
<radialGradient id="paint17_radial_348_4506" cx="0" cy="0" r="1" gradientUnits="userSpaceOnUse" gradientTransform="translate(47.0028 -14.3288) scale(71.6331 66.8546)">
<stop stop-color="#5CE4FF"/>
<stop offset="1"/>
</radialGradient>
<radialGradient id="paint18_radial_348_4506" cx="0" cy="0" r="1" gradientUnits="userSpaceOnUse" gradientTransform="translate(86.8547 10.6735) scale(45.3115 42.2888)">
<stop stop-color="#5CE4FF"/>
<stop offset="1"/>
</radialGradient>
<radialGradient id="paint19_radial_348_4506" cx="0" cy="0" r="1" gradientUnits="userSpaceOnUse" gradientTransform="translate(98.4369 20.0532) scale(51.1465 47.7346)">
<stop stop-color="#5CE4FF"/>
<stop offset="1"/>
</radialGradient>
<radialGradient id="paint20_radial_348_4506" cx="0" cy="0" r="1" gradientUnits="userSpaceOnUse" gradientTransform="translate(89.7956 85.4837) scale(76.4157 71.3181)">
<stop stop-color="#5CE4FF"/>
<stop offset="1"/>
</radialGradient>
<radialGradient id="paint21_radial_348_4506" cx="0" cy="0" r="1" gradientUnits="userSpaceOnUse" gradientTransform="translate(48.4703 79.034) scale(49.9537 46.6214)">
<stop stop-color="#5CE4FF"/>
<stop offset="1"/>
</radialGradient>
<radialGradient id="paint22_radial_348_4506" cx="0" cy="0" r="1" gradientUnits="userSpaceOnUse" gradientTransform="translate(62.0645 69.6547) scale(28.3211 26.4319)">
<stop stop-color="#5CE4FF"/>
<stop offset="1"/>
</radialGradient>
<radialGradient id="paint23_radial_348_4506" cx="0" cy="0" r="1" gradientUnits="userSpaceOnUse" gradientTransform="translate(58.9132 18.1266) scale(25.5498 23.8455)">
<stop stop-color="#5CE4FF"/>
<stop offset="1"/>
</radialGradient>
<radialGradient id="paint24_radial_348_4506" cx="0" cy="0" r="1" gradientUnits="userSpaceOnUse" gradientTransform="translate(40.8646 28.4947) scale(24.2811 22.6614)">
<stop stop-color="#5CE4FF"/>
<stop offset="1"/>
</radialGradient>
<radialGradient id="paint25_radial_348_4506" cx="0" cy="0" r="1" gradientUnits="userSpaceOnUse" gradientTransform="translate(88.789 59.7175) scale(31.1158 29.0402)">
<stop stop-color="#5CE4FF"/>
<stop offset="1"/>
</radialGradient>
<radialGradient id="paint26_radial_348_4506" cx="0" cy="0" r="1" gradientUnits="userSpaceOnUse" gradientTransform="translate(50.845 88.8512) scale(37.173 34.6932)">
<stop offset="0.63" stop-color="white"/>
<stop offset="0.68" stop-color="#FAFBFD"/>
<stop offset="0.74" stop-color="#EBF0F8"/>
<stop offset="0.8" stop-color="#D3DFF0"/>
<stop offset="0.86" stop-color="#B2C7E4"/>
<stop offset="0.93" stop-color="#87A8D6"/>
<stop offset="1" stop-color="#5282C4"/>
</radialGradient>
<radialGradient id="paint27_radial_348_4506" cx="0" cy="0" r="1" gradientUnits="userSpaceOnUse" gradientTransform="translate(48.0618 5.58805) scale(40.108 37.4324)">
<stop stop-color="#FFE4A1"/>
<stop offset="1" stop-color="#8D4F3B"/>
</radialGradient>
<radialGradient id="paint28_radial_348_4506" cx="0" cy="0" r="1" gradientUnits="userSpaceOnUse" gradientTransform="translate(128.722 -14.3342) scale(90.5411 84.5013)">
<stop stop-color="#AE6C5A"/>
<stop offset="1" stop-color="#622A19"/>
</radialGradient>
<radialGradient id="paint29_radial_348_4506" cx="0" cy="0" r="1" gradientUnits="userSpaceOnUse" gradientTransform="translate(55.0782 23.6333) scale(38.506 35.9373)">
<stop stop-color="#87422E"/>
<stop offset="1" stop-color="#41160C"/>
</radialGradient>
<radialGradient id="paint30_radial_348_4506" cx="0" cy="0" r="1" gradientUnits="userSpaceOnUse" gradientTransform="translate(101.693 15.9668) scale(46.0365 42.9655)">
<stop stop-color="#87422E"/>
<stop offset="1" stop-color="#41160C"/>
</radialGradient>
<radialGradient id="paint31_radial_348_4506" cx="0" cy="0" r="1" gradientUnits="userSpaceOnUse" gradientTransform="translate(12.1517 53.6392) scale(40.5056 37.8035)">
<stop stop-color="#AE6C5A"/>
<stop offset="1" stop-color="#622A19"/>
</radialGradient>
<radialGradient id="paint32_radial_348_4506" cx="0" cy="0" r="1" gradientUnits="userSpaceOnUse" gradientTransform="translate(44.6244 49.1866) scale(36.7169 34.2676)">
<stop stop-color="#87422E"/>
<stop offset="1" stop-color="#41160C"/>
</radialGradient>
<radialGradient id="paint33_radial_348_4506" cx="0" cy="0" r="1" gradientUnits="userSpaceOnUse" gradientTransform="translate(99.9448 61.3602) scale(53.8536 50.261)">
<stop stop-color="#AE6C5A"/>
<stop offset="1" stop-color="#622A19"/>
</radialGradient>
<radialGradient id="paint34_radial_348_4506" cx="0" cy="0" r="1" gradientUnits="userSpaceOnUse" gradientTransform="translate(154.605 47.3034) scale(57.9402 54.0751)">
<stop stop-color="#A1553E"/>
<stop offset="1" stop-color="#4B1E13"/>
</radialGradient>
<radialGradient id="paint35_radial_348_4506" cx="0" cy="0" r="1" gradientUnits="userSpaceOnUse" gradientTransform="translate(62.8133 72.7048) scale(48.8429 45.5846)">
<stop stop-color="#AE6C5A"/>
<stop offset="1" stop-color="#622A19"/>
</radialGradient>
<radialGradient id="paint36_radial_348_4506" cx="0" cy="0" r="1" gradientUnits="userSpaceOnUse" gradientTransform="translate(63.971 53.3937) scale(48.8955 45.6337)">
<stop stop-color="#87422E"/>
<stop offset="1" stop-color="#41160C"/>
</radialGradient>
<radialGradient id="paint37_radial_348_4506" cx="0" cy="0" r="1" gradientUnits="userSpaceOnUse" gradientTransform="translate(87.1526 80.1859) scale(33.3668 31.141)">
<stop stop-color="#EEC2A3"/>
<stop offset="1" stop-color="#8D4F3B"/>
</radialGradient>
<radialGradient id="paint38_radial_348_4506" cx="0" cy="0" r="1" gradientUnits="userSpaceOnUse" gradientTransform="translate(96.1447 97.9688) scale(34.5186 32.2159)">
<stop stop-color="#763827"/>
<stop offset="1" stop-color="#3F180F"/>
</radialGradient>
<radialGradient id="paint39_radial_348_4506" cx="0" cy="0" r="1" gradientUnits="userSpaceOnUse" gradientTransform="translate(62.9118 4.13117) scale(21.1064 19.6984)">
<stop stop-color="#BE7257"/>
<stop offset="1" stop-color="#080000"/>
</radialGradient>
<radialGradient id="paint40_radial_348_4506" cx="0" cy="0" r="1" gradientUnits="userSpaceOnUse" gradientTransform="translate(102.365 67.6572) scale(33.5597 31.321)">
<stop stop-color="#BE7257"/>
<stop offset="1" stop-color="#080000"/>
</radialGradient>
<radialGradient id="paint41_radial_348_4506" cx="0" cy="0" r="1" gradientUnits="userSpaceOnUse" gradientTransform="translate(25.0141 25.8484) scale(25.9649 24.2329)">
<stop stop-color="#BE7257"/>
<stop offset="1" stop-color="#080000"/>
</radialGradient>
<radialGradient id="paint42_radial_348_4506" cx="0" cy="0" r="1" gradientUnits="userSpaceOnUse" gradientTransform="translate(25.6222 66.7018) scale(23.7783 22.1921)">
<stop stop-color="#BE7257"/>
<stop offset="1" stop-color="#080000"/>
</radialGradient>
<radialGradient id="paint43_radial_348_4506" cx="0" cy="0" r="1" gradientUnits="userSpaceOnUse" gradientTransform="translate(24.1844 70.9368) scale(18.9139 17.6522)">
<stop stop-color="#BE7257"/>
<stop offset="1" stop-color="#080000"/>
</radialGradient>
<radialGradient id="paint44_radial_348_4506" cx="0" cy="0" r="1" gradientUnits="userSpaceOnUse" gradientTransform="translate(32.9841 65.3814) scale(19.3758 18.0833)">
<stop stop-color="#BE7257"/>
<stop offset="1" stop-color="#080000"/>
</radialGradient>
<radialGradient id="paint45_radial_348_4506" cx="0" cy="0" r="1" gradientUnits="userSpaceOnUse" gradientTransform="translate(30.4923 53.8247) scale(31.759 29.6404)">
<stop stop-color="#BE7257"/>
<stop offset="1" stop-color="#080000"/>
</radialGradient>
<radialGradient id="paint46_radial_348_4506" cx="0" cy="0" r="1" gradientUnits="userSpaceOnUse" gradientTransform="translate(45.1621 25.9685) scale(22.8311 21.3081)">
<stop stop-color="#BE7257"/>
<stop offset="1" stop-color="#080000"/>
</radialGradient>
<radialGradient id="paint47_radial_348_4506" cx="0" cy="0" r="1" gradientUnits="userSpaceOnUse" gradientTransform="translate(46.8463 -9.99636) scale(28.7538 26.8357)">
<stop stop-color="#BE7257"/>
<stop offset="1" stop-color="#080000"/>
</radialGradient>
<radialGradient id="paint48_radial_348_4506" cx="0" cy="0" r="1" gradientUnits="userSpaceOnUse" gradientTransform="translate(42.8589 19.317) scale(28.3679 26.4755)">
<stop stop-color="#BE7257"/>
<stop offset="1" stop-color="#080000"/>
</radialGradient>
<radialGradient id="paint49_radial_348_4506" cx="0" cy="0" r="1" gradientUnits="userSpaceOnUse" gradientTransform="translate(29.1012 85.4396) scale(20.0365 18.6998)">
<stop stop-color="#BE7257"/>
<stop offset="1" stop-color="#080000"/>
</radialGradient>
<radialGradient id="paint50_radial_348_4506" cx="0" cy="0" r="1" gradientUnits="userSpaceOnUse" gradientTransform="translate(49.8163 126.359) scale(54.7421 51.0903)">
<stop stop-color="#BE7257"/>
<stop offset="1" stop-color="#080000"/>
</radialGradient>
<radialGradient id="paint51_radial_348_4506" cx="0" cy="0" r="1" gradientUnits="userSpaceOnUse" gradientTransform="translate(62.9238 105.363) scale(22.609 21.1008)">
<stop stop-color="#BE7257"/>
<stop offset="1" stop-color="#080000"/>
</radialGradient>
<radialGradient id="paint52_radial_348_4506" cx="0" cy="0" r="1" gradientUnits="userSpaceOnUse" gradientTransform="translate(91.8125 100.086) scale(32.443 30.2788)">
<stop stop-color="#995137"/>
<stop offset="1" stop-color="#080000"/>
</radialGradient>
<radialGradient id="paint53_radial_348_4506" cx="0" cy="0" r="1" gradientUnits="userSpaceOnUse" gradientTransform="translate(94.0048 107.937) scale(38.9796 36.3793)">
<stop stop-color="#995137"/>
<stop offset="1" stop-color="#080000"/>
</radialGradient>
<radialGradient id="paint54_radial_348_4506" cx="0" cy="0" r="1" gradientUnits="userSpaceOnUse" gradientTransform="translate(118.578 70.6526) scale(24.322 22.6996)">
<stop stop-color="#995137"/>
<stop offset="1" stop-color="#080000"/>
</radialGradient>
<radialGradient id="paint55_radial_348_4506" cx="0" cy="0" r="1" gradientUnits="userSpaceOnUse" gradientTransform="translate(64.5669 -8.00404) scale(18.0837 16.8773)">
<stop stop-color="#BE7257"/>
<stop offset="1" stop-color="#080000"/>
</radialGradient>
<radialGradient id="paint56_radial_348_4506" cx="0" cy="0" r="1" gradientUnits="userSpaceOnUse" gradientTransform="translate(88.1171 28.2435) scale(29.2917 27.3377)">
<stop stop-color="#BE7257"/>
<stop offset="1" stop-color="#080000"/>
</radialGradient>
<radialGradient id="paint57_radial_348_4506" cx="0" cy="0" r="1" gradientUnits="userSpaceOnUse" gradientTransform="translate(87.2639 -4.09745) scale(30.8001 28.7455)">
<stop stop-color="#BE7257"/>
<stop offset="1" stop-color="#080000"/>
</radialGradient>
<radialGradient id="paint58_radial_348_4506" cx="0" cy="0" r="1" gradientUnits="userSpaceOnUse" gradientTransform="translate(121.502 46.2566) scale(28.1048 26.23)">
<stop stop-color="#BE7257"/>
<stop offset="1" stop-color="#080000"/>
</radialGradient>
<radialGradient id="paint59_radial_348_4506" cx="0" cy="0" r="1" gradientUnits="userSpaceOnUse" gradientTransform="translate(113.964 57.049) scale(22.2056 20.7243)">
<stop stop-color="#BE7257"/>
<stop offset="1" stop-color="#080000"/>
</radialGradient>
<radialGradient id="paint60_radial_348_4506" cx="0" cy="0" r="1" gradientUnits="userSpaceOnUse" gradientTransform="translate(117.847 50.8999) scale(21.4397 20.0094)">
<stop stop-color="#BE7257"/>
<stop offset="1" stop-color="#080000"/>
</radialGradient>
</defs>
</svg>
