<svg width="126" height="126" viewBox="0 0 126 126" fill="none" xmlns="http://www.w3.org/2000/svg">
<g clip-path="url(#clip0_348_4344)">
<path fill-rule="evenodd" clip-rule="evenodd" d="M62.5823 86.6303L97.689 67.541V29.3623L62.5823 10.2729L27.4707 29.3623V67.541L62.5823 86.6303Z" fill="#00FFC3"/>
<path fill-rule="evenodd" clip-rule="evenodd" d="M62.5823 10.2729L97.689 29.3623V67.541L62.5823 86.6303L27.4707 67.541V29.3623L62.5823 10.2729Z" fill="#0068FF"/>
<path fill-rule="evenodd" clip-rule="evenodd" d="M41.906 37.2128L49.317 35.1246L56.958 30.9711L62.5823 25.9694V10.2729L45.0241 19.8153L27.4707 29.3623L41.906 37.2128Z" fill="url(#paint0_radial_348_4344)"/>
<path fill-rule="evenodd" clip-rule="evenodd" d="M62.582 25.9694L68.2015 30.9711L75.8474 35.1246L83.2535 37.2128L97.6888 29.3623L80.1354 19.8153L62.582 10.2729V25.9694Z" fill="url(#paint1_radial_348_4344)"/>
<path fill-rule="evenodd" clip-rule="evenodd" d="M83.2525 37.2127L81.4658 44.2981V52.6096L83.2525 59.6949L97.6877 67.5409V48.4515V29.3622L83.2525 37.2127Z" fill="url(#paint2_radial_348_4344)"/>
<path fill-rule="evenodd" clip-rule="evenodd" d="M83.2535 59.6951L75.8474 61.7787L68.2015 65.9322L62.582 70.9339V86.6304L80.1354 77.088L97.6888 67.541L83.2535 59.6951Z" fill="url(#paint3_radial_348_4344)"/>
<path fill-rule="evenodd" clip-rule="evenodd" d="M62.5823 70.9339L56.958 65.9322L49.317 61.7787L41.906 59.6951L27.4707 67.541L45.0241 77.088L62.5823 86.6304V70.9339Z" fill="url(#paint4_radial_348_4344)"/>
<path fill-rule="evenodd" clip-rule="evenodd" d="M41.906 59.6949L43.6926 52.6096V44.2981L41.906 37.2127L27.4707 29.3622V48.4515V67.5409L41.906 59.6949Z" fill="url(#paint5_radial_348_4344)"/>
<path style="mix-blend-mode:multiply" fill-rule="evenodd" clip-rule="evenodd" d="M84.603 47.0081C84.603 43.6061 97.3544 31.8883 97.6873 41.08V29.3622L86.6834 35.3456L84.5981 43.6061V47.0081H84.603Z" fill="url(#paint6_radial_348_4344)"/>
<path style="mix-blend-mode:screen" fill-rule="evenodd" clip-rule="evenodd" d="M43.3545 20.7282C46.3551 20.6728 48.8516 29.1961 48.3816 32.2247L56.0227 28.0714C54.1234 26.2782 52.934 15.5238 58.3918 12.5552L43.3496 20.7328L43.3545 20.7282Z" fill="url(#paint7_radial_348_4344)"/>
<path style="mix-blend-mode:screen" fill-rule="evenodd" clip-rule="evenodd" d="M92.6217 70.2977C87.9617 69.9842 85.0491 69.5417 80.8297 63.208L78.0493 63.9916L72.3369 67.0986C75.3082 69.03 80.9716 74.6216 79.2633 77.5625L92.6266 70.2977H92.6217Z" fill="url(#paint8_radial_348_4344)"/>
<path fill-rule="evenodd" clip-rule="evenodd" d="M69.1354 28.0668L78.0492 32.9118L84.6035 43.6066V53.2965L78.0492 63.9913L69.1354 68.8363H56.0218L47.113 63.9913L40.5537 53.2965V43.6066L47.113 32.9118L56.0218 28.0668H69.1354Z" fill="url(#paint9_radial_348_4344)"/>
<path fill-rule="evenodd" clip-rule="evenodd" d="M56.0225 28.067L62.5817 22.2358L69.1361 28.067H56.0225Z" fill="url(#paint10_radial_348_4344)"/>
<path fill-rule="evenodd" clip-rule="evenodd" d="M78.0488 32.9116L86.6884 35.3455L84.6032 43.6061L78.0488 32.9116Z" fill="url(#paint11_radial_348_4344)"/>
<path fill-rule="evenodd" clip-rule="evenodd" d="M84.6032 53.2964L86.6884 61.5616L78.0488 63.9909L84.6032 53.2964Z" fill="url(#paint12_radial_348_4344)"/>
<path fill-rule="evenodd" clip-rule="evenodd" d="M56.0225 68.8362L62.5817 74.6675L69.1361 68.8362H56.0225Z" fill="url(#paint13_radial_348_4344)"/>
<path fill-rule="evenodd" clip-rule="evenodd" d="M40.554 53.2964L38.4736 61.5616L47.1133 63.9909L40.554 53.2964Z" fill="url(#paint14_radial_348_4344)"/>
<path fill-rule="evenodd" clip-rule="evenodd" d="M47.1133 32.9116L38.4736 35.3455L40.554 43.6061L47.1133 32.9116Z" fill="url(#paint15_radial_348_4344)"/>
<path style="mix-blend-mode:screen" fill-rule="evenodd" clip-rule="evenodd" d="M43.8333 58.6433L62.5811 48.4513L43.8333 38.2592L40.5537 43.6065V53.2961L43.8333 58.6433Z" fill="url(#paint16_radial_348_4344)"/>
<path style="mix-blend-mode:screen" fill-rule="evenodd" clip-rule="evenodd" d="M43.833 38.2589L62.5807 48.4509V28.0668H56.0215L47.1126 32.9116L43.833 38.2589Z" fill="url(#paint17_radial_348_4344)"/>
<path style="mix-blend-mode:screen" opacity="0.5" fill-rule="evenodd" clip-rule="evenodd" d="M62.582 28.0668V48.4509L81.3249 38.2589L78.0501 32.9116L69.1364 28.0668H62.582Z" fill="url(#paint18_radial_348_4344)"/>
<path style="mix-blend-mode:screen" opacity="0.75" fill-rule="evenodd" clip-rule="evenodd" d="M81.3249 38.2592L62.582 48.4513L81.3249 58.6433L84.6045 53.2961V43.6065L81.3249 38.2592Z" fill="url(#paint19_radial_348_4344)"/>
<path style="mix-blend-mode:screen" opacity="0.5" fill-rule="evenodd" clip-rule="evenodd" d="M81.3249 58.6437L62.582 48.4517V68.8357H69.1364L78.0501 63.991L81.3249 58.6437Z" fill="url(#paint20_radial_348_4344)"/>
<path style="mix-blend-mode:screen" opacity="0.5" fill-rule="evenodd" clip-rule="evenodd" d="M62.5807 68.8357V48.4517L43.833 58.6437L47.1126 63.991L56.0215 68.8357H62.5807Z" fill="url(#paint21_radial_348_4344)"/>
<path style="mix-blend-mode:screen" fill-rule="evenodd" clip-rule="evenodd" d="M51.5674 66.4164L56.0169 69.2329C57.2309 70.4637 60.7602 73.6536 61.3671 74.995C62.1454 76.719 62.4147 82.1631 62.5762 84.869C62.7475 82.0017 62.9678 76.8804 63.7216 74.9581C63.8636 74.594 64.0692 74.2482 64.3384 73.9117L66.6684 71.0261L64.0398 72.538C63.5992 72.7916 63.1097 72.8884 62.6349 72.8423C61.3916 72.7178 58.7434 70.6573 58.1707 69.4173L61.2546 68.8411L56.712 68.5092L51.5576 66.4164H51.5674Z" fill="url(#paint22_radial_348_4344)"/>
<path style="mix-blend-mode:screen" fill-rule="evenodd" clip-rule="evenodd" d="M51.5674 30.4912L56.0169 27.6747C57.2309 26.4439 60.7602 23.254 61.3671 21.9126C62.1454 20.1885 62.4147 14.1499 62.5762 11.4394C62.7475 14.3066 62.9678 20.0226 63.7216 21.9448C63.8636 22.309 64.0692 22.6547 64.3384 22.9912L66.6684 25.8769L64.0398 24.3649C63.5992 24.1114 63.1048 23.9823 62.6349 24.0607C61.049 24.3327 58.67 26.1811 58.1707 27.4857L61.2546 28.0619L56.712 28.3938L51.5576 30.4866L51.5674 30.4912Z" fill="url(#paint23_radial_348_4344)"/>
<path style="mix-blend-mode:screen" fill-rule="evenodd" clip-rule="evenodd" d="M51.5676 30.4916L46.7509 32.7135C45.0132 33.0869 40.3189 34.373 38.7721 34.1978C36.7946 33.9719 31.6499 31.4643 29.0752 30.2381C31.6255 31.8146 36.2365 34.5574 37.6267 36.1339C38.4197 37.0328 39.2567 39.3607 39.7707 40.5039C39.7413 39.3745 39.4281 37.2033 40.1182 36.3091C40.8574 35.3549 43.6133 34.267 45.4978 34.3776L44.4846 37.1849L47.0593 33.6447L51.5578 30.487L51.5676 30.4916Z" fill="url(#paint24_radial_348_4344)"/>
<path style="mix-blend-mode:screen" fill-rule="evenodd" clip-rule="evenodd" d="M84.6034 48.4517L84.9657 53.4901C85.4894 55.0943 86.6593 59.5657 87.5894 60.7365C88.7838 62.2347 92.9738 64.8023 95.3822 66.2866C92.6606 64.9959 88.5243 62.986 86.3803 62.6403C85.9691 62.5758 85.5531 62.5666 85.1076 62.6219L81.2896 63.0782L83.9916 61.6907C84.4419 61.4602 84.7797 61.1053 84.9706 60.695C85.4796 59.6164 84.9412 56.5694 84.0552 55.3432L81.9797 57.5697L83.9475 53.7021L84.5986 48.4517H84.6034Z" fill="url(#paint25_radial_348_4344)"/>
<path style="mix-blend-mode:multiply" fill-rule="evenodd" clip-rule="evenodd" d="M50.2421 65.6921C47.1142 63.9912 29.9622 68.5317 38.2494 73.3995L27.4707 67.5406L38.4746 61.5573L47.1142 63.9912L50.2421 65.6921Z" fill="url(#paint26_radial_348_4344)"/>
<path fill-rule="evenodd" clip-rule="evenodd" d="M65.543 84.9566C66.752 84.8875 68.9694 85.5881 70.1932 86.3303C71.5491 87.4735 73.2525 89.7737 72.7924 90.6496C70.8246 89.7599 68.8569 88.8702 66.8891 87.9806C66.4436 86.971 65.9933 85.9615 65.5479 84.9566H65.543Z" fill="#1B2136"/>
<path fill-rule="evenodd" clip-rule="evenodd" d="M48.0088 88.3355L54.6219 86.0537L56.5114 83.3248L51.4548 84.4449L48.0088 88.3355Z" fill="#1B2136"/>
<path fill-rule="evenodd" clip-rule="evenodd" d="M94.3496 69.2971C93.0525 71.247 94.8489 77.7651 95.7839 78.1523C96.0971 76.0641 96.4104 73.9805 96.7237 71.8923C95.9356 71.0257 95.1426 70.1591 94.3545 69.2925L94.3496 69.2971Z" fill="#1B2136"/>
<path fill-rule="evenodd" clip-rule="evenodd" d="M97.6387 59.0126L101.09 57.1226L106.499 57.2655L101.227 59.492L97.6387 59.0126Z" fill="#1B2136"/>
<path fill-rule="evenodd" clip-rule="evenodd" d="M97.6387 32.6214L101.085 32.9118L106.499 31.0818L101.168 30.6162L97.6387 32.6214Z" fill="#1B2136"/>
<path fill-rule="evenodd" clip-rule="evenodd" d="M86.0137 23.0048L88.9115 20.7046L91.3932 16.2931L86.3955 19.506L86.0137 23.0048Z" fill="#1B2136"/>
<path fill-rule="evenodd" clip-rule="evenodd" d="M68.9062 13.7025L70.83 10.8445L76.2438 8.0556L73.5467 12.55L68.9062 13.7025Z" fill="#1B2136"/>
<path fill-rule="evenodd" clip-rule="evenodd" d="M63.0172 0.864594L61.5977 6.99087L62.7578 10.3605L64.4221 7.37347L63.0172 0.864594Z" fill="#1B2136"/>
<path fill-rule="evenodd" clip-rule="evenodd" d="M56.5697 13.4766L54.9495 10.697L48.1602 8.41519L51.0384 12.7483L56.5697 13.4766Z" fill="#1B2136"/>
<path fill-rule="evenodd" clip-rule="evenodd" d="M29.3743 68.5691L26.9317 71.1321L25.7275 76.2212L29.9715 72.7593L29.3743 68.5691Z" fill="#1B2136"/>
<path fill-rule="evenodd" clip-rule="evenodd" d="M18.5605 59.8429C19.1675 59.4004 25.2569 59.1515 27.4204 58.9717C26.9407 59.5618 24.8702 60.7234 23.8912 61.0507C22.1143 60.6496 20.3374 60.2486 18.5605 59.8475V59.8429Z" fill="#1B2136"/>
<path fill-rule="evenodd" clip-rule="evenodd" d="M18.5605 37.7245L23.8569 37.6877L27.4204 35.9775L23.9401 35.6225L18.5605 37.7245Z" fill="#1B2136"/>
<path fill-rule="evenodd" clip-rule="evenodd" d="M29.7022 18.4506L30.2847 24.0606L32.2916 26.6742C32.3357 26.6604 32.3259 22.8943 32.3259 22.8943L29.6973 18.4506H29.7022Z" fill="#1B2136"/>
<path fill-rule="evenodd" clip-rule="evenodd" d="M63.0172 0.864594C62.9291 4.03145 62.8459 7.19369 62.7578 10.3606L68.6073 13.5412C69.9926 12.9835 71.2604 12.398 72.3177 11.7481C73.6687 10.4527 74.8582 9.15742 75.8861 7.86671C74.7994 7.15682 73.4925 6.387 72.3471 5.76469C71.5639 5.3406 70.8394 5.06863 69.9779 4.81049C69.5765 4.69064 69.5325 4.59383 69.322 4.28959C68.95 3.81479 67.5353 2.98966 66.9234 2.85137C66.3752 2.72691 66.522 2.73152 66.1256 2.40884C65.8025 2.14609 65.1515 1.85107 64.755 1.65746C64.1871 1.37627 63.6144 1.1043 63.0172 0.869204V0.864594Z" fill="#434955"/>
<path fill-rule="evenodd" clip-rule="evenodd" d="M91.3937 16.2931C90.1504 17.5239 88.7798 18.7224 87.3064 19.8933C86.9589 21.0273 86.4939 22.023 86.0142 23.0048L68.9062 13.7025C70.0321 13.1032 71.2069 12.4993 72.5285 11.8724C73.6935 10.5725 74.9173 9.29561 76.2438 8.0556C77.3109 8.53962 78.6326 9.16193 79.6262 9.74275C79.9836 9.95018 80.1108 10.047 80.3996 10.3236C80.6199 10.5356 81.5793 10.8399 81.9465 11.0012C82.6709 11.3147 83.6499 11.7848 84.1051 12.421C84.3841 12.8451 84.2128 12.7068 84.8296 12.799C85.7792 12.9373 86.6652 13.5273 87.4827 13.9837C88.6721 14.6475 90.0232 15.385 91.149 16.1226C91.2322 16.1779 91.3105 16.2332 91.3888 16.2885L91.3937 16.2931Z" fill="#434955"/>
<path fill-rule="evenodd" clip-rule="evenodd" d="M97.6394 32.6208V29.3249L86.3516 23.1894C86.7285 22.1246 87.1054 21.0597 87.4823 19.9903C88.8725 18.8056 90.2577 17.6163 91.6479 16.4316C92.6269 17.017 93.6157 17.584 94.5898 18.1695C95.0205 18.4276 95.1625 18.5613 95.4562 18.9485C95.6765 19.2389 95.794 19.1605 96.1513 19.2251C96.7289 19.3265 97.5366 19.8474 98.0701 20.1424C98.5253 20.3959 98.8582 20.5204 99.1911 20.9307C99.4407 21.2395 99.568 21.1243 99.9253 21.2119C100.253 21.2948 100.914 21.6867 101.237 21.8618C102.95 22.7653 104.678 23.6412 106.431 24.4709C106.45 25.3744 106.431 26.2226 106.416 27.0938C106.411 27.4073 106.387 27.5502 106.259 27.8452C106.181 28.0296 106.279 28.1264 106.338 28.3154C106.45 28.6749 106.431 29.3526 106.445 29.7536C106.46 30.1961 106.48 30.6341 106.499 31.072C104.713 31.178 102.931 31.2241 101.144 31.2379C100.004 31.8372 98.8435 32.3212 97.6394 32.6116V32.6208Z" fill="#434955"/>
<path fill-rule="evenodd" clip-rule="evenodd" d="M106.499 56.9706C104.795 57.4915 102.979 57.9847 101.143 58.4734C99.9736 58.6025 98.8086 58.6578 97.6387 58.6624V33.1884C98.7743 32.5246 99.9442 31.953 101.143 31.4413C102.979 31.3353 104.761 31.3214 106.499 31.3721C106.641 32.437 106.645 33.8384 106.675 34.9217C106.709 36.3185 106.685 36.8117 106.396 38.1901C106.303 38.6419 106.102 39.3426 106.396 39.7482C106.616 40.0617 106.636 40.0018 106.704 40.4443C106.831 41.2787 106.768 42.5049 106.768 43.3808C106.768 45.0588 106.792 46.7782 106.758 48.4516C106.743 49.1016 106.694 49.3275 106.557 49.9452C106.503 50.1941 106.68 51.0515 106.699 51.4157C106.753 52.3561 106.68 53.5593 106.645 54.5228C106.636 54.7763 106.626 55.0344 106.616 55.288C106.596 55.8135 106.582 56.4589 106.503 56.9798L106.499 56.9706Z" fill="#434955"/>
<path fill-rule="evenodd" clip-rule="evenodd" d="M94.3496 69.2968C94.7902 70.3294 95.2307 71.3573 95.6761 72.3899C95.7104 74.3121 95.7496 76.2344 95.7838 78.1566C96.939 77.6081 98.2019 76.995 99.3131 76.3865C100.057 75.9762 100.253 75.7135 100.87 75.2341C101.389 74.8284 101.423 75.1096 102.025 74.8837C102.612 74.6625 103.719 73.9848 104.306 73.6437C105.045 73.215 105.779 72.7771 106.509 72.33C106.612 69.7578 106.7 67.1072 106.68 64.5304C106.68 64.1524 106.685 63.8666 106.474 63.5393C106.254 63.1982 106.563 62.2071 106.616 61.7553C106.695 61.0316 106.616 59.8654 106.592 59.1048C106.567 58.4917 106.543 57.8832 106.514 57.2701C104.751 57.6389 102.955 58.1413 101.159 58.6668C99.9544 58.7314 98.7942 58.8605 97.6537 59.0172V67.5082L94.3643 69.2968H94.3496Z" fill="#434955"/>
<path fill-rule="evenodd" clip-rule="evenodd" d="M66.2422 84.5739C66.5604 85.4774 67.5296 86.6805 68.1463 87.3535C69.8204 88.423 71.5385 89.4463 73.4427 90.2991C74.5489 89.9257 76.037 89.1513 77.0796 88.6212C78.5579 87.8744 80.1096 87.0769 81.5488 86.2748C82.0285 86.0075 82.2145 85.8277 82.6354 85.5189C83.0466 85.2146 83.7368 85.0533 84.2508 84.7951C85.2298 84.3019 86.2724 83.698 87.222 83.1495C87.8437 82.7899 88.1912 82.4903 88.7493 82.0892C89.2583 81.7251 89.4884 81.8081 90.0366 81.5453C90.7709 81.1904 91.6667 80.6326 92.3813 80.2085C93.3016 79.6645 94.2169 79.1114 95.1225 78.5444C95.2302 78.4752 95.3379 78.4107 95.4407 78.3416C95.4603 76.3917 95.4798 74.4372 95.4945 72.4873C94.9414 71.5146 94.3932 70.5466 93.84 69.5739L66.2471 84.5785L66.2422 84.5739Z" fill="#434955"/>
<path fill-rule="evenodd" clip-rule="evenodd" d="M25.7275 76.221C26.78 74.7551 27.8275 73.2339 28.9484 72.146C28.9876 70.8277 29.11 69.6107 29.3792 68.5643L56.5169 83.3199C55.3372 84.1036 54.0107 84.6383 52.5765 84.9886C50.9366 85.9428 49.429 87.0722 48.0192 88.3353C44.5928 86.5836 41.1418 84.8135 37.7741 82.965C37.3188 82.716 37.1769 82.6331 36.8881 82.2182C36.6727 81.914 35.4294 81.6051 35.0084 81.4253C34.0686 81.0197 33.0406 80.3882 32.1399 79.8811C29.9911 78.6826 27.8568 77.461 25.7373 76.221H25.7275Z" fill="#434955"/>
<path fill-rule="evenodd" clip-rule="evenodd" d="M27.4204 59.3401C26.2701 59.5245 25.1002 59.9394 23.9205 60.4925C22.0458 60.6078 20.1514 60.5294 18.5605 59.8425C18.6193 61.2439 18.6291 62.6314 18.6731 64.0281C18.6927 64.6966 18.7857 65.0054 18.8885 65.6231C18.9521 66.0103 18.7759 66.1993 18.7172 66.605C18.6291 67.2319 18.6584 68.2045 18.6487 68.8637C18.6291 70.0161 18.5948 71.1685 18.5605 72.321C20.9542 73.4826 23.3185 74.7641 25.6485 76.1747C26.6666 74.7872 27.6848 73.3996 28.7029 72.0121C28.8204 70.8044 28.9379 69.6013 29.0603 68.3935L27.4253 67.5038V59.3355L27.4204 59.3401Z" fill="#434955"/>
<path fill-rule="evenodd" clip-rule="evenodd" d="M32.0863 26.7898C31.7779 25.0427 30.3927 19.6401 29.3892 18.6214C28.1557 19.2668 26.8927 19.9628 25.6837 20.6451C24.969 21.0507 24.8026 21.2351 24.2103 21.7652C23.7257 22.1985 23.8334 21.9173 23.2852 22.0602C22.8103 22.1847 21.4887 22.9407 20.8426 23.3002C20.7936 24.4573 19.4034 26.4763 18.6398 27.283C18.6643 30.0995 18.6154 34.1699 18.5664 37.7239C20.5097 37.157 22.3551 36.5669 23.9362 35.9123C24.9054 36.046 26.134 36.0322 27.4263 35.9769V29.3251L32.0912 26.7898H32.0863Z" fill="#434955"/>
<path fill-rule="evenodd" clip-rule="evenodd" d="M48.1611 8.41519C49.0569 9.02367 51.0785 10.7753 52.2043 12.0568C53.898 12.4348 55.3322 12.9142 56.5706 13.4766L32.2965 26.6742C32.0322 25.5448 31.8266 24.3878 31.8266 23.1385C30.9259 21.668 30.084 19.7089 29.7021 18.4505C30.7497 17.6899 32.1692 16.8878 33.3 16.2286C34.5384 15.5095 35.5125 14.878 36.8831 14.4078C37.2208 14.2925 38.3418 13.9606 38.4984 13.6702C38.7921 13.1125 39.3012 12.8635 39.8592 12.5501C40.8969 11.9739 42.0277 11.3331 43.0899 10.8122C43.4228 10.6509 43.7703 10.4988 44.1423 10.4296C44.4115 10.3789 44.6269 10.1346 44.8423 9.98709C45.2437 9.7059 45.6695 9.49847 46.115 9.28181C46.58 9.05594 47.6667 8.52121 48.1611 8.41519Z" fill="#434955"/>
<path fill-rule="evenodd" clip-rule="evenodd" d="M62.5331 0.601472C62.9981 1.62943 62.7289 8.24434 62.5331 10.2357L56.9185 13.2873C55.6605 12.9001 54.1823 12.4207 52.7774 11.7385C51.1523 10.7105 49.7621 9.50739 48.4307 8.26277C49.0621 7.77415 50.1684 7.16567 50.883 6.76002C52.5375 5.81503 54.2655 4.86082 55.9542 3.97115C56.5367 3.66231 56.7717 3.59777 57.408 3.43643C57.7947 3.33963 57.8388 3.13219 58.1374 2.89249C58.6416 2.48683 59.9681 1.85531 60.6142 1.52341C61.1723 1.24222 61.9506 0.818128 62.5282 0.596863L62.5331 0.601472Z" fill="#434955"/>
<path fill-rule="evenodd" clip-rule="evenodd" d="M23.9315 27.4301C26.4818 26.2638 29.0614 24.8763 31.2837 23.4335C30.7208 21.4098 29.9866 19.2341 29.3845 18.6256C28.1509 19.2709 26.888 19.967 25.679 20.6492C24.9643 21.0549 24.7979 21.2393 24.2056 21.7694C23.721 22.2027 23.8287 21.9215 23.2804 22.0644C22.8056 22.1889 21.484 22.9449 20.8379 23.3044C20.8134 23.8576 20.4854 24.609 20.0645 25.3281L23.9364 27.4347L23.9315 27.4301Z" fill="url(#paint27_radial_348_4344)"/>
<path fill-rule="evenodd" clip-rule="evenodd" d="M29.7021 18.4505C30.084 19.7089 30.921 21.668 31.8266 23.1385C38.704 19.8288 46.1248 15.6754 52.2043 12.0568C51.0785 10.7707 49.0569 9.02367 48.1611 8.41519C47.6716 8.52121 46.58 9.05594 46.115 9.28181C45.6695 9.49847 45.2437 9.7059 44.8423 9.98709C44.6269 10.1392 44.4115 10.3835 44.1423 10.4296C43.7703 10.4988 43.4228 10.6463 43.0899 10.8122C42.0277 11.3331 40.8969 11.9739 39.8592 12.5501C39.3012 12.8635 38.7872 13.1125 38.4984 13.6702C38.3467 13.9606 37.2208 14.2925 36.8831 14.4078C35.5076 14.878 34.5384 15.5095 33.3 16.2286C32.1692 16.8878 30.7497 17.6899 29.7021 18.4505Z" fill="url(#paint28_radial_348_4344)"/>
<path fill-rule="evenodd" clip-rule="evenodd" d="M62.8613 6.6221C65.5878 7.89437 69.4304 9.91802 72.3086 11.7527C73.6694 10.4527 74.8638 9.15742 75.8868 7.8621C74.8002 7.15221 73.4932 6.38239 72.3478 5.76008C71.5646 5.33599 70.8401 5.06402 69.9786 4.80588C69.5772 4.68603 69.5332 4.58922 69.3227 4.28498C68.9507 3.81019 67.536 2.98505 66.9242 2.84676C66.3759 2.7223 66.5228 2.72691 66.1263 2.40423C65.8032 2.14148 65.1522 1.84646 64.7557 1.65285C64.1879 1.37166 63.6151 1.09969 63.018 0.864594C62.9641 2.78222 62.9103 4.69986 62.8613 6.6221Z" fill="url(#paint29_radial_348_4344)"/>
<path fill-rule="evenodd" clip-rule="evenodd" d="M76.2436 8.0556C74.9171 9.29561 73.6933 10.5725 72.5283 11.8724C75.1178 13.7347 84.5944 18.8238 87.3062 19.8979C88.7796 18.7224 90.1502 17.5239 91.3935 16.2885C91.3152 16.2286 91.232 16.1733 91.1537 16.1226C90.0229 15.3804 88.6719 14.6475 87.4873 13.9837C86.6699 13.5273 85.7839 12.9327 84.8343 12.799C84.2175 12.7114 84.3888 12.8451 84.1098 12.421C83.6546 11.7848 82.6805 11.3147 81.9511 11.0012C81.5791 10.8399 80.6197 10.5356 80.4043 10.3236C80.1204 10.047 79.9931 9.95018 79.6309 9.74275C78.6323 9.16193 77.3107 8.53962 76.2485 8.0556H76.2436Z" fill="url(#paint30_radial_348_4344)"/>
<path fill-rule="evenodd" clip-rule="evenodd" d="M91.6519 16.4316C90.2618 17.6163 88.8765 18.8056 87.4863 19.9903C92.2296 22.3228 96.7966 24.7844 101.148 27.4165L106.503 24.5032C104.682 23.6412 102.954 22.7653 101.241 21.8618C100.913 21.6867 100.252 21.2948 99.9293 21.2119C99.572 21.1243 99.4447 21.2395 99.1951 20.9307C98.8622 20.525 98.5294 20.3959 98.0741 20.1424C97.5406 19.8474 96.7378 19.3265 96.1553 19.2251C95.798 19.1605 95.6805 19.2389 95.4602 18.9485C95.1665 18.5613 95.0246 18.423 94.5938 18.1695C93.6197 17.584 92.626 17.017 91.6519 16.4316Z" fill="url(#paint31_radial_348_4344)"/>
<path fill-rule="evenodd" clip-rule="evenodd" d="M106.499 24.5084L101.144 27.4217C101.193 28.6986 101.193 29.9709 101.144 31.2478C102.931 31.234 104.712 31.1879 106.499 31.0818C106.48 30.6439 106.46 30.2014 106.445 29.7635C106.436 29.3624 106.455 28.6848 106.338 28.3252C106.279 28.1362 106.176 28.0394 106.259 27.8551C106.387 27.56 106.411 27.4171 106.416 27.1037C106.436 26.2324 106.45 25.3843 106.499 24.513V24.5084Z" fill="url(#paint32_radial_348_4344)"/>
<path fill-rule="evenodd" clip-rule="evenodd" d="M106.5 31.3674C104.762 31.3167 102.981 31.3305 101.145 31.4365C100.758 40.5087 100.753 49.5209 101.145 58.4686C102.981 57.98 104.797 57.4867 106.5 56.9658C106.578 56.4449 106.593 55.7995 106.613 55.274C106.622 55.0205 106.632 54.7623 106.642 54.5088C106.676 53.5453 106.75 52.3468 106.696 51.4017C106.676 51.0376 106.5 50.1801 106.554 49.9312C106.686 49.3089 106.74 49.0876 106.755 48.4376C106.789 46.7642 106.764 45.0448 106.764 43.3668C106.764 42.4909 106.833 41.2693 106.701 40.4303C106.632 39.9878 106.617 40.0523 106.392 39.7342C106.103 39.3286 106.299 38.6279 106.392 38.1761C106.681 36.7978 106.706 36.3045 106.671 34.9077C106.647 33.8244 106.642 32.423 106.495 31.3582L106.5 31.3674Z" fill="url(#paint33_radial_348_4344)"/>
<path fill-rule="evenodd" clip-rule="evenodd" d="M23.9313 35.9127C24.0537 33.0869 24.0537 30.2566 23.9313 27.4309L20.0594 25.3242C19.5993 26.1125 19.0315 26.8639 18.6301 27.2833C18.6545 30.0999 18.6056 34.1702 18.5566 37.7243C20.4999 37.1573 22.3453 36.5673 23.9264 35.9127H23.9313Z" fill="url(#paint34_radial_348_4344)"/>
<path fill-rule="evenodd" clip-rule="evenodd" d="M23.9205 60.4925C22.0849 60.1376 20.2297 60.1836 18.5605 59.8425C18.6193 61.2439 18.6291 62.6314 18.6731 64.0281C18.6927 64.6965 18.7857 65.0054 18.8885 65.6231C18.9521 66.0103 18.7759 66.1993 18.7172 66.6049C18.6291 67.2319 18.6584 68.2045 18.6487 68.8637C18.6291 70.0161 18.5948 71.1685 18.5605 72.321L23.9156 69.4076C23.7835 66.4482 23.759 63.4796 23.9156 60.4879L23.9205 60.4925Z" fill="url(#paint35_radial_348_4344)"/>
<path fill-rule="evenodd" clip-rule="evenodd" d="M23.9156 69.4127L18.5605 72.326C20.9542 73.4877 23.3185 74.7692 25.6485 76.1797C26.6666 74.7922 27.6848 73.4047 28.7029 72.0172C27.0582 71.2289 25.4527 70.3715 23.9205 69.4173L23.9156 69.4127Z" fill="url(#paint36_radial_348_4344)"/>
<path fill-rule="evenodd" clip-rule="evenodd" d="M28.9484 72.1464C27.8275 73.2343 26.7849 74.7509 25.7275 76.2214C27.8471 77.4614 29.9813 78.6829 32.1302 79.8814C33.0308 80.3839 34.0588 81.02 34.9986 81.4257C35.4196 81.6055 36.6629 81.9143 36.8783 82.2186C37.1671 82.6334 37.309 82.7164 37.7643 82.9653C41.132 84.8138 44.583 86.5839 48.0094 88.3356C49.4192 87.0772 50.9317 85.9432 52.5667 84.989C44.4214 81.0293 36.5699 76.7192 28.9435 72.1464H28.9484Z" fill="url(#paint37_radial_348_4344)"/>
<path fill-rule="evenodd" clip-rule="evenodd" d="M48.2676 88.4741C49.0949 87.6536 49.9808 86.8838 50.9794 86.2153C52.0808 86.0171 54.6702 84.897 54.9786 84.3484C55.566 84.0718 56.1338 83.7538 56.6723 83.4034L62.5266 86.5887L65.5371 84.9523C66.4573 85.6898 67.2503 86.5334 67.9454 87.4554C69.6635 88.4234 71.2935 89.4652 72.7865 90.6499C71.8026 91.2814 68.6747 93.2451 67.7398 93.5263C67.1867 93.6923 67.2503 93.6462 66.7804 94.0011C65.7916 94.7433 64.3378 95.3932 63.1875 95.928C62.9672 96.0294 62.7469 96.1308 62.5266 96.2276C60.7547 95.2042 58.9337 94.1532 57.1324 93.1852C56.5842 92.8902 56.1975 92.7381 55.6345 92.5168C55.2723 92.3739 55.0324 92.0927 54.68 91.8714C53.9898 91.4335 53.0549 90.9725 52.3108 90.5807C50.9647 89.8708 49.6137 89.1656 48.2578 88.4741H48.2676Z" fill="#434955"/>
<path fill-rule="evenodd" clip-rule="evenodd" d="M62.5332 90.406V96.228C62.7535 96.1266 62.9737 96.0298 63.194 95.9284C64.3443 95.3937 65.7981 94.7483 66.7869 94.0016C67.2568 93.6466 67.1932 93.6927 67.7463 93.5268C68.6862 93.2456 71.8092 91.2819 72.7931 90.6503C71.305 89.4702 69.6701 88.4238 67.9519 87.4558C66.0967 88.3409 64.2905 89.332 62.5332 90.4014V90.406Z" fill="url(#paint38_radial_348_4344)"/>
<path fill-rule="evenodd" clip-rule="evenodd" d="M68.1484 87.3537C69.8225 88.4231 71.5406 89.4465 73.4448 90.2993C74.5511 89.9259 76.0391 89.1515 77.0818 88.6213C78.56 87.8746 80.1117 87.0771 81.5509 86.275C82.0306 86.0076 82.2166 85.8279 82.6375 85.519C83.0487 85.2148 83.7389 85.0534 84.2529 84.7953C85.2319 84.3021 86.2745 83.6982 87.2241 83.1496C87.8458 82.7901 88.1933 82.4905 88.7514 82.0894C89.2604 81.7252 89.4905 81.8082 90.0387 81.5455C90.773 81.1905 91.6688 80.6327 92.3834 80.2087C93.3037 79.6647 94.219 79.1115 95.1246 78.5446C95.2323 78.4754 95.34 78.4109 95.4428 78.3417C95.4624 76.3918 95.4819 74.4373 95.4966 72.4874C86.6416 77.7517 77.5272 82.7071 68.1484 87.3537Z" fill="url(#paint39_radial_348_4344)"/>
<path fill-rule="evenodd" clip-rule="evenodd" d="M95.6719 72.3859C95.7061 74.3082 95.7453 76.2304 95.7796 78.1527C96.9348 77.6041 98.1977 76.991 99.3088 76.3825C100.053 75.9723 100.249 75.7095 100.865 75.2301C101.384 74.8245 101.419 75.1057 102.021 74.8798C102.608 74.6585 103.714 73.9809 104.302 73.6398C105.041 73.2111 105.775 72.7732 106.504 72.326L101.149 69.4127C100.665 69.9013 97.5956 71.5193 95.6768 72.3859H95.6719Z" fill="url(#paint40_radial_348_4344)"/>
<path fill-rule="evenodd" clip-rule="evenodd" d="M101.144 58.667C101.384 60.3403 101.384 65.8304 101.144 69.4121L106.499 72.3255C106.602 69.7533 106.69 67.1027 106.67 64.5259C106.67 64.1479 106.675 63.8621 106.465 63.5348C106.245 63.1937 106.553 62.2026 106.607 61.7508C106.685 61.0271 106.607 59.8609 106.582 59.1003C106.558 58.4872 106.533 57.8787 106.504 57.2656C104.742 57.6344 102.945 58.1369 101.149 58.6624L101.144 58.667Z" fill="url(#paint41_radial_348_4344)"/>
<path fill-rule="evenodd" clip-rule="evenodd" d="M23.9316 27.4308L27.4218 29.33L32.0867 26.7946C31.9643 26.094 31.6657 24.7986 31.2888 23.4342C29.0665 24.877 26.4819 26.2645 23.9365 27.4308H23.9316Z" fill="url(#paint42_radial_348_4344)"/>
<path fill-rule="evenodd" clip-rule="evenodd" d="M31.8262 23.1385C31.8262 24.3923 32.0367 25.5447 32.2961 26.6741L56.5702 13.4766C55.3318 12.9142 53.8976 12.4348 52.2039 12.0568C46.1195 15.6708 38.7036 19.8287 31.8262 23.1385Z" fill="url(#paint43_radial_348_4344)"/>
<path fill-rule="evenodd" clip-rule="evenodd" d="M62.7578 10.3603L68.6073 13.5409C69.9877 12.9878 71.2506 12.3977 72.3079 11.7524C69.4346 9.91772 65.592 7.89407 62.8606 6.6218C62.8263 7.86641 62.7921 9.11564 62.7578 10.3603Z" fill="url(#paint44_radial_348_4344)"/>
<path fill-rule="evenodd" clip-rule="evenodd" d="M72.5285 11.8725C71.2069 12.4994 70.0321 13.1033 68.9062 13.7026L86.0142 23.0049C86.489 22.0231 86.9589 21.032 87.3015 19.9026C84.5897 18.8285 75.1131 13.7394 72.5236 11.8771L72.5285 11.8725Z" fill="url(#paint45_radial_348_4344)"/>
<path fill-rule="evenodd" clip-rule="evenodd" d="M87.4823 19.9949C87.1054 21.0598 86.7285 22.1246 86.3516 23.1848L97.6394 29.3203L101.144 27.4119C96.7925 24.7798 92.2255 22.3136 87.4823 19.9903V19.9949Z" fill="url(#paint46_radial_348_4344)"/>
<path fill-rule="evenodd" clip-rule="evenodd" d="M101.143 27.4213L97.6387 29.3297V32.6256C98.8428 32.3306 100.008 31.8512 101.143 31.2519C101.192 29.975 101.192 28.7028 101.143 27.4259V27.4213Z" fill="url(#paint47_radial_348_4344)"/>
<path fill-rule="evenodd" clip-rule="evenodd" d="M101.143 31.4365C99.9442 31.9482 98.7694 32.5198 97.6387 33.1836V58.6576C98.8086 58.653 99.9736 58.5977 101.143 58.4686C100.752 49.5209 100.757 40.5087 101.143 31.4365Z" fill="url(#paint48_radial_348_4344)"/>
<path fill-rule="evenodd" clip-rule="evenodd" d="M101.143 58.6672C99.9393 58.7317 98.7792 58.8608 97.6387 59.0175V67.5086L101.143 69.417C101.383 65.8352 101.383 60.3451 101.143 58.6718V58.6672Z" fill="url(#paint49_radial_348_4344)"/>
<path fill-rule="evenodd" clip-rule="evenodd" d="M101.144 69.4125L97.639 67.5041L94.3496 69.2927C94.7902 70.3252 95.2307 71.3532 95.6761 72.3857C97.5901 71.5145 100.664 69.8965 101.149 69.4125H101.144Z" fill="url(#paint50_radial_348_4344)"/>
<path fill-rule="evenodd" clip-rule="evenodd" d="M95.4896 72.4873C94.9365 71.5146 94.3883 70.5466 93.8351 69.5739L66.2422 84.5785C66.5604 85.482 67.5296 86.6851 68.1463 87.3581C77.5202 82.7069 86.6346 77.7515 95.4945 72.4919L95.4896 72.4873Z" fill="url(#paint51_radial_348_4344)"/>
<path fill-rule="evenodd" clip-rule="evenodd" d="M67.9519 87.4597C67.2568 86.5378 66.4688 85.6942 65.5436 84.9567L62.5332 86.5931V90.4053C64.2954 89.3359 66.0967 88.3448 67.9519 87.4597Z" fill="url(#paint52_radial_348_4344)"/>
<path fill-rule="evenodd" clip-rule="evenodd" d="M52.5704 84.9934C54.0095 84.6385 55.3361 84.1084 56.5109 83.3247L29.3731 68.5691C29.1088 69.6155 28.9815 70.8278 28.9424 72.1508C36.5687 76.7236 44.4203 81.0337 52.5655 84.9934H52.5704Z" fill="url(#paint53_radial_348_4344)"/>
<path fill-rule="evenodd" clip-rule="evenodd" d="M28.6984 72.0124C28.8159 70.8046 28.9334 69.6015 29.0557 68.3938L27.4208 67.5041L23.916 69.4125C25.4481 70.3713 27.0537 71.2241 28.6984 72.0124Z" fill="url(#paint54_radial_348_4344)"/>
<path fill-rule="evenodd" clip-rule="evenodd" d="M23.9159 69.4123L27.4207 67.5038V59.3355C26.2704 59.5199 25.1005 59.9347 23.9208 60.4879C23.7642 63.475 23.7837 66.4482 23.9208 69.4077L23.9159 69.4123Z" fill="url(#paint55_radial_348_4344)"/>
<path fill-rule="evenodd" clip-rule="evenodd" d="M23.9316 35.9124C24.9008 36.046 26.1295 36.0322 27.4218 35.9769V29.3251L23.9316 27.4305C24.0491 30.2563 24.0491 33.0866 23.9316 35.9124Z" fill="url(#paint56_radial_348_4344)"/>
<path fill-rule="evenodd" clip-rule="evenodd" d="M54.9155 10.6829C57.1574 9.512 59.3895 8.29043 61.602 7.01355C61.9838 6.79689 62.3608 6.57563 62.7426 6.35436C62.7915 4.81934 62.8062 3.19673 62.7426 2.0443C62.7034 1.35285 62.6349 0.831957 62.5321 0.596863C61.9545 0.818128 61.1762 1.23761 60.6181 1.52341C59.972 1.8507 58.6455 2.48684 58.1413 2.89249C57.8427 3.13219 57.7986 3.33963 57.4119 3.43643C56.7707 3.59777 56.5406 3.66231 55.9581 3.97115C54.2645 4.86543 52.5415 5.81503 50.887 6.76002C50.1772 7.16567 49.0709 7.76954 48.4346 8.26278C48.5716 8.38724 48.7038 8.51631 48.8409 8.64077C50.0499 9.75171 51.3226 10.8119 52.7813 11.7385C53.5253 11.4066 54.2253 11.047 54.9204 10.6829H54.9155Z" fill="url(#paint57_radial_348_4344)"/>
<path fill-rule="evenodd" clip-rule="evenodd" d="M62.7483 6.35913C62.3714 6.5804 61.9896 6.80166 61.6077 7.01832C59.3903 8.29059 57.1631 9.51677 54.9212 10.6876C54.2261 11.0518 53.5262 11.4113 52.8262 11.7617C54.0108 12.3333 55.2541 12.762 56.3652 13.1169C56.5561 13.1769 56.7421 13.2368 56.9233 13.2921L62.5378 10.2405C62.5476 10.116 62.5623 9.97312 62.577 9.8164C62.6406 8.97743 62.714 7.70516 62.7532 6.36374L62.7483 6.35913Z" fill="url(#paint58_radial_348_4344)"/>
<path fill-rule="evenodd" clip-rule="evenodd" d="M20.0641 25.3241C19.604 26.1123 19.0362 26.8637 18.6348 27.2832C18.9285 27.3062 19.4522 27.2647 19.6382 27.1587C20.3921 26.7254 21.0822 26.0801 21.5424 25.3656C21.7724 25.006 21.2291 23.7937 20.8375 23.3004C20.813 23.8536 20.4851 24.605 20.0641 25.3241Z" fill="url(#paint59_radial_348_4344)"/>
<g style="mix-blend-mode:screen">
<path fill-rule="evenodd" clip-rule="evenodd" d="M30.9049 23.6737C28.7267 24.9137 26.4652 26.08 23.9296 26.9835C23.1562 26.7115 22.3828 26.4396 21.6094 26.163C22.2506 26.6746 22.8968 27.1863 23.538 27.6934C23.8415 30.1411 23.9149 32.6165 23.959 35.0919C24.1548 32.5981 24.3163 30.1043 24.2771 27.6104C26.7344 26.4626 28.9029 25.1212 30.9049 23.6645V23.6737Z" fill="url(#paint60_radial_348_4344)"/>
</g>
<g style="mix-blend-mode:screen">
<path fill-rule="evenodd" clip-rule="evenodd" d="M100.928 59.0037C101.143 61.5391 101.222 64.079 101.276 66.6189C101.476 64.0145 101.579 61.4054 101.55 58.7963C102.769 58.386 103.983 57.9712 105.201 57.5609C103.86 57.8836 102.504 58.2662 101.143 58.6626C100.076 58.7179 99.0386 58.8286 98.0254 58.9576C98.9946 58.9715 99.9589 58.9853 100.928 58.9991V59.0037Z" fill="url(#paint61_radial_348_4344)"/>
</g>
<path fill-rule="evenodd" clip-rule="evenodd" d="M18.5604 37.8446C20.538 37.1992 22.3785 36.6506 23.9302 36.3003C25.1343 36.2081 26.2993 36.2173 27.4203 36.3233V58.9715C26.9895 59.1421 26.5441 59.3034 26.0889 59.4509C24.7183 59.4601 23.1176 59.7967 22.2463 60.0179C21.1156 59.9672 19.8625 59.8289 18.5604 59.6584C18.4038 51.9968 18.3254 44.5289 18.5604 37.8492V37.8446Z" fill="#434955"/>
<path fill-rule="evenodd" clip-rule="evenodd" d="M23.9302 36.3002C22.3785 36.6506 20.538 37.2038 18.5604 37.8445C18.3254 44.5242 18.4038 51.9875 18.5604 59.6537C19.8625 59.8242 21.1156 59.9625 22.2463 60.0132C22.6673 59.9072 23.2547 59.7735 23.9057 59.6629C23.5826 52.1304 23.4945 44.0355 23.9302 36.2956V36.3002Z" fill="url(#paint62_radial_348_4344)"/>
<path fill-rule="evenodd" clip-rule="evenodd" d="M26.0905 59.4459C26.5457 59.2983 26.9912 59.137 27.4219 58.9664V36.3183C26.2961 36.2123 25.136 36.203 23.9318 36.2952C23.4962 44.0352 23.5794 52.13 23.9074 59.6625C24.6073 59.5427 25.3807 59.4505 26.0954 59.4459H26.0905Z" fill="url(#paint63_radial_348_4344)"/>
<path fill-rule="evenodd" clip-rule="evenodd" d="M23.8135 57.3578C23.2359 57.7311 22.5457 59.0126 22.2471 60.0129C23.1184 59.7963 24.7239 59.4552 26.0896 59.4459C25.6295 58.4595 24.5085 57.6343 23.8135 57.3578Z" fill="url(#paint64_radial_348_4344)"/>
<g style="mix-blend-mode:screen">
<path fill-rule="evenodd" clip-rule="evenodd" d="M41.7437 79.4387C37.5438 77.0048 33.388 74.5478 29.3497 72.054C29.2469 71.1597 29.2175 70.2746 29.1979 69.3942C29.0511 70.2331 28.9727 71.1643 28.9434 72.1461C27.984 73.0727 27.0833 74.3173 26.1826 75.5758C27.1322 74.557 28.0819 73.5337 29.1294 72.6394C33.2167 75.0318 37.4508 77.2629 41.7388 79.4387H41.7437Z" fill="url(#paint65_radial_348_4344)"/>
</g>
<g style="mix-blend-mode:screen">
<path fill-rule="evenodd" clip-rule="evenodd" d="M81.4021 80.4807C77.0651 82.6795 72.689 84.823 68.2542 86.8974C67.6521 86.3857 67.1039 85.8326 66.5703 85.2656C67.006 86.0262 67.6766 86.8421 68.1465 87.3538C69.4828 88.2065 70.8534 89.0317 72.317 89.7646C71.0786 88.9856 69.8353 88.2019 68.7241 87.3906C73.0366 85.1734 77.256 82.8639 81.4021 80.4807Z" fill="url(#paint66_radial_348_4344)"/>
</g>
<g style="mix-blend-mode:screen">
<path fill-rule="evenodd" clip-rule="evenodd" d="M95.006 72.4642C91.1194 74.8613 87.13 77.1984 83.1406 79.5355C87.2524 77.4427 91.3152 75.3176 95.2312 73.1004C95.3536 74.5294 95.3976 75.9584 95.4466 77.3828C95.4613 75.751 95.476 74.1145 95.4906 72.4827C94.9767 71.5792 94.4676 70.6803 93.9536 69.7768C94.3403 70.6665 94.727 71.5561 95.0011 72.4596L95.006 72.4642Z" fill="url(#paint67_radial_348_4344)"/>
</g>
<g style="mix-blend-mode:screen">
<path fill-rule="evenodd" clip-rule="evenodd" d="M100.767 27.6289C100.987 28.6707 101.066 29.7171 101.163 30.7589C101.261 29.6848 101.349 28.6061 101.531 27.5321C103.298 26.5502 104.771 25.6006 106.244 24.651C104.59 25.4623 102.926 26.269 101.105 26.9236C97.6244 24.8723 93.8552 23.0376 90.0176 21.2629C93.7035 23.3234 97.3405 25.4162 100.767 27.6289Z" fill="url(#paint68_radial_348_4344)"/>
</g>
<g style="mix-blend-mode:screen">
<path fill-rule="evenodd" clip-rule="evenodd" d="M101.144 31.4367C100.053 31.9023 98.9806 32.4186 97.9429 33.0086C98.8974 32.6306 99.847 32.2573 100.797 31.9853C100.948 36.973 100.865 42.2372 100.86 47.4093C101.032 42.1819 101.129 37.0191 101.487 31.7871C102.593 31.6027 103.885 31.4598 105.114 31.3445C103.817 31.3353 102.495 31.363 101.144 31.4413V31.4367Z" fill="url(#paint69_radial_348_4344)"/>
</g>
<g style="mix-blend-mode:screen">
<path fill-rule="evenodd" clip-rule="evenodd" d="M72.5977 12.2553C75.5494 14.0945 78.3689 15.4544 81.2177 16.9018C78.3689 15.2377 75.6424 13.6336 73.0921 11.8773C73.7578 10.8493 74.5557 9.84441 75.3829 8.88098C74.3795 9.85824 73.4396 10.8585 72.5292 11.8727C71.4131 12.4028 70.3999 12.9191 69.4355 13.4215C70.5222 12.9559 71.5942 12.5272 72.5977 12.2507V12.2553Z" fill="url(#paint70_radial_348_4344)"/>
</g>
<g style="mix-blend-mode:screen">
<path fill-rule="evenodd" clip-rule="evenodd" d="M63.0613 7.08268C65.308 8.05072 68.245 9.5166 70.6729 10.7474C68.1814 9.22158 64.6913 7.21175 63.2032 6.16996C63.1102 5.48773 63.0172 4.80549 62.9242 4.12326C62.8752 5.92565 62.8263 7.72804 62.7773 9.53503C62.8703 8.71912 62.9634 7.9032 63.0613 7.08729V7.08268Z" fill="url(#paint71_radial_348_4344)"/>
</g>
<g style="mix-blend-mode:screen">
<path fill-rule="evenodd" clip-rule="evenodd" d="M62.6199 9.02328C62.7618 6.74149 62.8793 2.88318 62.6688 1.24213C62.6248 2.96154 62.4779 4.87456 62.2381 6.2252C60.2214 7.6542 57.5732 9.08321 55.2383 10.5122C57.6221 9.30908 60.0011 8.10134 62.3849 6.89821C62.4633 7.6035 62.5367 8.31339 62.615 9.01867L62.6199 9.02328Z" fill="url(#paint72_radial_348_4344)"/>
</g>
<g style="mix-blend-mode:screen">
<path fill-rule="evenodd" clip-rule="evenodd" d="M52.2045 12.0569C51.4066 11.1488 50.1633 10.0102 49.1843 9.20349C49.9919 10.107 50.7898 11.0105 51.3919 11.9647C49.5122 13.3753 47.4466 14.6936 45.3711 16.012C47.8039 14.855 50.0066 13.7579 52.2094 12.4487C53.2667 12.6746 54.51 12.8912 55.5722 13.0572C54.5736 12.67 53.4576 12.3335 52.1996 12.0523L52.2045 12.0569Z" fill="url(#paint73_radial_348_4344)"/>
</g>
<g style="mix-blend-mode:screen">
<path fill-rule="evenodd" clip-rule="evenodd" d="M26.7792 36.2725C25.8541 36.2172 24.9044 36.2264 23.9255 36.3002C22.5793 36.6044 21.0178 37.0608 19.3389 37.5955C20.7731 37.259 22.1975 36.9409 23.573 36.7197C23.5926 40.0156 23.6122 43.3161 23.6269 46.6121C23.7933 43.2793 23.9597 39.9465 24.1261 36.6136C25.0072 36.42 25.8932 36.3417 26.7743 36.2725H26.7792Z" fill="url(#paint74_radial_348_4344)"/>
</g>
<path fill-rule="evenodd" clip-rule="evenodd" d="M50.9804 86.2198C49.9818 86.8882 49.0958 87.658 48.2686 88.4785C49.6245 89.17 50.9755 89.8706 52.3216 90.5851C53.0607 90.977 54.0006 91.4379 54.6908 91.8759C55.0432 92.0971 55.2782 92.3783 55.6453 92.5212C56.2082 92.7425 56.5949 92.8946 57.1431 93.1896C58.9445 94.1576 60.7654 95.2133 62.5374 96.232V90.41C59.5612 88.6675 56.497 86.9988 53.3446 85.3946C52.5076 85.7772 51.5531 86.123 50.9902 86.2244L50.9804 86.2198Z" fill="url(#paint75_radial_348_4344)"/>
<path fill-rule="evenodd" clip-rule="evenodd" d="M62.5326 86.5935L56.6782 83.4082C56.1398 83.7586 55.572 84.0766 54.9846 84.3532C54.8328 84.6206 54.1377 85.0216 53.3398 85.3904C56.4922 86.9946 59.5613 88.6633 62.5326 90.4057V86.5935Z" fill="url(#paint76_radial_348_4344)"/>
<path fill-rule="evenodd" clip-rule="evenodd" d="M50.9805 86.2199C51.6902 86.5242 54.8622 87.0727 56.4286 86.999C56.7076 85.9987 56.1691 84.9707 54.9846 84.353C54.6762 84.8969 52.0818 86.0217 50.9854 86.2199H50.9805Z" fill="url(#paint77_radial_348_4344)"/>
<path fill-rule="evenodd" clip-rule="evenodd" d="M23.6322 48.4143L18.4876 41.1356L12.4619 48.4143L18.4876 55.6976L23.6322 48.4143Z" fill="#858385"/>
<path fill-rule="evenodd" clip-rule="evenodd" d="M23.6322 48.4147C22.6043 46.1883 20.3526 43.2749 18.4876 41.1314C16.7988 42.5697 13.8129 46.4695 12.4668 48.4147H23.6371H23.6322Z" fill="url(#paint78_radial_348_4344)"/>
<path fill-rule="evenodd" clip-rule="evenodd" d="M23.6322 48.4149C22.8637 50.3187 19.8093 54.2922 18.4876 55.6982C16.603 53.8451 13.4213 50.0144 12.4668 48.4149H23.6371H23.6322Z" fill="url(#paint79_radial_348_4344)"/>
<path fill-rule="evenodd" clip-rule="evenodd" d="M100.87 48.4147C102.779 45.9854 104.688 43.5607 106.597 41.1314C108.633 43.5607 110.664 45.9854 112.701 48.4147C110.048 50.3232 108.011 52.7479 106.597 55.6981C104.688 53.2687 102.779 50.844 100.87 48.4147Z" fill="#858385"/>
<path fill-rule="evenodd" clip-rule="evenodd" d="M100.871 48.4147C102.104 46.3312 105.472 42.164 106.764 41.1314C108.742 43.5607 110.724 45.9854 112.702 48.4147H100.866H100.871Z" fill="url(#paint80_radial_348_4344)"/>
<path fill-rule="evenodd" clip-rule="evenodd" d="M100.871 48.4149C101.61 49.8992 105.717 55.0621 106.598 55.6982C108.296 53.0799 110.352 50.6644 112.702 48.4149H100.866H100.871Z" fill="url(#paint81_radial_348_4344)"/>
<path style="mix-blend-mode:screen" opacity="0.5" fill-rule="evenodd" clip-rule="evenodd" d="M110.576 45.8745C110.586 47.3404 106.973 48.4144 104.961 48.4144H112.705L110.576 45.8745Z" fill="url(#paint82_radial_348_4344)"/>
<path fill-rule="evenodd" clip-rule="evenodd" d="M81.9948 80.158L91.3344 80.8264L87.5702 89.2529L77.9761 88.165L81.9948 80.158Z" fill="#858385"/>
<path fill-rule="evenodd" clip-rule="evenodd" d="M81.9956 80.1581C84.1788 80.1028 90.1017 80.5591 91.3352 80.8265C90.6156 83.2189 89.0688 86.5102 87.571 89.253C85.7109 86.2198 83.8557 83.1913 81.9956 80.1581Z" fill="url(#paint83_radial_348_4344)"/>
<path fill-rule="evenodd" clip-rule="evenodd" d="M81.9948 80.158C80.9473 81.4026 78.3873 86.5977 77.9761 88.165C80.4676 88.7089 84.9563 89.1653 87.5702 89.2529C85.7101 86.2197 83.8549 83.1911 81.9948 80.158Z" fill="url(#paint84_radial_348_4344)"/>
<path fill-rule="evenodd" clip-rule="evenodd" d="M43.0739 80.1535L47.2347 87.9392L37.4986 89.253L33.749 80.7988L43.0739 80.1535Z" fill="#858385"/>
<path fill-rule="evenodd" clip-rule="evenodd" d="M43.0744 80.1535C44.0975 81.3889 46.7212 86.4734 47.2302 87.9392C45.6443 88.4463 40.206 89.0917 37.4941 89.253C39.3542 86.2198 41.2143 83.1866 43.0744 80.1535Z" fill="url(#paint85_radial_348_4344)"/>
<path fill-rule="evenodd" clip-rule="evenodd" d="M43.0739 80.1534C41.6446 79.9506 34.8602 80.4899 33.749 80.7987C34.1455 82.5135 36.5881 87.8147 37.4937 89.2529C39.3538 86.2197 41.2139 83.1866 43.0739 80.1534Z" fill="url(#paint86_radial_348_4344)"/>
<path fill-rule="evenodd" clip-rule="evenodd" d="M43.3599 17.1369L47.1682 8.78412L37.5006 7.57639L33.7217 15.9798L43.3599 17.1369Z" fill="#858385"/>
<path fill-rule="evenodd" clip-rule="evenodd" d="M43.3583 17.1369C44.9198 14.4356 46.2561 11.6698 47.1666 8.78412C45.0422 8.29089 39.8437 7.59021 37.499 7.57639C39.4521 10.7617 41.4052 13.947 43.3583 17.1323V17.1369Z" fill="url(#paint87_radial_348_4344)"/>
<path fill-rule="evenodd" clip-rule="evenodd" d="M43.3599 17.1369C39.9872 16.9525 36.7076 16.6529 33.7217 15.9798C34.2014 14.3526 36.6782 8.7242 37.5006 7.57639C39.4537 10.7617 41.4068 13.947 43.3599 17.1323V17.1369Z" fill="url(#paint88_radial_348_4344)"/>
<path fill-rule="evenodd" clip-rule="evenodd" d="M81.696 17.1598C84.8728 16.8325 88.0497 16.5052 91.2265 16.1779C90.0077 13.3107 88.7888 10.4481 87.57 7.58087C84.5449 8.67337 81.2946 9.0191 77.8779 8.82549C79.1506 11.6051 80.4233 14.3802 81.696 17.1598Z" fill="#858385"/>
<path fill-rule="evenodd" clip-rule="evenodd" d="M81.6968 17.1598C83.7282 17.2243 89.8077 16.6205 91.2273 16.1779C90.8748 14.7028 88.3833 8.80244 87.5707 7.58087C85.6128 10.7754 83.6548 13.9653 81.6968 17.1598Z" fill="url(#paint89_radial_348_4344)"/>
<path fill-rule="evenodd" clip-rule="evenodd" d="M81.696 17.1598C80.5702 15.4634 77.9758 9.83501 77.8779 8.82549C79.2436 8.75634 80.5506 8.64571 81.8037 8.50742C82.1072 8.47515 82.6652 8.01418 82.9638 7.97731C84.6819 7.76065 86.0868 7.64541 87.57 7.58087C85.612 10.7754 83.654 13.9653 81.696 17.1598Z" fill="url(#paint90_radial_348_4344)"/>
<path fill-rule="evenodd" clip-rule="evenodd" d="M83.444 14.311C82.279 13.2 80.83 11.0104 81.158 10.697C81.6279 10.2452 84.3348 10.13 85.8131 10.4481C86.0285 11.1349 86.097 12.8359 85.8425 13.1032C85.4558 13.5089 84.4278 14.0482 83.444 14.3156V14.311Z" fill="url(#paint91_radial_348_4344)"/>
<path style="mix-blend-mode:screen" fill-rule="evenodd" clip-rule="evenodd" d="M83.4436 14.3107C84.4275 14.0434 85.4555 13.5041 85.8422 13.0984C86.0967 12.831 86.0282 11.1347 85.8128 10.4432C85.2548 10.3234 82.9101 13.7945 83.4436 14.3061V14.3107Z" fill="url(#paint92_radial_348_4344)"/>
<path fill-rule="evenodd" clip-rule="evenodd" d="M100.9 50.3328C100.097 50.6831 98.457 51.9554 98.4521 52.5639C98.4521 53.3337 100.185 55.385 101.051 56.1041C101.746 55.2882 102.799 53.4674 102.701 52.6561C102.657 52.3149 101.536 50.7753 100.9 50.3328Z" fill="url(#paint93_radial_348_4344)"/>
<g style="mix-blend-mode:screen">
<path fill-rule="evenodd" clip-rule="evenodd" d="M98.4521 52.5636C98.4521 53.3334 100.185 55.3847 101.051 56.1038C101.658 55.3893 102.544 53.905 102.686 53.0015C102.716 52.8033 98.457 52.1302 98.4521 52.5636Z" fill="url(#paint94_radial_348_4344)"/>
</g>
<path fill-rule="evenodd" clip-rule="evenodd" d="M33.0596 22.5347C33.0057 21.0365 33.598 18.6764 33.8819 18.5934C34.3714 18.4551 36.7161 19.5015 37.5679 20.2483C37.47 20.9858 36.9315 22.1705 36.5399 22.3872C36.1581 22.5992 34.1071 22.7283 33.0547 22.5347H33.0596Z" fill="url(#paint95_radial_348_4344)"/>
<g style="mix-blend-mode:screen" opacity="0.5">
<path fill-rule="evenodd" clip-rule="evenodd" d="M33.8824 18.5939C33.5985 18.6768 33.0062 21.037 33.0601 22.5352C34.1125 22.7288 36.1635 22.5997 36.5453 22.3876C35.4244 21.2813 34.2055 19.5112 33.8873 18.5939H33.8824Z" fill="url(#paint96_radial_348_4344)"/>
</g>
</g>
<defs>
<radialGradient id="paint0_radial_348_4344" cx="0" cy="0" r="1" gradientUnits="userSpaceOnUse" gradientTransform="translate(59.4985 26.2829) scale(55.9299 52.672)">
<stop stop-color="#8CE4FF"/>
<stop offset="1" stop-color="#217CFF"/>
</radialGradient>
<radialGradient id="paint1_radial_348_4344" cx="0" cy="0" r="1" gradientUnits="userSpaceOnUse" gradientTransform="translate(84.7954 36.9132) scale(51.8182 48.7998)">
<stop stop-color="#007BFF"/>
<stop offset="1" stop-color="#0050EB"/>
</radialGradient>
<radialGradient id="paint2_radial_348_4344" cx="0" cy="0" r="1" gradientUnits="userSpaceOnUse" gradientTransform="translate(75.1024 32.2802) scale(42.7429 40.2531)">
<stop stop-color="#3BB2FF"/>
<stop offset="1" stop-color="#0068FF"/>
</radialGradient>
<radialGradient id="paint3_radial_348_4344" cx="0" cy="0" r="1" gradientUnits="userSpaceOnUse" gradientTransform="translate(79.1515 39.1997) scale(76.8706 72.3929)">
<stop stop-color="#8CE4FF"/>
<stop offset="1" stop-color="#217CFF"/>
</radialGradient>
<radialGradient id="paint4_radial_348_4344" cx="0" cy="0" r="1" gradientUnits="userSpaceOnUse" gradientTransform="translate(66.371 75.4746) scale(52.6111 49.5466)">
<stop stop-color="#007BFF"/>
<stop offset="1" stop-color="#0050EB"/>
</radialGradient>
<radialGradient id="paint5_radial_348_4344" cx="0" cy="0" r="1" gradientUnits="userSpaceOnUse" gradientTransform="translate(52.019 29.7402) scale(46.7959 44.0701)">
<stop stop-color="#3BB2FF"/>
<stop offset="1" stop-color="#0068FF"/>
</radialGradient>
<radialGradient id="paint6_radial_348_4344" cx="0" cy="0" r="1" gradientUnits="userSpaceOnUse" gradientTransform="translate(103.904 53.895) scale(27.0936 25.5146)">
<stop offset="0.63" stop-color="white"/>
<stop offset="0.68" stop-color="#FAFBFD"/>
<stop offset="0.74" stop-color="#EBF0F8"/>
<stop offset="0.8" stop-color="#D3DFF0"/>
<stop offset="0.86" stop-color="#B2C7E4"/>
<stop offset="0.93" stop-color="#87A8D6"/>
<stop offset="1" stop-color="#5282C4"/>
</radialGradient>
<radialGradient id="paint7_radial_348_4344" cx="0" cy="0" r="1" gradientUnits="userSpaceOnUse" gradientTransform="translate(56.4339 30.0858) scale(56.1893 52.9146)">
<stop stop-color="#5CE4FF"/>
<stop offset="1"/>
</radialGradient>
<radialGradient id="paint8_radial_348_4344" cx="0" cy="0" r="1" gradientUnits="userSpaceOnUse" gradientTransform="translate(78.0591 60.373) scale(23.5301 22.1588)">
<stop stop-color="#5CE4FF"/>
<stop offset="1"/>
</radialGradient>
<radialGradient id="paint9_radial_348_4344" cx="0" cy="0" r="1" gradientUnits="userSpaceOnUse" gradientTransform="translate(53.5841 29.0441) scale(56.2334 52.9578)">
<stop stop-color="#36A1FF"/>
<stop offset="1" stop-color="#0049FF"/>
</radialGradient>
<radialGradient id="paint10_radial_348_4344" cx="0" cy="0" r="1" gradientUnits="userSpaceOnUse" gradientTransform="translate(55.3861 13.4451) scale(34.2354 32.2402)">
<stop stop-color="#DBF7FF"/>
<stop offset="1" stop-color="#5CC3FF"/>
</radialGradient>
<radialGradient id="paint11_radial_348_4344" cx="0" cy="0" r="1" gradientUnits="userSpaceOnUse" gradientTransform="translate(92.3421 20.8526) scale(27.7447 26.1277)">
<stop stop-color="#8CE4FF"/>
<stop offset="1" stop-color="#217CFF"/>
</radialGradient>
<radialGradient id="paint12_radial_348_4344" cx="0" cy="0" r="1" gradientUnits="userSpaceOnUse" gradientTransform="translate(86.7814 61.1099) scale(33.9711 31.9912)">
<stop stop-color="#8CE4FF"/>
<stop offset="1" stop-color="#217CFF"/>
</radialGradient>
<radialGradient id="paint13_radial_348_4344" cx="0" cy="0" r="1" gradientUnits="userSpaceOnUse" gradientTransform="translate(66.669 63.4337) scale(32.8599 30.9449)">
<stop stop-color="#B3EDFF"/>
<stop offset="1" stop-color="#2795FF"/>
</radialGradient>
<radialGradient id="paint14_radial_348_4344" cx="0" cy="0" r="1" gradientUnits="userSpaceOnUse" gradientTransform="translate(39.5212 63.2672) scale(37.8577 35.6513)">
<stop stop-color="#3BB2FF"/>
<stop offset="1" stop-color="#0068FF"/>
</radialGradient>
<radialGradient id="paint15_radial_348_4344" cx="0" cy="0" r="1" gradientUnits="userSpaceOnUse" gradientTransform="translate(46.7168 33.3311) scale(50.4427 47.5028)">
<stop stop-color="#DBF7FF"/>
<stop offset="1" stop-color="#5CC3FF"/>
</radialGradient>
<radialGradient id="paint16_radial_348_4344" cx="0" cy="0" r="1" gradientUnits="userSpaceOnUse" gradientTransform="translate(-9.02742 59.3854) scale(72.2889 68.0759)">
<stop stop-color="#5CE4FF"/>
<stop offset="1"/>
</radialGradient>
<radialGradient id="paint17_radial_348_4344" cx="0" cy="0" r="1" gradientUnits="userSpaceOnUse" gradientTransform="translate(47.4798 -9.33157) scale(67.7953 63.8442)">
<stop stop-color="#5CE4FF"/>
<stop offset="1"/>
</radialGradient>
<radialGradient id="paint18_radial_348_4344" cx="0" cy="0" r="1" gradientUnits="userSpaceOnUse" gradientTransform="translate(85.2017 14.542) scale(42.8799 40.3809)">
<stop stop-color="#5CE4FF"/>
<stop offset="1"/>
</radialGradient>
<radialGradient id="paint19_radial_348_4344" cx="0" cy="0" r="1" gradientUnits="userSpaceOnUse" gradientTransform="translate(96.1615 23.499) scale(48.4015 45.5806)">
<stop stop-color="#5CE4FF"/>
<stop offset="1"/>
</radialGradient>
<radialGradient id="paint20_radial_348_4344" cx="0" cy="0" r="1" gradientUnits="userSpaceOnUse" gradientTransform="translate(87.982 85.9838) scale(72.3183 68.1035)">
<stop stop-color="#5CE4FF"/>
<stop offset="1"/>
</radialGradient>
<radialGradient id="paint21_radial_348_4344" cx="0" cy="0" r="1" gradientUnits="userSpaceOnUse" gradientTransform="translate(48.8699 79.8206) scale(47.2756 44.5204)">
<stop stop-color="#5CE4FF"/>
<stop offset="1"/>
</radialGradient>
<radialGradient id="paint22_radial_348_4344" cx="0" cy="0" r="1" gradientUnits="userSpaceOnUse" gradientTransform="translate(61.7392 70.8693) scale(26.8049 25.2427)">
<stop stop-color="#5CE4FF"/>
<stop offset="1"/>
</radialGradient>
<radialGradient id="paint23_radial_348_4344" cx="0" cy="0" r="1" gradientUnits="userSpaceOnUse" gradientTransform="translate(58.7532 21.659) scale(24.1763 22.7672)">
<stop stop-color="#5CE4FF"/>
<stop offset="1"/>
</radialGradient>
<radialGradient id="paint24_radial_348_4344" cx="0" cy="0" r="1" gradientUnits="userSpaceOnUse" gradientTransform="translate(41.6748 31.5611) scale(22.977 21.6379)">
<stop stop-color="#5CE4FF"/>
<stop offset="1"/>
</radialGradient>
<radialGradient id="paint25_radial_348_4344" cx="0" cy="0" r="1" gradientUnits="userSpaceOnUse" gradientTransform="translate(87.0314 61.3773) scale(29.4433 27.7273)">
<stop stop-color="#5CE4FF"/>
<stop offset="1"/>
</radialGradient>
<radialGradient id="paint26_radial_348_4344" cx="0" cy="0" r="1" gradientUnits="userSpaceOnUse" gradientTransform="translate(51.1232 89.1969) scale(35.185 33.1344)">
<stop offset="0.63" stop-color="white"/>
<stop offset="0.68" stop-color="#FAFBFD"/>
<stop offset="0.74" stop-color="#EBF0F8"/>
<stop offset="0.8" stop-color="#D3DFF0"/>
<stop offset="0.86" stop-color="#B2C7E4"/>
<stop offset="0.93" stop-color="#87A8D6"/>
<stop offset="1" stop-color="#5282C4"/>
</radialGradient>
<radialGradient id="paint27_radial_348_4344" cx="0" cy="0" r="1" gradientUnits="userSpaceOnUse" gradientTransform="translate(23.7846 27.7251) scale(16.0163 15.0829)">
<stop stop-color="#B0BAD6"/>
<stop offset="1" stop-color="#5C72A1"/>
</radialGradient>
<radialGradient id="paint28_radial_348_4344" cx="0" cy="0" r="1" gradientUnits="userSpaceOnUse" gradientTransform="translate(39.7417 22.1244) scale(21.5526 20.2965)">
<stop stop-color="#B0BAD6"/>
<stop offset="1" stop-color="#5C72A1"/>
</radialGradient>
<radialGradient id="paint29_radial_348_4344" cx="0" cy="0" r="1" gradientUnits="userSpaceOnUse" gradientTransform="translate(57.0314 19.2619) scale(22.2966 20.9971)">
<stop stop-color="#B0BAD6"/>
<stop offset="1" stop-color="#435276"/>
</radialGradient>
<radialGradient id="paint30_radial_348_4344" cx="0" cy="0" r="1" gradientUnits="userSpaceOnUse" gradientTransform="translate(71.1381 30.2651) scale(24.9399 23.4864)">
<stop stop-color="#B0BAD6"/>
<stop offset="1" stop-color="#435276"/>
</radialGradient>
<radialGradient id="paint31_radial_348_4344" cx="0" cy="0" r="1" gradientUnits="userSpaceOnUse" gradientTransform="translate(78.788 43.3568) scale(34.4704 32.4614)">
<stop stop-color="#B0BAD6"/>
<stop offset="1" stop-color="#435276"/>
</radialGradient>
<radialGradient id="paint32_radial_348_4344" cx="0" cy="0" r="1" gradientUnits="userSpaceOnUse" gradientTransform="translate(95.461 25.2091) scale(23.2364 21.8822)">
<stop stop-color="#606B85"/>
<stop offset="1" stop-color="#313951"/>
</radialGradient>
<radialGradient id="paint33_radial_348_4344" cx="0" cy="0" r="1" gradientUnits="userSpaceOnUse" gradientTransform="translate(95.3199 34.4928) scale(43.0856 40.5758)">
<stop stop-color="#606B85"/>
<stop offset="1" stop-color="#313951"/>
</radialGradient>
<radialGradient id="paint34_radial_348_4344" cx="0" cy="0" r="1" gradientUnits="userSpaceOnUse" gradientTransform="translate(28.1018 35.9081) scale(19.9617 18.7983)">
<stop stop-color="#9DA5BF"/>
<stop offset="1" stop-color="#4A5A82"/>
</radialGradient>
<radialGradient id="paint35_radial_348_4344" cx="0" cy="0" r="1" gradientUnits="userSpaceOnUse" gradientTransform="translate(12.0013 68.7484) scale(17.2058 16.203)">
<stop stop-color="#9DA5BF"/>
<stop offset="1" stop-color="#4A5A82"/>
</radialGradient>
<radialGradient id="paint36_radial_348_4344" cx="0" cy="0" r="1" gradientUnits="userSpaceOnUse" gradientTransform="translate(34.014 74.9535) scale(14.9786 14.1057)">
<stop stop-color="#7989A7"/>
<stop offset="1" stop-color="#404B68"/>
</radialGradient>
<radialGradient id="paint37_radial_348_4344" cx="0" cy="0" r="1" gradientUnits="userSpaceOnUse" gradientTransform="translate(47.7794 70.0813) scale(26.7363 25.1781)">
<stop stop-color="#7989A7"/>
<stop offset="1" stop-color="#404B68"/>
</radialGradient>
<radialGradient id="paint38_radial_348_4344" cx="0" cy="0" r="1" gradientUnits="userSpaceOnUse" gradientTransform="translate(63.615 67.2101) scale(29.7222 27.99)">
<stop stop-color="#606B85"/>
<stop offset="1" stop-color="#313951"/>
</radialGradient>
<radialGradient id="paint39_radial_348_4344" cx="0" cy="0" r="1" gradientUnits="userSpaceOnUse" gradientTransform="translate(75.6182 65.264) scale(25.5468 24.058)">
<stop stop-color="#606B85"/>
<stop offset="1" stop-color="#313951"/>
</radialGradient>
<radialGradient id="paint40_radial_348_4344" cx="0" cy="0" r="1" gradientUnits="userSpaceOnUse" gradientTransform="translate(92.3237 62.9868) scale(16.966 15.9772)">
<stop stop-color="#606B85"/>
<stop offset="1" stop-color="#313951"/>
</radialGradient>
<radialGradient id="paint41_radial_348_4344" cx="0" cy="0" r="1" gradientUnits="userSpaceOnUse" gradientTransform="translate(93.1212 56.6664) scale(26.8783 25.3118)">
<stop stop-color="#606B85"/>
<stop offset="1" stop-color="#313951"/>
</radialGradient>
<radialGradient id="paint42_radial_348_4344" cx="0" cy="0" r="1" gradientUnits="userSpaceOnUse" gradientTransform="translate(26.9959 20.4102) scale(12.0563 11.3537)">
<stop stop-color="#7989A7"/>
<stop offset="1" stop-color="#404B68"/>
</radialGradient>
<radialGradient id="paint43_radial_348_4344" cx="0" cy="0" r="1" gradientUnits="userSpaceOnUse" gradientTransform="translate(52.6934 24.1895) scale(23.5742 22.2003)">
<stop stop-color="#7989A7"/>
<stop offset="1" stop-color="#404B68"/>
</radialGradient>
<radialGradient id="paint44_radial_348_4344" cx="0" cy="0" r="1" gradientUnits="userSpaceOnUse" gradientTransform="translate(71.2751 15.3203) scale(18.1603 17.1019)">
<stop stop-color="#7989A7"/>
<stop offset="1" stop-color="#404B68"/>
</radialGradient>
<radialGradient id="paint45_radial_348_4344" cx="0" cy="0" r="1" gradientUnits="userSpaceOnUse" gradientTransform="translate(87.0078 0.389798) scale(27.1965 25.6114)">
<stop stop-color="#9DA5BF"/>
<stop offset="1" stop-color="#4A5A82"/>
</radialGradient>
<radialGradient id="paint46_radial_348_4344" cx="0" cy="0" r="1" gradientUnits="userSpaceOnUse" gradientTransform="translate(73.3163 4.7553) scale(37.8626 35.6559)">
<stop stop-color="#9DA5BF"/>
<stop offset="1" stop-color="#4A5A82"/>
</radialGradient>
<radialGradient id="paint47_radial_348_4344" cx="0" cy="0" r="1" gradientUnits="userSpaceOnUse" gradientTransform="translate(104.129 29.1315) scale(12.5311 11.8008)">
<stop stop-color="#9DA5BF"/>
<stop offset="1" stop-color="#4A5A82"/>
</radialGradient>
<radialGradient id="paint48_radial_348_4344" cx="0" cy="0" r="1" gradientUnits="userSpaceOnUse" gradientTransform="translate(103.033 38.1899) scale(27.3237 25.7321)">
<stop stop-color="#9DA5BF"/>
<stop offset="1" stop-color="#4A5A82"/>
</radialGradient>
<radialGradient id="paint49_radial_348_4344" cx="0" cy="0" r="1" gradientUnits="userSpaceOnUse" gradientTransform="translate(107.977 61.6911) scale(13.001 12.2433)">
<stop stop-color="#9DA5BF"/>
<stop offset="1" stop-color="#4A5A82"/>
</radialGradient>
<radialGradient id="paint50_radial_348_4344" cx="0" cy="0" r="1" gradientUnits="userSpaceOnUse" gradientTransform="translate(96.2635 73.5013) scale(9.49134 8.93818)">
<stop stop-color="#B0BAD6"/>
<stop offset="1" stop-color="#5C72A1"/>
</radialGradient>
<radialGradient id="paint51_radial_348_4344" cx="0" cy="0" r="1" gradientUnits="userSpaceOnUse" gradientTransform="translate(88.4213 81.513) scale(28.0041 26.372)">
<stop stop-color="#B0BAD6"/>
<stop offset="1" stop-color="#5C72A1"/>
</radialGradient>
<radialGradient id="paint52_radial_348_4344" cx="0" cy="0" r="1" gradientUnits="userSpaceOnUse" gradientTransform="translate(72.4749 90.2071) scale(10.3724 9.76793)">
<stop stop-color="#B0BAD6"/>
<stop offset="1" stop-color="#5C72A1"/>
</radialGradient>
<radialGradient id="paint53_radial_348_4344" cx="0" cy="0" r="1" gradientUnits="userSpaceOnUse" gradientTransform="translate(30.4549 93.4153) scale(35.0529 33.01)">
<stop stop-color="#B0BAD6"/>
<stop offset="1" stop-color="#5C72A1"/>
</radialGradient>
<radialGradient id="paint54_radial_348_4344" cx="0" cy="0" r="1" gradientUnits="userSpaceOnUse" gradientTransform="translate(33.4955 77.1245) scale(13.0402 12.2802)">
<stop stop-color="#B0BAD6"/>
<stop offset="1" stop-color="#5C72A1"/>
</radialGradient>
<radialGradient id="paint55_radial_348_4344" cx="0" cy="0" r="1" gradientUnits="userSpaceOnUse" gradientTransform="translate(13.0736 56.1179) scale(19.3204 18.1944)">
<stop stop-color="#7989A7"/>
<stop offset="1" stop-color="#404B68"/>
</radialGradient>
<radialGradient id="paint56_radial_348_4344" cx="0" cy="0" r="1" gradientUnits="userSpaceOnUse" gradientTransform="translate(17.7199 34.6447) scale(16.0702 15.1336)">
<stop stop-color="#7989A7"/>
<stop offset="1" stop-color="#404B68"/>
</radialGradient>
<radialGradient id="paint57_radial_348_4344" cx="0" cy="0" r="1" gradientUnits="userSpaceOnUse" gradientTransform="translate(55.3414 14.0295) scale(15.0912 14.2117)">
<stop stop-color="#B0BAD6"/>
<stop offset="1" stop-color="#5C72A1"/>
</radialGradient>
<radialGradient id="paint58_radial_348_4344" cx="0" cy="0" r="1" gradientUnits="userSpaceOnUse" gradientTransform="translate(53.4674 20.4924) scale(18.8848 17.7842)">
<stop stop-color="#7989A7"/>
<stop offset="1" stop-color="#404B68"/>
</radialGradient>
<radialGradient id="paint59_radial_348_4344" cx="0" cy="0" r="1" gradientUnits="userSpaceOnUse" gradientTransform="translate(19.1732 27.1357) scale(8.01306 7.54606)">
<stop stop-color="#9AADD2"/>
<stop offset="1" stop-color="#404B68"/>
</radialGradient>
<radialGradient id="paint60_radial_348_4344" cx="0" cy="0" r="1" gradientUnits="userSpaceOnUse" gradientTransform="translate(24.9429 27.5781) scale(12.9276 12.1742)">
<stop stop-color="#CDD6E5"/>
<stop offset="0.08" stop-color="#BCC4D2"/>
<stop offset="0.54" stop-color="#5A5D64"/>
<stop offset="0.85" stop-color="#1D1C1F"/>
<stop offset="1" stop-color="#050305"/>
</radialGradient>
<radialGradient id="paint61_radial_348_4344" cx="0" cy="0" r="1" gradientUnits="userSpaceOnUse" gradientTransform="translate(97.5702 55.6156) scale(17.6806 16.6502)">
<stop stop-color="#CDD6E5"/>
<stop offset="0.08" stop-color="#BCC4D2"/>
<stop offset="0.54" stop-color="#5A5D64"/>
<stop offset="0.85" stop-color="#1D1C1F"/>
<stop offset="1" stop-color="#050305"/>
</radialGradient>
<radialGradient id="paint62_radial_348_4344" cx="0" cy="0" r="1" gradientUnits="userSpaceOnUse" gradientTransform="translate(19.8184 43.4593) scale(29.8593 28.12)">
<stop stop-color="#9DA5BF"/>
<stop offset="1" stop-color="#4A5A82"/>
</radialGradient>
<radialGradient id="paint63_radial_348_4344" cx="0" cy="0" r="1" gradientUnits="userSpaceOnUse" gradientTransform="translate(13.2559 48.2025) scale(27.265 25.6768)">
<stop stop-color="#7989A7"/>
<stop offset="1" stop-color="#404B68"/>
</radialGradient>
<radialGradient id="paint64_radial_348_4344" cx="0" cy="0" r="1" gradientUnits="userSpaceOnUse" gradientTransform="translate(26.4616 58.1783) scale(6.05018 5.69757)">
<stop stop-color="#606B85"/>
<stop offset="1" stop-color="#313951"/>
</radialGradient>
<radialGradient id="paint65_radial_348_4344" cx="0" cy="0" r="1" gradientUnits="userSpaceOnUse" gradientTransform="translate(28.9776 69.4633) scale(17.4212 16.4059)">
<stop stop-color="#CDD6E5"/>
<stop offset="0.08" stop-color="#BCC4D2"/>
<stop offset="0.54" stop-color="#5A5D64"/>
<stop offset="0.85" stop-color="#1D1C1F"/>
<stop offset="1" stop-color="#050305"/>
</radialGradient>
<radialGradient id="paint66_radial_348_4344" cx="0" cy="0" r="1" gradientUnits="userSpaceOnUse" gradientTransform="translate(64.7494 94.4573) scale(21.3078 20.066)">
<stop stop-color="#CDD6E5"/>
<stop offset="0.08" stop-color="#BCC4D2"/>
<stop offset="0.54" stop-color="#5A5D64"/>
<stop offset="0.85" stop-color="#1D1C1F"/>
<stop offset="1" stop-color="#050305"/>
</radialGradient>
<radialGradient id="paint67_radial_348_4344" cx="0" cy="0" r="1" gradientUnits="userSpaceOnUse" gradientTransform="translate(91.1341 64.2452) scale(23.2217 21.8684)">
<stop stop-color="#CDD6E5"/>
<stop offset="0.08" stop-color="#BCC4D2"/>
<stop offset="0.54" stop-color="#5A5D64"/>
<stop offset="0.85" stop-color="#1D1C1F"/>
<stop offset="1" stop-color="#050305"/>
</radialGradient>
<radialGradient id="paint68_radial_348_4344" cx="0" cy="0" r="1" gradientUnits="userSpaceOnUse" gradientTransform="translate(112.593 18.8659) scale(26.8538 25.2887)">
<stop stop-color="#CDD6E5"/>
<stop offset="0.08" stop-color="#BCC4D2"/>
<stop offset="0.54" stop-color="#5A5D64"/>
<stop offset="0.85" stop-color="#1D1C1F"/>
<stop offset="1" stop-color="#050305"/>
</radialGradient>
<radialGradient id="paint69_radial_348_4344" cx="0" cy="0" r="1" gradientUnits="userSpaceOnUse" gradientTransform="translate(94.7514 29.6574) scale(24.8469 23.3988)">
<stop stop-color="#CDD6E5"/>
<stop offset="0.08" stop-color="#BCC4D2"/>
<stop offset="0.54" stop-color="#5A5D64"/>
<stop offset="0.85" stop-color="#1D1C1F"/>
<stop offset="1" stop-color="#050305"/>
</radialGradient>
<radialGradient id="paint70_radial_348_4344" cx="0" cy="0" r="1" gradientUnits="userSpaceOnUse" gradientTransform="translate(72.4949 0.127181) scale(26.1832 24.6572)">
<stop stop-color="#CDD6E5"/>
<stop offset="0.08" stop-color="#BCC4D2"/>
<stop offset="0.54" stop-color="#5A5D64"/>
<stop offset="0.85" stop-color="#1D1C1F"/>
<stop offset="1" stop-color="#050305"/>
</radialGradient>
<radialGradient id="paint71_radial_348_4344" cx="0" cy="0" r="1" gradientUnits="userSpaceOnUse" gradientTransform="translate(56.9132 -5.6124) scale(26.2419 24.7125)">
<stop stop-color="#CDD6E5"/>
<stop offset="0.08" stop-color="#BCC4D2"/>
<stop offset="0.54" stop-color="#5A5D64"/>
<stop offset="0.85" stop-color="#1D1C1F"/>
<stop offset="1" stop-color="#050305"/>
</radialGradient>
<radialGradient id="paint72_radial_348_4344" cx="0" cy="0" r="1" gradientUnits="userSpaceOnUse" gradientTransform="translate(73.0756 7.68647) scale(22.233 20.9372)">
<stop stop-color="#CDD6E5"/>
<stop offset="0.08" stop-color="#BCC4D2"/>
<stop offset="0.54" stop-color="#5A5D64"/>
<stop offset="0.85" stop-color="#1D1C1F"/>
<stop offset="1" stop-color="#050305"/>
</radialGradient>
<radialGradient id="paint73_radial_348_4344" cx="0" cy="0" r="1" gradientUnits="userSpaceOnUse" gradientTransform="translate(55.7337 4.98563) scale(18.8261 17.7289)">
<stop stop-color="#CDD6E5"/>
<stop offset="0.08" stop-color="#BCC4D2"/>
<stop offset="0.54" stop-color="#5A5D64"/>
<stop offset="0.85" stop-color="#1D1C1F"/>
<stop offset="1" stop-color="#050305"/>
</radialGradient>
<radialGradient id="paint74_radial_348_4344" cx="0" cy="0" r="1" gradientUnits="userSpaceOnUse" gradientTransform="translate(16.8571 31.9625) scale(19.7708 18.6185)">
<stop stop-color="#CDD6E5"/>
<stop offset="0.08" stop-color="#BCC4D2"/>
<stop offset="0.54" stop-color="#5A5D64"/>
<stop offset="0.85" stop-color="#1D1C1F"/>
<stop offset="1" stop-color="#050305"/>
</radialGradient>
<radialGradient id="paint75_radial_348_4344" cx="0" cy="0" r="1" gradientUnits="userSpaceOnUse" gradientTransform="translate(55.5327 107.069) scale(24.4699 23.0438)">
<stop stop-color="#7989A7"/>
<stop offset="1" stop-color="#404B68"/>
</radialGradient>
<radialGradient id="paint76_radial_348_4344" cx="0" cy="0" r="1" gradientUnits="userSpaceOnUse" gradientTransform="translate(59.2138 70.4642) scale(23.0357 21.6932)">
<stop stop-color="#B0BAD6"/>
<stop offset="1" stop-color="#5C72A1"/>
</radialGradient>
<radialGradient id="paint77_radial_348_4344" cx="0" cy="0" r="1" gradientUnits="userSpaceOnUse" gradientTransform="translate(54.2112 87.967) scale(4.41037 4.15333)">
<stop stop-color="#B0BAD6"/>
<stop offset="1" stop-color="#5C72A1"/>
</radialGradient>
<radialGradient id="paint78_radial_348_4344" cx="0" cy="0" r="1" gradientUnits="userSpaceOnUse" gradientTransform="translate(21.2826 49.5994) scale(19.4086 18.2774)">
<stop stop-color="#B0BAD6"/>
<stop offset="1" stop-color="#5C72A1"/>
</radialGradient>
<radialGradient id="paint79_radial_348_4344" cx="0" cy="0" r="1" gradientUnits="userSpaceOnUse" gradientTransform="translate(15.7562 42.2794) scale(18.9191 17.8164)">
<stop stop-color="#7989A7"/>
<stop offset="1" stop-color="#404B68"/>
</radialGradient>
<radialGradient id="paint80_radial_348_4344" cx="0" cy="0" r="1" gradientUnits="userSpaceOnUse" gradientTransform="translate(110.43 54.1077) scale(17.382 16.369)">
<stop stop-color="#9DA5BF"/>
<stop offset="1" stop-color="#4A5A82"/>
</radialGradient>
<radialGradient id="paint81_radial_348_4344" cx="0" cy="0" r="1" gradientUnits="userSpaceOnUse" gradientTransform="translate(107.802 40.1497) scale(16.5254 15.5623)">
<stop stop-color="#606B85"/>
<stop offset="1" stop-color="#313951"/>
</radialGradient>
<radialGradient id="paint82_radial_348_4344" cx="0" cy="0" r="1" gradientUnits="userSpaceOnUse" gradientTransform="translate(115.911 54.6698) scale(15.9576 15.0276)">
<stop stop-color="#CDD6E5"/>
<stop offset="0.08" stop-color="#BCC4D2"/>
<stop offset="0.54" stop-color="#5A5D64"/>
<stop offset="0.85" stop-color="#1D1C1F"/>
<stop offset="1" stop-color="#050305"/>
</radialGradient>
<radialGradient id="paint83_radial_348_4344" cx="0" cy="0" r="1" gradientUnits="userSpaceOnUse" gradientTransform="translate(77.4971 95.1165) scale(25.2972 23.8229)">
<stop stop-color="#8591B6"/>
<stop offset="1" stop-color="#48587E"/>
</radialGradient>
<radialGradient id="paint84_radial_348_4344" cx="0" cy="0" r="1" gradientUnits="userSpaceOnUse" gradientTransform="translate(92.8861 74.8015) scale(19.11 17.9962)">
<stop stop-color="#606B85"/>
<stop offset="1" stop-color="#313951"/>
</radialGradient>
<radialGradient id="paint85_radial_348_4344" cx="0" cy="0" r="1" gradientUnits="userSpaceOnUse" gradientTransform="translate(40.6465 77.5582) scale(14.9982 14.1241)">
<stop stop-color="#606B85"/>
<stop offset="1" stop-color="#313951"/>
</radialGradient>
<radialGradient id="paint86_radial_348_4344" cx="0" cy="0" r="1" gradientUnits="userSpaceOnUse" gradientTransform="translate(44.7872 85.1549) scale(16.0408 15.106)">
<stop stop-color="#8591B6"/>
<stop offset="1" stop-color="#48587E"/>
</radialGradient>
<radialGradient id="paint87_radial_348_4344" cx="0" cy="0" r="1" gradientUnits="userSpaceOnUse" gradientTransform="translate(39.1976 9.40643) scale(14.9443 14.0734)">
<stop stop-color="#B0BAD6"/>
<stop offset="1" stop-color="#5C72A1"/>
</radialGradient>
<radialGradient id="paint88_radial_348_4344" cx="0" cy="0" r="1" gradientUnits="userSpaceOnUse" gradientTransform="translate(41.3725 5.69102) scale(15.9038 14.9769)">
<stop stop-color="#7989A7"/>
<stop offset="1" stop-color="#404B68"/>
</radialGradient>
<radialGradient id="paint89_radial_348_4344" cx="0" cy="0" r="1" gradientUnits="userSpaceOnUse" gradientTransform="translate(83.3611 7.355) scale(14.1318 13.3082)">
<stop stop-color="#606B85"/>
<stop offset="1" stop-color="#313951"/>
</radialGradient>
<radialGradient id="paint90_radial_348_4344" cx="0" cy="0" r="1" gradientUnits="userSpaceOnUse" gradientTransform="translate(90.5461 13.0664) scale(14.8318 13.9674)">
<stop stop-color="#B0BAD6"/>
<stop offset="1" stop-color="#5C72A1"/>
</radialGradient>
<radialGradient id="paint91_radial_348_4344" cx="0" cy="0" r="1" gradientUnits="userSpaceOnUse" gradientTransform="translate(84.7705 16.7357) scale(11.327 10.6668)">
<stop stop-color="#B0BAD6"/>
<stop offset="1" stop-color="#435276"/>
</radialGradient>
<radialGradient id="paint92_radial_348_4344" cx="0" cy="0" r="1" gradientUnits="userSpaceOnUse" gradientTransform="translate(87.3155 17.9017) scale(7.93963 7.47691)">
<stop stop-color="#CDD6E5"/>
<stop offset="0.08" stop-color="#BCC4D2"/>
<stop offset="0.54" stop-color="#5A5D64"/>
<stop offset="0.85" stop-color="#1D1C1F"/>
<stop offset="1" stop-color="#050305"/>
</radialGradient>
<radialGradient id="paint93_radial_348_4344" cx="0" cy="0" r="1" gradientUnits="userSpaceOnUse" gradientTransform="translate(101.086 56.5512) scale(8.37041 7.88257)">
<stop stop-color="#606B85"/>
<stop offset="1" stop-color="#313951"/>
</radialGradient>
<radialGradient id="paint94_radial_348_4344" cx="0" cy="0" r="1" gradientUnits="userSpaceOnUse" gradientTransform="translate(100.772 61.9443) scale(11.557 10.8835)">
<stop stop-color="#CDD6E5"/>
<stop offset="0.08" stop-color="#BCC4D2"/>
<stop offset="0.54" stop-color="#5A5D64"/>
<stop offset="0.85" stop-color="#1D1C1F"/>
<stop offset="1" stop-color="#050305"/>
</radialGradient>
<radialGradient id="paint95_radial_348_4344" cx="0" cy="0" r="1" gradientUnits="userSpaceOnUse" gradientTransform="translate(34.1022 22.7975) scale(8.00817 7.54145)">
<stop stop-color="#7989A7"/>
<stop offset="1" stop-color="#404B68"/>
</radialGradient>
<radialGradient id="paint96_radial_348_4344" cx="0" cy="0" r="1" gradientUnits="userSpaceOnUse" gradientTransform="translate(33.8971 24.4251) scale(8.60536 8.10383)">
<stop stop-color="#CDD6E5"/>
<stop offset="0.08" stop-color="#BCC4D2"/>
<stop offset="0.54" stop-color="#5A5D64"/>
<stop offset="0.85" stop-color="#1D1C1F"/>
<stop offset="1" stop-color="#050305"/>
</radialGradient>
<clipPath id="clip0_348_4344">
<rect width="125" height="125" fill="white" transform="translate(0.0839844 0.596863)"/>
</clipPath>
</defs>
</svg>
