<svg width="204" height="236" viewBox="0 0 204 236" fill="none" xmlns="http://www.w3.org/2000/svg">
<g clip-path="url(#clip0_26_2694)" filter="url(#filter0_d_26_2694)">
<g style="mix-blend-mode:color-dodge">
<path fill-rule="evenodd" clip-rule="evenodd" d="M91.8384 212.29C102.472 213.354 129.043 217.157 134.905 204.431C141.097 191.071 153.786 187.978 154.598 170.663C155.334 155.148 156.908 153.298 165.663 139.431C169.825 132.84 173.175 129.595 178.352 124.093C184.012 118.085 191.803 113.928 193.249 105.055C194.975 94.4073 188.402 88.5259 185.687 79.8051C184.215 83.2275 181.626 85.2809 177.743 84.3429C171.881 82.8979 171.729 76.9658 174.216 72.504C176.601 68.1943 182.21 64.6452 186.575 62.5664C192.209 59.8538 198.223 58.4088 199.518 51.3359C200.33 46.798 200.101 42.97 199.086 38.4575C197.614 31.7649 196.751 29.2044 189.772 27.7847C186.423 27.1003 186.27 26.1623 185.484 29.0016C184.291 33.2859 183.606 36.4548 181.829 40.6631C180.789 43.1221 179.596 46.6459 176.83 47.5332C175.383 47.9895 175.053 47.9642 173.556 48.7247C168.379 51.3612 162.719 51.7161 157.238 49.7895C151.35 47.4572 153.558 42.2602 146.68 41.9053C143.965 41.7785 140.894 41.4743 138.509 42.8686C137.722 43.3249 136.935 43.8573 136.199 44.3897C128.789 49.7134 127.698 50.8035 118.612 53.8203C106.786 57.7243 104.654 58.0792 93.1073 54.4287C84.7579 51.7922 81.7886 49.9669 73.5407 54.1245C59.1006 61.3749 55.903 59.4736 52.9591 76.839C51.2588 86.9795 49.1524 96.9424 41.0314 104.091C39.0011 105.866 36.7932 107.412 34.6869 109.06C29.5351 113.066 29.8143 112.483 26.7435 118.288C25.2208 121.153 23.1398 123.333 21.8202 126.121C16.5923 141.104 22.9876 149.901 10.7046 164.706C5.22288 171.297 1.56843 176.215 6.89783 184.53C9.20724 187.877 12.8109 190.792 15.9071 193.429C19.8153 196.876 21.0842 198.22 24.3072 202.225C33.5448 213.709 44.4067 208.411 57.3749 209.476C63.2626 209.957 69.1503 210.439 75.0381 210.946C80.6466 211.453 86.2806 211.833 91.8891 212.366L91.8384 212.29Z" fill="url(#paint0_linear_26_2694)" style="mix-blend-mode:screen"/>
</g>
<path d="M46.0056 84.6979C44.3053 86.5739 47.3506 88.171 48.0612 86.4471C48.7972 84.6979 47.7059 82.8219 46.0056 84.6979Z" fill="#00FFB0"/>
<path d="M164.572 39.3195C165.08 41.2715 169.724 43.2236 169.039 38.4576C168.353 33.6916 163.836 36.5055 164.572 39.3195Z" fill="#00FFB0"/>
<path d="M169.115 28.8749C167.313 30.3706 171.069 31.917 171.171 30.8269C171.272 29.7368 169.749 28.3171 169.115 28.8749Z" fill="#00FFB0"/>
<path d="M175.231 78.0812C171.78 82.0107 177.769 79.3488 178.023 78.0812C178.276 76.8137 177.007 76.0532 175.231 78.0812Z" fill="#00FFB0"/>
<path d="M108.639 60.5129C109.755 62.2622 114.501 63.1495 113.41 59.4736C112.319 55.7976 107.979 59.4736 108.639 60.5129Z" fill="#00FFB0"/>
<g style="mix-blend-mode:color-dodge">
<path fill-rule="evenodd" clip-rule="evenodd" d="M15.8561 162.374C17.4041 156.644 19.5613 151.067 20.754 145.262C21.693 140.774 20.3734 135.78 22.226 131.572C24.4592 126.451 28.8243 123.155 31.895 118.491C34.2298 114.942 27.6061 114.942 27.9614 110.835C28.4944 104.801 37.4021 101.987 43.2898 90.3511C47.3757 82.2388 45.3962 73.7969 57.6031 68.7013C65.0642 65.6085 66.0793 70.9829 78.7684 65.2789C82.1691 63.7579 90.823 68.4732 92.9801 62.7185C96.7869 52.5527 102.548 53.0851 101.685 46.1136C101.025 40.7645 102.446 33.5394 115.237 27.8608C123.434 24.2102 132.545 26.289 141.681 22.968C152.137 19.1654 160.181 25.782 171.069 17.8218C173.302 16.174 175.357 14.0191 176.449 11.4587C177.768 8.36583 177.768 4.81668 176.779 1.41964C176.576 0.760514 176.17 -1.69854 178.809 1.87596C181.271 5.1716 182.996 10.0136 182.184 14.5261C181.499 18.3288 178.403 21.523 176.195 24.6666C174.114 27.6326 171.119 32.3479 167.871 33.9704C162.719 36.5562 157.161 35.0351 151.705 36.9111C148.558 37.9759 145.335 39.1167 142.645 41.0687C137.316 44.9728 133.433 51.0824 135.209 55.7977C138.737 65.2029 150.791 58.0285 156.603 65.5325C157.948 67.2563 158.862 69.4619 159.039 71.6421C159.268 74.2025 157.77 76.6616 157.821 79.222C158.024 91.5426 167.896 92.3032 172.033 103.179C173.251 106.373 173.2 110.226 172.033 113.446C170.003 119.023 165.079 123.155 162.719 128.606C161.4 131.623 160.486 135.172 161.247 138.391C161.755 140.521 163.988 143.259 166.145 142.802C175.154 140.876 177.007 131.166 177.642 131.394C179.418 132.028 180.509 143.817 177.109 147.721C173.251 152.157 164.952 150.484 159.319 161.385C157.644 164.63 156.578 168.23 154.421 171.17C151.959 174.517 148.431 176.925 145.614 179.967C143.203 182.553 140.767 185.139 138.762 188.029C135.463 192.82 133.585 198.6 129.702 202.935C126.657 206.332 122.774 209.298 118.434 210.769C113.562 212.416 108.156 212.416 103.004 211.986C80.9763 210.186 58.9481 207.777 37.1483 204.152C31.895 203.29 26.7687 201.287 22.226 198.524C19.5613 196.902 17.5818 194.189 16.1098 191.426C14.0288 187.547 11.7448 183.364 11.6941 178.953C11.6433 173.249 14.3841 167.849 15.8561 162.323V162.374Z" fill="url(#paint1_linear_26_2694)" style="mix-blend-mode:screen"/>
</g>
<path fill-rule="evenodd" clip-rule="evenodd" d="M169.622 96.8157L92.3712 101.354L43.0869 204.532L45.5486 207.422L125.693 213.05L171.5 100.618L169.622 96.8157Z" fill="url(#paint2_radial_26_2694)"/>
<path fill-rule="evenodd" clip-rule="evenodd" d="M43.0869 204.532L45.5486 207.422L126.759 214.419L124.5 211.529L43.0869 204.532Z" fill="url(#paint3_radial_26_2694)"/>
<path fill-rule="evenodd" clip-rule="evenodd" d="M124.5 211.529L169.622 96.8157L171.5 100.618L126.759 214.419L124.5 211.529Z" fill="url(#paint4_radial_26_2694)"/>
<path fill-rule="evenodd" clip-rule="evenodd" d="M23.8758 182.046L14.7396 181.64L21.7694 191.933L34.3315 203.772L43.087 204.532L45.5487 207.422L33.7225 206.408L18.2164 192.389L8.59814 178.294L21.1603 178.852L23.8758 182.046Z" fill="url(#paint5_radial_26_2694)"/>
<path fill-rule="evenodd" clip-rule="evenodd" d="M21.7695 191.933L27.2512 182.198L23.8759 182.046L14.7397 181.64L21.7695 191.933Z" fill="url(#paint6_radial_26_2694)"/>
<path fill-rule="evenodd" clip-rule="evenodd" d="M34.3317 203.772L46.0056 183.06L27.2512 182.198L21.7695 191.933L34.3317 203.772Z" fill="url(#paint7_radial_26_2694)"/>
<path fill-rule="evenodd" clip-rule="evenodd" d="M46.0055 183.06L34.3315 203.772L43.087 204.532L53.1875 183.364L46.0055 183.06Z" fill="url(#paint8_radial_26_2694)"/>
<path fill-rule="evenodd" clip-rule="evenodd" d="M100.924 180.525L28.5708 178.294C31.4385 185.392 37.7831 192.719 44.6605 197.18C47.0968 197.104 47.8582 197.916 50.1168 198.118C73.0332 200.299 95.9243 202.479 118.841 204.684C115.846 195.634 105.847 184.911 100.924 180.525Z" fill="url(#paint9_radial_26_2694)"/>
<path fill-rule="evenodd" clip-rule="evenodd" d="M125.185 130.989L100.924 180.55C101.304 183.694 102.599 186.939 104.604 190.158L105.923 189.372L105.568 191.629C106.558 193.048 107.674 194.443 108.893 195.812L110.035 195.279L109.806 196.775C111.583 198.676 113.588 200.527 115.77 202.301L117.115 201.87V203.366C117.673 203.822 118.257 204.253 118.866 204.71C132.342 169.903 145.818 135.121 159.293 100.314C158.025 99.3001 156.781 98.1846 155.588 96.9171L153.964 99.0973L154.573 95.7763C153.609 94.6608 152.695 93.444 151.807 92.1004L150.563 93.013L150.893 90.6554C150.563 90.0976 150.208 89.4892 149.904 88.8808L149.015 89.5906L149.168 87.4358C148.736 86.5485 148.305 85.6105 147.924 84.6472L125.236 130.989H125.185Z" fill="url(#paint10_radial_26_2694)"/>
<path fill-rule="evenodd" clip-rule="evenodd" d="M148.584 88.9061L140.209 111.443L149.066 90.7568L149.853 88.9061L148.99 89.5906L149.117 87.4358L148.584 88.9061Z" fill="#72574C"/>
<path fill-rule="evenodd" clip-rule="evenodd" d="M149.904 93.1904L136.707 127.719L150.614 94.7876L151.756 92.1004L150.538 92.9876L150.868 90.6553L149.904 93.1904Z" fill="#72574C"/>
<path fill-rule="evenodd" clip-rule="evenodd" d="M107.344 186.989L121.911 149.318L116.861 161.233L114.856 166.151C114.323 167.444 113.79 168.661 113.232 169.801L106.38 185.95L104.604 190.133L105.898 189.347L105.568 191.502L107.319 186.989H107.344Z" fill="#72574C"/>
<path fill-rule="evenodd" clip-rule="evenodd" d="M134.042 134.386L110.796 191.096L109.629 193.936L108.867 195.761L110.009 195.254L109.781 196.724L111.583 192.085L134.042 134.361V134.386Z" fill="#72574C"/>
<path style="mix-blend-mode:screen" fill-rule="evenodd" clip-rule="evenodd" d="M118.587 165.466C125.363 151.143 130.743 138.822 135.235 124.017L118.587 165.466Z" fill="url(#paint11_radial_26_2694)"/>
<path fill-rule="evenodd" clip-rule="evenodd" d="M117.039 169.193C121.506 157.607 125.845 146.073 130.464 134.563C132.647 129.164 135.083 123.738 137.418 118.415C135.286 124.22 133.256 129.949 130.946 135.679C126.454 146.884 121.709 158.089 117.039 169.193Z" fill="#72574C"/>
<path style="mix-blend-mode:multiply" fill-rule="evenodd" clip-rule="evenodd" d="M111.811 192.364L148.965 101.708L152.492 93.1144C152.264 92.7848 152.01 92.4299 151.782 92.1004L150.538 93.013L150.868 90.6554C150.538 90.0976 150.183 89.4892 149.878 88.8808L148.99 89.5906L149.142 87.4358C149.142 87.4358 149.041 87.2076 148.965 87.0809C148.584 86.295 148.229 85.4837 147.873 84.6472L125.185 130.989L100.924 180.55C101.304 183.694 102.599 186.939 104.604 190.158L105.923 189.372L105.568 191.629C106.558 193.048 107.674 194.443 108.893 195.812L110.035 195.279L109.806 196.775C109.806 196.775 109.908 196.876 109.958 196.927L111.811 192.389V192.364Z" fill="url(#paint12_radial_26_2694)"/>
<path style="mix-blend-mode:multiply" fill-rule="evenodd" clip-rule="evenodd" d="M100.924 180.525L28.5708 178.294C30.5249 183.111 34.0525 188.029 38.2906 192.085L109.933 196.927C109.933 196.927 109.832 196.826 109.781 196.775L110.009 195.279L108.867 195.812C107.649 194.443 106.532 193.023 105.543 191.629L105.898 189.372L104.578 190.158C102.573 186.939 101.254 183.694 100.898 180.55L100.924 180.525Z" fill="url(#paint13_radial_26_2694)"/>
<path fill-rule="evenodd" clip-rule="evenodd" d="M116.582 186.203C119.45 178.421 122.267 170.663 125.337 162.957C129.55 152.309 133.991 141.712 138.382 131.141C134.321 141.864 130.286 152.664 126.073 163.337C123.028 171.018 119.805 178.598 116.607 186.203H116.582Z" fill="#72574C"/>
<path fill-rule="evenodd" clip-rule="evenodd" d="M153.507 98.5395L133.078 152.208L154.598 99.3001L155.563 96.8917L154.04 98.9451L153.964 99.0719L153.989 98.9198L154.548 95.7509L153.507 98.5395Z" fill="#72574C"/>
<path fill-rule="evenodd" clip-rule="evenodd" d="M138.382 146.428L116.734 199.868L116.278 201.009L115.77 202.276L117.115 201.845L117.09 203.29L117.673 201.718L138.382 146.428Z" fill="#72574C"/>
<g style="mix-blend-mode:multiply">
<path fill-rule="evenodd" clip-rule="evenodd" d="M58.4409 187.42L105.568 191.603L105.923 189.347L104.629 190.133L58.4663 187.395L58.4409 187.42Z" fill="#BFAA97"/>
</g>
<g style="mix-blend-mode:multiply">
<path fill-rule="evenodd" clip-rule="evenodd" d="M108.892 195.786L77.5757 193.707L109.781 196.75L110.009 195.254L108.867 195.786H108.892Z" fill="#BFAA97"/>
</g>
<g style="mix-blend-mode:multiply">
<path fill-rule="evenodd" clip-rule="evenodd" d="M115.745 202.276L62.1206 197.814L117.064 203.341V201.845L115.719 202.276H115.745Z" fill="#BFAA97"/>
</g>
<g style="mix-blend-mode:multiply">
<path fill-rule="evenodd" clip-rule="evenodd" d="M30.9817 183.009L81.1542 186.077L30.4233 182.071C30.601 182.401 30.804 182.705 30.9817 183.035V183.009Z" fill="#BFAA97"/>
</g>
<g style="mix-blend-mode:multiply">
<path fill-rule="evenodd" clip-rule="evenodd" d="M66.917 190.589L34.3315 187.725C34.5853 188.029 34.8391 188.333 35.0929 188.637L66.917 190.589Z" fill="#BFAA97"/>
</g>
<g style="mix-blend-mode:multiply">
<path fill-rule="evenodd" clip-rule="evenodd" d="M86.3059 196.496L38.2651 192.034C38.5697 192.338 38.8742 192.617 39.2041 192.896L86.3059 196.471V196.496Z" fill="#BFAA97"/>
</g>
<path style="mix-blend-mode:screen" opacity="0.5" fill-rule="evenodd" clip-rule="evenodd" d="M107.344 186.989L105.593 191.502L66.105 188.079L106.152 192.389L107.877 187.572L117.851 159.788L107.344 186.964V186.989Z" fill="url(#paint14_radial_26_2694)"/>
<path fill-rule="evenodd" clip-rule="evenodd" d="M66.993 87.8161L63.6938 79.653L71.9164 78.9939L66.993 87.8161Z" fill="url(#paint15_radial_26_2694)"/>
<path fill-rule="evenodd" clip-rule="evenodd" d="M70.9015 80.8192L66.2573 81.1994L13.8262 174.39L18.6734 174.542L70.9015 80.8192Z" fill="url(#paint16_linear_26_2694)"/>
<path fill-rule="evenodd" clip-rule="evenodd" d="M10.8059 172.843L8.24268 177.356L8.59797 178.294L9.28318 179.207L22.023 179.866L78.3878 74.7856L65.6987 76.1292L63.6938 79.653L71.9164 78.9939L62.9325 95.1171L54.6592 95.5735L46.5129 109.922L54.913 109.517L39.6862 136.845L31.2099 136.87L22.0991 152.918H30.7277L19.4852 173.122L10.8059 172.843Z" fill="url(#paint17_radial_26_2694)"/>
<path fill-rule="evenodd" clip-rule="evenodd" d="M22.5561 178.902L22.5308 180.449L106.761 185.798L155.791 68.2704L155.03 66.6733L80.0122 74.5828L22.5561 178.902Z" fill="url(#paint18_radial_26_2694)"/>
<path fill-rule="evenodd" clip-rule="evenodd" d="M82.1691 79.5009L85.6206 79.146L82.0422 85.8894L78.134 86.9541L82.1691 79.5009ZM79.5806 76.3067L21.1602 178.852L104.527 182.629L155.03 66.6733L79.5806 76.3067ZM134.829 74.2025L127.494 85.9654L128.51 87.8414L141.199 89.9455L111.582 156.72L94.7059 160.523L86.7372 177.686L43.1884 175.632L51.4616 159.864L50.3957 158.115L40.9297 155.706L73.6928 95.1679L87.6508 90.9849L94.3253 78.2841L134.829 74.2025ZM142.061 87.9428L131.631 86.2189L137.138 74.2786L139.574 74.0251L133.788 82.5684L134.803 84.4444L143.077 85.6612L142.061 87.9428ZM143.939 83.7092L137.899 82.7966L141.985 73.7969L148.609 73.1378L143.914 83.7092H143.939ZM75.7739 91.2892L84.7831 88.6527L90.0871 78.6897L92.092 78.4869L86.2296 89.5653L74.8349 93.0384L75.7739 91.2892ZM89.6049 177.762L91.9397 177.863L98.3096 163.971L109.4 161.562L110.415 159.255L96.7615 162.221L89.5795 177.787L89.6049 177.762ZM94.8328 177.964L100.238 166.049L108.207 164.224L101.989 178.243L94.8328 177.964ZM39.6608 157.962L48.3401 161.157L40.7521 175.505L38.5695 175.429L45.2186 162.957L44.0258 161.436L38.4173 160.269L39.6608 157.962ZM37.1484 162.627L42.0463 164.604L36.3363 175.328L30.3978 175.1L37.1484 162.627Z" fill="#474F54"/>
<path fill-rule="evenodd" clip-rule="evenodd" d="M80.0122 74.5828L22.5562 178.902L104.502 182.629L155.03 66.6479L80.0122 74.5574V74.5828ZM133.662 72.6814L127.495 85.9654L140.184 88.0695L110.567 154.844L93.691 158.647L85.7223 175.81L41.9704 174.111L50.3706 158.114L39.7118 154.185L72.5003 93.6214L86.4582 89.4385L93.1327 76.7376L133.662 72.6561V72.6814ZM141.072 86.0921L130.642 84.3683L136.149 72.4279L138.585 72.1744L133.814 82.5683L142.087 83.7852L141.072 86.0668V86.0921ZM142.95 81.8585L136.91 80.9459L140.996 71.9463L147.619 71.2871L142.925 81.8585H142.95ZM86.5597 77.4221L82.0424 85.8893L75.774 87.5879L80.9766 77.9798L86.5597 77.4221ZM74.5813 89.7934L83.5905 87.1569L88.8945 77.1939L90.8994 76.9911L85.0371 88.0695L73.6423 91.5426L74.5813 89.7934ZM88.4123 175.911L90.9248 176.012L97.2947 162.12L108.385 159.712L109.4 157.405L95.4928 160.497L88.387 175.936L88.4123 175.911ZM93.6402 176.114L98.995 164.351L107.141 162.526L101 176.393L93.6656 176.114H93.6402ZM38.4682 156.467L47.1475 159.661L39.5595 174.035L37.377 173.959L44.026 161.486L37.2247 158.824L38.4682 156.517V156.467ZM35.9558 161.131L40.8538 163.109L35.1437 173.832L29.2052 173.604L35.9558 161.131Z" fill="url(#paint19_radial_26_2694)"/>
<path fill-rule="evenodd" clip-rule="evenodd" d="M72.5005 93.6214L73.6933 95.1425L87.6512 90.9849L86.4584 89.4385L72.5005 93.6214Z" fill="url(#paint20_radial_26_2694)"/>
<path fill-rule="evenodd" clip-rule="evenodd" d="M86.458 89.4385L93.1325 76.763L94.3252 78.2841L87.6508 90.9849L86.458 89.4385Z" fill="url(#paint21_radial_26_2694)"/>
<path fill-rule="evenodd" clip-rule="evenodd" d="M73.6421 91.5173L84.4532 88.2217L83.5903 87.1316L74.6065 89.7681L73.6421 91.5173Z" fill="url(#paint22_radial_26_2694)"/>
<path fill-rule="evenodd" clip-rule="evenodd" d="M88.8944 77.1686L83.5903 87.1316L84.4532 88.2217L85.0369 88.0442L90.8992 76.9911L88.8944 77.1686Z" fill="url(#paint23_radial_26_2694)"/>
<path fill-rule="evenodd" clip-rule="evenodd" d="M75.7739 87.5879L80.9764 77.9799L82.1692 79.5009L78.1341 86.9541L75.7739 87.5879ZM41.412 154.794L73.6929 95.1425L72.5001 93.6215L39.7116 154.185L41.3866 154.794H41.412ZM37.1738 162.627L35.981 161.106L29.2305 173.579L31.21 173.655L37.1992 162.602L37.1738 162.627Z" fill="url(#paint24_radial_26_2694)"/>
<path fill-rule="evenodd" clip-rule="evenodd" d="M35.981 161.131L37.1737 162.652L40.4221 163.971L40.8789 163.109L35.981 161.131Z" fill="url(#paint25_radial_26_2694)"/>
<path fill-rule="evenodd" clip-rule="evenodd" d="M37.25 158.799L38.8996 159.433L39.6863 157.988L38.4935 156.467L37.25 158.799Z" fill="url(#paint26_radial_26_2694)"/>
<path fill-rule="evenodd" clip-rule="evenodd" d="M39.6864 157.988L46.7162 160.548L47.173 159.661L38.4937 156.467L39.6864 157.988Z" fill="url(#paint27_radial_26_2694)"/>
<path fill-rule="evenodd" clip-rule="evenodd" d="M44.0514 161.461L37.4023 173.934L39.3818 174.01L45.2442 162.982L44.0514 161.461Z" fill="url(#paint28_radial_26_2694)"/>
<path fill-rule="evenodd" clip-rule="evenodd" d="M50.3958 158.115L41.9956 174.111L43.9497 174.187L51.487 159.864L50.3958 158.115Z" fill="url(#paint29_radial_26_2694)"/>
<path fill-rule="evenodd" clip-rule="evenodd" d="M99.0203 164.351L93.6655 176.114L95.6958 176.19L100.289 166.075L99.0203 164.351Z" fill="url(#paint30_radial_26_2694)"/>
<path fill-rule="evenodd" clip-rule="evenodd" d="M100.289 166.075L106.203 164.706L107.167 162.526L99.0205 164.351L100.289 166.075Z" fill="url(#paint31_radial_26_2694)"/>
<path fill-rule="evenodd" clip-rule="evenodd" d="M90.4677 175.987L96.8123 162.196L95.5434 160.472L88.4375 175.911L90.4677 175.987Z" fill="url(#paint32_radial_26_2694)"/>
<path fill-rule="evenodd" clip-rule="evenodd" d="M97.3199 162.095L108.436 159.686L109.451 157.379L95.5435 160.472L96.8124 162.196L97.3199 162.095Z" fill="url(#paint33_radial_26_2694)"/>
<path fill-rule="evenodd" clip-rule="evenodd" d="M128.51 87.8414L139.498 89.6413L140.209 88.0442L127.495 85.9654L128.51 87.8414Z" fill="url(#paint34_radial_26_2694)"/>
<path fill-rule="evenodd" clip-rule="evenodd" d="M132.367 84.6471L137.138 74.3039L136.123 72.4279L130.642 84.3683L132.367 84.6471Z" fill="url(#paint35_radial_26_2694)"/>
<path fill-rule="evenodd" clip-rule="evenodd" d="M141.021 71.9463L136.935 80.9459L138.661 81.1994L142.036 73.7969L141.021 71.9463Z" fill="url(#paint36_radial_26_2694)"/>
<path fill-rule="evenodd" clip-rule="evenodd" d="M82.1693 79.5009L80.9766 77.9798L86.5597 77.4221L85.6208 79.1713L82.1693 79.5262V79.5009ZM94.3254 78.284L132.748 74.6842L133.687 72.6814L93.158 76.763L94.3508 78.284H94.3254ZM136.123 72.4279L137.138 74.3039L137.62 74.2532L138.559 72.1744L136.123 72.4279ZM142.011 73.7969L146.706 73.3152L147.619 71.2618L140.996 71.9209L142.011 73.7969Z" fill="url(#paint37_radial_26_2694)"/>
<path fill-rule="evenodd" clip-rule="evenodd" d="M142.087 83.7852L133.814 82.5938L134.804 84.4444L141.377 85.4077L142.087 83.7852Z" fill="url(#paint38_radial_26_2694)"/>
<path fill-rule="evenodd" clip-rule="evenodd" d="M21.1602 178.852L23.8756 182.046L106.761 185.798L104.527 182.629L21.1602 178.852Z" fill="url(#paint39_radial_26_2694)"/>
<path fill-rule="evenodd" clip-rule="evenodd" d="M106.761 185.798L156.552 69.8422L155.03 66.6733L104.527 182.629L106.761 185.798Z" fill="url(#paint40_radial_26_2694)"/>
<path fill-rule="evenodd" clip-rule="evenodd" d="M54.9133 109.517L53.9743 111.19L49.254 111.443L48.2135 113.268L46.5132 109.922L54.9133 109.517Z" fill="url(#paint41_radial_26_2694)"/>
<path fill-rule="evenodd" clip-rule="evenodd" d="M22.0991 152.918L24.1294 156.061L25.0937 154.388L29.9156 154.363L30.7277 152.918H22.0991Z" fill="url(#paint42_radial_26_2694)"/>
<path fill-rule="evenodd" clip-rule="evenodd" d="M51.6142 96.2072L45.5742 106.855L57.705 106.246L63.6688 95.5481L51.6142 96.2072Z" fill="url(#paint43_linear_26_2694)"/>
<path fill-rule="evenodd" clip-rule="evenodd" d="M28.0885 137.631L21.3633 149.495H33.6209L40.2446 137.605L28.0885 137.631Z" fill="url(#paint44_linear_26_2694)"/>
<path fill-rule="evenodd" clip-rule="evenodd" d="M46.8431 109.364L45.5742 106.855L57.705 106.246L56.969 107.59L47.5791 108.071L46.8431 109.364Z" fill="url(#paint45_radial_26_2694)"/>
<path fill-rule="evenodd" clip-rule="evenodd" d="M22.7845 151.726L21.3633 149.495H33.6209L32.9357 150.737H23.3428L22.7845 151.726Z" fill="url(#paint46_radial_26_2694)"/>
<path style="mix-blend-mode:screen" fill-rule="evenodd" clip-rule="evenodd" d="M73.1602 93.4186L86.306 89.185L92.346 78.2587L86.7882 89.5399L87.3973 90.63L86.3821 89.7427L73.1602 93.4186Z" fill="url(#paint47_radial_26_2694)"/>
<path style="mix-blend-mode:screen" fill-rule="evenodd" clip-rule="evenodd" d="M76.3325 89.261L83.4638 86.9541L88.3617 78.1826L83.8191 87.1569L84.0728 87.7653L83.5145 87.309L76.3325 89.261Z" fill="url(#paint48_radial_26_2694)"/>
<path style="mix-blend-mode:screen" opacity="0.35" fill-rule="evenodd" clip-rule="evenodd" d="M34.4076 137.631H30.804H28.1139L21.3887 149.495H24.0788H27.6824C26.5658 146.707 30.7024 138.746 34.433 137.605L34.4076 137.631Z" fill="url(#paint49_radial_26_2694)"/>
<path style="mix-blend-mode:screen" opacity="0.35" fill-rule="evenodd" clip-rule="evenodd" d="M48.3404 106.728L52.0456 106.55C49.9393 103.889 54.3804 96.3847 58.111 95.8523L54.3804 96.0551L51.6142 96.2072L45.5742 106.855L48.3404 106.728Z" fill="url(#paint50_radial_26_2694)"/>
<path style="mix-blend-mode:multiply" fill-rule="evenodd" clip-rule="evenodd" d="M29.9157 154.363H27.7332C27.3017 157.962 21.9216 168.737 17.3281 173.046L19.4599 173.122L29.9157 154.363Z" fill="url(#paint51_radial_26_2694)"/>
<path style="mix-blend-mode:multiply" fill-rule="evenodd" clip-rule="evenodd" d="M37.5039 136.87H39.6864L53.9743 111.215L51.741 111.316C51.3604 115.17 43.5185 129.493 37.5039 136.87Z" fill="url(#paint52_radial_26_2694)"/>
<path style="mix-blend-mode:multiply" fill-rule="evenodd" clip-rule="evenodd" d="M60.6992 95.2439L62.9325 95.1172L70.9012 80.8192L68.6426 80.9966C68.8964 83.7092 64.2775 92.4806 60.7246 95.2186L60.6992 95.2439Z" fill="url(#paint53_radial_26_2694)"/>
<path fill-rule="evenodd" clip-rule="evenodd" d="M96.4062 76.4334C97.8528 76.7884 100.543 76.9405 101.05 76.8898C103.131 76.7376 105.948 75.9771 106.684 75.394C105.339 73.5688 103.309 73.011 102.548 73.0871C101.431 73.1885 97.8528 74.4054 96.3809 76.4334H96.4062Z" fill="url(#paint54_radial_26_2694)"/>
<path fill-rule="evenodd" clip-rule="evenodd" d="M78.3878 74.7856L79.6313 75.2166L22.023 179.866L21.1602 178.852L78.3878 74.7856Z" fill="#3D444F"/>
<path style="mix-blend-mode:screen" fill-rule="evenodd" clip-rule="evenodd" d="M102.574 73.0617C103.081 73.011 104.198 73.2645 105.289 73.9997C105.797 74.3546 106.279 74.7856 106.71 75.3687C106.507 75.5461 106.101 75.7236 105.594 75.901C104.375 76.3574 102.523 76.763 101.051 76.8644C99.7312 76.9658 101.939 73.1124 102.574 73.0364V73.0617Z" fill="url(#paint55_radial_26_2694)"/>
<path fill-rule="evenodd" clip-rule="evenodd" d="M58.72 119.099C58.6946 120.772 56.1568 124.93 55.4462 125.158C54.5326 123.941 54.2281 121.736 54.4057 121.178C54.5834 120.595 56.9943 119.074 58.72 119.099Z" fill="url(#paint56_radial_26_2694)"/>
<path style="mix-blend-mode:screen" fill-rule="evenodd" clip-rule="evenodd" d="M54.8119 120.671C54.5835 120.874 54.4313 121.026 54.4059 121.153C54.2536 121.609 54.4566 123.257 55.0657 124.474C55.1926 124.702 55.3195 124.93 55.4464 125.107C55.7002 125.031 56.1823 124.448 56.7153 123.637C57.2228 122.877 55.3956 120.139 54.8119 120.62V120.671Z" fill="url(#paint57_radial_26_2694)"/>
<path style="mix-blend-mode:multiply" fill-rule="evenodd" clip-rule="evenodd" d="M68.6427 93.4186H69.0488C69.3787 93.4186 69.6578 93.5708 69.8355 93.8496C70.0131 94.1285 70.0131 94.458 69.8355 94.7369L62.0952 109.035C61.7145 109.745 60.9785 110.1 60.1918 110.024L58.3138 109.795C57.9839 109.745 57.7301 109.567 57.6032 109.288C57.4763 108.984 57.5017 108.68 57.6794 108.401L67.0693 94.2806C67.4246 93.7482 67.9829 93.444 68.6427 93.444V93.4186Z" fill="url(#paint58_linear_26_2694)"/>
<path style="mix-blend-mode:multiply" fill-rule="evenodd" clip-rule="evenodd" d="M45.5996 135.248H46.0057C46.3356 135.248 46.6148 135.4 46.7924 135.679C46.9701 135.958 46.9701 136.287 46.7924 136.566L37.8593 153.044C37.4786 153.754 36.7427 154.109 35.956 154.033L34.078 153.805C33.7481 153.754 33.4943 153.577 33.3674 153.298C33.2405 152.994 33.2659 152.689 33.4435 152.411L44.0262 136.11C44.3815 135.552 44.9398 135.273 45.5996 135.273V135.248Z" fill="url(#paint59_linear_26_2694)"/>
<path fill-rule="evenodd" clip-rule="evenodd" d="M40.2956 132.206C40.9047 131.116 42.6304 131.293 43.747 131.851C44.8383 132.434 45.9042 133.701 45.219 135.07L44.5337 136.414L39.6865 133.347L40.321 132.206H40.2956Z" fill="url(#paint60_linear_26_2694)"/>
<path fill-rule="evenodd" clip-rule="evenodd" d="M38.6711 133.423C39.4578 132.003 41.7418 132.206 43.163 132.966C44.5842 133.727 46.0307 135.4 45.0664 137.175L36.5901 152.715L30.1187 148.608L38.6457 133.423H38.6711Z" fill="url(#paint61_linear_26_2694)"/>
<path fill-rule="evenodd" clip-rule="evenodd" d="M30.1443 148.608C30.6265 147.847 32.4791 148.126 34.2556 149.267C36.0321 150.408 37.0979 151.954 36.6158 152.715C36.1336 153.475 34.281 153.196 32.5045 152.056C30.728 150.915 29.6622 149.368 30.1443 148.608Z" fill="url(#paint62_radial_26_2694)"/>
<path fill-rule="evenodd" clip-rule="evenodd" d="M35.6511 152.081L34.7629 153.729L30.144 150.813L31.083 149.191C31.4129 148.633 32.7072 148.836 33.9761 149.647C35.245 150.458 36.0064 151.549 35.6511 152.106V152.081Z" fill="url(#paint63_linear_26_2694)"/>
<path fill-rule="evenodd" clip-rule="evenodd" d="M30.1441 150.788C30.4993 150.23 31.7936 150.458 33.0879 151.27C34.3568 152.081 35.1182 153.171 34.7629 153.729C34.4076 154.286 33.1133 154.058 31.819 153.247C30.5501 152.436 29.7888 151.346 30.1441 150.788Z" fill="url(#paint64_radial_26_2694)"/>
<path fill-rule="evenodd" clip-rule="evenodd" d="M63.821 90.199C64.3793 89.2104 65.9781 89.3371 66.9679 89.8695C67.983 90.4019 68.9474 91.568 68.3129 92.8356L67.6785 94.0778L63.2373 91.2638L63.821 90.2244V90.199Z" fill="url(#paint65_linear_26_2694)"/>
<path fill-rule="evenodd" clip-rule="evenodd" d="M62.3238 91.3145C63.0597 90.0216 65.1407 90.199 66.4604 90.8835C67.7801 91.568 69.0997 93.1397 68.2115 94.7622L60.4204 109.035L54.4819 105.258L62.3238 91.3145Z" fill="url(#paint66_linear_26_2694)"/>
<path fill-rule="evenodd" clip-rule="evenodd" d="M54.5069 105.258C54.9637 104.548 56.6387 104.827 58.2883 105.866C59.9379 106.905 60.9022 108.325 60.4454 109.035C59.9886 109.745 58.3137 109.466 56.6641 108.426C55.0145 107.387 54.0501 105.967 54.5069 105.258Z" fill="url(#paint67_radial_26_2694)"/>
<path fill-rule="evenodd" clip-rule="evenodd" d="M59.5576 108.452L58.7201 109.973L54.4819 107.286L55.3448 105.79C55.6493 105.283 56.8421 105.46 58.0095 106.196C59.1769 106.931 59.8621 107.945 59.5576 108.452Z" fill="url(#paint68_linear_26_2694)"/>
<path fill-rule="evenodd" clip-rule="evenodd" d="M54.5073 107.286C54.8372 106.779 56.03 106.981 57.1974 107.717C58.3648 108.452 59.05 109.466 58.7454 109.973C58.4155 110.48 57.2228 110.277 56.0554 109.542C54.888 108.807 54.2028 107.793 54.5073 107.286Z" fill="url(#paint69_radial_26_2694)"/>
<path fill-rule="evenodd" clip-rule="evenodd" d="M104.299 93.8749L80.3675 108.553L64.2017 144.856L75.0381 152.487L94.3001 144.628L114.983 106.829L104.299 93.8749Z" fill="#585858"/>
<path fill-rule="evenodd" clip-rule="evenodd" d="M64.2017 144.856L64.8361 145.718L75.6726 153.349L75.0381 152.487L64.2017 144.856Z" fill="#4D4D4D"/>
<path fill-rule="evenodd" clip-rule="evenodd" d="M75.0381 152.487L94.3001 144.628L94.9599 145.49L75.6725 153.349L75.0381 152.487Z" fill="url(#paint70_radial_26_2694)"/>
<path fill-rule="evenodd" clip-rule="evenodd" d="M114.983 106.829L94.2998 144.628L94.9596 145.49L115.617 107.691L114.983 106.829Z" fill="url(#paint71_radial_26_2694)"/>
<path fill-rule="evenodd" clip-rule="evenodd" d="M114.983 106.829L110.085 106.956L91.1787 141.662L94.3002 144.628L114.983 106.829Z" fill="url(#paint72_radial_26_2694)"/>
<path fill-rule="evenodd" clip-rule="evenodd" d="M91.1786 141.662L76.2055 147.873L75.0381 152.487L94.3001 144.628L91.1786 141.662Z" fill="url(#paint73_radial_26_2694)"/>
<path fill-rule="evenodd" clip-rule="evenodd" d="M76.2055 147.873L67.4754 140.724L64.2017 144.856L75.0381 152.487L76.2055 147.873Z" fill="url(#paint74_radial_26_2694)"/>
<path fill-rule="evenodd" clip-rule="evenodd" d="M67.4754 140.724L81.1289 109.441L80.3675 108.553L64.2017 144.856L67.4754 140.724Z" fill="url(#paint75_radial_26_2694)"/>
<path fill-rule="evenodd" clip-rule="evenodd" d="M81.129 109.44L101.558 96.7143L104.299 93.8749L80.3677 108.553L81.129 109.44Z" fill="url(#paint76_radial_26_2694)"/>
<path fill-rule="evenodd" clip-rule="evenodd" d="M101.558 96.7143L110.085 106.956L114.983 106.829L104.299 93.8749L101.558 96.7143Z" fill="url(#paint77_radial_26_2694)"/>
<path fill-rule="evenodd" clip-rule="evenodd" d="M101.558 96.7142C94.7824 100.137 87.9811 103.559 81.2052 106.981C76.3833 118.44 72.2467 129.747 67.501 140.749C70.3941 143.132 73.3126 145.515 76.231 147.898C81.2305 145.819 86.2046 143.74 91.2041 141.662C97.4979 130.102 103.817 118.541 110.111 106.981C109.959 106.728 109.832 106.474 109.679 106.221C106.989 103.052 104.274 99.8831 101.584 96.7396L101.558 96.7142Z" fill="url(#paint78_radial_26_2694)"/>
<path fill-rule="evenodd" clip-rule="evenodd" d="M101.558 96.7142C94.7824 100.137 87.981 103.559 81.2051 106.981C81.4589 107.21 81.6873 107.412 81.941 107.641C84.0474 106.779 91.5086 104.269 93.6911 103.813C95.3914 102.672 97.8024 101.632 99.858 100.897C100.315 99.3761 100.848 98.0325 101.558 96.7142Z" fill="url(#paint79_radial_26_2694)"/>
<path fill-rule="evenodd" clip-rule="evenodd" d="M99.8579 100.872C101.152 101.506 102.548 102.494 103.715 103.508C105.695 104.167 108.03 105.181 109.654 106.196C106.964 103.027 104.248 99.8578 101.558 96.7142C100.848 98.0071 100.315 99.3761 99.8579 100.897V100.872Z" fill="url(#paint80_radial_26_2694)"/>
<path fill-rule="evenodd" clip-rule="evenodd" d="M103.715 103.508C102.548 102.52 101.152 101.531 99.8577 100.872C97.802 101.607 95.3911 102.646 93.6908 103.787C92.7264 106.627 91.0514 114.637 90.417 119.936C94.4775 115.474 99.9845 108.629 103.715 103.508Z" fill="url(#paint81_radial_26_2694)"/>
<path fill-rule="evenodd" clip-rule="evenodd" d="M90.4172 119.936C91.0516 114.637 92.7012 106.652 93.6909 103.787C91.483 104.244 84.0473 106.728 81.9409 107.615C77.9819 117.857 73.9214 129.012 69.9624 139C72.1703 138.62 75.4948 138.315 78.2103 138.391C79.7584 136.389 82.6007 133.524 85.24 131.445C86.9657 127.617 88.6914 123.789 90.4425 119.961L90.4172 119.936Z" fill="url(#paint82_radial_26_2694)"/>
<path fill-rule="evenodd" clip-rule="evenodd" d="M85.2402 131.42C82.6262 133.524 79.7585 136.363 78.2104 138.366C78.515 139.127 79.3017 140.343 79.7331 140.8C80.8498 140.521 82.88 139.786 84.0474 139.101C84.5042 136.921 84.961 133.803 85.2148 131.395L85.2402 131.42Z" fill="url(#paint83_radial_26_2694)"/>
<path fill-rule="evenodd" clip-rule="evenodd" d="M85.2401 131.42C84.9864 133.828 84.5296 136.946 84.0728 139.127C86.1791 139.532 88.3109 140.09 90.3158 140.749C96.8633 130.102 104.401 116.437 109.679 106.196C108.055 105.182 105.72 104.167 103.741 103.508C100.036 108.629 94.5285 115.474 90.4427 119.936C88.7169 123.764 86.9912 127.592 85.2401 131.42Z" fill="url(#paint84_radial_26_2694)"/>
<path fill-rule="evenodd" clip-rule="evenodd" d="M90.2904 140.749C88.2855 140.09 86.1538 139.507 84.0474 139.127C82.9054 139.786 80.8751 140.546 79.7331 140.825C79.2763 142.27 77.2207 146.377 76.1802 147.898C80.8751 145.515 85.5701 143.157 90.265 140.774L90.2904 140.749Z" fill="url(#paint85_radial_26_2694)"/>
<path fill-rule="evenodd" clip-rule="evenodd" d="M76.2054 147.873C77.2459 146.352 79.3016 142.245 79.7584 140.8C79.3016 140.318 78.5148 139.127 78.2357 138.366C75.4948 138.315 72.1703 138.594 69.9878 138.974C72.4495 141.788 74.4797 144.78 76.2308 147.873H76.2054Z" fill="url(#paint86_radial_26_2694)"/>
<path fill-rule="evenodd" clip-rule="evenodd" d="M76.2057 147.873C74.4292 144.805 72.4243 141.814 69.9627 138.974C69.0998 139.38 67.9578 140.166 67.501 140.698C70.3941 143.081 73.3126 145.464 76.231 147.847L76.2057 147.873Z" fill="url(#paint87_radial_26_2694)"/>
<path fill-rule="evenodd" clip-rule="evenodd" d="M90.2904 140.749C85.5955 143.132 80.9005 145.49 76.2056 147.873C81.2051 145.794 86.1792 143.715 91.1786 141.636C90.8741 141.332 90.595 141.028 90.2904 140.749Z" fill="url(#paint88_radial_26_2694)"/>
<path fill-rule="evenodd" clip-rule="evenodd" d="M90.2905 140.749C90.5951 141.053 90.8742 141.357 91.1788 141.636C97.4725 130.076 103.792 118.516 110.085 106.956C109.933 106.703 109.806 106.449 109.654 106.196C104.375 116.437 96.8381 130.102 90.2905 140.749Z" fill="url(#paint89_radial_26_2694)"/>
<path fill-rule="evenodd" clip-rule="evenodd" d="M81.2052 106.956C76.3833 118.415 72.2467 129.721 67.501 140.724C67.9832 140.191 69.0998 139.38 69.9627 139C73.9216 129.037 77.9821 117.857 81.9411 107.615C81.6873 107.387 81.4589 107.184 81.2052 106.956Z" fill="url(#paint90_radial_26_2694)"/>
<path style="mix-blend-mode:screen" fill-rule="evenodd" clip-rule="evenodd" d="M91.6863 112.204C91.1026 114.587 90.5951 117.249 89.8337 119.556C89.1231 121.66 88.1334 124.372 87.0168 126.857C86.2047 127.541 84.3013 128.403 83.0831 128.91C84.149 128.53 85.6717 127.82 86.8137 127.288C86.2047 128.581 85.5702 129.823 84.9358 130.862C84.1998 132.054 81.9411 134.006 80.3931 135.882C81.8396 134.361 83.5907 132.738 85.2403 131.42L87.169 127.136L90.4174 119.936C90.6966 117.654 91.1534 114.866 91.6863 112.204Z" fill="url(#paint91_radial_26_2694)"/>
<path style="mix-blend-mode:screen" fill-rule="evenodd" clip-rule="evenodd" d="M73.896 128.783C74.9365 126.02 80.6973 122.192 84.6309 119.581C88.793 116.818 91.4069 113.015 92.5235 108.148C92.9296 106.322 93.3356 104.776 93.6655 103.813C91.4576 104.269 84.0219 106.753 81.9155 107.641C79.2762 114.485 76.5607 121.761 73.896 128.809V128.783Z" fill="url(#paint92_radial_26_2694)"/>
<path style="mix-blend-mode:screen" fill-rule="evenodd" clip-rule="evenodd" d="M82.9307 107.235C86.3567 105.841 89.8335 104.852 93.2342 103.508C94.9345 102.849 97.0916 101.835 98.4367 101.201C99.1219 100.872 99.6802 100.568 99.8071 100.365C100.162 99.8578 100.619 98.641 100.924 98.0325C100.797 98.4128 100.137 100.466 100.213 100.72C100.289 100.999 101.863 102.063 102.167 102.292C101.761 102.063 100.315 101.201 99.934 101.176C99.7817 101.176 99.6295 101.176 99.3757 101.252C97.7769 101.683 94.7315 102.976 93.9448 104.015C93.7164 104.32 93.6148 104.7 93.4372 105.308C92.8535 107.59 92.2698 109.897 91.6607 112.178C92.0922 109.897 92.5236 107.615 92.955 105.308C93.158 104.193 93.3357 104.091 92.2444 104.269C89.1483 105.258 86.0522 106.145 82.9307 107.21V107.235Z" fill="url(#paint93_radial_26_2694)"/>
<path style="mix-blend-mode:screen" fill-rule="evenodd" clip-rule="evenodd" d="M67.9829 140.242C68.3382 139.938 69.6579 138.924 69.8101 138.543C73.2869 130 76.5353 121.406 79.9106 112.863C76.9921 121.178 73.896 129.468 70.7745 137.732C70.5207 138.442 70.4446 138.62 71.3074 138.62C72.4748 138.62 73.6168 138.493 74.7842 138.442C73.5661 138.62 72.3479 138.746 71.1298 138.949C70.7491 139 70.5207 139.025 70.4953 139.177C70.4446 139.431 71.2059 140.47 71.3582 140.724C71.079 140.445 70.2416 139.481 69.9116 139.405C69.7594 139.355 69.6071 139.38 69.4548 139.405C68.9473 139.558 68.3382 140.014 67.9575 140.217L67.9829 140.242Z" fill="url(#paint94_radial_26_2694)"/>
<path style="mix-blend-mode:screen" fill-rule="evenodd" clip-rule="evenodd" d="M84.377 143.74C85.6966 143.031 87.0924 142.27 88.2852 141.586C89.1988 141.053 89.7064 140.698 89.0212 140.47C88.1583 140.166 87.1432 139.887 86.2042 139.558C87.0417 139.76 87.8791 139.963 88.6405 140.115C90.5185 140.445 90.2647 140.242 91.4321 138.442C95.1627 132.814 98.5379 126.552 101.964 120.62C98.4618 127.389 94.4267 133.955 90.6961 140.419C90.5692 140.622 90.5692 140.825 90.7722 141.155C90.4677 141.079 90.2901 141.028 90.1124 141.053C89.3003 141.256 85.4936 143.259 84.4277 143.69L84.377 143.74Z" fill="url(#paint95_radial_26_2694)"/>
<path style="mix-blend-mode:multiply" opacity="0.35" fill-rule="evenodd" clip-rule="evenodd" d="M73.9214 131.775C74.7589 131.749 78.0834 130.304 80.1898 129.341C80.9004 129.341 81.7378 129.468 82.3215 129.671C83.5143 128.986 85.4177 128.175 86.9911 127.541C88.7676 128.302 90.3156 129.062 91.7876 129.848C92.5489 130.406 93.2595 130.938 93.9955 131.471C93.3356 130.913 92.5743 130.279 91.9145 129.569C90.0872 128.91 88.6407 128.048 87.1941 127.136C85.6207 127.871 83.0829 129.037 82.1439 129.189C81.5602 129.24 80.9765 129.189 80.4182 129.037C80.7735 127.668 81.3064 126.476 82.0678 125.361C83.0829 125.082 84.0726 124.6 84.9862 124.043C85.3415 124.017 85.7476 124.043 86.1283 124.043C85.7476 123.967 85.3669 123.941 84.9355 123.941C84.0219 124.474 83.0829 124.955 81.9662 125.26C81.3318 126.198 80.7989 127.237 80.342 128.352C80.139 128.859 80.0883 129.088 79.733 129.265C77.8804 130.178 75.571 131.141 73.9468 131.775H73.9214Z" fill="url(#paint96_radial_26_2694)"/>
<path style="mix-blend-mode:screen" fill-rule="evenodd" clip-rule="evenodd" d="M78.8699 115.651C79.3013 115.651 80.2911 115.347 81.2808 115.195C82.1691 115.043 83.1842 114.967 83.7933 114.992C84.4277 113.573 85.1129 112.609 85.8997 111.469C86.2803 110.911 86.7371 110.632 86.9909 110.505C87.9045 110.074 88.7674 109.719 89.8079 109.491C90.1632 108.046 90.2901 107.945 91.3306 107.438C90.9499 107.59 90.5692 107.767 90.1886 107.97C90.0109 108.35 89.7318 108.908 89.6556 109.288C88.4882 109.618 87.3462 110.15 86.2803 110.657C85.3921 111.95 84.2501 113.497 83.5902 114.663C82.7274 114.764 79.5297 115.347 78.9461 115.525C78.4385 115.88 77.9563 116.209 77.4741 116.437C77.9309 116.285 78.5654 115.981 78.8953 115.651H78.8699Z" fill="url(#paint97_radial_26_2694)"/>
<path style="mix-blend-mode:multiply" opacity="0.35" fill-rule="evenodd" clip-rule="evenodd" d="M77.2207 116.513C77.779 116.311 78.3373 115.905 78.921 115.499C79.5047 115.322 82.7024 114.739 83.5652 114.637C84.2251 113.471 85.3671 111.925 86.2553 110.632C87.3212 110.125 88.4632 109.618 89.6306 109.263C89.7067 108.883 89.9859 108.325 90.1635 107.945C90.6457 107.691 91.1279 107.488 91.5847 107.286C91.0772 107.438 90.595 107.641 90.0874 107.894C89.9098 108.325 89.6306 108.655 89.3514 109.01C88.4124 109.517 87.2704 109.922 86.0777 110.378C85.4178 111.418 84.0474 113.573 83.2861 114.206C82.2963 114.612 80.6468 114.916 79.0733 115.068C78.5404 115.499 77.9313 116.108 77.2207 116.488V116.513Z" fill="url(#paint98_radial_26_2694)"/>
<path style="mix-blend-mode:screen" fill-rule="evenodd" clip-rule="evenodd" d="M86.9913 127.541C85.4178 128.175 83.5144 129.011 82.3217 129.671C81.738 129.468 80.9005 129.341 80.1899 129.341C78.2866 130.228 75.3173 131.496 74.2007 131.724C75.2666 131.597 76.0279 131.293 76.9669 130.913C77.7029 130.609 78.4388 130.304 79.1748 130C80.6975 129.366 81.1543 129.417 82.3978 129.823C83.2353 129.24 85.8746 128.074 86.7882 127.972C87.8287 128.023 91.7877 130.051 93.5642 131.141C92.9805 130.71 92.3714 130.279 91.7877 129.848C90.3412 129.062 88.7677 128.276 86.9913 127.541Z" fill="url(#paint99_radial_26_2694)"/>
<path style="mix-blend-mode:screen" fill-rule="evenodd" clip-rule="evenodd" d="M80.723 128.327C80.9006 127.744 81.662 125.741 82.2964 125.412C83.1847 124.981 84.0221 124.702 84.9104 124.195C85.2149 124.017 85.3672 124.043 85.6717 124.017C85.4179 124.017 85.1641 124.017 84.9611 124.017C84.0475 124.575 83.0578 125.057 82.0426 125.336C81.2813 126.451 80.7484 127.643 80.3931 129.011C80.5453 129.037 80.6976 129.062 80.8499 129.088C80.6468 128.885 80.6215 128.657 80.7484 128.276L80.723 128.327Z" fill="url(#paint100_radial_26_2694)"/>
<path style="mix-blend-mode:screen" fill-rule="evenodd" clip-rule="evenodd" d="M76.0024 152.081C79.4031 150.256 91.6607 145.997 93.9955 144.324C94.833 143.715 108.842 116.944 111.786 112.66C106.228 123.105 100.645 133.777 95.0614 144.222C94.8837 144.552 94.7569 145.16 94.9345 145.515C94.6553 145.236 93.9448 145.236 93.5641 145.388L75.9771 152.106L76.0024 152.081Z" fill="url(#paint101_radial_26_2694)"/>
<path style="mix-blend-mode:multiply" opacity="0.65" fill-rule="evenodd" clip-rule="evenodd" d="M31.3622 148.202C34.3061 142.955 37.2499 137.707 40.1938 132.459C39.5593 132.586 39.001 132.89 38.6965 133.448L30.1694 148.633C30.3725 148.304 30.8039 148.177 31.3876 148.202H31.3622Z" fill="url(#paint102_linear_26_2694)"/>
<path style="mix-blend-mode:multiply" opacity="0.65" fill-rule="evenodd" clip-rule="evenodd" d="M54.5073 105.258C54.685 104.953 55.091 104.852 55.624 104.877C58.314 100.061 61.0295 95.2439 63.7196 90.4272C63.1359 90.5286 62.6283 90.8075 62.3492 91.3398L54.5073 105.283V105.258Z" fill="url(#paint103_linear_26_2694)"/>
<path style="mix-blend-mode:screen" opacity="0.5" fill-rule="evenodd" clip-rule="evenodd" d="M64.8109 90.4018C62.0701 95.2946 59.3546 100.187 56.6138 105.08C57.1213 105.232 57.6543 105.486 58.2126 105.815C60.9788 100.846 63.7196 95.8523 66.4859 90.8835C66.0037 90.63 65.42 90.4525 64.8363 90.3765L64.8109 90.4018Z" fill="url(#paint104_linear_26_2694)"/>
<path style="mix-blend-mode:screen" opacity="0.5" fill-rule="evenodd" clip-rule="evenodd" d="M43.1886 132.966C42.6556 132.687 42.0212 132.485 41.3867 132.409C38.4175 137.732 35.4482 143.081 32.4536 148.405C33.0119 148.583 33.5956 148.861 34.1793 149.216C37.1739 143.791 40.1686 138.366 43.1886 132.966Z" fill="url(#paint105_linear_26_2694)"/>
<path style="mix-blend-mode:multiply" fill-rule="evenodd" clip-rule="evenodd" d="M44.6352 134.132C41.6406 139.558 38.6714 144.983 35.6768 150.433C36.4889 151.27 36.8949 152.106 36.6411 152.639L37.5801 150.915L45.1174 137.124C45.6757 136.034 45.3204 134.969 44.6352 134.158V134.132Z" fill="url(#paint106_linear_26_2694)"/>
<path style="mix-blend-mode:multiply" fill-rule="evenodd" clip-rule="evenodd" d="M60.4712 108.984L68.2116 94.7876C68.7699 93.7482 68.44 92.7595 67.8055 91.999C65.1662 96.7903 62.2477 102.114 59.583 106.956C60.3444 107.717 60.6996 108.502 60.4712 109.01V108.984Z" fill="url(#paint107_linear_26_2694)"/>
<path fill-rule="evenodd" clip-rule="evenodd" d="M34.6362 140.597C35.8544 138.417 42.5034 141.89 41.3361 144.07C41.2599 141.991 36.4127 139.405 34.6362 140.597Z" fill="url(#paint108_radial_26_2694)"/>
<path fill-rule="evenodd" clip-rule="evenodd" d="M58.6436 97.9057C59.7602 95.903 65.8763 99.0972 64.7851 101.075C64.7343 99.1733 60.2678 96.7903 58.6436 97.9057Z" fill="url(#paint109_radial_26_2694)"/>
<path fill-rule="evenodd" clip-rule="evenodd" d="M8.59814 178.294L21.1603 178.852L22.0232 179.866L9.28335 179.207L8.59814 178.294Z" fill="url(#paint110_radial_26_2694)"/>
<path fill-rule="evenodd" clip-rule="evenodd" d="M22.5559 178.928L104.527 182.629L105.162 183.516L22.0229 179.866L22.5559 178.928Z" fill="url(#paint111_radial_26_2694)"/>
<path fill-rule="evenodd" clip-rule="evenodd" d="M105.162 183.516L104.527 182.629L155.03 66.6733L155.537 67.7127L105.162 183.516Z" fill="url(#paint112_radial_26_2694)"/>
<path style="mix-blend-mode:screen" fill-rule="evenodd" clip-rule="evenodd" d="M69.5058 181.032C73.3633 181.159 103.081 182.528 104.248 181.716C104.604 181.463 109.578 170.384 115.313 157.455C114.958 156.898 114.222 155.199 114.4 154.743C114.907 153.323 116.938 150.712 119.323 148.38C125.591 134.158 131.708 120.164 132.976 117.299L119.577 148.76C119.425 150.788 118.765 154.363 118.409 155.022C117.902 155.96 116.963 156.72 115.796 157.633L105.746 181.26C105.619 181.564 105.543 181.868 105.492 182.173C105.34 183.364 105.949 184.302 106.431 185.342C105.771 184.53 104.858 183.618 103.969 183.263C103.639 183.136 103.284 183.06 102.903 183.035L69.4805 181.032H69.5058Z" fill="url(#paint113_radial_26_2694)"/>
<path fill-rule="evenodd" clip-rule="evenodd" d="M119.12 149.09C119.12 150.737 118.283 154.185 118.003 154.717C117.826 155.098 116.963 156.315 115.669 156.999C114.806 155.681 114.654 154.996 114.78 154.743C115.161 153.653 117.775 149.977 119.12 149.09Z" fill="url(#paint114_radial_26_2694)"/>
<path style="mix-blend-mode:screen" fill-rule="evenodd" clip-rule="evenodd" d="M114.806 154.743C114.704 154.971 114.806 155.529 115.44 156.593C115.516 156.72 115.592 156.847 115.694 156.999C115.998 156.847 116.303 156.644 116.557 156.441C117.369 155.782 117.902 155.022 118.029 154.717C118.46 153.754 114.983 154.363 114.806 154.717V154.743Z" fill="url(#paint115_radial_26_2694)"/>
<path style="mix-blend-mode:screen" fill-rule="evenodd" clip-rule="evenodd" d="M87.8793 105.511C85.443 106.297 83.0067 107.159 81.9409 107.615C77.9819 117.857 73.9214 129.011 69.9624 139C71.3074 138.772 73.0332 138.569 74.8096 138.467C79.4792 127.871 83.4636 116.818 87.8793 105.536V105.511Z" fill="url(#paint116_radial_26_2694)"/>
<path style="mix-blend-mode:screen" opacity="0.5" fill-rule="evenodd" clip-rule="evenodd" d="M85.2401 131.42C84.9864 133.828 84.5296 136.946 84.0728 139.127C85.1133 139.329 86.1791 139.558 87.2196 139.836C90.9756 132.713 102.497 111.824 106.837 104.725C105.796 104.269 104.731 103.838 103.715 103.508C100.01 108.629 94.5032 115.474 90.4173 119.936C88.6916 123.764 86.9659 127.592 85.2148 131.42H85.2401Z" fill="url(#paint117_radial_26_2694)"/>
<g style="mix-blend-mode:multiply" opacity="0.35">
<path fill-rule="evenodd" clip-rule="evenodd" d="M99.2739 80.515C102.751 81.3008 109.273 83.7092 112.521 84.926C114.425 85.6359 126.479 90.5793 131.936 93.3679C122.723 90.0977 117.064 87.74 112.141 85.7626C109.121 84.5458 103.334 82.2895 99.2739 80.515Z" fill="#064037"/>
</g>
<g style="mix-blend-mode:multiply" opacity="0.35">
<path fill-rule="evenodd" clip-rule="evenodd" d="M53.6191 144.095C56.9944 148.177 60.2682 152.132 62.4 154.895C64.6079 157.582 70.191 165.187 74.7845 172.083C68.643 165.238 64.7094 159.813 61.5625 155.529C59.6338 152.918 55.9793 147.847 53.6445 144.095H53.6191Z" fill="#064037"/>
</g>
<g style="mix-blend-mode:multiply" opacity="0.35">
<path fill-rule="evenodd" clip-rule="evenodd" d="M91.6606 88.1202C94.5791 88.3991 100.112 89.4892 102.878 90.0723C105.669 90.5793 113.359 92.5313 119.577 94.3059C111.735 92.8355 106.888 91.6947 102.675 90.706C100.086 90.0976 95.1628 89.0329 91.6606 88.1202Z" fill="#064037"/>
</g>
<path fill-rule="evenodd" clip-rule="evenodd" d="M91.6606 88.1203C95.6958 88.9315 99.9847 89.8188 102.751 90.4272C105.669 91.0863 112.724 92.7595 119.577 94.2806C113.663 93.3679 106.938 91.8722 102.7 90.8835C100.112 90.2751 93.4371 88.8047 91.6353 88.0949L91.6606 88.1203Z" fill="#108963"/>
<path fill-rule="evenodd" clip-rule="evenodd" d="M99.2739 80.515C104.147 82.3909 109.044 84.1909 112.293 85.4331C115.592 86.7513 123.967 90.1991 131.936 93.3679C122.723 90.0977 117.064 87.74 112.141 85.7626C109.121 84.5458 103.334 82.2895 99.2739 80.515Z" fill="#108963"/>
<path opacity="0.65" fill-rule="evenodd" clip-rule="evenodd" d="M53.6191 144.095C56.9691 148.963 59.8368 152.487 61.9178 155.275C64.3033 158.495 69.5058 165.568 74.7845 172.083C68.643 165.238 64.7094 159.813 61.5625 155.529C59.6338 152.918 55.9793 147.847 53.6445 144.095H53.6191Z" fill="#187D60"/>
</g>
<defs>
<filter id="filter0_d_26_2694" x="-2" y="0" width="206" height="244" filterUnits="userSpaceOnUse" color-interpolation-filters="sRGB">
<feFlood flood-opacity="0" result="BackgroundImageFix"/>
<feColorMatrix in="SourceAlpha" type="matrix" values="0 0 0 0 0 0 0 0 0 0 0 0 0 0 0 0 0 0 127 0" result="hardAlpha"/>
<feOffset dy="4"/>
<feGaussianBlur stdDeviation="2"/>
<feComposite in2="hardAlpha" operator="out"/>
<feColorMatrix type="matrix" values="0 0 0 0 0 0 0 0 0 0 0 0 0 0 0 0 0 0 0.25 0"/>
<feBlend mode="normal" in2="BackgroundImageFix" result="effect1_dropShadow_26_2694"/>
<feBlend mode="normal" in="SourceGraphic" in2="effect1_dropShadow_26_2694" result="shape"/>
</filter>
<linearGradient id="paint0_linear_26_2694" x1="102.117" y1="213.659" x2="102.117" y2="27.0749" gradientUnits="userSpaceOnUse">
<stop stop-color="white"/>
<stop offset="1" stop-color="#010808"/>
</linearGradient>
<linearGradient id="paint1_linear_26_2694" x1="97.066" y1="212.264" x2="97.066" y2="-2.77925e-05" gradientUnits="userSpaceOnUse">
<stop stop-color="white"/>
<stop offset="1" stop-color="#010808"/>
</linearGradient>
<radialGradient id="paint2_radial_26_2694" cx="0" cy="0" r="1" gradientUnits="userSpaceOnUse" gradientTransform="translate(284.357 219.109) scale(249.111 248.846)">
<stop stop-color="#7F8B94"/>
<stop offset="0.66" stop-color="#454C62"/>
<stop offset="1" stop-color="#2D324D"/>
</radialGradient>
<radialGradient id="paint3_radial_26_2694" cx="0" cy="0" r="1" gradientUnits="userSpaceOnUse" gradientTransform="translate(102.852 42.2348) scale(194.193 193.986)">
<stop stop-color="#7F8B94"/>
<stop offset="0.04" stop-color="#7B8790"/>
<stop offset="0.69" stop-color="#3C4254"/>
<stop offset="1" stop-color="#24283D"/>
</radialGradient>
<radialGradient id="paint4_radial_26_2694" cx="0" cy="0" r="1" gradientUnits="userSpaceOnUse" gradientTransform="translate(-22.7438 72.504) scale(220.967 220.732)">
<stop stop-color="#7F8B94"/>
<stop offset="0.66" stop-color="#454C62"/>
<stop offset="1" stop-color="#2D324D"/>
</radialGradient>
<radialGradient id="paint5_radial_26_2694" cx="0" cy="0" r="1" gradientUnits="userSpaceOnUse" gradientTransform="translate(-25.9668 228.312) scale(84.0523 83.9627)">
<stop stop-color="#7F8B94"/>
<stop offset="0.04" stop-color="#7B8790"/>
<stop offset="0.69" stop-color="#3C4254"/>
<stop offset="1" stop-color="#24283D"/>
</radialGradient>
<radialGradient id="paint6_radial_26_2694" cx="0" cy="0" r="1" gradientUnits="userSpaceOnUse" gradientTransform="translate(18.8256 237.438) scale(55.7811 55.7216)">
<stop stop-color="#586066"/>
<stop offset="0.49" stop-color="#3C4250"/>
<stop offset="1" stop-color="#24283D"/>
</radialGradient>
<radialGradient id="paint7_radial_26_2694" cx="0" cy="0" r="1" gradientUnits="userSpaceOnUse" gradientTransform="translate(46.9954 258.378) scale(75.7283 75.6475)">
<stop stop-color="#4F565C"/>
<stop offset="0.24" stop-color="#464C58"/>
<stop offset="1" stop-color="#2D324D"/>
</radialGradient>
<radialGradient id="paint8_radial_26_2694" cx="0" cy="0" r="1" gradientUnits="userSpaceOnUse" gradientTransform="translate(137.925 248.314) scale(113.288 113.167)">
<stop stop-color="#7F8B94"/>
<stop offset="0.66" stop-color="#454C62"/>
<stop offset="1" stop-color="#2D324D"/>
</radialGradient>
<radialGradient id="paint9_radial_26_2694" cx="0" cy="0" r="1" gradientUnits="userSpaceOnUse" gradientTransform="translate(107.37 322.161) scale(200.259 200.045)">
<stop offset="0.31" stop-color="#C29D78"/>
<stop offset="0.39" stop-color="#BD9875"/>
<stop offset="0.48" stop-color="#B08C6D"/>
<stop offset="0.56" stop-color="#9A7860"/>
<stop offset="0.66" stop-color="#7B5C4E"/>
<stop offset="0.72" stop-color="#61443E"/>
<stop offset="1" stop-color="#332321"/>
</radialGradient>
<radialGradient id="paint10_radial_26_2694" cx="0" cy="0" r="1" gradientUnits="userSpaceOnUse" gradientTransform="translate(241.189 219.413) scale(184.727 184.53)">
<stop stop-color="#D4B697"/>
<stop offset="0.18" stop-color="#CFB192"/>
<stop offset="0.38" stop-color="#C2A485"/>
<stop offset="0.59" stop-color="#AD8E6F"/>
<stop offset="0.81" stop-color="#8F7050"/>
<stop offset="0.86" stop-color="#876848"/>
</radialGradient>
<radialGradient id="paint11_radial_26_2694" cx="0" cy="0" r="1" gradientUnits="userSpaceOnUse" gradientTransform="translate(129.576 146.326) scale(45.0715 45.0235)">
<stop stop-color="#916C5F"/>
<stop offset="1"/>
</radialGradient>
<radialGradient id="paint12_radial_26_2694" cx="0" cy="0" r="1" gradientUnits="userSpaceOnUse" gradientTransform="translate(309.532 222.354) scale(225.155 224.915)">
<stop offset="0.81" stop-color="white"/>
<stop offset="0.83" stop-color="#F9F9F8"/>
<stop offset="0.86" stop-color="#EBE8E7"/>
<stop offset="0.89" stop-color="#D4CDC9"/>
<stop offset="0.93" stop-color="#B3A8A1"/>
<stop offset="0.97" stop-color="#8A786E"/>
<stop offset="1" stop-color="#695244"/>
</radialGradient>
<radialGradient id="paint13_radial_26_2694" cx="0" cy="0" r="1" gradientUnits="userSpaceOnUse" gradientTransform="translate(66.2573 453.911) scale(301.035 300.714)">
<stop offset="0.81" stop-color="white"/>
<stop offset="0.83" stop-color="#F9F9F8"/>
<stop offset="0.86" stop-color="#EBE8E7"/>
<stop offset="0.89" stop-color="#D4CDC9"/>
<stop offset="0.93" stop-color="#B3A8A1"/>
<stop offset="0.97" stop-color="#8A786E"/>
<stop offset="1" stop-color="#695244"/>
</radialGradient>
<radialGradient id="paint14_radial_26_2694" cx="0" cy="0" r="1" gradientUnits="userSpaceOnUse" gradientTransform="translate(106.532 192.845) scale(56.3648 56.3047)">
<stop stop-color="#916C5F"/>
<stop offset="1"/>
</radialGradient>
<radialGradient id="paint15_radial_26_2694" cx="0" cy="0" r="1" gradientUnits="userSpaceOnUse" gradientTransform="translate(63.4401 76.7377) scale(10.8365 10.8249)">
<stop stop-color="#7F8B94"/>
<stop offset="0.66" stop-color="#454C62"/>
<stop offset="1" stop-color="#2D324D"/>
</radialGradient>
<linearGradient id="paint16_linear_26_2694" x1="40.3971" y1="126.527" x2="44.3287" y2="128.711" gradientUnits="userSpaceOnUse">
<stop stop-color="#064037"/>
<stop offset="0.04" stop-color="#034E3E"/>
<stop offset="0.09" stop-color="#015C44"/>
<stop offset="0.16" stop-color="#006347"/>
<stop offset="0.29" stop-color="#006649"/>
<stop offset="0.47" stop-color="#015B44"/>
<stop offset="1" stop-color="#064037"/>
</linearGradient>
<radialGradient id="paint17_radial_26_2694" cx="0" cy="0" r="1" gradientUnits="userSpaceOnUse" gradientTransform="translate(70.1399 66.5465) scale(147.244 147.087)">
<stop stop-color="#B4C1D5"/>
<stop offset="0.56" stop-color="#465161"/>
<stop offset="0.64" stop-color="#4E5969"/>
<stop offset="0.75" stop-color="#646F80"/>
<stop offset="0.89" stop-color="#8793A6"/>
<stop offset="1" stop-color="#A9B5CA"/>
</radialGradient>
<radialGradient id="paint18_radial_26_2694" cx="0" cy="0" r="1" gradientUnits="userSpaceOnUse" gradientTransform="translate(82.8038 82.2642) scale(115.267 115.145)">
<stop stop-color="#187D60"/>
<stop offset="1" stop-color="#064037"/>
</radialGradient>
<radialGradient id="paint19_radial_26_2694" cx="0" cy="0" r="1" gradientUnits="userSpaceOnUse" gradientTransform="translate(81.7125 66.7239) scale(147.244 147.087)">
<stop stop-color="#B4C1D5"/>
<stop offset="0.56" stop-color="#465161"/>
<stop offset="0.64" stop-color="#4E5969"/>
<stop offset="0.75" stop-color="#646F80"/>
<stop offset="0.89" stop-color="#8793A6"/>
<stop offset="1" stop-color="#A9B5CA"/>
</radialGradient>
<radialGradient id="paint20_radial_26_2694" cx="0" cy="0" r="1" gradientUnits="userSpaceOnUse" gradientTransform="translate(86.8899 81.8078) scale(27.3068 27.2777)">
<stop stop-color="#7F8B94"/>
<stop offset="0.66" stop-color="#454C62"/>
<stop offset="1" stop-color="#2D324D"/>
</radialGradient>
<radialGradient id="paint21_radial_26_2694" cx="0" cy="0" r="1" gradientUnits="userSpaceOnUse" gradientTransform="translate(101.71 95.7256) scale(28.119 28.089)">
<stop stop-color="#7F8B94"/>
<stop offset="0.66" stop-color="#454C62"/>
<stop offset="1" stop-color="#2D324D"/>
</radialGradient>
<radialGradient id="paint22_radial_26_2694" cx="0" cy="0" r="1" gradientUnits="userSpaceOnUse" gradientTransform="translate(81.0271 81.5544) scale(17.1556 17.1373)">
<stop stop-color="#7F8B94"/>
<stop offset="0.66" stop-color="#454C62"/>
<stop offset="1" stop-color="#2D324D"/>
</radialGradient>
<radialGradient id="paint23_radial_26_2694" cx="0" cy="0" r="1" gradientUnits="userSpaceOnUse" gradientTransform="translate(98.1066 93.444) scale(22.2058 22.1822)">
<stop stop-color="#7F8B94"/>
<stop offset="0.66" stop-color="#454C62"/>
<stop offset="1" stop-color="#2D324D"/>
</radialGradient>
<radialGradient id="paint24_radial_26_2694" cx="0" cy="0" r="1" gradientUnits="userSpaceOnUse" gradientTransform="translate(137.798 144.121) scale(137.397 137.251)">
<stop stop-color="#7F8B94"/>
<stop offset="0.66" stop-color="#454C62"/>
<stop offset="1" stop-color="#2D324D"/>
</radialGradient>
<radialGradient id="paint25_radial_26_2694" cx="0" cy="0" r="1" gradientUnits="userSpaceOnUse" gradientTransform="translate(44.1273 155.503) scale(11.1664 11.1545)">
<stop stop-color="#7F8B94"/>
<stop offset="0.04" stop-color="#7B8790"/>
<stop offset="0.69" stop-color="#3C4254"/>
<stop offset="1" stop-color="#24283D"/>
</radialGradient>
<radialGradient id="paint26_radial_26_2694" cx="0" cy="0" r="1" gradientUnits="userSpaceOnUse" gradientTransform="translate(33.6463 150.357) scale(13.7549 13.7403)">
<stop stop-color="#7F8B94"/>
<stop offset="0.66" stop-color="#454C62"/>
<stop offset="1" stop-color="#2D324D"/>
</radialGradient>
<radialGradient id="paint27_radial_26_2694" cx="0" cy="0" r="1" gradientUnits="userSpaceOnUse" gradientTransform="translate(52.9846 148.126) scale(24.4391 24.4131)">
<stop stop-color="#7F8B94"/>
<stop offset="0.04" stop-color="#7B8790"/>
<stop offset="0.69" stop-color="#3C4254"/>
<stop offset="1" stop-color="#24283D"/>
</radialGradient>
<radialGradient id="paint28_radial_26_2694" cx="0" cy="0" r="1" gradientUnits="userSpaceOnUse" gradientTransform="translate(29.1545 151.067) scale(24.7437 24.7173)">
<stop stop-color="#7F8B94"/>
<stop offset="0.66" stop-color="#454C62"/>
<stop offset="1" stop-color="#2D324D"/>
</radialGradient>
<radialGradient id="paint29_radial_26_2694" cx="0" cy="0" r="1" gradientUnits="userSpaceOnUse" gradientTransform="translate(36.4124 147.619) scale(29.5909 29.5593)">
<stop stop-color="#7F8B94"/>
<stop offset="0.66" stop-color="#454C62"/>
<stop offset="1" stop-color="#2D324D"/>
</radialGradient>
<radialGradient id="paint30_radial_26_2694" cx="0" cy="0" r="1" gradientUnits="userSpaceOnUse" gradientTransform="translate(119.983 176.748) scale(30.403 30.3706)">
<stop stop-color="#7F8B94"/>
<stop offset="0.66" stop-color="#454C62"/>
<stop offset="1" stop-color="#2D324D"/>
</radialGradient>
<radialGradient id="paint31_radial_26_2694" cx="0" cy="0" r="1" gradientUnits="userSpaceOnUse" gradientTransform="translate(97.3456 142.65) scale(27.1546 27.1257)">
<stop stop-color="#7F8B94"/>
<stop offset="0.04" stop-color="#7B8790"/>
<stop offset="0.69" stop-color="#3C4254"/>
<stop offset="1" stop-color="#24283D"/>
</radialGradient>
<radialGradient id="paint32_radial_26_2694" cx="0" cy="0" r="1" gradientUnits="userSpaceOnUse" gradientTransform="translate(115.186 177.128) scale(30.3522 30.3199)">
<stop stop-color="#7F8B94"/>
<stop offset="0.66" stop-color="#454C62"/>
<stop offset="1" stop-color="#2D324D"/>
</radialGradient>
<radialGradient id="paint33_radial_26_2694" cx="0" cy="0" r="1" gradientUnits="userSpaceOnUse" gradientTransform="translate(96.2794 133.752) scale(31.3166 31.2832)">
<stop stop-color="#7F8B94"/>
<stop offset="0.04" stop-color="#7B8790"/>
<stop offset="0.69" stop-color="#3C4254"/>
<stop offset="1" stop-color="#24283D"/>
</radialGradient>
<radialGradient id="paint34_radial_26_2694" cx="0" cy="0" r="1" gradientUnits="userSpaceOnUse" gradientTransform="translate(131.834 77.2193) scale(18.729 18.7091)">
<stop stop-color="#7F8B94"/>
<stop offset="0.66" stop-color="#454C62"/>
<stop offset="1" stop-color="#2D324D"/>
</radialGradient>
<radialGradient id="paint35_radial_26_2694" cx="0" cy="0" r="1" gradientUnits="userSpaceOnUse" gradientTransform="translate(124.119 73.6955) scale(15.0492 15.0332)">
<stop stop-color="#7F8B94"/>
<stop offset="0.66" stop-color="#454C62"/>
<stop offset="1" stop-color="#2D324D"/>
</radialGradient>
<radialGradient id="paint36_radial_26_2694" cx="0" cy="0" r="1" gradientUnits="userSpaceOnUse" gradientTransform="translate(127.368 69.5126) scale(20.2518 20.2301)">
<stop stop-color="#7F8B94"/>
<stop offset="0.66" stop-color="#454C62"/>
<stop offset="1" stop-color="#2D324D"/>
</radialGradient>
<radialGradient id="paint37_radial_26_2694" cx="0" cy="0" r="1" gradientUnits="userSpaceOnUse" gradientTransform="translate(112.09 35.1872) scale(77.5047 77.4221)">
<stop stop-color="#7F8B94"/>
<stop offset="0.04" stop-color="#7B8790"/>
<stop offset="0.69" stop-color="#3C4254"/>
<stop offset="1" stop-color="#24283D"/>
</radialGradient>
<radialGradient id="paint38_radial_26_2694" cx="0" cy="0" r="1" gradientUnits="userSpaceOnUse" gradientTransform="translate(136.276 77.8785) scale(11.0649 11.053)">
<stop stop-color="#7F8B94"/>
<stop offset="0.66" stop-color="#454C62"/>
<stop offset="1" stop-color="#2D324D"/>
</radialGradient>
<radialGradient id="paint39_radial_26_2694" cx="0" cy="0" r="1" gradientUnits="userSpaceOnUse" gradientTransform="translate(63.8461 37.8239) scale(177.824 177.635)">
<stop stop-color="#7F8B94"/>
<stop offset="0.04" stop-color="#7B8790"/>
<stop offset="0.69" stop-color="#3C4254"/>
<stop offset="1" stop-color="#24283D"/>
</radialGradient>
<radialGradient id="paint40_radial_26_2694" cx="0" cy="0" r="1" gradientUnits="userSpaceOnUse" gradientTransform="translate(9.99387 61.4003) scale(206.172 205.952)">
<stop stop-color="#7F8B94"/>
<stop offset="0.66" stop-color="#454C62"/>
<stop offset="1" stop-color="#2D324D"/>
</radialGradient>
<radialGradient id="paint41_radial_26_2694" cx="0" cy="0" r="1" gradientUnits="userSpaceOnUse" gradientTransform="translate(44.0261 103.052) scale(14.161 14.1459)">
<stop stop-color="#7F8B94"/>
<stop offset="0.66" stop-color="#454C62"/>
<stop offset="1" stop-color="#2D324D"/>
</radialGradient>
<radialGradient id="paint42_radial_26_2694" cx="0" cy="0" r="1" gradientUnits="userSpaceOnUse" gradientTransform="translate(23.5457 147.822) scale(9.87208 9.86157)">
<stop stop-color="#7F8B94"/>
<stop offset="0.66" stop-color="#454C62"/>
<stop offset="1" stop-color="#2D324D"/>
</radialGradient>
<linearGradient id="paint43_linear_26_2694" x1="59.1261" y1="103.787" x2="50.1978" y2="98.6327" gradientUnits="userSpaceOnUse">
<stop stop-color="#1B1F38"/>
<stop offset="0.25" stop-color="#343950"/>
<stop offset="0.78" stop-color="#747E90"/>
<stop offset="1" stop-color="#929DAD"/>
</linearGradient>
<linearGradient id="paint44_linear_26_2694" x1="35.4481" y1="146.25" x2="26.5706" y2="141.096" gradientUnits="userSpaceOnUse">
<stop stop-color="#1B1F38"/>
<stop offset="0.25" stop-color="#343950"/>
<stop offset="0.78" stop-color="#747E90"/>
<stop offset="1" stop-color="#929DAD"/>
</linearGradient>
<radialGradient id="paint45_radial_26_2694" cx="0" cy="0" r="1" gradientUnits="userSpaceOnUse" gradientTransform="translate(46.6401 100.821) scale(15.9628 15.9458)">
<stop stop-color="#7F8B94"/>
<stop offset="0.66" stop-color="#454C62"/>
<stop offset="1" stop-color="#2D324D"/>
</radialGradient>
<radialGradient id="paint46_radial_26_2694" cx="0" cy="0" r="1" gradientUnits="userSpaceOnUse" gradientTransform="translate(23.0382 142.219) scale(14.1356 14.1205)">
<stop stop-color="#7F8B94"/>
<stop offset="0.66" stop-color="#454C62"/>
<stop offset="1" stop-color="#2D324D"/>
</radialGradient>
<radialGradient id="paint47_radial_26_2694" cx="0" cy="0" r="1" gradientUnits="userSpaceOnUse" gradientTransform="translate(86.6613 89.6159) scale(21.1653 21.1428)">
<stop stop-color="#8BA6BA"/>
<stop offset="0.45" stop-color="#47555F"/>
<stop offset="0.83" stop-color="#14171A"/>
<stop offset="1"/>
</radialGradient>
<radialGradient id="paint48_radial_26_2694" cx="0" cy="0" r="1" gradientUnits="userSpaceOnUse" gradientTransform="translate(83.8444 87.0048) scale(17.4094 17.3908)">
<stop stop-color="#8BA6BA"/>
<stop offset="0.45" stop-color="#47555F"/>
<stop offset="0.83" stop-color="#14171A"/>
<stop offset="1"/>
</radialGradient>
<radialGradient id="paint49_radial_26_2694" cx="0" cy="0" r="1" gradientUnits="userSpaceOnUse" gradientTransform="translate(45.574 152.461) scale(29.0833 29.0523)">
<stop offset="0.55"/>
<stop offset="0.57" stop-color="#090B0E"/>
<stop offset="0.65" stop-color="#1D262D"/>
<stop offset="0.73" stop-color="#2C3B46"/>
<stop offset="0.81" stop-color="#384A58"/>
<stop offset="0.9" stop-color="#3E5362"/>
<stop offset="1" stop-color="#415666"/>
</radialGradient>
<radialGradient id="paint50_radial_26_2694" cx="0" cy="0" r="1" gradientUnits="userSpaceOnUse" gradientTransform="translate(64.7093 109.517) scale(22.5865 22.5624)">
<stop offset="0.55"/>
<stop offset="0.57" stop-color="#090B0E"/>
<stop offset="0.65" stop-color="#1D262D"/>
<stop offset="0.73" stop-color="#2C3B46"/>
<stop offset="0.81" stop-color="#384A58"/>
<stop offset="0.9" stop-color="#3E5362"/>
<stop offset="1" stop-color="#415666"/>
</radialGradient>
<radialGradient id="paint51_radial_26_2694" cx="0" cy="0" r="1" gradientUnits="userSpaceOnUse" gradientTransform="translate(-4.75083 143.36) scale(43.1935 43.1475)">
<stop offset="0.67" stop-color="white"/>
<stop offset="0.71" stop-color="#F7F9F8"/>
<stop offset="0.77" stop-color="#E3EAE7"/>
<stop offset="0.85" stop-color="#C3D1CB"/>
<stop offset="0.93" stop-color="#96AFA5"/>
<stop offset="1" stop-color="#6B8E80"/>
</radialGradient>
<radialGradient id="paint52_radial_26_2694" cx="0" cy="0" r="1" gradientUnits="userSpaceOnUse" gradientTransform="translate(13.8515 106.246) scale(45.5791 45.5305)">
<stop offset="0.67" stop-color="white"/>
<stop offset="0.71" stop-color="#F7F9F8"/>
<stop offset="0.77" stop-color="#E3EAE7"/>
<stop offset="0.85" stop-color="#C3D1CB"/>
<stop offset="0.93" stop-color="#96AFA5"/>
<stop offset="1" stop-color="#6B8E80"/>
</radialGradient>
<radialGradient id="paint53_radial_26_2694" cx="0" cy="0" r="1" gradientUnits="userSpaceOnUse" gradientTransform="translate(43.7213 77.8531) scale(30.7075 30.6748)">
<stop offset="0.67" stop-color="white"/>
<stop offset="0.71" stop-color="#F7F9F8"/>
<stop offset="0.77" stop-color="#E3EAE7"/>
<stop offset="0.85" stop-color="#C3D1CB"/>
<stop offset="0.93" stop-color="#96AFA5"/>
<stop offset="1" stop-color="#6B8E80"/>
</radialGradient>
<radialGradient id="paint54_radial_26_2694" cx="0" cy="0" r="1" gradientUnits="userSpaceOnUse" gradientTransform="translate(107.243 75.8504) scale(16.5719 16.5542)">
<stop stop-color="#7D8D9C"/>
<stop offset="1" stop-color="#404452"/>
</radialGradient>
<radialGradient id="paint55_radial_26_2694" cx="0" cy="0" r="1" gradientUnits="userSpaceOnUse" gradientTransform="translate(106.786 81.8839) scale(10.0751 10.0644)">
<stop stop-color="#C4C9F5"/>
<stop offset="0.01" stop-color="#C0C5F0"/>
<stop offset="0.23" stop-color="#868CA8"/>
<stop offset="0.43" stop-color="#565D6C"/>
<stop offset="0.61" stop-color="#31383D"/>
<stop offset="0.78" stop-color="#161E1B"/>
<stop offset="0.91" stop-color="#050D07"/>
<stop offset="1" stop-color="#000800"/>
</radialGradient>
<radialGradient id="paint56_radial_26_2694" cx="0" cy="0" r="1" gradientUnits="userSpaceOnUse" gradientTransform="translate(60.0651 130.304) scale(12.3338 12.3206)">
<stop stop-color="#7D8D9C"/>
<stop offset="1" stop-color="#404452"/>
</radialGradient>
<radialGradient id="paint57_radial_26_2694" cx="0" cy="0" r="1" gradientUnits="userSpaceOnUse" gradientTransform="translate(53.4161 132.459) scale(12.9936 12.9797)">
<stop stop-color="#C4C9F5"/>
<stop offset="0.01" stop-color="#C0C5F0"/>
<stop offset="0.23" stop-color="#868CA8"/>
<stop offset="0.43" stop-color="#565D6C"/>
<stop offset="0.61" stop-color="#31383D"/>
<stop offset="0.78" stop-color="#161E1B"/>
<stop offset="0.91" stop-color="#050D07"/>
<stop offset="1" stop-color="#000800"/>
</radialGradient>
<linearGradient id="paint58_linear_26_2694" x1="62.1459" y1="100.669" x2="65.7223" y2="102.751" gradientUnits="userSpaceOnUse">
<stop/>
<stop offset="1" stop-color="white"/>
</linearGradient>
<linearGradient id="paint59_linear_26_2694" x1="38.8491" y1="143.74" x2="42.3238" y2="145.924" gradientUnits="userSpaceOnUse">
<stop/>
<stop offset="1" stop-color="white"/>
</linearGradient>
<linearGradient id="paint60_linear_26_2694" x1="40.3464" y1="132.054" x2="45.3687" y2="134.847" gradientUnits="userSpaceOnUse">
<stop stop-color="#393F4A"/>
<stop offset="0.29" stop-color="#97A5C2"/>
<stop offset="0.43" stop-color="#646F87"/>
<stop offset="1" stop-color="#24272E"/>
</linearGradient>
<linearGradient id="paint61_linear_26_2694" x1="34.8897" y1="140.065" x2="41.5608" y2="143.772" gradientUnits="userSpaceOnUse">
<stop stop-color="#393F4A"/>
<stop offset="0.29" stop-color="#97A5C2"/>
<stop offset="0.43" stop-color="#707D99"/>
<stop offset="1" stop-color="#3C424D"/>
</linearGradient>
<radialGradient id="paint62_radial_26_2694" cx="0" cy="0" r="1" gradientUnits="userSpaceOnUse" gradientTransform="translate(34.1795 143.005) scale(10.3543 10.3432)">
<stop stop-color="#7F8B94"/>
<stop offset="0.66" stop-color="#454C62"/>
<stop offset="1" stop-color="#2D324D"/>
</radialGradient>
<linearGradient id="paint63_linear_26_2694" x1="30.7785" y1="149.673" x2="35.5472" y2="152.313" gradientUnits="userSpaceOnUse">
<stop stop-color="#393F4A"/>
<stop offset="0.29" stop-color="#97A5C2"/>
<stop offset="0.43" stop-color="#707D99"/>
<stop offset="1" stop-color="#24272E"/>
</linearGradient>
<radialGradient id="paint64_radial_26_2694" cx="0" cy="0" r="1" gradientUnits="userSpaceOnUse" gradientTransform="translate(31.3876 147.695) scale(10.405 10.3939)">
<stop stop-color="#7F8B94"/>
<stop offset="0.66" stop-color="#454C62"/>
<stop offset="1" stop-color="#2D324D"/>
</radialGradient>
<linearGradient id="paint65_linear_26_2694" x1="63.8718" y1="90.0723" x2="68.4883" y2="92.6369" gradientUnits="userSpaceOnUse">
<stop stop-color="#393F4A"/>
<stop offset="0.29" stop-color="#97A5C2"/>
<stop offset="0.43" stop-color="#646F87"/>
<stop offset="1" stop-color="#24272E"/>
</linearGradient>
<linearGradient id="paint66_linear_26_2694" x1="58.847" y1="97.4241" x2="64.9854" y2="100.827" gradientUnits="userSpaceOnUse">
<stop stop-color="#393F4A"/>
<stop offset="0.29" stop-color="#97A5C2"/>
<stop offset="0.43" stop-color="#707D99"/>
<stop offset="1" stop-color="#3C424D"/>
</linearGradient>
<radialGradient id="paint67_radial_26_2694" cx="0" cy="0" r="1" gradientUnits="userSpaceOnUse" gradientTransform="translate(56.1819 96.1565) scale(14.0849 14.0698)">
<stop stop-color="#7F8B94"/>
<stop offset="0.66" stop-color="#454C62"/>
<stop offset="1" stop-color="#2D324D"/>
</radialGradient>
<linearGradient id="paint68_linear_26_2694" x1="55.091" y1="106.246" x2="59.4539" y2="108.659" gradientUnits="userSpaceOnUse">
<stop stop-color="#393F4A"/>
<stop offset="0.29" stop-color="#97A5C2"/>
<stop offset="0.43" stop-color="#707D99"/>
<stop offset="1" stop-color="#24272E"/>
</linearGradient>
<radialGradient id="paint69_radial_26_2694" cx="0" cy="0" r="1" gradientUnits="userSpaceOnUse" gradientTransform="translate(55.3194 103.255) scale(10.5827 10.5714)">
<stop stop-color="#7F8B94"/>
<stop offset="0.66" stop-color="#454C62"/>
<stop offset="1" stop-color="#2D324D"/>
</radialGradient>
<radialGradient id="paint70_radial_26_2694" cx="0" cy="0" r="1" gradientUnits="userSpaceOnUse" gradientTransform="translate(103.538 172.97) scale(50.0203 49.967)">
<stop stop-color="#7F8B94"/>
<stop offset="0.04" stop-color="#7B8790"/>
<stop offset="0.69" stop-color="#3C4254"/>
<stop offset="1" stop-color="#24283D"/>
</radialGradient>
<radialGradient id="paint71_radial_26_2694" cx="0" cy="0" r="1" gradientUnits="userSpaceOnUse" gradientTransform="translate(67.5005 95.7763) scale(76.0836 76.0025)">
<stop stop-color="#7F8B94"/>
<stop offset="0.04" stop-color="#7B8790"/>
<stop offset="0.69" stop-color="#3C4254"/>
<stop offset="1" stop-color="#24283D"/>
</radialGradient>
<radialGradient id="paint72_radial_26_2694" cx="0" cy="0" r="1" gradientUnits="userSpaceOnUse" gradientTransform="translate(115.567 108.68) scale(106.588 106.474)">
<stop stop-color="#B4C1D5"/>
<stop offset="0.38" stop-color="#747E94"/>
<stop offset="0.8" stop-color="#343952"/>
<stop offset="1" stop-color="#1B1F38"/>
</radialGradient>
<radialGradient id="paint73_radial_26_2694" cx="0" cy="0" r="1" gradientUnits="userSpaceOnUse" gradientTransform="translate(88.1332 168.686) scale(48.8528 48.8008)">
<stop stop-color="#B4C1D5"/>
<stop offset="0.38" stop-color="#747E94"/>
<stop offset="0.8" stop-color="#343952"/>
<stop offset="1" stop-color="#1B1F38"/>
</radialGradient>
<radialGradient id="paint74_radial_26_2694" cx="0" cy="0" r="1" gradientUnits="userSpaceOnUse" gradientTransform="translate(44.1276 156.239) scale(49.335 49.2825)">
<stop stop-color="#B4C1D5"/>
<stop offset="0.38" stop-color="#747E94"/>
<stop offset="0.8" stop-color="#343952"/>
<stop offset="1" stop-color="#1B1F38"/>
</radialGradient>
<radialGradient id="paint75_radial_26_2694" cx="0" cy="0" r="1" gradientUnits="userSpaceOnUse" gradientTransform="translate(34.8392 105.105) scale(63.8006 63.7325)">
<stop stop-color="#B4C1D5"/>
<stop offset="0.38" stop-color="#747E94"/>
<stop offset="0.8" stop-color="#343952"/>
<stop offset="1" stop-color="#1B1F38"/>
</radialGradient>
<radialGradient id="paint76_radial_26_2694" cx="0" cy="0" r="1" gradientUnits="userSpaceOnUse" gradientTransform="translate(85.1641 83.988) scale(35.91 35.8717)">
<stop stop-color="#B4C1D5"/>
<stop offset="0.38" stop-color="#747E94"/>
<stop offset="0.8" stop-color="#343952"/>
<stop offset="1" stop-color="#1B1F38"/>
</radialGradient>
<radialGradient id="paint77_radial_26_2694" cx="0" cy="0" r="1" gradientUnits="userSpaceOnUse" gradientTransform="translate(119.018 82.6191) scale(65.8562 65.786)">
<stop stop-color="#B4C1D5"/>
<stop offset="0.38" stop-color="#747E94"/>
<stop offset="0.8" stop-color="#343952"/>
<stop offset="1" stop-color="#1B1F38"/>
</radialGradient>
<radialGradient id="paint78_radial_26_2694" cx="0" cy="0" r="1" gradientUnits="userSpaceOnUse" gradientTransform="translate(89.1485 101.176) scale(49.1828 49.1303)">
<stop stop-color="#93E362"/>
<stop offset="1" stop-color="#629400"/>
</radialGradient>
<radialGradient id="paint79_radial_26_2694" cx="0" cy="0" r="1" gradientUnits="userSpaceOnUse" gradientTransform="translate(99.2489 98.8184) scale(28.6773 28.6467)">
<stop stop-color="#D9FFC2"/>
<stop offset="1" stop-color="#B2F72C"/>
</radialGradient>
<radialGradient id="paint80_radial_26_2694" cx="0" cy="0" r="1" gradientUnits="userSpaceOnUse" gradientTransform="translate(81.1035 92.9369) scale(31.6211 31.5874)">
<stop stop-color="#93E362"/>
<stop offset="1" stop-color="#6FA800"/>
</radialGradient>
<radialGradient id="paint81_radial_26_2694" cx="0" cy="0" r="1" gradientUnits="userSpaceOnUse" gradientTransform="translate(97.1676 101.151) scale(39.5899 39.5476)">
<stop stop-color="#AEE386"/>
<stop offset="1" stop-color="#6CA300"/>
</radialGradient>
<radialGradient id="paint82_radial_26_2694" cx="0" cy="0" r="1" gradientUnits="userSpaceOnUse" gradientTransform="translate(82.1693 107.412) scale(58.6996 58.637)">
<stop stop-color="#93E362"/>
<stop offset="1" stop-color="#6FA800"/>
</radialGradient>
<radialGradient id="paint83_radial_26_2694" cx="0" cy="0" r="1" gradientUnits="userSpaceOnUse" gradientTransform="translate(85.1387 140.166) scale(9.21225 9.20243)">
<stop stop-color="#AEE386"/>
<stop offset="1" stop-color="#6CA300"/>
</radialGradient>
<radialGradient id="paint84_radial_26_2694" cx="0" cy="0" r="1" gradientUnits="userSpaceOnUse" gradientTransform="translate(58.1871 100.086) scale(52.0505 51.995)">
<stop stop-color="#93E362"/>
<stop offset="1" stop-color="#427800"/>
</radialGradient>
<radialGradient id="paint85_radial_26_2694" cx="0" cy="0" r="1" gradientUnits="userSpaceOnUse" gradientTransform="translate(73.3124 122.598) scale(26.3171 26.289)">
<stop stop-color="#93E362"/>
<stop offset="1" stop-color="#427800"/>
</radialGradient>
<radialGradient id="paint86_radial_26_2694" cx="0" cy="0" r="1" gradientUnits="userSpaceOnUse" gradientTransform="translate(76.3069 129.012) scale(21.5206 21.4977)">
<stop stop-color="#93E362"/>
<stop offset="1" stop-color="#427800"/>
</radialGradient>
<radialGradient id="paint87_radial_26_2694" cx="0" cy="0" r="1" gradientUnits="userSpaceOnUse" gradientTransform="translate(80.2915 126.02) scale(20.8354 20.8132)">
<stop stop-color="#93E362"/>
<stop offset="1" stop-color="#427800"/>
</radialGradient>
<radialGradient id="paint88_radial_26_2694" cx="0" cy="0" r="1" gradientUnits="userSpaceOnUse" gradientTransform="translate(71.9928 152.182) scale(21.9267 21.9033)">
<stop stop-color="#579C02"/>
<stop offset="1" stop-color="#345903"/>
</radialGradient>
<radialGradient id="paint89_radial_26_2694" cx="0" cy="0" r="1" gradientUnits="userSpaceOnUse" gradientTransform="translate(63.6435 98.717) scale(49.4366 49.3839)">
<stop stop-color="#579C02"/>
<stop offset="1" stop-color="#3D6904"/>
</radialGradient>
<radialGradient id="paint90_radial_26_2694" cx="0" cy="0" r="1" gradientUnits="userSpaceOnUse" gradientTransform="translate(82.1188 106.246) scale(75.6775 75.5968)">
<stop stop-color="#6EC403"/>
<stop offset="1" stop-color="#3D6904"/>
</radialGradient>
<radialGradient id="paint91_radial_26_2694" cx="0" cy="0" r="1" gradientUnits="userSpaceOnUse" gradientTransform="translate(87.2705 126.198) scale(35.707 35.6689)">
<stop stop-color="#77B300"/>
<stop offset="1"/>
</radialGradient>
<radialGradient id="paint92_radial_26_2694" cx="0" cy="0" r="1" gradientUnits="userSpaceOnUse" gradientTransform="translate(73.896 106.17) scale(21.6983 21.6752)">
<stop stop-color="#77B300"/>
<stop offset="1"/>
</radialGradient>
<radialGradient id="paint93_radial_26_2694" cx="0" cy="0" r="1" gradientUnits="userSpaceOnUse" gradientTransform="translate(94.3001 101.024) scale(27.8398 27.8101)">
<stop stop-color="#C9FFC4"/>
<stop offset="0.18" stop-color="#A1CD9D"/>
<stop offset="0.59" stop-color="#4B6049"/>
<stop offset="0.87" stop-color="#151A14"/>
<stop offset="1"/>
</radialGradient>
<radialGradient id="paint94_radial_26_2694" cx="0" cy="0" r="1" gradientUnits="userSpaceOnUse" gradientTransform="translate(72.9063 136.313) scale(32.5601 32.5254)">
<stop stop-color="#77B300"/>
<stop offset="1"/>
</radialGradient>
<radialGradient id="paint95_radial_26_2694" cx="0" cy="0" r="1" gradientUnits="userSpaceOnUse" gradientTransform="translate(92.3964 142.143) scale(17.4094 17.3908)">
<stop stop-color="#77B300"/>
<stop offset="1"/>
</radialGradient>
<radialGradient id="paint96_radial_26_2694" cx="0" cy="0" r="1" gradientUnits="userSpaceOnUse" gradientTransform="translate(84.5041 124.651) scale(21.0892 21.0667)">
<stop stop-color="#196102"/>
<stop offset="1" stop-color="#1B3D00"/>
</radialGradient>
<radialGradient id="paint97_radial_26_2694" cx="0" cy="0" r="1" gradientUnits="userSpaceOnUse" gradientTransform="translate(86.1281 119.175) scale(16.2674 16.25)">
<stop stop-color="#A3F500"/>
<stop offset="1"/>
</radialGradient>
<radialGradient id="paint98_radial_26_2694" cx="0" cy="0" r="1" gradientUnits="userSpaceOnUse" gradientTransform="translate(85.7477 109.238) scale(22.8403 22.8159)">
<stop stop-color="#196102"/>
<stop offset="1" stop-color="#1B3D00"/>
</radialGradient>
<radialGradient id="paint99_radial_26_2694" cx="0" cy="0" r="1" gradientUnits="userSpaceOnUse" gradientTransform="translate(81.7634 124.448) scale(13.5265 13.5121)">
<stop stop-color="#A3F500"/>
<stop offset="1"/>
</radialGradient>
<radialGradient id="paint100_radial_26_2694" cx="0" cy="0" r="1" gradientUnits="userSpaceOnUse" gradientTransform="translate(82.7786 124.474) scale(10.4812 10.47)">
<stop stop-color="#77B300"/>
<stop offset="1"/>
</radialGradient>
<radialGradient id="paint101_radial_26_2694" cx="0" cy="0" r="1" gradientUnits="userSpaceOnUse" gradientTransform="translate(94.5538 145.059) scale(42.686 42.6405)">
<stop stop-color="#415666"/>
<stop offset="0.06" stop-color="#3C505F"/>
<stop offset="0.7" stop-color="#11161A"/>
<stop offset="1"/>
</radialGradient>
<linearGradient id="paint102_linear_26_2694" x1="34.7121" y1="140.267" x2="35.6252" y2="140.801" gradientUnits="userSpaceOnUse">
<stop stop-color="#99C1B2"/>
<stop offset="1" stop-color="#EFEDF2"/>
</linearGradient>
<linearGradient id="paint103_linear_26_2694" x1="58.6947" y1="97.6015" x2="59.5317" y2="98.084" gradientUnits="userSpaceOnUse">
<stop stop-color="#99C1B2"/>
<stop offset="1" stop-color="#EFEDF2"/>
</linearGradient>
<linearGradient id="paint104_linear_26_2694" x1="60.7758" y1="97.5762" x2="62.3231" y2="98.4141" gradientUnits="userSpaceOnUse">
<stop/>
<stop offset="0.5" stop-color="#A8B4C1"/>
<stop offset="1"/>
</linearGradient>
<linearGradient id="paint105_linear_26_2694" x1="36.9963" y1="140.242" x2="38.645" y2="141.156" gradientUnits="userSpaceOnUse">
<stop/>
<stop offset="0.5" stop-color="#A8B4C1"/>
<stop offset="1"/>
</linearGradient>
<linearGradient id="paint106_linear_26_2694" x1="39.788" y1="142.904" x2="41.5128" y2="143.869" gradientUnits="userSpaceOnUse">
<stop stop-color="#EFEDF2"/>
<stop offset="1" stop-color="#6B8E80"/>
</linearGradient>
<linearGradient id="paint107_linear_26_2694" x1="63.339" y1="100.035" x2="64.937" y2="100.924" gradientUnits="userSpaceOnUse">
<stop stop-color="#EFEDF2"/>
<stop offset="1" stop-color="#6B8E80"/>
</linearGradient>
<radialGradient id="paint108_radial_26_2694" cx="0" cy="0" r="1" gradientUnits="userSpaceOnUse" gradientTransform="translate(38.0623 141.991) scale(2.81697 2.81397)">
<stop stop-color="#37454D"/>
<stop offset="1" stop-color="#2C2F40"/>
</radialGradient>
<radialGradient id="paint109_radial_26_2694" cx="0" cy="0" r="1" gradientUnits="userSpaceOnUse" gradientTransform="translate(61.7651 99.1733) scale(2.58857 2.58581)">
<stop stop-color="#37454D"/>
<stop offset="1" stop-color="#2C2F40"/>
</radialGradient>
<radialGradient id="paint110_radial_26_2694" cx="0" cy="0" r="1" gradientUnits="userSpaceOnUse" gradientTransform="translate(15.4653 197.266) rotate(1.19871) scale(26.85 26.8212)">
<stop stop-color="#B8C9D6"/>
<stop offset="0.56" stop-color="#92A1B7"/>
<stop offset="1" stop-color="#7987A3"/>
</radialGradient>
<radialGradient id="paint111_radial_26_2694" cx="0" cy="0" r="1" gradientUnits="userSpaceOnUse" gradientTransform="translate(66.087 221.146) rotate(1.19872) scale(78.3168 78.2333)">
<stop stop-color="#B8C9D6"/>
<stop offset="0.56" stop-color="#92A1B7"/>
<stop offset="1" stop-color="#7987A3"/>
</radialGradient>
<radialGradient id="paint112_radial_26_2694" cx="0" cy="0" r="1" gradientUnits="userSpaceOnUse" gradientTransform="translate(335.524 220.445) rotate(1.19872) scale(326.921 326.572)">
<stop stop-color="#94AABA"/>
<stop offset="0.61" stop-color="#677988"/>
<stop offset="1" stop-color="#505F6E"/>
</radialGradient>
<radialGradient id="paint113_radial_26_2694" cx="0" cy="0" r="1" gradientUnits="userSpaceOnUse" gradientTransform="translate(108.461 185.24) scale(97.6803 97.5762)">
<stop stop-color="#415666"/>
<stop offset="0.06" stop-color="#3C505F"/>
<stop offset="0.7" stop-color="#11161A"/>
<stop offset="1"/>
</radialGradient>
<radialGradient id="paint114_radial_26_2694" cx="0" cy="0" r="1" gradientUnits="userSpaceOnUse" gradientTransform="translate(116.811 158.115) scale(12.9429 12.929)">
<stop stop-color="#7D8D9C"/>
<stop offset="1" stop-color="#404452"/>
</radialGradient>
<radialGradient id="paint115_radial_26_2694" cx="0" cy="0" r="1" gradientUnits="userSpaceOnUse" gradientTransform="translate(117.648 161.03) scale(9.94822 9.93763)">
<stop stop-color="#C4C9F5"/>
<stop offset="0.01" stop-color="#C0C5F0"/>
<stop offset="0.23" stop-color="#868CA8"/>
<stop offset="0.43" stop-color="#565D6C"/>
<stop offset="0.61" stop-color="#31383D"/>
<stop offset="0.78" stop-color="#161E1B"/>
<stop offset="0.91" stop-color="#050D07"/>
<stop offset="1" stop-color="#000800"/>
</radialGradient>
<radialGradient id="paint116_radial_26_2694" cx="0" cy="0" r="1" gradientUnits="userSpaceOnUse" gradientTransform="translate(108.182 107.843) scale(41.6708 41.6264)">
<stop stop-color="#77B300"/>
<stop offset="1"/>
</radialGradient>
<radialGradient id="paint117_radial_26_2694" cx="0" cy="0" r="1" gradientUnits="userSpaceOnUse" gradientTransform="translate(119.374 154.363) scale(48.0661 48.0149)">
<stop stop-color="#77B300"/>
<stop offset="1"/>
</radialGradient>
<clipPath id="clip0_26_2694">
<rect width="198" height="236" fill="white" transform="translate(2)"/>
</clipPath>
</defs>
</svg>
