<svg width="594" height="424" viewBox="0 0 594 424" fill="none" xmlns="http://www.w3.org/2000/svg">
<g style="mix-blend-mode:hard-light">
<path opacity="0.21" d="M201.194 404.566V418.142L241.386 421.145L327.575 423.716L356.771 413.013L402.446 407.69L433.149 388.154L515.563 380.35L561.306 363.765L517.224 356.398L423.138 363.765L258.371 387.107L122.54 356.919L52.0292 360.133L0.97229 365.739L47.6617 374.321L30.4915 378.068L5.77041 385.159L35.9663 391.684L142.355 389.967L95.0815 402.637L151.306 409.496L201.194 404.566Z" fill="#002B32"/>
<path d="M258.586 311.806L268.106 291.261L245.692 305.255L251.189 317.064L258.586 311.806Z" fill="#338AC3"/>
<path d="M251.189 317.064L245.691 305.255L217.364 307.389L241.008 316.974L251.189 317.064Z" fill="#3C95C9"/>
<path d="M203.954 105.225L271.62 276.225L268.106 291.261L192.804 102.114L203.954 105.225Z" fill="url(#paint0_linear_346_3562)"/>
<path d="M192.805 102.114L268.106 291.261L245.692 305.255L164.116 101.169L192.805 102.114Z" fill="url(#paint1_linear_346_3562)"/>
<path d="M164.116 101.169L245.692 305.255L217.364 307.389L142.355 118.93L164.116 101.169Z" fill="url(#paint2_linear_346_3562)"/>
<path d="M142.355 118.93L217.364 307.389L204.031 298.518L136.796 128.54L142.355 118.93Z" fill="url(#paint3_linear_346_3562)"/>
<path d="M145.9 66.7192L142.355 118.93L136.796 128.54L145.9 66.7192Z" fill="#7DDDFF"/>
<path d="M145.9 66.7192L203.954 105.225L192.805 102.114L145.9 66.7192Z" fill="url(#paint4_linear_346_3562)"/>
<path d="M145.9 66.7192L192.805 102.114L164.116 101.169L145.9 66.7192Z" fill="url(#paint5_linear_346_3562)"/>
<path d="M145.9 66.7192L164.116 101.169L142.355 118.93L145.9 66.7192Z" fill="#B2EFF7"/>
<path d="M319.47 343.131L345.276 332.151L318.094 329.259L309.874 342.713L319.47 343.131Z" fill="#338AC3"/>
<path d="M309.874 342.713L318.094 329.258L298.924 312.603L303.823 336.008L309.874 342.713Z" fill="#3C95C9"/>
<path d="M473.679 150.564L362.084 321.859L345.276 332.151L469.988 140.716L473.679 150.564Z" fill="url(#paint6_linear_346_3562)"/>
<path d="M469.989 140.716L345.276 332.151L318.094 329.258L453.61 121.244L469.989 140.716Z" fill="url(#paint7_linear_346_3562)"/>
<path d="M453.61 121.244L318.094 329.258L298.924 312.603L423.137 121.932L453.61 121.244Z" fill="url(#paint8_linear_346_3562)"/>
<path d="M423.137 121.932L298.924 312.603L299.547 296.506L410.396 126.348L423.137 121.932Z" fill="url(#paint9_linear_346_3562)"/>
<path d="M466.266 100.513L423.137 121.932L410.396 126.348L466.266 100.513Z" fill="#B9DAF4"/>
<path d="M466.267 100.513L473.68 150.564L469.989 140.716L466.267 100.513Z" fill="url(#paint10_linear_346_3562)"/>
<path d="M466.267 100.513L469.988 140.716L453.61 121.244L466.267 100.513Z" fill="url(#paint11_linear_346_3562)"/>
<path d="M466.267 100.513L453.61 121.244L423.138 121.932L466.267 100.513Z" fill="#B2EFF7"/>
<path d="M337.133 368.259L306.037 403.615L304.907 378.068L337.133 368.259Z" fill="#338AC3"/>
<path d="M304.907 378.068L306.037 403.615L271.62 369.872L304.907 378.068Z" fill="#3C95C9"/>
<path d="M337.133 48.4307V368.259L304.907 378.069L328.321 53.0141L337.133 48.4307Z" fill="url(#paint12_linear_346_3562)"/>
<path d="M328.321 53.0142L304.907 378.069L271.62 369.873V59.7639L328.321 53.0142Z" fill="url(#paint13_linear_346_3562)"/>
<path d="M312.627 0.918945L262.07 3.95954L242.716 31.5885L271.62 59.7638L328.321 53.0141L337.133 48.4307L343.169 21.1039L312.627 0.918945Z" fill="#C0E9F9"/>
<path d="M343.169 21.104L337.133 48.4308V155.546L364.876 140.716L343.169 21.104Z" fill="url(#paint14_linear_346_3562)"/>
<path d="M337.133 155.546V368.259L348.336 349.7L364.876 140.716L337.133 155.546Z" fill="url(#paint15_linear_346_3562)"/>
<path d="M260.678 352.927L271.62 369.872V156.189L232.112 138.903L260.678 352.927Z" fill="url(#paint16_linear_346_3562)"/>
<path d="M242.716 31.5884L232.112 138.903L271.62 156.189V59.7637L242.716 31.5884Z" fill="url(#paint17_linear_346_3562)"/>
<path d="M525.19 284.273L593.109 292.205L541.352 329.818L525.19 284.273Z" fill="url(#paint18_linear_346_3562)"/>
<path d="M553.909 341.466L593.109 292.205L541.353 329.817L553.909 341.466Z" fill="url(#paint19_linear_346_3562)"/>
<path d="M531.31 264.833L525.19 284.273L593.109 292.205L531.31 264.833Z" fill="#B2EFF7"/>
<path d="M326.568 311.657L531.31 264.833L525.19 284.273L311.128 332.884L326.568 311.657Z" fill="url(#paint20_linear_346_3562)"/>
<path d="M541.353 329.818L525.19 284.273L311.128 332.884L334.026 381.231L541.353 329.818Z" fill="url(#paint21_linear_346_3562)"/>
<path d="M553.909 341.465L541.352 329.817L334.026 381.231L348.574 396.338L553.909 341.465Z" fill="url(#paint22_linear_346_3562)"/>
<path d="M326.568 311.657L259.686 357.106L311.128 332.884L326.568 311.657Z" fill="#56B7EC"/>
<path d="M334.026 381.231L275.488 391.928L259.686 357.106L311.128 332.884L334.026 381.231Z" fill="#46A3D9"/>
<path d="M348.574 396.338L275.487 391.928L334.026 381.231L348.574 396.338Z" fill="#2879B2"/>
<path d="M264.261 371.447L245.991 348.215L249.359 361.072L265.268 377.426L264.261 371.447Z" fill="#2879B2"/>
<path d="M265.268 377.426L249.359 361.072L244.868 382.96L262.015 389.093L265.268 377.426Z" fill="#338AC3"/>
<path d="M262.016 389.093L244.869 382.96L229.029 401.648L254.15 399.629L262.016 389.093Z" fill="#3C95C9"/>
<path d="M254.149 399.629L229.028 401.647L215.288 409.496L245.238 404.174L254.149 399.629Z" fill="#57B6EB"/>
<path d="M71.3832 298.743L249.36 361.072L245.992 348.216L65.8854 285.141L71.3832 298.743Z" fill="url(#paint23_linear_346_3562)"/>
<path d="M244.869 382.96L249.359 361.072L71.3829 298.743L66.1696 320.381L244.869 382.96Z" fill="url(#paint24_linear_346_3562)"/>
<path d="M52.0289 339.666L229.029 401.648L244.869 382.961L66.1695 320.381L52.0289 339.666Z" fill="url(#paint25_linear_346_3562)"/>
<path d="M52.0289 339.666L34.3204 346.126L215.288 409.497L229.029 401.648L52.0289 339.666Z" fill="url(#paint26_linear_346_3562)"/>
<path d="M5.76999 303.873L5.547 309.048L34.3203 346.126L52.0288 339.666L5.76999 303.873Z" fill="url(#paint27_linear_346_3562)"/>
<path d="M71.3829 298.743L65.885 285.141L8.29993 293.723L9.09961 296.236L71.3829 298.743Z" fill="url(#paint28_linear_346_3562)"/>
<path d="M9.10028 296.236L8.70813 300.382L66.1702 320.381L71.3835 298.743L9.10028 296.236Z" fill="url(#paint29_linear_346_3562)"/>
<path d="M8.70794 300.382L8.70025 300.414L5.77063 303.873L52.0294 339.666L66.17 320.381L8.70794 300.382Z" fill="url(#paint30_linear_346_3562)"/>
<path d="M2.97914 303.873L5.54736 309.048L14.4593 310.597L21.1412 304.708L21.5718 296.737L8.30013 293.722L2.24866 296.236L2.97914 303.873Z" fill="#B3C7F4"/>
<path d="M283.346 401.455L284.353 354.425L276.08 366.986L279.84 401.455H283.346Z" fill="#2879B2"/>
<path d="M279.84 401.455L276.08 366.986L253.488 383.179L265.345 401.455H279.84Z" fill="#338AC3"/>
<path d="M265.345 401.455L253.489 383.179L224.215 390.906L240.724 401.455H265.345Z" fill="#3C95C9"/>
<path d="M240.724 401.455L224.215 390.906L206.022 390.552L228.183 401.455H240.724Z" fill="#57B6EB"/>
<path d="M188.829 209.672L284.353 354.425L276.079 366.986L181.686 223.95L188.829 209.672Z" fill="url(#paint31_linear_346_3562)"/>
<path d="M181.686 223.95L276.079 366.986L253.488 383.179L158.71 239.564L181.686 223.95Z" fill="url(#paint32_linear_346_3562)"/>
<path d="M158.711 239.564L253.489 383.179L224.216 390.906L130.345 248.654L158.711 239.564Z" fill="url(#paint33_linear_346_3562)"/>
<path d="M130.344 248.654L224.215 390.906L206.022 390.552L110.045 245.112L130.344 248.654Z" fill="url(#paint34_linear_346_3562)"/>
<path d="M120.925 182.641L130.344 248.654L110.045 245.112L120.925 182.641Z" fill="url(#paint35_linear_346_3562)"/>
<path d="M120.925 182.641L188.829 209.672L181.686 223.95L120.925 182.641Z" fill="url(#paint36_linear_346_3562)"/>
<path d="M120.925 182.641L181.686 223.95L158.71 239.564L120.925 182.641Z" fill="url(#paint37_linear_346_3562)"/>
<path d="M120.925 182.641L158.71 239.564L130.344 248.654L120.925 182.641Z" fill="#B2EFF7"/>
<path d="M328.175 380.351L270.951 389.967L311.619 381.81L328.175 380.351Z" fill="#2879B2"/>
<path d="M311.619 381.81L270.951 389.968L287.683 375.844L311.619 381.81Z" fill="#338AC3"/>
<path d="M287.683 375.844L270.951 389.967L276.833 356.398L287.683 375.844Z" fill="#3C95C9"/>
<path d="M276.833 356.399L270.951 389.967L275.634 341.967L276.833 356.399Z" fill="#57B6EB"/>
<path d="M478.016 236.999L328.175 380.351L311.62 381.81L287.683 375.844L457.962 241.814L478.016 236.999Z" fill="url(#paint38_linear_346_3562)"/>
<path d="M457.962 241.814L287.683 375.844L276.833 356.399L422.599 216.943L457.962 241.814Z" fill="url(#paint39_linear_346_3562)"/>
<path d="M422.599 216.943L276.833 356.399L275.634 341.967L425.975 198.14L422.599 216.943Z" fill="url(#paint40_linear_346_3562)"/>
<path d="M481.584 193.762L422.599 216.943L425.975 198.14L481.584 193.762Z" fill="#B2EFF7"/>
<path d="M481.583 193.762L478.015 236.999L457.962 241.814L481.583 193.762Z" fill="url(#paint41_linear_346_3562)"/>
<path d="M481.584 193.762L457.962 241.814L422.599 216.943L481.584 193.762Z" fill="url(#paint42_linear_346_3562)"/>
<path d="M314.272 373.749L283.299 404.45L304.176 382.054L314.272 373.749Z" fill="#2879B2"/>
<path d="M304.177 382.054L283.3 404.45L282.593 390.546L304.177 382.054Z" fill="#338AC3"/>
<path d="M282.592 390.546L283.3 404.45L258.371 387.107L282.592 390.546Z" fill="#3C95C9"/>
<path d="M258.371 387.107L283.3 404.45L245.1 381.379L258.371 387.107Z" fill="#57B6EB"/>
<path d="M287.591 239.57L310.366 376.616L304.177 382.054L283.4 260.816L287.591 239.57Z" fill="url(#paint43_linear_346_3562)"/>
<path d="M283.4 260.816L304.176 382.054L282.592 390.546L261.885 269.732L283.4 260.816Z" fill="url(#paint44_linear_346_3562)"/>
<path d="M261.885 269.732L282.592 390.546L258.371 387.107L237.679 266.376L261.885 269.732Z" fill="url(#paint45_linear_346_3562)"/>
<path d="M237.679 266.376L258.371 387.107L252.843 384.722L228.967 245.407L237.679 266.376Z" fill="url(#paint46_linear_346_3562)"/>
<path d="M253.796 226.02L237.679 266.377L228.967 245.407L253.796 226.02Z" fill="url(#paint47_linear_346_3562)"/>
<path d="M253.797 226.02L287.591 239.57L283.4 260.816L253.797 226.02Z" fill="url(#paint48_linear_346_3562)"/>
<path d="M253.797 226.02L283.4 260.816L261.886 269.732L253.797 226.02Z" fill="url(#paint49_linear_346_3562)"/>
<path d="M253.796 226.02L261.885 269.732L237.679 266.377L253.796 226.02Z" fill="url(#paint50_linear_346_3562)"/>
<path d="M378.486 369.962L426.398 372.141L383.492 397.668L378.486 369.962Z" fill="url(#paint51_linear_346_3562)"/>
<path d="M397.371 402.638L426.398 372.142L383.492 397.668L397.371 402.638Z" fill="url(#paint52_linear_346_3562)"/>
<path d="M394.041 347.322L378.486 369.962L426.398 372.142L394.041 347.322Z" fill="#8BE6FF"/>
<path d="M296.949 356.887L394.041 347.322L378.486 369.962L283.062 380.209L296.949 356.887Z" fill="url(#paint53_linear_346_3562)"/>
<path d="M383.491 397.668L378.486 369.962L283.062 380.209L288.606 407.69L383.491 397.668Z" fill="url(#paint54_linear_346_3562)"/>
<path d="M397.37 402.638L383.491 397.668L288.605 407.69L302.584 413.013L397.37 402.638Z" fill="#3083BA"/>
<path d="M296.948 356.887L268.313 389.292L283.061 380.209L296.948 356.887Z" fill="#56B7EC"/>
<path d="M288.605 407.69L268.313 389.292L283.061 380.209L288.605 407.69Z" fill="#46A3D9"/>
<path d="M147.745 338.039L122.54 306.656L168.391 321.004L147.745 338.039Z" fill="#B2EFF7"/>
<path d="M164.769 309.742L122.54 306.656L168.391 321.004L164.769 309.742Z" fill="url(#paint55_linear_346_3562)"/>
<path d="M119.78 339.537L147.746 338.039L122.54 306.656L119.78 339.537Z" fill="url(#paint56_linear_346_3562)"/>
<path d="M182.709 396.132L119.78 339.537L147.746 338.039L210.314 393.239L182.709 396.132Z" fill="url(#paint57_linear_346_3562)"/>
<path d="M168.391 321.004L147.745 338.039L210.313 393.239L230.467 375.979L168.391 321.004Z" fill="url(#paint58_linear_346_3562)"/>
<path d="M164.769 309.742L168.391 321.004L230.466 375.979L227.083 364.473L164.769 309.742Z" fill="url(#paint59_linear_346_3562)"/>
<path d="M182.709 396.132L226.338 398.022L210.313 393.24L182.709 396.132Z" fill="#56B7EC"/>
<path d="M230.467 375.979L226.338 398.022L210.313 393.24L230.467 375.979Z" fill="#46A3D9"/>
<path d="M195.296 383.076L172.751 365.739L178.249 399.809L188.699 410.57L195.296 383.076Z" fill="url(#paint60_linear_346_3562)"/>
<path d="M249.19 372.315L212.897 361.259L172.751 365.739L195.296 383.076L249.19 372.315Z" fill="url(#paint61_linear_346_3562)"/>
<path d="M212.897 361.258L226.922 352.959L249.19 360.133V372.315L212.897 361.258Z" fill="#63C5F2"/>
<path d="M318.486 377.696L300.885 354.38L249.19 372.315L318.486 377.696Z" fill="url(#paint62_linear_346_3562)"/>
<path d="M249.19 360.133L300.885 354.38L249.19 372.315V360.133Z" fill="#55B3E9"/>
<path d="M226.922 352.959L300.885 354.38L249.19 360.133L226.922 352.959Z" fill="#8BE6FF"/>
<path d="M344.883 377.696L330.312 373.806H315.556L318.486 377.696H344.883Z" fill="#3D99D2"/>
<path d="M188.699 410.57L195.296 383.076H249.191V416.548L188.699 410.57Z" fill="#55B3E9"/>
<path d="M300.885 392.037L249.19 416.548L337.186 411.766L300.885 392.037Z" fill="url(#paint63_linear_346_3562)"/>
<path d="M249.19 383.076L300.885 392.037L249.19 416.548V383.076Z" fill="url(#paint64_linear_346_3562)"/>
<path d="M195.296 383.076L249.19 372.315V383.076H195.296Z" fill="#76DDFF"/>
<path d="M300.885 392.037L249.19 383.076V372.315L318.486 377.696L300.885 392.037Z" fill="url(#paint65_linear_346_3562)"/>
<path d="M337.187 411.766L344.884 377.696H318.486L300.885 392.037L337.187 411.766Z" fill="url(#paint66_linear_346_3562)"/>
<path d="M442.061 216.101L443.314 205.732L444.468 216.101L451.48 213.606L445.521 217.142L460.231 222.285L443.791 218.106L443.314 229.838L442.061 217.785L429.181 228.231L440.815 217.142L430.142 211.517L442.061 216.101Z" fill="#B0ECFF"/>
<path d="M165.754 92.2011L166.999 81.8386L168.153 92.2011L175.173 89.7133L169.214 93.2425L183.916 98.3916L167.484 94.2131L166.999 105.945L165.754 93.8917L152.874 104.338L164.5 93.2425L153.835 87.6241L165.754 92.2011Z" fill="#B0ECFF"/>
<path d="M283.331 58.0796L278.994 66.4364L264.884 63.7301L278.195 68.4292L275.08 80.4887L280.624 69.1106L291.928 71.3284L281.555 66.79L283.331 58.0796Z" fill="#B0ECFF"/>
<path d="M333.519 50.3142L328.321 52.5898L311.02 54.8397L305.299 55.759L327.805 53.6569L315.249 234.55L329.505 54.544L329.797 52.6927L333.519 50.3142Z" fill="#BEEAD9"/>
<path d="M453.164 121.932L433.41 148.796L380.662 233.226L429.181 160.849L453.164 121.932Z" fill="#BEEAD9"/>
<path d="M164.116 101.169L156.496 106.613L150.937 111.923L163.516 103.316L212.297 221.7L165.577 102.795L165.439 101.548L168.607 101.317L164.116 101.169Z" fill="#BEEAD9"/>
<path d="M256.58 241.042L260.786 267.643V268.928L254.15 268.658L261.555 270.253L268.344 307.389L263.093 270.349L269.99 266.376L262.77 268.311L256.58 241.042Z" fill="#BEEAD9"/>
<path d="M457.963 241.814L428.028 264.834L351.005 325.999L429.182 266.274L457.963 241.814Z" fill="#BEEAD9"/>
<path d="M271.62 89.9768V140.716V225.248L269.989 155.546L271.62 89.9768Z" fill="#BEEAD9"/>
<path d="M337.132 278.519L335.579 228.507V161.434L337.132 212.867V278.519Z" fill="#BEEAD9"/>
<path d="M152.359 241.602L158.418 241.042L209.86 317.064L165.915 247.876L160.725 239.564L179.733 225.274L159.895 237.565L158.195 238.902L152.359 241.602Z" fill="#BEEAD9"/>
<path d="M172.751 365.739L181.686 374.109L195.865 382.961L188.022 375.98L172.751 365.739Z" fill="#BEEAD9"/>
</g>
<defs>
<linearGradient id="paint0_linear_346_3562" x1="192.804" y1="196.687" x2="271.62" y2="196.687" gradientUnits="userSpaceOnUse">
<stop stop-color="#74A1D1"/>
<stop offset="1" stop-color="#067691"/>
</linearGradient>
<linearGradient id="paint1_linear_346_3562" x1="164.116" y1="203.212" x2="268.106" y2="203.212" gradientUnits="userSpaceOnUse">
<stop stop-color="#37A5B6"/>
<stop offset="1" stop-color="#A2D0EF"/>
</linearGradient>
<linearGradient id="paint2_linear_346_3562" x1="142.355" y1="204.279" x2="245.692" y2="204.279" gradientUnits="userSpaceOnUse">
<stop stop-color="#9AB9E6"/>
<stop offset="0.24" stop-color="#95C5E5"/>
<stop offset="0.66" stop-color="#8FD4E5"/>
<stop offset="1" stop-color="#8EDAE5"/>
</linearGradient>
<linearGradient id="paint3_linear_346_3562" x1="136.796" y1="213.163" x2="217.364" y2="213.163" gradientUnits="userSpaceOnUse">
<stop stop-color="#77C2EC"/>
<stop offset="1" stop-color="#7291CC"/>
</linearGradient>
<linearGradient id="paint4_linear_346_3562" x1="145.9" y1="85.9721" x2="203.954" y2="85.9721" gradientUnits="userSpaceOnUse">
<stop stop-color="#067691"/>
<stop offset="1" stop-color="#74A1D1"/>
</linearGradient>
<linearGradient id="paint5_linear_346_3562" x1="145.9" y1="84.4164" x2="192.805" y2="84.4164" gradientUnits="userSpaceOnUse">
<stop stop-color="#9ECBF1"/>
<stop offset="1" stop-color="#7BBCDE"/>
</linearGradient>
<linearGradient id="paint6_linear_346_3562" x1="345.276" y1="236.433" x2="473.679" y2="236.433" gradientUnits="userSpaceOnUse">
<stop stop-color="#067691"/>
<stop offset="1" stop-color="#74A1D1"/>
</linearGradient>
<linearGradient id="paint7_linear_346_3562" x1="318.094" y1="226.695" x2="469.989" y2="226.695" gradientUnits="userSpaceOnUse">
<stop stop-color="#37A5B6"/>
<stop offset="1" stop-color="#A2D0EF"/>
</linearGradient>
<linearGradient id="paint8_linear_346_3562" x1="376.263" y1="329.258" x2="376.263" y2="121.244" gradientUnits="userSpaceOnUse">
<stop stop-color="#1B79A6"/>
<stop offset="1" stop-color="#91B3EE"/>
</linearGradient>
<linearGradient id="paint9_linear_346_3562" x1="298.924" y1="217.264" x2="423.137" y2="217.264" gradientUnits="userSpaceOnUse">
<stop stop-color="#5B90C0"/>
<stop offset="1" stop-color="#86BDCE"/>
</linearGradient>
<linearGradient id="paint10_linear_346_3562" x1="466.267" y1="125.538" x2="473.68" y2="125.538" gradientUnits="userSpaceOnUse">
<stop stop-color="#6EB9DB"/>
<stop offset="0.86" stop-color="#237DAC"/>
</linearGradient>
<linearGradient id="paint11_linear_346_3562" x1="461.799" y1="140.716" x2="461.799" y2="100.513" gradientUnits="userSpaceOnUse">
<stop stop-color="#37A5B6"/>
<stop offset="1" stop-color="#9AC9EF"/>
</linearGradient>
<linearGradient id="paint12_linear_346_3562" x1="321.016" y1="378.069" x2="321.016" y2="48.4307" gradientUnits="userSpaceOnUse">
<stop stop-color="#A2D0EF"/>
<stop offset="1" stop-color="#83A9CA"/>
</linearGradient>
<linearGradient id="paint13_linear_346_3562" x1="299.97" y1="53.0142" x2="299.97" y2="378.069" gradientUnits="userSpaceOnUse">
<stop stop-color="#99B8E5"/>
<stop offset="0.56" stop-color="#91A9E5"/>
<stop offset="1" stop-color="#8EA4E5"/>
</linearGradient>
<linearGradient id="paint14_linear_346_3562" x1="351.004" y1="21.104" x2="351.004" y2="155.546" gradientUnits="userSpaceOnUse">
<stop stop-color="#9ECBF1"/>
<stop offset="1" stop-color="#7BBCDE"/>
</linearGradient>
<linearGradient id="paint15_linear_346_3562" x1="351.004" y1="140.716" x2="351.004" y2="368.259" gradientUnits="userSpaceOnUse">
<stop stop-color="#6EB9DB"/>
<stop offset="1" stop-color="#35A1B1"/>
</linearGradient>
<linearGradient id="paint16_linear_346_3562" x1="251.866" y1="369.872" x2="251.866" y2="138.903" gradientUnits="userSpaceOnUse">
<stop stop-color="#067691"/>
<stop offset="1" stop-color="#74A1D1"/>
</linearGradient>
<linearGradient id="paint17_linear_346_3562" x1="251.866" y1="156.189" x2="251.866" y2="31.5884" gradientUnits="userSpaceOnUse">
<stop stop-color="#5B90C0"/>
<stop offset="1" stop-color="#86BDCE"/>
</linearGradient>
<linearGradient id="paint18_linear_346_3562" x1="525.19" y1="307.048" x2="593.109" y2="307.048" gradientUnits="userSpaceOnUse">
<stop stop-color="#A2D0EF"/>
<stop offset="1" stop-color="#37A5B6"/>
</linearGradient>
<linearGradient id="paint19_linear_346_3562" x1="541.353" y1="316.832" x2="593.109" y2="316.832" gradientUnits="userSpaceOnUse">
<stop stop-color="#5B90C0"/>
<stop offset="1" stop-color="#86BDCE"/>
</linearGradient>
<linearGradient id="paint20_linear_346_3562" x1="311.128" y1="298.859" x2="531.31" y2="298.859" gradientUnits="userSpaceOnUse">
<stop stop-color="#5B90C0"/>
<stop offset="1" stop-color="#86BDCE"/>
</linearGradient>
<linearGradient id="paint21_linear_346_3562" x1="311.128" y1="332.755" x2="541.353" y2="332.755" gradientUnits="userSpaceOnUse">
<stop stop-color="#9AB9E6"/>
<stop offset="0.24" stop-color="#95C5E5"/>
<stop offset="0.66" stop-color="#8FD4E5"/>
<stop offset="1" stop-color="#8EDAE5"/>
</linearGradient>
<linearGradient id="paint22_linear_346_3562" x1="334.026" y1="363.078" x2="553.909" y2="363.078" gradientUnits="userSpaceOnUse">
<stop stop-color="#067691"/>
<stop offset="1" stop-color="#74A1D1"/>
</linearGradient>
<linearGradient id="paint23_linear_346_3562" x1="65.8854" y1="323.107" x2="249.36" y2="323.107" gradientUnits="userSpaceOnUse">
<stop stop-color="#85AFC8"/>
<stop offset="0.21" stop-color="#6EA9CB"/>
<stop offset="0.47" stop-color="#5BA4CE"/>
<stop offset="0.73" stop-color="#4FA1D0"/>
<stop offset="1" stop-color="#4CA1D1"/>
</linearGradient>
<linearGradient id="paint24_linear_346_3562" x1="66.1696" y1="340.855" x2="249.359" y2="340.855" gradientUnits="userSpaceOnUse">
<stop stop-color="#9AB9E6"/>
<stop offset="0.24" stop-color="#95C5E5"/>
<stop offset="0.66" stop-color="#8FD4E5"/>
<stop offset="1" stop-color="#8EDAE5"/>
</linearGradient>
<linearGradient id="paint25_linear_346_3562" x1="82.8245" y1="306.451" x2="189.821" y2="434.427" gradientUnits="userSpaceOnUse">
<stop offset="0.07" stop-color="#8195CB"/>
<stop offset="0.33" stop-color="#6088B9"/>
<stop offset="0.78" stop-color="#2D759F"/>
<stop offset="1" stop-color="#1A6E95"/>
</linearGradient>
<linearGradient id="paint26_linear_346_3562" x1="34.3204" y1="374.584" x2="229.029" y2="374.584" gradientUnits="userSpaceOnUse">
<stop stop-color="#6E9CDC"/>
<stop offset="1" stop-color="#126694"/>
</linearGradient>
<linearGradient id="paint27_linear_346_3562" x1="5.547" y1="324.997" x2="52.0288" y2="324.997" gradientUnits="userSpaceOnUse">
<stop stop-color="#73A2DF"/>
<stop offset="1" stop-color="#37A5B6"/>
</linearGradient>
<linearGradient id="paint28_linear_346_3562" x1="8.29993" y1="291.942" x2="71.3829" y2="291.942" gradientUnits="userSpaceOnUse">
<stop stop-color="#5B90C0"/>
<stop offset="1" stop-color="#86BDCE"/>
</linearGradient>
<linearGradient id="paint29_linear_346_3562" x1="8.70813" y1="308.308" x2="71.3835" y2="308.308" gradientUnits="userSpaceOnUse">
<stop stop-color="#9AB9E6"/>
<stop offset="0.24" stop-color="#95C5E5"/>
<stop offset="0.66" stop-color="#8FD4E5"/>
<stop offset="1" stop-color="#8EDAE5"/>
</linearGradient>
<linearGradient id="paint30_linear_346_3562" x1="5.77063" y1="320.021" x2="66.17" y2="320.021" gradientUnits="userSpaceOnUse">
<stop stop-color="#9ECBF1"/>
<stop offset="1" stop-color="#7BBCDE"/>
</linearGradient>
<linearGradient id="paint31_linear_346_3562" x1="181.686" y1="288.329" x2="284.353" y2="288.329" gradientUnits="userSpaceOnUse">
<stop stop-color="#74A1D1"/>
<stop offset="1" stop-color="#067691"/>
</linearGradient>
<linearGradient id="paint32_linear_346_3562" x1="158.71" y1="303.564" x2="276.079" y2="303.564" gradientUnits="userSpaceOnUse">
<stop stop-color="#A2D0EF"/>
<stop offset="1" stop-color="#37A5B6"/>
</linearGradient>
<linearGradient id="paint33_linear_346_3562" x1="130.345" y1="315.232" x2="253.489" y2="315.232" gradientUnits="userSpaceOnUse">
<stop stop-color="#B0DAE5"/>
<stop offset="0.26" stop-color="#A8CAE5"/>
<stop offset="0.71" stop-color="#9DB5E5"/>
<stop offset="1" stop-color="#9AAEE6"/>
</linearGradient>
<linearGradient id="paint34_linear_346_3562" x1="110.045" y1="318.009" x2="224.215" y2="318.009" gradientUnits="userSpaceOnUse">
<stop stop-color="#5B90C0"/>
<stop offset="1" stop-color="#86BDCE"/>
</linearGradient>
<linearGradient id="paint35_linear_346_3562" x1="110.045" y1="215.651" x2="130.344" y2="215.651" gradientUnits="userSpaceOnUse">
<stop stop-color="#A2D0EF"/>
<stop offset="1" stop-color="#37A5B6"/>
</linearGradient>
<linearGradient id="paint36_linear_346_3562" x1="120.925" y1="203.296" x2="188.829" y2="203.296" gradientUnits="userSpaceOnUse">
<stop stop-color="#A2D0EF"/>
<stop offset="1" stop-color="#37A5B6"/>
</linearGradient>
<linearGradient id="paint37_linear_346_3562" x1="120.925" y1="211.1" x2="181.686" y2="211.1" gradientUnits="userSpaceOnUse">
<stop stop-color="#9ECBF1"/>
<stop offset="1" stop-color="#7BBCDE"/>
</linearGradient>
<linearGradient id="paint38_linear_346_3562" x1="287.683" y1="309.408" x2="478.016" y2="309.408" gradientUnits="userSpaceOnUse">
<stop stop-color="#A2D0EF"/>
<stop offset="1" stop-color="#37A5B6"/>
</linearGradient>
<linearGradient id="paint39_linear_346_3562" x1="367.398" y1="375.844" x2="367.398" y2="216.943" gradientUnits="userSpaceOnUse">
<stop stop-color="#9AB9E6"/>
<stop offset="0.03" stop-color="#99BAE4"/>
<stop offset="0.57" stop-color="#90C9D6"/>
<stop offset="1" stop-color="#8ECFD1"/>
</linearGradient>
<linearGradient id="paint40_linear_346_3562" x1="275.634" y1="277.266" x2="425.975" y2="277.266" gradientUnits="userSpaceOnUse">
<stop stop-color="#7291CC"/>
<stop offset="1" stop-color="#7BCBEC"/>
</linearGradient>
<linearGradient id="paint41_linear_346_3562" x1="457.962" y1="217.785" x2="481.583" y2="217.785" gradientUnits="userSpaceOnUse">
<stop stop-color="#5B90C0"/>
<stop offset="1" stop-color="#86BDCE"/>
</linearGradient>
<linearGradient id="paint42_linear_346_3562" x1="422.599" y1="217.785" x2="481.584" y2="217.785" gradientUnits="userSpaceOnUse">
<stop stop-color="#A2D0EF"/>
<stop offset="1" stop-color="#37A5B6"/>
</linearGradient>
<linearGradient id="paint43_linear_346_3562" x1="283.4" y1="310.809" x2="310.366" y2="310.809" gradientUnits="userSpaceOnUse">
<stop stop-color="#88B8E0"/>
<stop offset="1" stop-color="#37A5B6"/>
</linearGradient>
<linearGradient id="paint44_linear_346_3562" x1="283.03" y1="390.546" x2="283.03" y2="260.816" gradientUnits="userSpaceOnUse">
<stop stop-color="#9AB9E6"/>
<stop offset="0.24" stop-color="#95C5E5"/>
<stop offset="0.66" stop-color="#8FD4E5"/>
<stop offset="1" stop-color="#8EDAE5"/>
</linearGradient>
<linearGradient id="paint45_linear_346_3562" x1="260.14" y1="266.376" x2="260.14" y2="390.546" gradientUnits="userSpaceOnUse">
<stop stop-color="#9AB9E6"/>
<stop offset="0.1" stop-color="#8AB8E1"/>
<stop offset="0.36" stop-color="#67B8D6"/>
<stop offset="0.6" stop-color="#4DB8CF"/>
<stop offset="0.82" stop-color="#3EB8CA"/>
<stop offset="1" stop-color="#39B8C9"/>
</linearGradient>
<linearGradient id="paint46_linear_346_3562" x1="228.967" y1="316.26" x2="258.371" y2="316.26" gradientUnits="userSpaceOnUse">
<stop stop-color="#8890EF"/>
<stop offset="1" stop-color="#37A5B6"/>
</linearGradient>
<linearGradient id="paint47_linear_346_3562" x1="241.386" y1="266.377" x2="241.386" y2="226.02" gradientUnits="userSpaceOnUse">
<stop stop-color="#A29CEF"/>
<stop offset="1" stop-color="#78C2CA"/>
</linearGradient>
<linearGradient id="paint48_linear_346_3562" x1="253.797" y1="243.415" x2="287.591" y2="243.415" gradientUnits="userSpaceOnUse">
<stop stop-color="#37A5B6"/>
<stop offset="1" stop-color="#8BC2EF"/>
</linearGradient>
<linearGradient id="paint49_linear_346_3562" x1="253.797" y1="247.876" x2="283.4" y2="247.876" gradientUnits="userSpaceOnUse">
<stop stop-color="#9AB9E6"/>
<stop offset="0.24" stop-color="#95C5E5"/>
<stop offset="0.66" stop-color="#8FD4E5"/>
<stop offset="1" stop-color="#8EDAE5"/>
</linearGradient>
<linearGradient id="paint50_linear_346_3562" x1="249.782" y1="269.732" x2="249.782" y2="226.02" gradientUnits="userSpaceOnUse">
<stop stop-color="#77ABD8"/>
<stop offset="1" stop-color="#92D0EF"/>
</linearGradient>
<linearGradient id="paint51_linear_346_3562" x1="378.486" y1="383.815" x2="426.398" y2="383.815" gradientUnits="userSpaceOnUse">
<stop stop-color="#A2D0EF"/>
<stop offset="1" stop-color="#37A5B6"/>
</linearGradient>
<linearGradient id="paint52_linear_346_3562" x1="383.492" y1="387.39" x2="426.398" y2="387.39" gradientUnits="userSpaceOnUse">
<stop stop-color="#74A1D1"/>
<stop offset="1" stop-color="#067691"/>
</linearGradient>
<linearGradient id="paint53_linear_346_3562" x1="283.062" y1="363.765" x2="394.041" y2="363.765" gradientUnits="userSpaceOnUse">
<stop stop-color="#5B90C0"/>
<stop offset="1" stop-color="#86BDCE"/>
</linearGradient>
<linearGradient id="paint54_linear_346_3562" x1="283.062" y1="388.823" x2="383.491" y2="388.823" gradientUnits="userSpaceOnUse">
<stop stop-color="#9ECBF1"/>
<stop offset="1" stop-color="#7BBCDE"/>
</linearGradient>
<linearGradient id="paint55_linear_346_3562" x1="122.54" y1="313.83" x2="168.391" y2="313.83" gradientUnits="userSpaceOnUse">
<stop stop-color="#A2D0EF"/>
<stop offset="1" stop-color="#37A5B6"/>
</linearGradient>
<linearGradient id="paint56_linear_346_3562" x1="119.78" y1="323.1" x2="147.746" y2="323.1" gradientUnits="userSpaceOnUse">
<stop stop-color="#9ECBF1"/>
<stop offset="1" stop-color="#7BBCDE"/>
</linearGradient>
<linearGradient id="paint57_linear_346_3562" x1="119.78" y1="367.089" x2="210.314" y2="367.089" gradientUnits="userSpaceOnUse">
<stop stop-color="#A2D0EF"/>
<stop offset="1" stop-color="#37A5B6"/>
</linearGradient>
<linearGradient id="paint58_linear_346_3562" x1="147.745" y1="357.125" x2="230.467" y2="357.125" gradientUnits="userSpaceOnUse">
<stop stop-color="#9AB9E6"/>
<stop offset="0.24" stop-color="#95C5E5"/>
<stop offset="0.66" stop-color="#8FD4E5"/>
<stop offset="1" stop-color="#8EDAE5"/>
</linearGradient>
<linearGradient id="paint59_linear_346_3562" x1="164.769" y1="342.861" x2="230.466" y2="342.861" gradientUnits="userSpaceOnUse">
<stop stop-color="#85AFC8"/>
<stop offset="1" stop-color="#74A1D1"/>
</linearGradient>
<linearGradient id="paint60_linear_346_3562" x1="172.751" y1="388.155" x2="195.296" y2="388.155" gradientUnits="userSpaceOnUse">
<stop stop-color="#9ECBF1"/>
<stop offset="1" stop-color="#7BBCDE"/>
</linearGradient>
<linearGradient id="paint61_linear_346_3562" x1="172.751" y1="372.167" x2="249.19" y2="372.167" gradientUnits="userSpaceOnUse">
<stop stop-color="#A2D0EF"/>
<stop offset="1" stop-color="#37A5B6"/>
</linearGradient>
<linearGradient id="paint62_linear_346_3562" x1="249.19" y1="366.035" x2="318.486" y2="366.035" gradientUnits="userSpaceOnUse">
<stop stop-color="#A2D0EF"/>
<stop offset="1" stop-color="#37A5B6"/>
</linearGradient>
<linearGradient id="paint63_linear_346_3562" x1="249.19" y1="404.296" x2="337.186" y2="404.296" gradientUnits="userSpaceOnUse">
<stop stop-color="#A2D0EF"/>
<stop offset="1" stop-color="#37A5B6"/>
</linearGradient>
<linearGradient id="paint64_linear_346_3562" x1="249.19" y1="399.809" x2="300.885" y2="399.809" gradientUnits="userSpaceOnUse">
<stop stop-color="#85AFC8"/>
<stop offset="1" stop-color="#74A1D1"/>
</linearGradient>
<linearGradient id="paint65_linear_346_3562" x1="249.19" y1="382.176" x2="318.486" y2="382.176" gradientUnits="userSpaceOnUse">
<stop stop-color="#9ECBF1"/>
<stop offset="1" stop-color="#7BBCDE"/>
</linearGradient>
<linearGradient id="paint66_linear_346_3562" x1="300.885" y1="394.731" x2="344.884" y2="394.731" gradientUnits="userSpaceOnUse">
<stop stop-color="#A2D0EF"/>
<stop offset="1" stop-color="#37A5B6"/>
</linearGradient>
</defs>
</svg>
