<svg width="199" height="236" viewBox="0 0 199 236" fill="none" xmlns="http://www.w3.org/2000/svg">
<g clip-path="url(#clip0_26_2486)">
<path d="M26.1111 96.984C25.3563 100.761 30.532 101.813 29.8042 98.171C29.0764 94.529 26.5154 94.9877 26.1111 96.984Z" fill="#4DA2FF"/>
<path d="M24.6285 113.926C24.0894 115.464 27.3512 116.219 27.3781 115.086C27.4051 113.953 25.1407 112.523 24.6285 113.926Z" fill="#4DA2FF"/>
<path d="M29.8848 117.352C29.8309 118.539 31.8797 119.753 31.6101 117.757C31.3405 115.76 29.9118 116.758 29.8848 117.352Z" fill="#4DA2FF"/>
<path d="M171.221 91.0759C170.331 95.3383 172.865 91.5075 173.324 90.8331C173.782 90.1856 171.571 89.2954 171.221 91.0759Z" fill="#4DA2FF"/>
<path d="M67.5977 51.2572C63.8777 54.9801 72.6657 56.302 73.7709 54.1977C74.8762 52.1204 72.3422 46.4822 67.5977 51.2572Z" fill="#4DA2FF"/>
<path d="M157.716 43.8923C155.775 48.8022 161.867 49.3148 162.029 45.7808C162.191 42.2467 158.363 42.2737 157.716 43.8923Z" fill="#4DA2FF"/>
<path d="M179.065 74.6466C178.23 69.2241 183.136 69.4669 182.435 72.2995C181.761 75.1322 179.901 80.0691 179.065 74.6466Z" fill="#4DA2FF"/>
<g style="mix-blend-mode:color-dodge">
<path fill-rule="evenodd" clip-rule="evenodd" d="M121.89 223.023C131.756 222.402 142.754 218.949 146.528 208.859C153.726 189.651 157.877 180.722 170.305 164.508C175.696 157.467 175.103 153.367 182.57 146.568C186.047 143.439 190.064 140.121 193.353 136.938C199.041 131.461 199.93 123.934 198.124 116.543C195.321 106.129 186.721 105.698 183.082 95.0416C180.71 88.0274 183.163 85.8153 185.481 78.99C187.665 72.5424 188.312 67.0929 186.694 60.4835C185.454 56.1131 181.627 48.6943 176.693 47.885C174.699 47.5613 171.76 47.6961 169.496 47.4803C164.293 46.9947 164.212 46.9408 160.654 50.6097C157.716 53.6582 155.397 53.1726 151.812 51.5C138.926 43.8653 154.939 36.8242 145.935 24.3067C143.833 21.3931 139.331 19.1 136.419 16.6451C132.268 13.165 130.435 11.3305 124.801 10.4133C120.11 9.63096 115.582 10.6022 111.08 11.8701C107.953 12.7873 100.216 14.8916 97.7899 16.5642C94.2315 19.0191 94.1776 20.0443 89.3253 21.0154C85.6322 21.7438 83.3139 21.7169 79.6208 23.2276C73.9867 25.4937 70.9945 26.384 64.8213 25.116C62.8535 24.7114 60.8317 24.1179 58.8638 23.6053C51.9897 21.8787 58.0281 32.4269 60.9125 35.2595C65.4683 39.7648 70.4823 41.923 76.2242 41.869C80.3217 41.842 84.4191 41.1406 88.4358 40.3313C93.0185 39.2522 97.3855 38.7127 102.049 39.441C106.308 40.0885 106.928 39.4141 110.136 42.8402C111.188 43.9733 111.915 44.4049 113.021 45.3221C114.746 46.7519 114.611 48.3436 114.072 50.3399C113.695 51.6888 113.128 53.3075 112.67 54.6563C111.08 59.4044 107.252 62.6686 102.777 64.584C95.202 67.6325 86.7105 68.9004 78.5695 68.2799C70.4014 67.6595 67.7596 66.9041 59.376 69.2241C54.6585 70.5191 50.3723 70.4112 45.547 71.2744C37.1903 73.3517 33.3085 79.6644 28.6718 86.2739C25.9492 90.1317 26.2457 92.5327 27.2701 97.0649C27.4857 98.0361 27.7553 99.0073 27.971 99.9784C30.0466 108.584 36.2468 107.047 40.3443 112.955L41.0991 114.276C42.7704 117.811 40.5869 122.586 38.1338 125.634C32.3919 132.297 17.8081 136.02 15.6515 145.112C15.1394 147.243 14.3846 154.365 14.9507 156.28C19.5064 166.397 25.4909 161.109 15.7324 175.272C3.19736 193.995 14.142 195.101 24.5744 209.561C34.3328 223.05 36.6242 223.346 53.2028 225.208C66.0344 226.718 77.1138 225.262 89.6758 226.557C96.469 227.258 100.459 226.934 107.198 225.504C112.643 224.317 116.121 223.4 121.836 223.104L121.89 223.023Z" fill="url(#paint0_linear_26_2486)" style="mix-blend-mode:screen"/>
</g>
<g style="mix-blend-mode:color-dodge">
<path fill-rule="evenodd" clip-rule="evenodd" d="M22.3371 141.47C25.6798 133.161 35.8965 127.927 38.9427 119.483C40.5062 115.113 41.2071 109.636 42.6628 104.888C44.8463 97.6584 44.9541 97.8472 44.1724 90.4015C43.8489 84.6822 47.2994 83.1176 51.1273 79.3677C60.4814 70.3842 64.6867 75.0783 75.5774 75.2401C84.4193 75.2132 88.1124 72.4345 95.6335 69.0353C101.807 66.3376 103.478 67.4437 109.382 66.9041C114.369 66.4455 119.625 62.7766 124.612 61.1309C133.131 58.2983 137.013 59.5662 142.943 51.1763C144.507 48.9911 145.909 46.5631 147.31 44.297C150.626 38.9285 152.863 34.0726 150.464 27.8408L150.114 27.0584C147.93 22.6611 144.426 20.6378 140.113 18.7224C138.819 18.1559 134.829 15.7279 133.724 14.7027C131.729 12.8683 131.379 11.978 130.3 9.60401C128.252 5.34157 125.098 4.39736 120.596 3.93875C117.873 3.66897 115.204 3.80386 112.482 4.01968C109.193 4.28945 109.058 2.88663 112.724 1.61869C115.743 0.647498 119.868 -0.269735 123.022 0.0809718C126.068 0.431679 126.904 0.512611 130.004 0.242837C132.08 0.0539944 132.888 0.161904 134.91 0.701453C138.441 1.69962 140.975 4.39736 142.593 7.5807C143.159 8.68678 143.509 9.33424 144.372 10.2245C151.57 17.0498 160.411 16.2674 168.337 20.0713C174.86 23.2816 174.402 24.9542 175.723 31.6446C176.586 35.988 175.427 37.5526 172.542 40.7899C170.251 43.3528 168.067 45.2682 165.992 48.1548C160.358 56.1671 159.98 59.7281 164.536 68.6576C166.827 73.1629 167.016 77.2095 165.345 81.9575C163.565 87.0563 159.387 89.4842 161.004 94.7988C162.595 99.0612 166.369 101.273 169.981 104.025C178.581 110.581 180.144 122.747 176.451 128.736C172.92 134.159 168.094 136.668 164.212 142.738C160.277 148.862 157.743 155.066 158.201 162.377C158.417 165.884 158.551 168.366 157.15 171.685C154.858 176.433 149.683 177.566 146.475 181.747C139.439 190.919 145.315 197.043 139.277 205.029C135.692 209.804 130.462 213.985 124.666 215.334C114.072 217.816 102.885 217.034 92.0751 216.062C74.0139 214.417 55.71 212.744 38.3766 207.43C32.5808 205.649 28.2137 200.389 24.7093 195.425C22.0406 191.513 20.7197 187.224 18.617 182.88C14.6543 174.679 14.6273 171.9 18.9944 163.996C23.5232 155.822 22.0945 155.498 21.6362 146.838C21.5284 144.734 21.6901 143.466 22.3101 141.443L22.3371 141.47Z" fill="url(#paint1_linear_26_2486)" style="mix-blend-mode:screen"/>
</g>
<path fill-rule="evenodd" clip-rule="evenodd" d="M182.57 102.595L139.007 105.994L13.6028 190.272L13.522 194.103L18.1586 200.739L24.6822 207.996L31.5832 214.282L36.5164 217.249L39.4817 218.301L42.0696 218.194L44.1992 217.816H46.0323L48.0001 218.248L50.4263 219.111L52.1785 219.3L135.476 226.152L183.298 104.16L182.57 102.595Z" fill="url(#paint2_linear_26_2486)"/>
<path fill-rule="evenodd" clip-rule="evenodd" d="M134.56 224.83L182.57 102.595L184.053 105.725L136.393 227.474L134.56 224.83Z" fill="url(#paint3_radial_26_2486)"/>
<g style="mix-blend-mode:screen">
<path fill-rule="evenodd" clip-rule="evenodd" d="M117.684 223.454C119.76 223.562 133.184 224.641 134.209 223.94C134.775 223.535 135.018 222.618 135.287 221.917L157.715 165.803L135.611 223.319C135.449 223.697 135.233 224.183 135.206 224.56C135.179 225.235 135.691 226.287 136.096 227.096C135.53 226.233 134.721 225.505 134.29 225.289C133.265 224.776 119.895 223.697 117.684 223.454Z" fill="url(#paint4_radial_26_2486)"/>
</g>
<path fill-rule="evenodd" clip-rule="evenodd" d="M108.761 192.673L31.0439 190.272C34.144 197.907 40.9372 205.784 48.3235 210.586C50.9383 210.505 51.747 211.368 54.2001 211.611C78.812 213.958 103.424 216.305 128.036 218.679C124.828 208.94 114.072 197.394 108.788 192.7L108.761 192.673Z" fill="url(#paint5_radial_26_2486)"/>
<path fill-rule="evenodd" clip-rule="evenodd" d="M134.829 139.339L108.761 192.673C109.166 196.045 110.567 199.552 112.724 203.005L114.126 202.142L113.748 204.57C114.8 206.081 116.013 207.592 117.334 209.075L118.547 208.509L118.304 210.127C120.218 212.178 122.375 214.174 124.693 216.062L126.149 215.604V217.196C126.742 217.681 127.389 218.167 128.036 218.625C142.512 181.181 156.988 143.709 171.49 106.264C170.116 105.185 168.795 103.971 167.501 102.622L165.749 104.969L166.396 101.408C165.371 100.221 164.374 98.8994 163.403 97.4696L162.055 98.4408L162.406 95.9049C162.028 95.2844 161.678 94.6639 161.328 94.0165L160.384 94.7718L160.546 92.4518C160.088 91.5076 159.629 90.5094 159.198 89.4573L134.829 139.339Z" fill="url(#paint6_radial_26_2486)"/>
<path fill-rule="evenodd" clip-rule="evenodd" d="M159.953 94.0435L150.949 118.323L160.465 96.0668L161.328 94.0704L160.384 94.7988L160.546 92.4788L159.953 94.0435Z" fill="#72574C"/>
<path fill-rule="evenodd" clip-rule="evenodd" d="M161.355 98.6836L147.175 135.859L162.136 100.383L163.35 97.4966L162.056 98.4678L162.406 95.9319L161.355 98.6836Z" fill="#72574C"/>
<path fill-rule="evenodd" clip-rule="evenodd" d="M115.635 199.633L131.298 159.086L125.879 171.9L123.723 177.188C123.157 178.591 122.563 179.913 121.997 181.127L114.638 198.527L112.724 203.032L114.126 202.169L113.775 204.489L115.662 199.633H115.635Z" fill="#72574C"/>
<path fill-rule="evenodd" clip-rule="evenodd" d="M144.345 143.007L119.382 204.057L118.115 207.133L117.307 209.102L118.547 208.536L118.304 210.127L120.245 205.137L144.372 143.007H144.345Z" fill="#72574C"/>
<path style="mix-blend-mode:screen" fill-rule="evenodd" clip-rule="evenodd" d="M127.739 176.487C135.018 161.055 140.787 147.81 145.612 131.866L127.739 176.487Z" fill="url(#paint7_radial_26_2486)"/>
<path fill-rule="evenodd" clip-rule="evenodd" d="M126.041 180.479C130.839 167.989 135.503 155.606 140.463 143.196C142.781 137.369 145.423 131.542 147.93 125.796C145.639 132.055 143.455 138.206 140.975 144.383C136.15 156.442 131.055 168.501 126.041 180.479Z" fill="#72574C"/>
<path style="mix-blend-mode:multiply" fill-rule="evenodd" clip-rule="evenodd" d="M120.434 205.433L160.33 107.856L164.131 98.6026C163.889 98.2519 163.619 97.8742 163.376 97.4966L162.029 98.4677L162.379 95.9319C162.002 95.3114 161.651 94.6909 161.301 94.0434L160.357 94.7988L160.519 92.4788C160.519 92.4788 160.384 92.236 160.33 92.1011C159.926 91.2648 159.549 90.3745 159.171 89.4843L134.802 139.366L108.734 192.7C109.139 196.072 110.541 199.579 112.697 203.032L114.099 202.169L113.721 204.597C114.773 206.108 115.986 207.618 117.307 209.102L118.52 208.536L118.277 210.154C118.277 210.154 118.385 210.262 118.439 210.316L120.434 205.433Z" fill="url(#paint8_radial_26_2486)"/>
<path style="mix-blend-mode:multiply" fill-rule="evenodd" clip-rule="evenodd" d="M108.761 192.673L31.0439 190.272C33.1466 195.452 36.9476 200.739 41.4763 205.11L118.439 210.343C118.439 210.343 118.331 210.235 118.277 210.181L118.52 208.563L117.307 209.129C115.986 207.645 114.8 206.135 113.721 204.624L114.099 202.196L112.697 203.059C110.54 199.606 109.139 196.099 108.734 192.727L108.761 192.673Z" fill="url(#paint9_radial_26_2486)"/>
<path fill-rule="evenodd" clip-rule="evenodd" d="M125.556 198.77C128.629 190.407 131.675 182.044 134.964 173.762C139.492 162.296 144.264 150.885 148.981 139.5C144.614 151.047 140.301 162.674 135.745 174.139C132.484 182.421 129.006 190.569 125.556 198.77Z" fill="#72574C"/>
<path fill-rule="evenodd" clip-rule="evenodd" d="M165.237 104.43L143.293 162.215L166.423 105.266L167.474 102.676L165.83 104.888L165.722 104.996L165.749 104.834L166.369 101.435L165.237 104.43Z" fill="#72574C"/>
<path fill-rule="evenodd" clip-rule="evenodd" d="M149.008 155.984L125.744 213.5L125.232 214.714L124.693 216.089L126.122 215.631V217.168L126.742 215.496L149.008 155.984Z" fill="#72574C"/>
<g style="mix-blend-mode:multiply">
<path fill-rule="evenodd" clip-rule="evenodd" d="M63.123 200.092L113.749 204.597L114.126 202.169L112.724 203.032L63.123 200.092Z" fill="#BFAA97"/>
</g>
<g style="mix-blend-mode:multiply">
<path fill-rule="evenodd" clip-rule="evenodd" d="M117.307 209.102L83.6646 206.863L118.277 210.154L118.52 208.536L117.307 209.102Z" fill="#BFAA97"/>
</g>
<g style="mix-blend-mode:multiply">
<path fill-rule="evenodd" clip-rule="evenodd" d="M124.666 216.089L67.0586 211.287L126.095 217.222V215.631L124.639 216.089H124.666Z" fill="#BFAA97"/>
</g>
<g style="mix-blend-mode:multiply">
<path fill-rule="evenodd" clip-rule="evenodd" d="M33.6048 195.344L87.519 198.635L33.0117 194.319C33.2004 194.669 33.4161 195.02 33.6048 195.344Z" fill="#BFAA97"/>
</g>
<g style="mix-blend-mode:multiply">
<path fill-rule="evenodd" clip-rule="evenodd" d="M72.2077 203.518L37.1904 200.443C37.46 200.766 37.7296 201.09 37.9991 201.441L72.2077 203.545V203.518Z" fill="#BFAA97"/>
</g>
<g style="mix-blend-mode:multiply">
<path fill-rule="evenodd" clip-rule="evenodd" d="M93.0456 209.858L41.4497 205.056C41.7732 205.379 42.1236 205.676 42.4471 206L93.0456 209.858Z" fill="#BFAA97"/>
</g>
<path style="mix-blend-mode:screen" opacity="0.5" fill-rule="evenodd" clip-rule="evenodd" d="M115.635 199.633L113.748 204.489L71.3179 200.82L114.368 205.46L116.228 200.281L126.93 170.39L115.635 199.633Z" fill="url(#paint10_radial_26_2486)"/>
<path fill-rule="evenodd" clip-rule="evenodd" d="M166.234 68.3069L85.821 76.6429C84.7967 76.7508 84.5271 76.9936 83.6375 77.3983C82.0201 78.1537 81.8044 78.2076 80.0253 77.9918C78.0574 77.749 75.82 77.5062 74.0138 78.4774C72.9895 79.0169 72.2886 79.9072 71.5068 81.337L10.9072 189.49L14.0073 188.626L16.1639 188.815L20.0457 189.921L22.0405 189.975L24.9249 189.382L27.1085 189.247L113.317 193.806L166.989 69.9525L166.18 68.2799L166.234 68.3069Z" fill="url(#paint11_linear_26_2486)"/>
<mask id="mask0_26_2486" style="mask-type:luminance" maskUnits="userSpaceOnUse" x="10" y="68" width="157" height="126">
<path d="M166.234 68.3069L85.821 76.6429C84.7967 76.7508 84.5271 76.9936 83.6375 77.3983C82.0201 78.1537 81.8044 78.2076 80.0253 77.9918C78.0574 77.749 75.82 77.5062 74.0138 78.4774C72.9895 79.0169 72.2886 79.9072 71.5068 81.337L10.9072 189.49L14.0073 188.626L16.1639 188.815L20.0457 189.921L22.0405 189.975L24.9249 189.382L27.1085 189.247L113.317 193.806L166.989 69.9525L166.18 68.2799L166.234 68.3069Z" fill="white"/>
</mask>
<g mask="url(#mask0_26_2486)">
<path style="mix-blend-mode:screen" opacity="0.5" d="M86.4139 147.216C125.793 147.216 157.715 115.269 157.715 75.8606C157.715 36.4521 125.793 4.50525 86.4139 4.50525C47.0351 4.50525 15.1123 36.4521 15.1123 75.8606C15.1123 115.269 47.0351 147.216 86.4139 147.216Z" fill="url(#paint12_radial_26_2486)"/>
</g>
<path fill-rule="evenodd" clip-rule="evenodd" d="M69.8086 185.335L89.2986 184.688L88.0316 187.331L69.8086 185.335Z" fill="#CC6633"/>
<path fill-rule="evenodd" clip-rule="evenodd" d="M141.811 72.7312L141.218 74.8354L123.938 75.5369L141.811 72.7312Z" fill="url(#paint13_radial_26_2486)"/>
<path fill-rule="evenodd" clip-rule="evenodd" d="M141.622 73.3247L123.938 75.5369L141.811 72.7312L141.622 73.3247Z" fill="#CC6633"/>
<path fill-rule="evenodd" clip-rule="evenodd" d="M42.9592 167.233L42.2853 166.127L38.9965 167.179L28.1328 184.903L28.8067 186.009L47.5958 186.711L49.7794 182.529L49.1054 181.423C48.6472 182.287 48.0002 182.368 47.8115 182.314C40.9374 181.073 39.1044 174.409 42.9862 167.206L42.9592 167.233ZM110.271 189.031L88.0854 188.195L87.4115 187.089L90.1611 183.77C99.0839 184.04 110.729 176.783 114.692 167.962L118.87 166.909L119.544 168.016L110.271 189.031ZM142.161 72.8391L139.978 74.9703L140.652 76.0764C146.798 75.4289 152.27 78.0997 151.812 83.6571C151.758 84.3855 151.138 85.4376 150.141 86.166L150.815 87.272L155.316 86.8943L162.433 70.7618L161.759 69.6558L142.161 72.8661V72.8391ZM82.9905 93.0722L79.0009 93.4229L78.327 92.3168L87.0611 78.5583L104.017 75.6178L104.691 76.7239L103.02 79.9611C94.8786 80.7974 86.6298 86.3548 83.0175 93.0722H82.9905Z" fill="#954B25"/>
<path fill-rule="evenodd" clip-rule="evenodd" d="M69.8086 185.335L88.9481 185.47L89.2986 184.688L69.8086 185.335Z" fill="url(#paint14_radial_26_2486)"/>
<path fill-rule="evenodd" clip-rule="evenodd" d="M46.9219 185.605L47.5958 186.711L49.7524 182.529L49.0784 181.423L46.9219 185.605Z" fill="#954B25"/>
<path fill-rule="evenodd" clip-rule="evenodd" d="M115.5 168.474L134.91 128.44L118.601 168.906L115.5 168.474Z" fill="url(#paint15_radial_26_2486)"/>
<path fill-rule="evenodd" clip-rule="evenodd" d="M116.633 168.609L134.91 128.44L118.601 168.906L116.633 168.609Z" fill="url(#paint16_radial_26_2486)"/>
<path fill-rule="evenodd" clip-rule="evenodd" d="M109.624 187.925L87.4385 187.089L88.1124 188.195L110.298 189.031L109.624 187.925ZM47.5958 186.711L46.9219 185.605L28.1328 184.903L28.8067 186.01L47.5958 186.711Z" fill="#CC6633"/>
<path fill-rule="evenodd" clip-rule="evenodd" d="M39.5625 167.503L61.1282 130.031L42.0156 168.124L39.5625 167.503Z" fill="url(#paint17_radial_26_2486)"/>
<path fill-rule="evenodd" clip-rule="evenodd" d="M150.168 86.139L150.842 87.2451L155.344 86.8674L154.67 85.7614L150.168 86.139ZM79.0279 93.396L83.0176 93.0453L82.3437 91.9392L78.354 92.2899L79.0279 93.396Z" fill="#CC6633"/>
<path fill-rule="evenodd" clip-rule="evenodd" d="M103.02 79.9612L104.718 76.7239L104.044 75.6178L102.346 78.8551L103.02 79.9612Z" fill="#954B25"/>
<path fill-rule="evenodd" clip-rule="evenodd" d="M139.978 74.9704L140.651 76.0765C144.83 75.6448 148.712 76.7239 150.599 79.2058C149.089 75.9416 144.749 74.4578 139.978 74.9704Z" fill="#954B25"/>
<path fill-rule="evenodd" clip-rule="evenodd" d="M161.786 69.6288L154.669 85.7613L155.343 86.8674L162.46 70.7349L161.786 69.6288ZM118.897 166.909L109.624 187.925L110.298 189.031L119.571 168.016L118.897 166.909Z" fill="#954B25"/>
<path fill-rule="evenodd" clip-rule="evenodd" d="M103.019 79.9612L102.345 78.8551C94.2044 79.6914 85.9555 85.2488 82.3433 91.9661L83.0172 93.0722C86.6294 86.3818 94.8783 80.8245 103.019 79.9612Z" fill="#954B25"/>
<path fill-rule="evenodd" clip-rule="evenodd" d="M41.7998 178.132C40.398 175.273 40.7485 171.334 42.9589 167.206L42.285 166.1C39.751 170.767 39.6702 175.219 41.7998 178.105V178.132Z" fill="#954B25"/>
<path fill-rule="evenodd" clip-rule="evenodd" d="M40.2903 167.692L61.1282 130.031L39.5625 167.503L40.2903 167.692Z" fill="url(#paint18_radial_26_2486)"/>
<path fill-rule="evenodd" clip-rule="evenodd" d="M42.2854 166.127H38.3227L28.106 184.903L46.8951 185.605L49.0786 181.423C40.6141 181.154 38.0531 173.951 42.2854 166.127ZM109.597 187.925L87.4116 187.089L89.4873 182.664C98.4101 182.934 110.056 175.677 114.018 166.856L118.871 166.909L109.597 187.925ZM141.488 71.733L139.978 74.9703C147.337 74.215 153.726 78.1806 150.141 86.166L154.643 85.7883L161.759 69.6558L141.488 71.76V71.733ZM82.3167 91.9661L78.3271 92.3168L86.3872 77.4522L104.017 75.6178L102.346 78.8551C94.2048 79.6914 85.9559 85.2487 82.3437 91.9661H82.3167Z" fill="url(#paint19_radial_26_2486)"/>
<path fill-rule="evenodd" clip-rule="evenodd" d="M112.293 192.268L27.8093 188.626C25.6797 188.545 24.7362 188.599 22.2292 189.139C19.9109 189.625 16.9995 188.249 13.9264 188.114C11.2038 188.006 9.90982 189.948 11.069 192.565C11.6351 193.833 12.336 195.02 13.1177 196.18C15.8943 200.2 19.5874 204.435 23.2266 208.104C27.0815 211.989 31.9607 216.44 37.1095 218.49C38.053 218.868 39.0235 219.111 39.994 219.354C41.9349 219.812 42.8245 219.731 44.6575 219.246C46.6254 218.733 47.2993 219.111 48.5933 219.596C49.8872 220.082 50.2916 220.217 51.6933 220.325L136.393 227.501L134.586 224.857L51.1273 218.032C49.1324 217.87 47.4341 217.034 45.5202 216.683C43.714 216.332 43.121 216.575 41.4227 216.926C40.2905 217.168 39.1583 217.115 36.84 216.17C30.0737 213.365 19.1022 201.495 15.5708 195.047C13.8186 191.81 15.1934 190.434 18.5361 191.108C20.0727 191.405 21.1779 191.999 22.9301 192.187C25.1136 192.43 26.4345 191.459 28.3754 191.432C29.292 191.432 30.1816 191.459 31.0981 191.513L114.476 195.506L112.32 192.349L112.293 192.268Z" fill="url(#paint20_radial_26_2486)"/>
<path fill-rule="evenodd" clip-rule="evenodd" d="M112.293 192.268L166.234 68.3069L167.825 71.6521L114.396 195.425L112.293 192.268Z" fill="url(#paint21_radial_26_2486)"/>
<g style="mix-blend-mode:multiply" opacity="0.35">
<path fill-rule="evenodd" clip-rule="evenodd" d="M79.2162 77.8839L18.6436 188.599L19.4523 189.031C20.4227 189.193 21.3662 189.274 22.2019 189.085C22.5793 189.004 22.9297 188.923 23.2532 188.869L84.4459 76.9937C84.2033 77.1016 83.9606 77.2364 83.6102 77.3983C81.9928 78.1537 81.7771 78.2076 79.9979 77.9918C79.7284 77.9648 79.4588 77.9379 79.1892 77.8839H79.2162Z" fill="url(#paint22_linear_26_2486)"/>
</g>
<g style="mix-blend-mode:screen">
<path fill-rule="evenodd" clip-rule="evenodd" d="M73.6091 78.6933L12.686 188.195C13.0365 188.114 13.4408 188.087 13.8991 188.087C14.7887 188.114 15.6783 188.276 16.5409 188.438L78.084 77.7761C76.6822 77.6951 75.2265 77.7761 73.9865 78.4505C73.8517 78.5314 73.7169 78.6124 73.6091 78.6933Z" fill="url(#paint23_linear_26_2486)"/>
</g>
<path fill-rule="evenodd" clip-rule="evenodd" d="M69.3501 190.407C69.7545 190.704 70.5632 191.162 71.2371 191.27C73.3937 191.648 77.8685 192.16 80.6451 191.918C81.8043 191.81 82.7208 191.324 83.0982 191C81.0764 189.382 78.6503 188.411 77.9225 188.33C76.8442 188.195 72.6119 188.815 69.3771 190.407H69.3501Z" fill="url(#paint24_radial_26_2486)"/>
<g style="mix-blend-mode:screen">
<path fill-rule="evenodd" clip-rule="evenodd" d="M76.4397 188.384C77.0867 188.303 77.5989 188.303 77.8685 188.33C78.4346 188.411 79.9981 188.977 81.6155 190.002C82.1007 190.299 82.5859 190.623 83.0442 191C82.6668 191.324 81.7503 191.81 80.5911 191.918C80.1868 191.945 79.7824 191.972 79.3241 191.972C78.5963 191.972 74.9032 188.545 76.4128 188.384H76.4397Z" fill="url(#paint25_radial_26_2486)"/>
</g>
<path style="mix-blend-mode:screen" fill-rule="evenodd" clip-rule="evenodd" d="M82.5322 91.6154C86.6297 84.3045 92.075 80.9054 100.027 79.2328C92.2098 81.5798 87.9506 84.1966 82.5322 91.6154Z" fill="url(#paint26_radial_26_2486)"/>
<path fill-rule="evenodd" clip-rule="evenodd" d="M122.159 111.795C127.2 119.834 120.272 133.269 106.686 141.766C93.0992 150.264 78.0302 150.642 72.9892 142.603C67.9482 134.564 74.6066 120.724 88.193 112.226C101.779 103.728 117.118 103.728 122.159 111.795ZM122.941 111.579C128.116 119.861 121 133.646 107.063 142.387C93.1262 151.128 77.5989 151.505 72.4231 143.25C67.2473 134.995 74.0944 120.805 88.0313 112.064C101.968 103.324 117.738 103.324 122.914 111.606L122.941 111.579Z" fill="url(#paint27_linear_26_2486)"/>
<path fill-rule="evenodd" clip-rule="evenodd" d="M121.782 111.228C126.823 119.267 119.895 132.702 106.308 141.2C92.722 149.698 77.653 150.076 72.612 142.036C67.571 133.997 74.499 120.562 88.0854 112.064C101.672 103.567 116.741 103.189 121.782 111.228ZM122.564 111.012C127.739 119.294 120.623 133.08 106.686 141.821C92.749 150.561 77.2217 150.939 72.0459 142.684C66.8702 134.429 73.9868 120.616 87.9237 111.876C101.86 103.135 117.388 102.757 122.564 111.012Z" fill="url(#paint28_radial_26_2486)"/>
<path fill-rule="evenodd" clip-rule="evenodd" d="M85.2007 108.746L86.0633 113.818L89.6486 111.525L85.2007 108.746Z" fill="#999999"/>
<path fill-rule="evenodd" clip-rule="evenodd" d="M85.2007 108.746L87.8155 112.712L86.0633 113.818L85.2007 108.746Z" fill="url(#paint29_radial_26_2486)"/>
<path fill-rule="evenodd" clip-rule="evenodd" d="M85.2007 108.746L89.6486 111.525L87.8155 112.712L85.2007 108.746Z" fill="url(#paint30_radial_26_2486)"/>
<path fill-rule="evenodd" clip-rule="evenodd" d="M101.052 107.613L113.479 92.2629L110.972 108.935L101.052 107.613Z" fill="url(#paint31_radial_26_2486)"/>
<path fill-rule="evenodd" clip-rule="evenodd" d="M110.972 108.935L111.619 108.989L112.023 106.048L111.457 105.59L110.945 108.935H110.972ZM112.158 105.239L113.91 92.8564L113.479 92.2629L111.538 105.158C111.754 105.158 111.942 105.212 112.158 105.212V105.239Z" fill="#6B3328"/>
<path fill-rule="evenodd" clip-rule="evenodd" d="M104.044 107.991L113.479 92.2629L101.052 107.613L104.044 107.991Z" fill="url(#paint32_radial_26_2486)"/>
<path style="mix-blend-mode:screen" fill-rule="evenodd" clip-rule="evenodd" d="M105.338 104.619C104.017 106.642 103.262 106.669 101.618 106.912L101.079 107.586L104.071 107.991L113.506 92.236L105.365 104.619H105.338Z" fill="url(#paint33_radial_26_2486)"/>
<path fill-rule="evenodd" clip-rule="evenodd" d="M127.524 106.264L114.611 111.822L116.903 116.003L127.524 106.264Z" fill="url(#paint34_radial_26_2486)"/>
<path fill-rule="evenodd" clip-rule="evenodd" d="M127.523 106.264L127.874 106.831L122.86 111.498C122.779 111.336 122.671 111.174 122.59 111.012C122.59 110.958 122.536 110.931 122.509 110.877L127.55 106.264H127.523ZM122.24 112.064L117.118 116.812L116.902 116.003L121.889 111.417C122.024 111.633 122.132 111.822 122.24 112.037V112.064Z" fill="#6B3328"/>
<path fill-rule="evenodd" clip-rule="evenodd" d="M115.204 112.901L127.524 106.264L114.611 111.822L115.204 112.901Z" fill="url(#paint35_radial_26_2486)"/>
<path fill-rule="evenodd" clip-rule="evenodd" d="M77.0869 123.88L62.4492 127.63L74.9573 130.787L77.0869 123.88Z" fill="url(#paint36_radial_26_2486)"/>
<path fill-rule="evenodd" clip-rule="evenodd" d="M62.4492 127.63L76.413 126.093L77.0869 123.88L62.4492 127.63Z" fill="url(#paint37_radial_26_2486)"/>
<path fill-rule="evenodd" clip-rule="evenodd" d="M62.6649 128.197L71.5068 130.436C71.5607 130.274 71.6146 130.112 71.6955 129.95L62.4492 127.603L62.6649 128.17V128.197ZM72.3425 130.625L74.9304 131.272V130.76L72.1268 130.058L72.3425 130.625Z" fill="#6B3328"/>
<path style="mix-blend-mode:screen" fill-rule="evenodd" clip-rule="evenodd" d="M65.738 126.983L62.4492 127.63L76.413 126.093L77.1139 123.88L76.5478 124.042C75.173 125.634 68.4067 126.443 65.7649 126.956L65.738 126.983Z" fill="url(#paint38_radial_26_2486)"/>
<path fill-rule="evenodd" clip-rule="evenodd" d="M114.611 111.822L116.66 115.517C120.218 121.911 115.15 132.136 104.583 138.745C94.043 145.355 82.5862 145.516 78.4348 139.473L76.0356 135.993L114.584 111.849L114.611 111.822Z" fill="url(#paint39_linear_26_2486)"/>
<path style="mix-blend-mode:multiply" fill-rule="evenodd" clip-rule="evenodd" d="M110.864 127.981C111.565 129.168 112.239 130.328 112.94 131.515C117.469 126.012 119.059 119.969 116.714 115.625L115.016 112.55C117.091 116.785 115.339 122.639 110.891 127.981H110.864Z" fill="url(#paint40_linear_26_2486)"/>
<path style="mix-blend-mode:multiply" fill-rule="evenodd" clip-rule="evenodd" d="M87.2497 143.79C86.4949 142.657 85.7401 141.551 84.9853 140.418C81.2653 140.202 78.2191 138.907 76.4399 136.506L78.4617 139.446C80.2409 142.063 83.3949 143.52 87.2767 143.79H87.2497Z" fill="url(#paint41_linear_26_2486)"/>
<path style="mix-blend-mode:screen" fill-rule="evenodd" clip-rule="evenodd" d="M114.773 112.334C118.682 118.566 113.263 128.979 102.669 135.616C101.645 136.263 100.594 136.857 99.5423 137.396C99.0301 138.367 98.2214 139.204 97.7631 139.5C97.4126 139.716 95.8491 139.824 94.4474 139.5C86.5759 142.009 79.3783 140.984 76.467 136.371C72.5582 130.139 77.9766 119.726 88.5707 113.089C99.1379 106.453 110.891 106.129 114.773 112.361V112.334Z" fill="url(#paint42_radial_26_2486)"/>
<path fill-rule="evenodd" clip-rule="evenodd" d="M114.611 111.822C118.52 118.08 113.074 128.575 102.453 135.238C91.8053 141.901 79.9981 142.225 76.0893 135.966C72.1805 129.708 77.6259 119.213 88.247 112.55C98.8681 105.887 110.702 105.563 114.611 111.822Z" fill="url(#paint43_radial_26_2486)"/>
<path fill-rule="evenodd" clip-rule="evenodd" d="M109.597 112.118C112.778 117.136 108.438 125.607 99.9194 131.003C91.4009 136.425 81.912 136.749 78.7311 131.731C75.5501 126.713 79.8902 118.242 88.4087 112.847C96.9271 107.424 106.416 107.101 109.597 112.118Z" fill="url(#paint44_radial_26_2486)"/>
<path fill-rule="evenodd" clip-rule="evenodd" d="M110.756 111.552C114.153 116.893 109.543 125.931 100.432 131.704C91.347 137.477 81.2111 137.828 77.8145 132.459C74.4179 127.118 79.0276 118.08 88.1391 112.307C97.2236 106.534 107.36 106.183 110.756 111.552ZM109.624 112.118C112.805 117.136 108.465 125.607 99.9463 131.003C91.4279 136.425 81.9389 136.749 78.758 131.731C75.5771 126.713 79.9172 118.242 88.4356 112.847C96.9541 107.424 106.443 107.101 109.624 112.118Z" fill="url(#paint45_radial_26_2486)"/>
<path fill-rule="evenodd" clip-rule="evenodd" d="M90.5382 116.516C98.1131 111.714 106.416 110.904 110.486 114.223C110.325 113.467 110.028 112.766 109.624 112.118C106.443 107.101 96.954 107.424 88.4355 112.847C79.9171 118.269 75.577 126.713 78.7579 131.731C79.0814 132.217 79.4588 132.675 79.8901 133.08C79.0275 128.035 83.2598 121.183 90.5651 116.543L90.5382 116.516Z" fill="url(#paint46_linear_26_2486)"/>
<path fill-rule="evenodd" clip-rule="evenodd" d="M100.431 131.704C92.3443 136.83 83.4485 137.666 79.1892 134.024C78.704 133.619 78.2997 133.161 77.9492 132.621L78.8927 134.051C78.8927 134.051 78.9466 134.132 78.9736 134.186C82.505 139.366 92.4791 139.042 101.51 133.296C110.406 127.63 115.096 118.809 112.023 113.467C111.969 113.359 111.888 113.251 111.834 113.143L110.783 111.552C111.187 112.199 111.484 112.928 111.673 113.683C112.967 119.078 108.438 126.632 100.458 131.704H100.431Z" fill="url(#paint47_linear_26_2486)"/>
<path fill-rule="evenodd" clip-rule="evenodd" d="M90.5115 148.187L90.7541 148.781L78.5695 164.131L78.1382 163.834L90.5385 148.187H90.5115ZM95.1481 142.36L95.5255 142.846L92.102 147.162C91.8054 147.216 91.5089 147.27 91.2124 147.324L95.1481 142.36Z" fill="#6B3328"/>
<path fill-rule="evenodd" clip-rule="evenodd" d="M78.1113 163.834L87.088 141.847C85.5515 142.225 83.988 142.495 82.4245 142.684C80.9957 149.752 79.567 156.793 78.1383 163.861L78.1113 163.834Z" fill="url(#paint48_radial_26_2486)"/>
<path fill-rule="evenodd" clip-rule="evenodd" d="M87.088 141.847L78.1113 163.834C83.7723 156.685 89.4603 149.509 95.1213 142.36C92.4256 142.279 89.7568 142.198 87.0611 141.847H87.088Z" fill="url(#paint49_radial_26_2486)"/>
<path fill-rule="evenodd" clip-rule="evenodd" d="M103.774 136.938C102.939 137.963 102.049 138.961 101.105 139.959C103.909 141.874 106.713 143.79 109.516 145.678C108.896 142.333 108.276 138.961 107.683 135.616C106.389 136.074 105.095 136.533 103.774 136.938Z" fill="#666666"/>
<path fill-rule="evenodd" clip-rule="evenodd" d="M109.516 145.678L103.747 136.938C102.912 137.963 102.022 138.961 101.079 139.959C103.882 141.874 106.686 143.79 109.489 145.678H109.516Z" fill="url(#paint50_radial_26_2486)"/>
<path fill-rule="evenodd" clip-rule="evenodd" d="M103.774 136.938L109.543 145.678C108.923 142.333 108.303 138.961 107.71 135.616C106.416 136.074 105.122 136.533 103.801 136.938H103.774Z" fill="url(#paint51_radial_26_2486)"/>
<path fill-rule="evenodd" clip-rule="evenodd" d="M76.4399 136.533L66.0884 146.218L79.2435 140.445C78.9469 140.121 78.7043 139.824 78.4617 139.474L76.4399 136.533Z" fill="url(#paint52_radial_26_2486)"/>
<path fill-rule="evenodd" clip-rule="evenodd" d="M77.1408 137.531L66.0884 146.218L76.4399 136.533L77.1408 137.531Z" fill="url(#paint53_radial_26_2486)"/>
<path style="mix-blend-mode:multiply" fill-rule="evenodd" clip-rule="evenodd" d="M77.9223 132.621C77.9223 132.621 77.8414 132.513 77.8145 132.459L77.9223 132.621ZM86.4946 137.801C86.1442 137.288 85.8207 136.749 85.4703 136.236C82.1545 136.047 79.4319 134.86 77.9223 132.621L78.8658 134.051C78.8658 134.051 78.9197 134.132 78.9467 134.186C80.4832 136.425 83.1789 137.612 86.4946 137.828V137.801Z" fill="url(#paint54_linear_26_2486)"/>
<path style="mix-blend-mode:multiply" fill-rule="evenodd" clip-rule="evenodd" d="M107.926 125.067C108.276 125.607 108.627 126.12 108.977 126.659C112.67 122.019 114.018 117.001 111.996 113.467C111.969 113.413 111.943 113.359 111.889 113.305C111.862 113.251 111.808 113.197 111.781 113.143L110.729 111.552C110.729 111.552 110.783 111.633 110.783 111.66C112.94 115.221 111.646 120.346 107.899 125.067H107.926Z" fill="url(#paint55_linear_26_2486)"/>
<path fill-rule="evenodd" clip-rule="evenodd" d="M73.7712 143.574L79.7826 140.984C79.7826 140.984 79.6209 140.849 79.54 140.768C79.4591 140.687 79.3782 140.606 79.2974 140.526C79.2704 140.499 79.2435 140.472 79.2165 140.445L73.3129 143.034C73.4477 143.223 73.6094 143.385 73.7712 143.574ZM66.0884 146.218L66.4927 146.703L72.9624 143.925L72.5311 143.385L66.0884 146.218Z" fill="#6B3328"/>
<path fill-rule="evenodd" clip-rule="evenodd" d="M115.501 124.177C114.854 126.174 114.099 128.17 113.263 130.139L131.109 124.771L117.765 120.832C117.064 122.019 116.309 123.125 115.501 124.177Z" fill="#666666"/>
<path style="mix-blend-mode:screen" fill-rule="evenodd" clip-rule="evenodd" d="M100.432 131.704C92.5604 136.695 83.9072 137.639 79.5132 134.294C83.7455 137.909 92.5604 137.072 100.567 131.974C108.034 127.226 112.455 120.292 111.835 115.032C112.158 120.292 107.737 127.037 100.432 131.677V131.704Z" fill="url(#paint56_radial_26_2486)"/>
<path style="mix-blend-mode:multiply" d="M102.184 114.088C102.454 114.088 102.723 114.088 102.993 114.088L103.694 112.874C103.397 112.874 103.101 112.874 102.777 112.874C102.481 112.874 102.157 112.901 101.834 112.928L101.294 114.142C101.564 114.142 101.861 114.088 102.13 114.088H102.184ZM102.4 114.978L101.861 115.086L101.537 115.922L101.348 115.005L100.89 115.14L100.162 116.543H100.647L101.025 115.598L101.214 116.489H101.672L102.373 114.951L102.4 114.978ZM84.8506 125.068L84.6619 126.551H85.0123L85.5245 125.958L85.4437 126.524H85.7941L87.0611 125.068C87.142 125.014 87.1959 124.96 87.1959 124.96H86.7106L85.875 125.985L86.0367 125.121L86.1715 124.987H85.6324L85.5784 125.418L85.0932 126.012L85.255 125.121L85.3628 125.014H84.8506V125.068ZM95.5256 125.256L94.8786 124.204L94.4204 124.312L95.0134 125.283H95.5256V125.256ZM95.0404 124.15L95.7143 125.256H96.0917L95.3639 124.096L95.0404 124.177V124.15ZM89.2716 125.364L89.3255 125.472H89.8377L89.7298 125.283L89.2716 125.391V125.364ZM89.9185 125.229L90.0533 125.445H90.5655L90.3768 125.121L89.8916 125.229H89.9185ZM90.5655 125.094L90.7542 125.418H91.2664L91.0238 124.987L90.5386 125.094H90.5655ZM91.2125 124.96L91.4821 125.391H91.9942L91.6708 124.852L91.2125 124.96ZM91.8595 124.825L92.1829 125.364H92.6951L92.3177 124.717L91.8595 124.825ZM92.5064 124.69L92.9108 125.337H93.423L92.9647 124.582L92.5064 124.69ZM93.1534 124.555L93.6117 125.31H94.1239L93.6117 124.447L93.1534 124.555ZM93.8004 124.42L94.3395 125.283H94.8517L94.2586 124.312L93.8004 124.42ZM95.8761 126.174L94.043 127.334L93.9352 127.711L95.6334 126.632L95.8761 126.174ZM94.0699 127.199L95.9569 126.012L96.1456 125.661L94.1508 126.929L94.0699 127.199ZM92.9647 131.866L92.803 131.974L92.6682 132.459L92.9647 131.866ZM92.8299 131.839L93.0456 131.704L93.2882 131.245L92.9377 131.461L92.8299 131.839ZM92.9647 131.326L93.369 131.083L93.6117 130.625L93.0725 130.976L92.9647 131.353V131.326ZM93.0995 130.814L93.6925 130.436L93.9352 129.977L93.2073 130.436L93.0995 130.814ZM93.2343 130.301L94.016 129.816L94.2586 129.357L93.3421 129.923L93.2343 130.301ZM93.369 129.789L94.3395 129.195L94.5821 128.736L93.4769 129.438L93.369 129.816V129.789ZM93.5038 129.276L94.663 128.548L94.9056 128.089L93.6117 128.898L93.5038 129.276ZM93.6386 128.763L94.9865 127.927L95.2291 127.469L93.7464 128.386L93.6386 128.763ZM93.7734 128.251L95.283 127.307L95.5256 126.848L93.8812 127.9L93.7734 128.278V128.251ZM97.3048 125.445L97.9787 126.551L98.437 126.443L97.817 125.418H97.3048V125.445ZM97.817 126.578L97.1161 125.445H96.6578L97.4126 126.659L97.79 126.578H97.817ZM103.694 125.229L103.774 125.337L104.475 125.202H103.721L103.694 125.229ZM103.586 125.391L103.505 125.229H102.993L103.128 125.472L103.586 125.364V125.391ZM102.939 125.526L102.777 125.256H102.265L102.481 125.607L102.939 125.499V125.526ZM102.292 125.661L102.076 125.283H101.564L101.834 125.742L102.292 125.634V125.661ZM101.645 125.796L101.348 125.31H100.836L101.187 125.877L101.645 125.769V125.796ZM100.998 125.931L100.647 125.337H100.135L100.54 126.012L100.998 125.904V125.931ZM100.351 126.066L99.9196 125.364H99.4074L99.8927 126.174L100.351 126.066ZM99.704 126.201L99.2187 125.391H98.7066L99.2457 126.308L99.704 126.201ZM99.057 126.335L98.4909 125.418H97.9787L98.5987 126.443L99.057 126.335ZM96.9543 124.528L98.7874 123.395L98.8953 123.017L97.197 124.069L96.9543 124.528ZM98.7335 123.53L96.8465 124.717L96.6309 125.121L98.6257 123.854L98.7066 123.53H98.7335ZM99.8657 118.836L100.027 118.728L100.135 118.296L99.8657 118.836ZM99.9735 118.863L99.7579 118.998L99.5153 119.456L99.8657 119.24L99.9735 118.863ZM99.8388 119.375L99.4614 119.618L99.2187 120.077L99.7579 119.753L99.8657 119.375H99.8388ZM99.704 119.888L99.1379 120.239L98.8953 120.697L99.5961 120.239L99.704 119.861V119.888ZM99.5692 120.4L98.8144 120.886L98.5718 121.345L99.4614 120.778L99.5692 120.4ZM99.4344 120.913L98.4909 121.507L98.2483 121.965L99.3266 121.291L99.4344 120.913ZM99.2996 121.426L98.1674 122.127L97.9248 122.586L99.1918 121.803L99.2996 121.426ZM99.1648 121.938L97.8439 122.774L97.6013 123.233L99.057 122.316L99.1648 121.938ZM99.03 122.451L97.5204 123.395L97.2778 123.854L98.9222 122.828L99.03 122.451ZM99.9196 113.17C99.2457 113.305 98.5987 113.467 97.9248 113.656L97.7631 114.789C98.3561 114.627 98.9492 114.465 99.5692 114.357L99.9196 113.17ZM95.903 114.331C95.2291 114.6 94.5552 114.87 93.8812 115.194L94.1239 116.192C94.7169 115.895 95.3369 115.652 95.93 115.41L95.8761 114.331H95.903ZM91.9403 116.246C91.6168 116.435 91.2934 116.624 90.9968 116.839C90.6733 117.028 90.3768 117.244 90.0533 117.46L90.6733 118.242C90.9429 118.053 91.2394 117.865 91.509 117.676C91.8055 117.487 92.0751 117.325 92.3716 117.163L91.9403 116.273V116.246ZM88.2742 118.782C87.7081 119.24 87.142 119.726 86.6298 120.239L87.5733 120.724C88.0585 120.266 88.5437 119.834 89.0559 119.429L88.2742 118.782ZM85.1471 121.776C84.6889 122.289 84.2575 122.828 83.8532 123.368L85.0663 123.557C85.4167 123.071 85.8211 122.586 86.2254 122.127L85.1202 121.776H85.1471ZM82.8019 125.014C82.6401 125.283 82.5053 125.553 82.3436 125.823C82.2088 126.093 82.074 126.362 81.9662 126.632L83.368 126.497C83.4758 126.255 83.5836 126.012 83.7184 125.769C83.8532 125.526 83.988 125.283 84.1228 125.041H82.8019V125.014ZM81.3731 128.251C81.2114 128.79 81.1036 129.303 81.0496 129.816L82.5592 129.384C82.6132 128.925 82.721 128.467 82.8558 127.981L81.4001 128.278L81.3731 128.251ZM80.9688 131.299C80.9688 131.785 81.0496 132.244 81.1575 132.675L82.6401 131.947C82.5323 131.542 82.4784 131.137 82.4784 130.706L80.9688 131.299ZM81.6157 133.943C81.6157 133.943 81.7505 134.186 81.8044 134.321C81.6427 134.24 81.454 134.159 81.2923 134.078C80.2679 131.92 80.4296 129.033 82.074 125.85C83.8801 122.343 87.115 119.079 90.889 116.705C94.663 114.304 98.9761 112.766 102.912 112.631C106.416 112.523 109.058 113.548 110.595 115.329C110.595 115.518 110.595 115.706 110.595 115.895C110.541 115.814 110.487 115.733 110.433 115.679L109.058 116.624C109.193 116.785 109.301 116.947 109.409 117.109C109.516 117.271 109.624 117.46 109.705 117.622L110.541 117.136C110.46 117.649 110.352 118.188 110.217 118.701C110.136 118.782 110.163 118.836 110.163 118.89C110.029 119.321 109.894 119.753 109.705 120.185C109.651 119.186 109.382 118.296 108.923 117.541L106.12 119.321C106.982 120.778 106.955 122.801 105.796 125.068C105.041 126.524 103.909 127.927 102.561 129.141C101.726 129.789 100.863 130.436 99.9196 131.003C99.057 131.542 98.1944 132.055 97.3048 132.486C95.5795 133.215 93.8004 133.673 92.1021 133.727C89.5681 133.808 87.7081 132.999 86.7646 131.569L83.961 133.35C84.4732 134.132 85.201 134.779 86.1445 135.238C85.6863 135.238 85.228 135.184 84.7697 135.13C84.6889 135.076 84.6349 135.022 84.5541 134.968L84.4193 135.076C83.8801 134.995 83.341 134.86 82.8558 134.698L83.7184 134.105C83.5836 133.943 83.4758 133.781 83.368 133.619C83.2601 133.458 83.1523 133.269 83.0714 133.107L81.6427 133.943H81.6157ZM109.516 114.681C109.166 114.384 108.762 114.142 108.357 113.926L107.198 115.032C107.575 115.221 107.926 115.464 108.249 115.733L109.543 114.681H109.516ZM106.982 113.359C106.497 113.197 105.985 113.09 105.419 113.009L104.529 114.223C105.015 114.304 105.5 114.411 105.931 114.546L106.955 113.386L106.982 113.359ZM98.7874 123.961L96.8465 125.202L104.287 124.96L98.7874 123.961ZM94.016 126.767L96.0648 125.472L88.2742 125.742L94.043 126.767H94.016ZM95.6604 123.907L96.4152 125.094L99.8927 118.296L95.6604 123.907ZM97.1161 126.821L96.3613 125.634L92.8838 132.432L97.1161 126.821ZM87.3307 125.526L94.1778 124.123L93.2612 120.751C93.2612 120.751 93.2882 120.616 93.369 120.589C93.423 120.562 93.5038 120.562 93.5308 120.589L96.1726 122.828L100.378 117.244C97.8978 117.352 95.2291 118.35 92.8569 119.834C90.5116 121.318 88.4898 123.341 87.3037 125.526H87.3307ZM105.527 124.906C106.659 122.72 106.659 120.778 105.769 119.402C104.88 118.026 103.128 117.19 100.701 117.244L99.2187 122.747L104.314 120.239C104.314 120.239 104.475 120.212 104.475 120.239C104.475 120.293 104.475 120.346 104.395 120.373L99.9466 123.907L105.5 124.906H105.527ZM95.9839 123.071L93.6925 121.129L94.4743 124.042L95.4178 123.854L95.9839 123.098V123.071ZM99.704 123.854L103.559 120.778L99.1379 122.963L98.9492 123.719L99.704 123.854ZM98.5718 126.605L99.4883 129.977C99.4883 129.977 99.4614 130.112 99.3805 130.139C99.3266 130.166 99.2457 130.166 99.2187 130.139L96.577 127.9L92.3716 133.484C94.8517 133.377 97.5204 132.378 99.8927 130.895C102.238 129.411 104.287 127.388 105.446 125.202L98.5987 126.632L98.5718 126.605ZM96.7387 127.63L99.03 129.573L98.2483 126.659L97.3048 126.848L96.7387 127.603V127.63ZM93.5038 127.981L88.4089 130.49C88.4089 130.49 88.2472 130.517 88.2472 130.49C88.2472 130.436 88.2472 130.382 88.3281 130.355L92.776 126.821L87.1689 125.823C86.0906 128.008 86.0906 129.95 86.9533 131.353C87.8428 132.729 89.5951 133.565 92.0212 133.511L93.5038 128.008V127.981ZM93.0186 126.848L89.1637 129.923L93.5847 127.738L93.7734 126.983L93.0186 126.848ZM108.789 117.352C107.575 115.518 105.176 114.438 101.887 114.546C98.5987 114.654 94.9865 115.922 91.8325 117.918L92.8838 119.564C95.3369 118.053 98.0865 117.055 100.647 116.974C103.181 116.893 105.041 117.703 105.985 119.132L108.789 117.352ZM91.5629 118.107C88.4359 120.131 85.7402 122.828 84.2306 125.769C82.721 128.709 82.6671 131.326 83.8262 133.215L86.6298 131.434C85.7671 129.977 85.7941 127.954 86.9533 125.688C88.1124 123.422 90.1881 121.318 92.5873 119.753L91.536 118.107H91.5629Z" fill="url(#paint57_radial_26_2486)"/>
<path style="mix-blend-mode:screen" fill-rule="evenodd" clip-rule="evenodd" d="M84.1495 143.277C85.3356 145.112 80.4294 157.629 79.5938 160.192L87.0609 141.847C86.7374 141.928 86.4139 142.009 86.0635 142.063C85.066 142.279 84.0417 142.441 83.0443 142.576C83.5564 142.684 83.9069 142.953 84.1495 143.277Z" fill="url(#paint58_radial_26_2486)"/>
<path fill-rule="evenodd" clip-rule="evenodd" d="M94.3394 139.069C94.7976 138.475 96.442 137.612 97.4933 137.234C97.736 137.153 98.6794 136.992 99.1377 137.072C98.949 138.098 97.8168 139.258 97.6281 139.339C97.2777 139.5 95.5524 139.608 94.3394 139.042V139.069Z" fill="url(#paint59_radial_26_2486)"/>
<path style="mix-blend-mode:screen" fill-rule="evenodd" clip-rule="evenodd" d="M97.0888 139.473C97.3584 139.473 97.5471 139.419 97.628 139.365C97.7358 139.312 98.1132 138.934 98.4906 138.448C98.7871 138.044 99.0567 137.558 99.1376 137.072C98.6793 136.991 97.7358 137.126 97.4932 137.234C96.8462 137.45 95.8758 139.581 97.0619 139.473H97.0888Z" fill="url(#paint60_radial_26_2486)"/>
<path fill-rule="evenodd" clip-rule="evenodd" d="M67.0586 108.746L67.9482 109.906L75.2805 96.4445L74.4718 95.1495L67.0586 108.746Z" fill="#00295A"/>
<path fill-rule="evenodd" clip-rule="evenodd" d="M74.4718 95.1495C73.3127 95.2305 72.8544 95.4193 71.6144 96.0128C70.8596 96.3635 70.4013 96.4175 69.1074 96.2826C68.4874 96.2286 67.8943 96.1207 67.2743 96.0668C63.3925 95.6351 61.2898 96.5793 59.3219 100.113L52.9331 111.66C53.8227 110.068 56.0332 109.34 58.4593 109.313C59.8341 109.313 60.8046 109.636 61.9098 109.852C63.2846 110.122 63.9855 109.987 64.7134 109.555C65.9534 108.827 66.0882 108.773 67.0317 108.773L74.4449 95.1495H74.4718Z" fill="url(#paint61_linear_26_2486)"/>
<path fill-rule="evenodd" clip-rule="evenodd" d="M53.4456 113.494C54.6317 111.363 56.0874 110.688 57.9744 110.554C59.2144 110.473 60.077 110.554 61.0205 110.742C62.6379 111.093 63.4736 111.201 64.3632 110.931C66.1154 110.419 65.9537 109.771 67.9485 109.906L67.0589 108.746C66.1154 108.746 65.9806 108.8 64.7406 109.528C64.0397 109.96 63.3388 110.095 61.9371 109.825C60.8318 109.609 59.8614 109.286 58.4865 109.286C56.0604 109.286 53.823 110.041 52.9603 111.633C52.3134 112.793 52.2594 113.926 52.6099 114.978L53.4456 113.467V113.494Z" fill="url(#paint62_linear_26_2486)"/>
<g style="mix-blend-mode:screen">
<path fill-rule="evenodd" clip-rule="evenodd" d="M83.772 191.027L109.516 191.54C110.271 191.54 111.241 191.54 111.753 191.243C112.239 190.946 112.616 190.056 112.94 189.382L143.132 121.426L113.587 190.812C112.913 192.403 113.425 193.455 114.072 194.885C113.209 193.833 112.266 192.727 110.567 192.619L83.8259 191.027H83.772Z" fill="url(#paint63_radial_26_2486)"/>
</g>
<g style="mix-blend-mode:screen">
<path fill-rule="evenodd" clip-rule="evenodd" d="M11.5273 188.734C13.1178 187.439 15.5979 187.466 17.9971 188.276C20.4232 189.112 21.3128 188.761 23.038 188.411C25.3833 187.952 27.2433 188.033 29.6156 188.141L66.6277 190.272L29.6156 188.896C27.1625 188.815 25.4103 188.734 22.9302 189.193C20.9623 189.571 20.1536 189.49 17.7544 188.896C15.6518 188.357 13.3335 187.817 11.5273 188.734Z" fill="url(#paint64_radial_26_2486)"/>
</g>
<g style="mix-blend-mode:screen">
<path fill-rule="evenodd" clip-rule="evenodd" d="M55.063 109.906C56.0334 109.501 57.2196 109.313 58.4865 109.313C58.81 109.313 59.0796 109.313 59.3761 109.367L66.8163 96.0127C65.0371 95.8509 63.6623 96.0127 62.4762 96.6602L55.0899 109.933L55.063 109.906Z" fill="url(#paint65_linear_26_2486)"/>
</g>
<g style="mix-blend-mode:multiply" opacity="0.5">
<path fill-rule="evenodd" clip-rule="evenodd" d="M61.9369 109.852C63.3117 110.122 64.0126 109.987 64.7404 109.555C65.1718 109.313 65.4413 109.124 65.6839 109.016L73.3128 95.3114C72.8276 95.4463 72.3693 95.6621 71.6145 96.0128C70.8597 96.3635 70.4014 96.4175 69.1075 96.2826C68.9997 96.2826 68.8918 96.2826 68.811 96.2556L61.3169 109.717C61.5326 109.771 61.7213 109.798 61.9369 109.852Z" fill="url(#paint66_linear_26_2486)"/>
</g>
<g style="mix-blend-mode:screen">
<path fill-rule="evenodd" clip-rule="evenodd" d="M53.6339 110.796C54.847 109.69 56.1679 109.286 57.6235 109.178C59.1062 109.043 60.2384 109.286 61.5054 109.609C63.0958 110.014 63.6619 110.041 64.875 109.475C63.6889 110.338 62.9341 110.176 61.4245 109.906C60.1845 109.69 58.9444 109.421 57.6505 109.502C56.2218 109.582 54.9817 109.879 53.6069 110.823L53.6339 110.796Z" fill="url(#paint67_radial_26_2486)"/>
</g>
<path fill-rule="evenodd" clip-rule="evenodd" d="M37.5406 162.89C36.1658 162.809 35.9771 163.187 34.4136 163.564C33.0388 163.915 32.0144 163.375 30.1274 162.998C27.0543 162.377 24.143 162.62 22.9299 164.778C22.0942 166.316 22.4177 167.26 22.7412 168.312L24.0082 166.046C25.0595 164.616 26.1917 164.077 27.5665 163.942C29.3187 163.78 30.6127 164.158 32.0414 164.562C33.6319 165.021 34.1171 165.129 35.3302 164.724C36.7589 164.266 36.7858 164.023 38.4033 163.996L37.5137 162.836L37.5406 162.89Z" fill="url(#paint68_linear_26_2486)"/>
<path fill-rule="evenodd" clip-rule="evenodd" d="M34.4408 163.564C36.0043 163.187 36.166 162.809 37.5678 162.89L46.0593 147.297C44.954 147.108 44.5497 147.513 43.1479 147.971C42.0427 148.322 41.1531 148.052 38.9426 147.621C35.1416 146.892 32.4459 147.675 30.3163 151.505L22.957 164.778C24.1701 162.62 27.0815 162.377 30.1546 162.998C32.0416 163.375 33.0659 163.915 34.4408 163.564Z" fill="url(#paint69_linear_26_2486)"/>
<path fill-rule="evenodd" clip-rule="evenodd" d="M46.032 147.297L37.5405 162.89L38.4301 164.05L46.9216 148.484L46.032 147.297Z" fill="#00295A"/>
<g style="mix-blend-mode:screen">
<path fill-rule="evenodd" clip-rule="evenodd" d="M38.1606 147.486C37.1363 147.351 36.2197 147.324 35.3571 147.486C34.9797 147.54 34.6293 147.648 34.2788 147.756C34.171 147.783 34.0632 147.836 33.9553 147.89L25.5986 162.917C25.5986 162.917 25.7334 162.89 25.8143 162.863C26.1378 162.782 26.4882 162.755 26.8656 162.728C27.7282 162.674 28.6448 162.728 29.5883 162.917L38.1606 147.513V147.486Z" fill="url(#paint70_linear_26_2486)"/>
</g>
<g style="mix-blend-mode:multiply" opacity="0.5">
<path fill-rule="evenodd" clip-rule="evenodd" d="M40.1018 147.863L31.5024 163.321C31.799 163.402 32.0955 163.483 32.3651 163.537C33.066 163.699 33.7129 163.753 34.4408 163.564C34.899 163.456 35.2495 163.321 35.5191 163.241L44.2532 147.567C43.9566 147.675 43.6062 147.836 43.1479 147.971C42.447 148.214 41.8001 148.16 40.8566 147.998C40.6139 147.944 40.3713 147.917 40.1018 147.863Z" fill="url(#paint71_linear_26_2486)"/>
</g>
<g style="mix-blend-mode:screen">
<path fill-rule="evenodd" clip-rule="evenodd" d="M23.4692 164.077C25.1136 162.269 27.9172 162.431 30.3703 162.89C32.3381 163.268 32.9312 163.942 35.3304 163.321C33.2816 164.266 32.446 163.726 30.2894 163.241C27.9441 162.755 25.491 162.539 23.4692 164.077Z" fill="url(#paint72_radial_26_2486)"/>
</g>
<path fill-rule="evenodd" clip-rule="evenodd" d="M44.307 150.372C44.3339 151.155 43.6061 152.908 42.9861 153.906C42.8513 154.122 42.2043 154.878 41.773 155.093C41.2608 154.149 41.3956 152.504 41.4765 152.288C41.6652 151.937 42.9591 150.696 44.28 150.372H44.307Z" fill="url(#paint73_radial_26_2486)"/>
<g style="mix-blend-mode:screen">
<path fill-rule="evenodd" clip-rule="evenodd" d="M41.881 151.856C41.6923 152.045 41.5575 152.207 41.5036 152.288C41.4497 152.396 41.3957 152.935 41.4227 153.583C41.4497 154.095 41.5575 154.662 41.8001 155.093C42.2314 154.851 42.8784 154.122 43.0132 153.906C43.3906 153.313 42.7706 150.993 41.881 151.856Z" fill="url(#paint74_radial_26_2486)"/>
</g>
<path fill-rule="evenodd" clip-rule="evenodd" d="M85.7939 134.833L92.4793 122.774L104.826 113.251L98.4638 125.014L85.7939 134.833Z" fill="#CCCCCC"/>
<path fill-rule="evenodd" clip-rule="evenodd" d="M86.4679 135.157L85.7939 134.833L104.826 113.251L105.23 113.818L98.8412 125.58L86.4679 135.157Z" fill="#4B70D6"/>
<path fill-rule="evenodd" clip-rule="evenodd" d="M98.4638 125.014L98.8412 125.58L86.4679 135.157L85.7939 134.833L98.4638 125.014Z" fill="#890000"/>
<path fill-rule="evenodd" clip-rule="evenodd" d="M98.4639 125.014L104.826 113.251L105.23 113.818L98.8413 125.58L98.4639 125.014Z" fill="#1C5584"/>
<path fill-rule="evenodd" clip-rule="evenodd" d="M92.4793 122.774L98.4638 125.014L85.7939 134.833L92.4793 122.774Z" fill="url(#paint75_radial_26_2486)"/>
<path fill-rule="evenodd" clip-rule="evenodd" d="M92.4795 122.774L104.826 113.251L98.464 125.014L92.4795 122.774Z" fill="url(#paint76_radial_26_2486)"/>
<path fill-rule="evenodd" clip-rule="evenodd" d="M94.8785 125.283C96.0107 125.121 97.4394 123.611 96.8194 122.64C96.6307 122.316 96.1724 122.208 95.5794 122.289C94.7976 122.424 93.7193 123.152 93.4498 123.988C93.0724 125.121 93.962 125.418 94.8785 125.283Z" fill="url(#paint77_radial_26_2486)"/>
<path style="mix-blend-mode:screen" opacity="0.5" fill-rule="evenodd" clip-rule="evenodd" d="M109.597 112.118C112.778 117.136 108.438 125.607 99.9194 131.003C91.4009 136.425 81.912 136.749 78.7311 131.731C75.5501 126.713 79.8902 118.242 88.4087 112.847C96.9271 107.424 106.416 107.101 109.597 112.118Z" fill="url(#paint78_radial_26_2486)"/>
<path style="mix-blend-mode:screen" opacity="0.5" fill-rule="evenodd" clip-rule="evenodd" d="M84.9044 122.289C86.0906 120.265 88.1393 118.188 90.8081 116.516L89.4063 114.303C85.821 116.543 82.8827 119.483 81.2383 122.478L84.8775 122.289H84.9044Z" fill="url(#paint79_radial_26_2486)"/>
<path style="mix-blend-mode:screen" opacity="0.5" fill-rule="evenodd" clip-rule="evenodd" d="M93.3688 115.14C97.9785 113.089 102.399 113.197 103.936 115.652L107.602 113.359C105.473 109.96 99.515 109.555 93.0723 112.361L93.3688 115.14Z" fill="url(#paint80_radial_26_2486)"/>
<path style="mix-blend-mode:screen" opacity="0.5" fill-rule="evenodd" clip-rule="evenodd" d="M94.8516 128.494C91.1584 130.139 87.6001 130.409 85.5244 129.168L82.2896 131.92C85.174 133.727 90.0532 133.484 95.1481 131.272L94.8516 128.494Z" fill="url(#paint81_radial_26_2486)"/>
<path fill-rule="evenodd" clip-rule="evenodd" d="M101.887 222.159C103.693 223.158 108.923 223.94 112.158 224.075C112.886 224.102 115.608 223.859 116.768 223.4C115.312 221.35 111.187 219.597 110.594 219.543C109.489 219.435 104.664 220.244 101.887 222.186V222.159Z" fill="url(#paint82_radial_26_2486)"/>
<g style="mix-blend-mode:screen">
<path fill-rule="evenodd" clip-rule="evenodd" d="M108.977 219.624C109.705 219.516 110.271 219.489 110.568 219.516C110.918 219.543 112.293 220.082 113.722 220.918C114.908 221.593 116.094 222.456 116.768 223.373C115.609 223.832 112.886 224.075 112.158 224.048C110.19 223.967 105.607 220.136 108.977 219.624Z" fill="url(#paint83_radial_26_2486)"/>
</g>
<path fill-rule="evenodd" clip-rule="evenodd" d="M113.263 130.139L119.517 128.656C119.382 128.871 119.221 129.114 119.059 129.33L113.668 130.598L113.29 130.139H113.263ZM120.542 128.386L136.581 124.555L136.285 125.256L120.973 128.871L120.542 128.386Z" fill="#6B3328"/>
<path fill-rule="evenodd" clip-rule="evenodd" d="M136.608 124.555L115.501 124.177C114.854 126.174 114.099 128.17 113.263 130.139L136.608 124.555Z" fill="url(#paint84_radial_26_2486)"/>
<path fill-rule="evenodd" clip-rule="evenodd" d="M115.5 124.177L136.608 124.555L117.765 120.832C117.064 122.019 116.309 123.125 115.5 124.177Z" fill="url(#paint85_radial_26_2486)"/>
<path style="mix-blend-mode:screen" fill-rule="evenodd" clip-rule="evenodd" d="M121.781 123.88C119.167 123.773 117.981 122.801 117.765 120.859C117.064 122.046 116.309 123.152 115.5 124.204L136.608 124.582L121.755 123.907L121.781 123.88Z" fill="url(#paint86_radial_26_2486)"/>
<path fill-rule="evenodd" clip-rule="evenodd" d="M80.6721 92.5057L79.4591 93.369L63.77 125.229L82.1009 93.1262L80.6721 92.5057Z" fill="url(#paint87_radial_26_2486)"/>
<path fill-rule="evenodd" clip-rule="evenodd" d="M103.667 78.6932L103.64 76.8857L104.502 76.4001L121.62 75.7257L103.667 78.6932Z" fill="#CC6633"/>
<path fill-rule="evenodd" clip-rule="evenodd" d="M152.809 86.3279L151.516 87.1912L137.687 122.127L154.481 86.9484L152.809 86.3279Z" fill="url(#paint88_radial_26_2486)"/>
<path fill-rule="evenodd" clip-rule="evenodd" d="M103.64 76.8857L121.62 75.7257L103.667 78.6932L103.64 76.8857Z" fill="url(#paint89_radial_26_2486)"/>
<path fill-rule="evenodd" clip-rule="evenodd" d="M80.6721 92.5057L63.77 125.229L82.1009 93.1262L80.6721 92.5057Z" fill="url(#paint90_radial_26_2486)"/>
<path fill-rule="evenodd" clip-rule="evenodd" d="M48.0539 183.797L48 185.902L67.1935 185.227L49.4557 183.096L48.0539 183.797Z" fill="url(#paint91_radial_26_2486)"/>
<path fill-rule="evenodd" clip-rule="evenodd" d="M48.0539 183.797L67.1935 185.227L48 185.902L48.0539 183.797Z" fill="#CC6633"/>
<path fill-rule="evenodd" clip-rule="evenodd" d="M152.809 86.3279L137.687 122.127L154.481 86.9484L152.809 86.3279Z" fill="url(#paint92_radial_26_2486)"/>
</g>
<defs>
<linearGradient id="paint0_linear_26_2486" x1="104.583" y1="226.826" x2="104.583" y2="10.1166" gradientUnits="userSpaceOnUse">
<stop stop-color="white"/>
<stop offset="1" stop-color="#02060D"/>
</linearGradient>
<linearGradient id="paint1_linear_26_2486" x1="97.0352" y1="217.034" x2="97.0352" y2="3.33817e-05" gradientUnits="userSpaceOnUse">
<stop stop-color="white"/>
<stop offset="1" stop-color="#02060D"/>
</linearGradient>
<linearGradient id="paint2_linear_26_2486" x1="49.0245" y1="126.335" x2="157.484" y2="186.426" gradientUnits="userSpaceOnUse">
<stop stop-color="#041F3E"/>
<stop offset="0.31" stop-color="#02315B"/>
<stop offset="0.55" stop-color="#023E6F"/>
<stop offset="1" stop-color="#02487F"/>
</linearGradient>
<radialGradient id="paint3_radial_26_2486" cx="0" cy="0" r="1" gradientUnits="userSpaceOnUse" gradientTransform="translate(79.4053 88.6209) scale(157.376 157.494)">
<stop stop-color="#02436B"/>
<stop offset="1" stop-color="#04233A"/>
</radialGradient>
<radialGradient id="paint4_radial_26_2486" cx="0" cy="0" r="1" gradientUnits="userSpaceOnUse" gradientTransform="translate(137.471 223.4) scale(50.7603 50.7985)">
<stop stop-color="#408091"/>
<stop offset="0.3" stop-color="#2D5864"/>
<stop offset="0.78" stop-color="#101C1F"/>
<stop offset="1" stop-color="#050505"/>
</radialGradient>
<radialGradient id="paint5_radial_26_2486" cx="0" cy="0" r="1" gradientUnits="userSpaceOnUse" gradientTransform="translate(115.689 345.149) scale(215.145 215.307)">
<stop offset="0.31" stop-color="#C29D78"/>
<stop offset="0.39" stop-color="#BD9875"/>
<stop offset="0.48" stop-color="#B08C6D"/>
<stop offset="0.56" stop-color="#9A7860"/>
<stop offset="0.66" stop-color="#7B5C4E"/>
<stop offset="0.72" stop-color="#61443E"/>
<stop offset="1" stop-color="#332321"/>
</radialGradient>
<radialGradient id="paint6_radial_26_2486" cx="0" cy="0" r="1" gradientUnits="userSpaceOnUse" gradientTransform="translate(259.451 234.515) scale(198.458 198.608)">
<stop stop-color="#D4B697"/>
<stop offset="0.18" stop-color="#CFB192"/>
<stop offset="0.38" stop-color="#C2A485"/>
<stop offset="0.59" stop-color="#AD8E6F"/>
<stop offset="0.81" stop-color="#8F7050"/>
<stop offset="0.86" stop-color="#876848"/>
</radialGradient>
<radialGradient id="paint7_radial_26_2486" cx="0" cy="0" r="1" gradientUnits="userSpaceOnUse" gradientTransform="translate(139.52 155.876) scale(48.415 48.4515)">
<stop stop-color="#916C5F"/>
<stop offset="1"/>
</radialGradient>
<radialGradient id="paint8_radial_26_2486" cx="0" cy="0" r="1" gradientUnits="userSpaceOnUse" gradientTransform="translate(332.883 237.698) scale(241.913 242.096)">
<stop offset="0.81" stop-color="white"/>
<stop offset="0.83" stop-color="#F9F9F8"/>
<stop offset="0.86" stop-color="#EBE8E7"/>
<stop offset="0.89" stop-color="#D4CDC9"/>
<stop offset="0.93" stop-color="#B3A8A1"/>
<stop offset="0.97" stop-color="#8A786E"/>
<stop offset="1" stop-color="#695244"/>
</radialGradient>
<radialGradient id="paint9_radial_26_2486" cx="0" cy="0" r="1" gradientUnits="userSpaceOnUse" gradientTransform="translate(71.5066 486.943) scale(323.431 323.676)">
<stop offset="0.81" stop-color="white"/>
<stop offset="0.83" stop-color="#F9F9F8"/>
<stop offset="0.86" stop-color="#EBE8E7"/>
<stop offset="0.89" stop-color="#D4CDC9"/>
<stop offset="0.93" stop-color="#B3A8A1"/>
<stop offset="0.97" stop-color="#8A786E"/>
<stop offset="1" stop-color="#695244"/>
</radialGradient>
<radialGradient id="paint10_radial_26_2486" cx="0" cy="0" r="1" gradientUnits="userSpaceOnUse" gradientTransform="translate(114.773 205.946) scale(60.5726 60.6183)">
<stop stop-color="#916C5F"/>
<stop offset="1"/>
</radialGradient>
<linearGradient id="paint11_linear_26_2486" x1="54.2543" y1="110.122" x2="134.992" y2="154.233" gradientUnits="userSpaceOnUse">
<stop stop-color="#01517A"/>
<stop offset="0.03" stop-color="#016CAB"/>
<stop offset="0.05" stop-color="#0177BF"/>
<stop offset="0.06" stop-color="#016DAC"/>
<stop offset="0.1" stop-color="#024C71"/>
<stop offset="0.12" stop-color="#015280"/>
<stop offset="0.14" stop-color="#015B96"/>
<stop offset="0.15" stop-color="#015F9F"/>
<stop offset="1" stop-color="#025191"/>
</linearGradient>
<radialGradient id="paint12_radial_26_2486" cx="0" cy="0" r="1" gradientUnits="userSpaceOnUse" gradientTransform="translate(86.4139 75.8606) scale(71.3016 71.3553)">
<stop stop-color="#147087"/>
<stop offset="0.16" stop-color="#0F5668"/>
<stop offset="0.43" stop-color="#08313B"/>
<stop offset="0.67" stop-color="#04161B"/>
<stop offset="0.87" stop-color="#010507"/>
<stop offset="1"/>
</radialGradient>
<radialGradient id="paint13_radial_26_2486" cx="0" cy="0" r="1" gradientUnits="userSpaceOnUse" gradientTransform="translate(126.365 76.589) scale(14.476 14.4869)">
<stop stop-color="#FFC45E"/>
<stop offset="1" stop-color="#E68B00"/>
</radialGradient>
<radialGradient id="paint14_radial_26_2486" cx="0" cy="0" r="1" gradientUnits="userSpaceOnUse" gradientTransform="translate(82.4515 174.436) scale(22.6709 22.6881)">
<stop stop-color="#FFC45E"/>
<stop offset="1" stop-color="#E68B00"/>
</radialGradient>
<radialGradient id="paint15_radial_26_2486" cx="0" cy="0" r="1" gradientUnits="userSpaceOnUse" gradientTransform="translate(117.765 147.917) scale(29.0598 29.0817)">
<stop stop-color="#FFC45E"/>
<stop offset="1" stop-color="#E68B00"/>
</radialGradient>
<radialGradient id="paint16_radial_26_2486" cx="0" cy="0" r="1" gradientUnits="userSpaceOnUse" gradientTransform="translate(112.886 143.601) scale(40.9209 40.9518)">
<stop stop-color="#E88200"/>
<stop offset="1" stop-color="#823C24"/>
</radialGradient>
<radialGradient id="paint17_radial_26_2486" cx="0" cy="0" r="1" gradientUnits="userSpaceOnUse" gradientTransform="translate(39.859 128.197) scale(46.1506 46.1854)">
<stop stop-color="#E88200"/>
<stop offset="1" stop-color="#823C24"/>
</radialGradient>
<radialGradient id="paint18_radial_26_2486" cx="0" cy="0" r="1" gradientUnits="userSpaceOnUse" gradientTransform="translate(47.1914 141.011) scale(30.5963 30.6194)">
<stop stop-color="#FFC45E"/>
<stop offset="1" stop-color="#E68B00"/>
</radialGradient>
<radialGradient id="paint19_radial_26_2486" cx="0" cy="0" r="1" gradientUnits="userSpaceOnUse" gradientTransform="translate(77.0062 59.7011) scale(135.406 135.508)">
<stop stop-color="#FFC45E"/>
<stop offset="1" stop-color="#E68B00"/>
</radialGradient>
<radialGradient id="paint20_radial_26_2486" cx="0" cy="0" r="1" gradientUnits="userSpaceOnUse" gradientTransform="translate(66.1693 148.592) scale(104.108 104.187)">
<stop stop-color="#015B88"/>
<stop offset="1" stop-color="#033C58"/>
</radialGradient>
<radialGradient id="paint21_radial_26_2486" cx="0" cy="0" r="1" gradientUnits="userSpaceOnUse" gradientTransform="translate(93.0186 74.6736) scale(148.776 148.889)">
<stop stop-color="#02436B"/>
<stop offset="1" stop-color="#04233A"/>
</radialGradient>
<linearGradient id="paint22_linear_26_2486" x1="49.4286" y1="131.623" x2="53.6623" y2="133.967" gradientUnits="userSpaceOnUse">
<stop stop-color="white"/>
<stop offset="0.06" stop-color="#F0EFF4"/>
<stop offset="0.36" stop-color="#AAA0BF"/>
<stop offset="0.5" stop-color="#8E82AB"/>
<stop offset="0.57" stop-color="#9489AF"/>
<stop offset="0.68" stop-color="#A69CBC"/>
<stop offset="0.8" stop-color="#C3BDD2"/>
<stop offset="0.94" stop-color="#EBE9F0"/>
<stop offset="1" stop-color="white"/>
</linearGradient>
<linearGradient id="paint23_linear_26_2486" x1="43.7676" y1="132.082" x2="47.0036" y2="133.887" gradientUnits="userSpaceOnUse">
<stop stop-color="#050505"/>
<stop offset="0.11" stop-color="#081E33"/>
<stop offset="0.31" stop-color="#0D4981"/>
<stop offset="0.4" stop-color="#105AA1"/>
<stop offset="0.48" stop-color="#0F5699"/>
<stop offset="0.58" stop-color="#0E4B86"/>
<stop offset="0.71" stop-color="#0B3965"/>
<stop offset="0.86" stop-color="#082139"/>
<stop offset="1" stop-color="#050505"/>
</linearGradient>
<radialGradient id="paint24_radial_26_2486" cx="0" cy="0" r="1" gradientUnits="userSpaceOnUse" gradientTransform="translate(81.8852 197.097) scale(14.6108 14.6218)">
<stop stop-color="#015B88"/>
<stop offset="1" stop-color="#033C58"/>
</radialGradient>
<radialGradient id="paint25_radial_26_2486" cx="0" cy="0" r="1" gradientUnits="userSpaceOnUse" gradientTransform="translate(86.4139 183.555) scale(13.3977 13.4078)">
<stop stop-color="#408091"/>
<stop offset="0.3" stop-color="#2D5864"/>
<stop offset="0.78" stop-color="#101C1F"/>
<stop offset="1" stop-color="#050505"/>
</radialGradient>
<radialGradient id="paint26_radial_26_2486" cx="0" cy="0" r="1" gradientUnits="userSpaceOnUse" gradientTransform="translate(90.6194 80.8514) scale(17.6569 17.6702)">
<stop stop-color="#B36F50"/>
<stop offset="1"/>
</radialGradient>
<linearGradient id="paint27_linear_26_2486" x1="70.6978" y1="127.307" x2="124.639" y2="127.307" gradientUnits="userSpaceOnUse">
<stop stop-color="#943515"/>
<stop offset="0.29" stop-color="#E88200"/>
<stop offset="0.38" stop-color="#D57400"/>
<stop offset="0.56" stop-color="#A55300"/>
<stop offset="0.74" stop-color="#702D00"/>
<stop offset="0.76" stop-color="#773100"/>
<stop offset="0.8" stop-color="#8A3E00"/>
<stop offset="0.84" stop-color="#AB5200"/>
<stop offset="0.89" stop-color="#D97000"/>
<stop offset="0.92" stop-color="#CD6407"/>
<stop offset="0.98" stop-color="#AE451C"/>
<stop offset="1" stop-color="#A33A25"/>
</linearGradient>
<radialGradient id="paint28_radial_26_2486" cx="0" cy="0" r="1" gradientUnits="userSpaceOnUse" gradientTransform="translate(98.7065 106.21) scale(50.3829 50.4208)">
<stop stop-color="#FFD457"/>
<stop offset="1" stop-color="#E37900"/>
</radialGradient>
<radialGradient id="paint29_radial_26_2486" cx="0" cy="0" r="1" gradientUnits="userSpaceOnUse" gradientTransform="translate(90.053 114.438) scale(18.3039 18.3177)">
<stop stop-color="#E88200"/>
<stop offset="1" stop-color="#823C24"/>
</radialGradient>
<radialGradient id="paint30_radial_26_2486" cx="0" cy="0" r="1" gradientUnits="userSpaceOnUse" gradientTransform="translate(93.5035 107.397) scale(15.9047 15.9167)">
<stop stop-color="#FFE7A1"/>
<stop offset="1" stop-color="#F5A000"/>
</radialGradient>
<radialGradient id="paint31_radial_26_2486" cx="0" cy="0" r="1" gradientUnits="userSpaceOnUse" gradientTransform="translate(94.8786 96.1747) scale(36.2843 36.3116)">
<stop stop-color="#E88200"/>
<stop offset="1" stop-color="#823C24"/>
</radialGradient>
<radialGradient id="paint32_radial_26_2486" cx="0" cy="0" r="1" gradientUnits="userSpaceOnUse" gradientTransform="translate(117.496 97.4696) scale(23.3988 23.4164)">
<stop stop-color="#FFE7A1"/>
<stop offset="1" stop-color="#F5A000"/>
</radialGradient>
<radialGradient id="paint33_radial_26_2486" cx="0" cy="0" r="1" gradientUnits="userSpaceOnUse" gradientTransform="translate(98.922 92.8295) scale(19.3283 19.3428)">
<stop offset="0.55"/>
<stop offset="0.58" stop-color="#1B160A"/>
<stop offset="0.67" stop-color="#5F4D24"/>
<stop offset="0.76" stop-color="#987B3A"/>
<stop offset="0.83" stop-color="#C49F4A"/>
<stop offset="0.9" stop-color="#E4B956"/>
<stop offset="0.96" stop-color="#F8C95E"/>
<stop offset="1" stop-color="#FFCF61"/>
</radialGradient>
<radialGradient id="paint34_radial_26_2486" cx="0" cy="0" r="1" gradientUnits="userSpaceOnUse" gradientTransform="translate(112.59 103.054) scale(26.9032 26.9235)">
<stop stop-color="#E88200"/>
<stop offset="1" stop-color="#823C24"/>
</radialGradient>
<radialGradient id="paint35_radial_26_2486" cx="0" cy="0" r="1" gradientUnits="userSpaceOnUse" gradientTransform="translate(129.033 103.809) scale(17.8456 17.8591)">
<stop stop-color="#FFE7A1"/>
<stop offset="1" stop-color="#F5A000"/>
</radialGradient>
<radialGradient id="paint36_radial_26_2486" cx="0" cy="0" r="1" gradientUnits="userSpaceOnUse" gradientTransform="translate(66.1154 123.665) scale(11.5376 11.5464)">
<stop stop-color="#E88200"/>
<stop offset="1" stop-color="#823C24"/>
</radialGradient>
<radialGradient id="paint37_radial_26_2486" cx="0" cy="0" r="1" gradientUnits="userSpaceOnUse" gradientTransform="translate(67.4363 129.977) scale(11.915 11.9241)">
<stop stop-color="#FFE7A1"/>
<stop offset="1" stop-color="#F5A000"/>
</radialGradient>
<radialGradient id="paint38_radial_26_2486" cx="0" cy="0" r="1" gradientUnits="userSpaceOnUse" gradientTransform="translate(69.6468 119.105) scale(11.915 11.9241)">
<stop offset="0.55"/>
<stop offset="0.58" stop-color="#1B160A"/>
<stop offset="0.67" stop-color="#5F4D24"/>
<stop offset="0.76" stop-color="#987B3A"/>
<stop offset="0.83" stop-color="#C49F4A"/>
<stop offset="0.9" stop-color="#E4B956"/>
<stop offset="0.96" stop-color="#F8C95E"/>
<stop offset="1" stop-color="#FFCF61"/>
</radialGradient>
<linearGradient id="paint39_linear_26_2486" x1="79.8366" y1="142.495" x2="119.182" y2="119.779" gradientUnits="userSpaceOnUse">
<stop stop-color="#874935"/>
<stop offset="0.29" stop-color="#E88F1E"/>
<stop offset="0.38" stop-color="#D5811C"/>
<stop offset="0.56" stop-color="#A55F17"/>
<stop offset="0.74" stop-color="#6E3712"/>
<stop offset="0.77" stop-color="#753D14"/>
<stop offset="0.81" stop-color="#884D1C"/>
<stop offset="0.86" stop-color="#A86929"/>
<stop offset="0.89" stop-color="#BA7830"/>
<stop offset="0.93" stop-color="#B26C34"/>
<stop offset="1" stop-color="#A14F3F"/>
</linearGradient>
<linearGradient id="paint40_linear_26_2486" x1="109.085" y1="124.879" x2="118.847" y2="119.22" gradientUnits="userSpaceOnUse">
<stop stop-color="white"/>
<stop offset="1" stop-color="#B55A92"/>
</linearGradient>
<linearGradient id="paint41_linear_26_2486" x1="76.4399" y1="140.175" x2="87.2497" y2="140.175" gradientUnits="userSpaceOnUse">
<stop stop-color="#B55A92"/>
<stop offset="1" stop-color="white"/>
</linearGradient>
<radialGradient id="paint42_radial_26_2486" cx="0" cy="0" r="1" gradientUnits="userSpaceOnUse" gradientTransform="translate(97.3857 140.66) scale(35.6643 35.6912)">
<stop stop-color="#B36F50"/>
<stop offset="1"/>
</radialGradient>
<radialGradient id="paint43_radial_26_2486" cx="0" cy="0" r="1" gradientUnits="userSpaceOnUse" gradientTransform="translate(89.1635 107.856) scale(42.9966 43.029)">
<stop stop-color="#FFD457"/>
<stop offset="1" stop-color="#E37900"/>
</radialGradient>
<radialGradient id="paint44_radial_26_2486" cx="0" cy="0" r="1" gradientUnits="userSpaceOnUse" gradientTransform="translate(93.6653 114.33) scale(31.2702 31.2938)">
<stop stop-color="#D9D7D5"/>
<stop offset="1" stop-color="#ADA08C"/>
</radialGradient>
<radialGradient id="paint45_radial_26_2486" cx="0" cy="0" r="1" gradientUnits="userSpaceOnUse" gradientTransform="translate(91.4279 109.205) scale(46.7976 46.8328)">
<stop stop-color="#FFE7A1"/>
<stop offset="1" stop-color="#F5A000"/>
</radialGradient>
<linearGradient id="paint46_linear_26_2486" x1="76.2779" y1="127.469" x2="107.937" y2="109.198" gradientUnits="userSpaceOnUse">
<stop stop-color="#A33A25"/>
<stop offset="0.04" stop-color="#9A371E"/>
<stop offset="0.18" stop-color="#7B2F08"/>
<stop offset="0.26" stop-color="#702D00"/>
<stop offset="0.44" stop-color="#A55300"/>
<stop offset="0.62" stop-color="#D57400"/>
<stop offset="0.71" stop-color="#E88200"/>
<stop offset="1" stop-color="#943515"/>
</linearGradient>
<linearGradient id="paint47_linear_26_2486" x1="80.5641" y1="137.18" x2="114.408" y2="117.671" gradientUnits="userSpaceOnUse">
<stop stop-color="#874935"/>
<stop offset="0.29" stop-color="#E88F1E"/>
<stop offset="0.38" stop-color="#D5811C"/>
<stop offset="0.56" stop-color="#A55F17"/>
<stop offset="0.74" stop-color="#6E3712"/>
<stop offset="0.77" stop-color="#753D14"/>
<stop offset="0.81" stop-color="#884D1C"/>
<stop offset="0.86" stop-color="#A86929"/>
<stop offset="0.89" stop-color="#BA7830"/>
<stop offset="0.93" stop-color="#B26C34"/>
<stop offset="1" stop-color="#A14F3F"/>
</linearGradient>
<radialGradient id="paint48_radial_26_2486" cx="0" cy="0" r="1" gradientUnits="userSpaceOnUse" gradientTransform="translate(99.1648 155.606) scale(27.4423 27.463)">
<stop stop-color="#FFE7A1"/>
<stop offset="1" stop-color="#F5A000"/>
</radialGradient>
<radialGradient id="paint49_radial_26_2486" cx="0" cy="0" r="1" gradientUnits="userSpaceOnUse" gradientTransform="translate(76.3861 144.626) scale(24.9353 24.9541)">
<stop stop-color="#E88200"/>
<stop offset="1" stop-color="#823C24"/>
</radialGradient>
<radialGradient id="paint50_radial_26_2486" cx="0" cy="0" r="1" gradientUnits="userSpaceOnUse" gradientTransform="translate(99.0029 145.354) scale(21.3231 21.3392)">
<stop stop-color="#B56500"/>
<stop offset="1" stop-color="#612D1B"/>
</radialGradient>
<radialGradient id="paint51_radial_26_2486" cx="0" cy="0" r="1" gradientUnits="userSpaceOnUse" gradientTransform="translate(119.436 141.335) scale(20.2178 20.2331)">
<stop stop-color="#FFC052"/>
<stop offset="1" stop-color="#CC7A00"/>
</radialGradient>
<radialGradient id="paint52_radial_26_2486" cx="0" cy="0" r="1" gradientUnits="userSpaceOnUse" gradientTransform="translate(73.2859 135.939) scale(19.9752 19.9903)">
<stop stop-color="#E88200"/>
<stop offset="1" stop-color="#823C24"/>
</radialGradient>
<radialGradient id="paint53_radial_26_2486" cx="0" cy="0" r="1" gradientUnits="userSpaceOnUse" gradientTransform="translate(72.3694 149.968) scale(21.1883 21.2043)">
<stop stop-color="#FFE7A1"/>
<stop offset="1" stop-color="#F5A000"/>
</radialGradient>
<linearGradient id="paint54_linear_26_2486" x1="77.8145" y1="135.13" x2="86.4946" y2="135.13" gradientUnits="userSpaceOnUse">
<stop stop-color="#B55A92"/>
<stop offset="1" stop-color="#EFEDF2"/>
</linearGradient>
<linearGradient id="paint55_linear_26_2486" x1="105.823" y1="121.426" x2="113.886" y2="116.764" gradientUnits="userSpaceOnUse">
<stop stop-color="#EFEDF2"/>
<stop offset="1" stop-color="#B55A92"/>
</linearGradient>
<radialGradient id="paint56_radial_26_2486" cx="0" cy="0" r="1" gradientUnits="userSpaceOnUse" gradientTransform="translate(97.6014 134.941) scale(32.2946 32.319)">
<stop stop-color="#B36F50"/>
<stop offset="1"/>
</radialGradient>
<radialGradient id="paint57_radial_26_2486" cx="0" cy="0" r="1" gradientUnits="userSpaceOnUse" gradientTransform="translate(87.735 97.0649) scale(40.1122 40.1424)">
<stop stop-color="#78859C"/>
<stop offset="1" stop-color="#434354"/>
</radialGradient>
<radialGradient id="paint58_radial_26_2486" cx="0" cy="0" r="1" gradientUnits="userSpaceOnUse" gradientTransform="translate(68.9457 146.649) scale(22.1048 22.1215)">
<stop offset="0.55"/>
<stop offset="0.58" stop-color="#1B160A"/>
<stop offset="0.67" stop-color="#5F4D24"/>
<stop offset="0.76" stop-color="#987B3A"/>
<stop offset="0.83" stop-color="#C49F4A"/>
<stop offset="0.9" stop-color="#E4B956"/>
<stop offset="0.96" stop-color="#F8C95E"/>
<stop offset="1" stop-color="#FFCF61"/>
</radialGradient>
<radialGradient id="paint59_radial_26_2486" cx="0" cy="0" r="1" gradientUnits="userSpaceOnUse" gradientTransform="translate(99.6499 137.126) scale(6.73927 6.74436)">
<stop stop-color="#E88200"/>
<stop offset="1" stop-color="#823C24"/>
</radialGradient>
<radialGradient id="paint60_radial_26_2486" cx="0" cy="0" r="1" gradientUnits="userSpaceOnUse" gradientTransform="translate(102.265 138.205) scale(5.9575 5.96201)">
<stop stop-color="#FFCF61"/>
<stop offset="0.24" stop-color="#B59344"/>
<stop offset="0.52" stop-color="#685427"/>
<stop offset="0.74" stop-color="#302612"/>
<stop offset="0.91" stop-color="#0D0A05"/>
<stop offset="1"/>
</radialGradient>
<linearGradient id="paint61_linear_26_2486" x1="58.9715" y1="100.761" x2="68.5447" y2="106.069" gradientUnits="userSpaceOnUse">
<stop stop-color="#0D415D"/>
<stop offset="0.02" stop-color="#0A3C5C"/>
<stop offset="0.1" stop-color="#00295B"/>
<stop offset="0.13" stop-color="#00316C"/>
<stop offset="0.15" stop-color="#003675"/>
<stop offset="1" stop-color="#0B5B8D"/>
</linearGradient>
<linearGradient id="paint62_linear_26_2486" x1="52.3942" y1="111.875" x2="67.9485" y2="111.875" gradientUnits="userSpaceOnUse">
<stop stop-color="#0B3F7D"/>
<stop offset="1" stop-color="#002B67"/>
</linearGradient>
<radialGradient id="paint63_radial_26_2486" cx="0" cy="0" r="1" gradientUnits="userSpaceOnUse" gradientTransform="translate(115.581 189.382) scale(70.412 70.4651)">
<stop stop-color="#408091"/>
<stop offset="0.3" stop-color="#2D5864"/>
<stop offset="0.78" stop-color="#101C1F"/>
<stop offset="1" stop-color="#050505"/>
</radialGradient>
<radialGradient id="paint64_radial_26_2486" cx="0" cy="0" r="1" gradientUnits="userSpaceOnUse" gradientTransform="translate(26.3268 181.154) scale(63.7805 63.8285)">
<stop stop-color="#408091"/>
<stop offset="0.3" stop-color="#2D5864"/>
<stop offset="0.78" stop-color="#101C1F"/>
<stop offset="1" stop-color="#050505"/>
</radialGradient>
<linearGradient id="paint65_linear_26_2486" x1="59.4031" y1="102.11" x2="62.4773" y2="103.807" gradientUnits="userSpaceOnUse">
<stop stop-color="#0F0F0F"/>
<stop offset="0.32" stop-color="#212E4F"/>
<stop offset="0.5" stop-color="#2A3E6E"/>
<stop offset="0.59" stop-color="#273A66"/>
<stop offset="0.71" stop-color="#223053"/>
<stop offset="0.86" stop-color="#192033"/>
<stop offset="1" stop-color="#0F0F0F"/>
</linearGradient>
<linearGradient id="paint66_linear_26_2486" x1="65.7918" y1="101.651" x2="68.839" y2="103.349" gradientUnits="userSpaceOnUse">
<stop stop-color="white"/>
<stop offset="0.14" stop-color="#CED8EB"/>
<stop offset="0.39" stop-color="#809ACB"/>
<stop offset="0.5" stop-color="#6182BF"/>
<stop offset="0.56" stop-color="#6887C1"/>
<stop offset="0.65" stop-color="#7B97C9"/>
<stop offset="0.76" stop-color="#9CB0D6"/>
<stop offset="0.88" stop-color="#C8D4E9"/>
<stop offset="1" stop-color="white"/>
</linearGradient>
<radialGradient id="paint67_radial_26_2486" cx="0" cy="0" r="1" gradientUnits="userSpaceOnUse" gradientTransform="translate(57.5696 108.368) scale(10.9715 10.9798)">
<stop stop-color="#275885"/>
<stop offset="1" stop-color="#0F0F0F"/>
</radialGradient>
<linearGradient id="paint68_linear_26_2486" x1="22.4177" y1="165.507" x2="38.4302" y2="165.507" gradientUnits="userSpaceOnUse">
<stop stop-color="#0B3F7D"/>
<stop offset="1" stop-color="#002B67"/>
</linearGradient>
<linearGradient id="paint69_linear_26_2486" x1="29.3728" y1="153.205" x2="39.728" y2="158.945" gradientUnits="userSpaceOnUse">
<stop stop-color="#0D415D"/>
<stop offset="0.02" stop-color="#0A3C5C"/>
<stop offset="0.1" stop-color="#00295B"/>
<stop offset="0.13" stop-color="#00316C"/>
<stop offset="0.15" stop-color="#003675"/>
<stop offset="1" stop-color="#0B5B8D"/>
</linearGradient>
<linearGradient id="paint70_linear_26_2486" x1="30.3431" y1="154.338" x2="33.4173" y2="156.063" gradientUnits="userSpaceOnUse">
<stop stop-color="#0F0F0F"/>
<stop offset="0.32" stop-color="#212E4F"/>
<stop offset="0.5" stop-color="#2A3E6E"/>
<stop offset="0.59" stop-color="#273A66"/>
<stop offset="0.71" stop-color="#223053"/>
<stop offset="0.86" stop-color="#192033"/>
<stop offset="1" stop-color="#0F0F0F"/>
</linearGradient>
<linearGradient id="paint71_linear_26_2486" x1="36.3278" y1="154.581" x2="39.402" y2="156.305" gradientUnits="userSpaceOnUse">
<stop stop-color="white"/>
<stop offset="0.14" stop-color="#CED8EB"/>
<stop offset="0.39" stop-color="#809ACB"/>
<stop offset="0.5" stop-color="#6182BF"/>
<stop offset="0.56" stop-color="#6887C1"/>
<stop offset="0.65" stop-color="#7B97C9"/>
<stop offset="0.76" stop-color="#9CB0D6"/>
<stop offset="0.88" stop-color="#C8D4E9"/>
<stop offset="1" stop-color="white"/>
</linearGradient>
<radialGradient id="paint72_radial_26_2486" cx="0" cy="0" r="1" gradientUnits="userSpaceOnUse" gradientTransform="translate(28.1598 161.055) scale(14.8803 14.8915)">
<stop stop-color="#275885"/>
<stop offset="1" stop-color="#0F0F0F"/>
</radialGradient>
<radialGradient id="paint73_radial_26_2486" cx="0" cy="0" r="1" gradientUnits="userSpaceOnUse" gradientTransform="translate(42.5548 155.579) scale(5.82274 5.82713)">
<stop stop-color="#12507D"/>
<stop offset="0.17" stop-color="#0E4979"/>
<stop offset="1" stop-color="#002B67"/>
</radialGradient>
<radialGradient id="paint74_radial_26_2486" cx="0" cy="0" r="1" gradientUnits="userSpaceOnUse" gradientTransform="translate(38.4574 155.093) scale(5.12185 5.12572)">
<stop stop-color="#3B83C5"/>
<stop offset="1" stop-color="#0F0F0F"/>
</radialGradient>
<radialGradient id="paint75_radial_26_2486" cx="0" cy="0" r="1" gradientUnits="userSpaceOnUse" gradientTransform="translate(86.8183 136.398) scale(20.4874 20.5029)">
<stop stop-color="#E04C67"/>
<stop offset="1" stop-color="#99134C"/>
</radialGradient>
<radialGradient id="paint76_radial_26_2486" cx="0" cy="0" r="1" gradientUnits="userSpaceOnUse" gradientTransform="translate(103.963 112.496) scale(24.7466 24.7653)">
<stop stop-color="#4A95D9"/>
<stop offset="1" stop-color="#1E459C"/>
</radialGradient>
<radialGradient id="paint77_radial_26_2486" cx="0" cy="0" r="1" gradientUnits="userSpaceOnUse" gradientTransform="translate(94.4472 122.235) scale(3.18094 3.18333)">
<stop stop-color="#FFD457"/>
<stop offset="0.72" stop-color="#E37900"/>
<stop offset="1" stop-color="#733C0B"/>
</radialGradient>
<radialGradient id="paint78_radial_26_2486" cx="0" cy="0" r="1" gradientUnits="userSpaceOnUse" gradientTransform="translate(89.8104 97.4426) scale(71.8137 71.8679)">
<stop stop-color="#AFD7F7"/>
<stop offset="0.16" stop-color="#ADD5F5"/>
<stop offset="0.22" stop-color="#A7CEEE"/>
<stop offset="0.26" stop-color="#9DC2E3"/>
<stop offset="0.29" stop-color="#8EB1D4"/>
<stop offset="0.32" stop-color="#7B9BBF"/>
<stop offset="0.34" stop-color="#6480A6"/>
<stop offset="0.37" stop-color="#485F87"/>
<stop offset="0.39" stop-color="#283B65"/>
<stop offset="0.41" stop-color="#03103D"/>
</radialGradient>
<radialGradient id="paint79_radial_26_2486" cx="0" cy="0" r="1" gradientUnits="userSpaceOnUse" gradientTransform="translate(97.763 131.569) scale(19.5978 19.6126)">
<stop offset="0.74"/>
<stop offset="0.77" stop-color="#050505"/>
<stop offset="0.8" stop-color="#141414"/>
<stop offset="0.83" stop-color="#2D2D2D"/>
<stop offset="0.87" stop-color="#515151"/>
<stop offset="0.91" stop-color="#7E7E7E"/>
<stop offset="0.95" stop-color="#B6B6B6"/>
<stop offset="1" stop-color="white"/>
</radialGradient>
<radialGradient id="paint80_radial_26_2486" cx="0" cy="0" r="1" gradientUnits="userSpaceOnUse" gradientTransform="translate(99.2724 126.659) scale(16.2551 16.2674)">
<stop offset="0.74"/>
<stop offset="0.77" stop-color="#050505"/>
<stop offset="0.8" stop-color="#141414"/>
<stop offset="0.83" stop-color="#2D2D2D"/>
<stop offset="0.87" stop-color="#515151"/>
<stop offset="0.91" stop-color="#7E7E7E"/>
<stop offset="0.95" stop-color="#B6B6B6"/>
<stop offset="1" stop-color="white"/>
</radialGradient>
<radialGradient id="paint81_radial_26_2486" cx="0" cy="0" r="1" gradientUnits="userSpaceOnUse" gradientTransform="translate(88.2471 114.87) scale(18.4117 18.4256)">
<stop offset="0.81"/>
<stop offset="0.83" stop-color="#0F0F0F"/>
<stop offset="0.86" stop-color="#373737"/>
<stop offset="0.91" stop-color="#787878"/>
<stop offset="0.97" stop-color="#D1D1D1"/>
<stop offset="1" stop-color="white"/>
</radialGradient>
<radialGradient id="paint82_radial_26_2486" cx="0" cy="0" r="1" gradientUnits="userSpaceOnUse" gradientTransform="translate(118.412 219.516) scale(18.1691 18.1828)">
<stop stop-color="#015B88"/>
<stop offset="1" stop-color="#033C58"/>
</radialGradient>
<radialGradient id="paint83_radial_26_2486" cx="0" cy="0" r="1" gradientUnits="userSpaceOnUse" gradientTransform="translate(120.865 212.421) scale(16.336 16.3483)">
<stop stop-color="#408091"/>
<stop offset="0.3" stop-color="#2D5864"/>
<stop offset="0.78" stop-color="#101C1F"/>
<stop offset="1" stop-color="#050505"/>
</radialGradient>
<radialGradient id="paint84_radial_26_2486" cx="0" cy="0" r="1" gradientUnits="userSpaceOnUse" gradientTransform="translate(134.613 133.916) scale(23.0753 23.0927)">
<stop stop-color="#E88200"/>
<stop offset="1" stop-color="#823C24"/>
</radialGradient>
<radialGradient id="paint85_radial_26_2486" cx="0" cy="0" r="1" gradientUnits="userSpaceOnUse" gradientTransform="translate(136.123 124.69) scale(22.5901 22.6071)">
<stop stop-color="#FFE7A1"/>
<stop offset="1" stop-color="#F5A000"/>
</radialGradient>
<radialGradient id="paint86_radial_26_2486" cx="0" cy="0" r="1" gradientUnits="userSpaceOnUse" gradientTransform="translate(127.955 107.802) scale(25.0701 25.089)">
<stop offset="0.55"/>
<stop offset="0.58" stop-color="#1B160A"/>
<stop offset="0.67" stop-color="#5F4D24"/>
<stop offset="0.76" stop-color="#987B3A"/>
<stop offset="0.83" stop-color="#C49F4A"/>
<stop offset="0.9" stop-color="#E4B956"/>
<stop offset="0.96" stop-color="#F8C95E"/>
<stop offset="1" stop-color="#FFCF61"/>
</radialGradient>
<radialGradient id="paint87_radial_26_2486" cx="0" cy="0" r="1" gradientUnits="userSpaceOnUse" gradientTransform="translate(71.1563 114.438) scale(35.9608 35.9879)">
<stop stop-color="#FFC45E"/>
<stop offset="1" stop-color="#E68B00"/>
</radialGradient>
<radialGradient id="paint88_radial_26_2486" cx="0" cy="0" r="1" gradientUnits="userSpaceOnUse" gradientTransform="translate(141.272 114.223) scale(25.151 25.17)">
<stop stop-color="#FFC45E"/>
<stop offset="1" stop-color="#E68B00"/>
</radialGradient>
<radialGradient id="paint89_radial_26_2486" cx="0" cy="0" r="1" gradientUnits="userSpaceOnUse" gradientTransform="translate(116.363 77.722) scale(19.6248 19.6396)">
<stop stop-color="#FFC45E"/>
<stop offset="1" stop-color="#E68B00"/>
</radialGradient>
<radialGradient id="paint90_radial_26_2486" cx="0" cy="0" r="1" gradientUnits="userSpaceOnUse" gradientTransform="translate(74.0676 110.392) scale(27.1189 27.1393)">
<stop stop-color="#E88200"/>
<stop offset="1" stop-color="#823C24"/>
</radialGradient>
<radialGradient id="paint91_radial_26_2486" cx="0" cy="0" r="1" gradientUnits="userSpaceOnUse" gradientTransform="translate(61.4516 166.37) scale(30.7042 30.7273)">
<stop stop-color="#FFC45E"/>
<stop offset="1" stop-color="#E68B00"/>
</radialGradient>
<radialGradient id="paint92_radial_26_2486" cx="0" cy="0" r="1" gradientUnits="userSpaceOnUse" gradientTransform="translate(123.076 105.104) scale(44.5871 44.6207)">
<stop stop-color="#E88200"/>
<stop offset="1" stop-color="#823C24"/>
</radialGradient>
<clipPath id="clip0_26_2486">
<rect width="198" height="236" fill="white" transform="translate(0.959961)"/>
</clipPath>
</defs>
</svg>
