<svg width="31" height="31" viewBox="0 0 31 31" fill="none" xmlns="http://www.w3.org/2000/svg">
<g clip-path="url(#clip0_389_1817)">
<path d="M5.55957 6.9209C5.55957 6.2334 6.12207 5.6709 6.80957 5.6709H13.0596C13.7471 5.6709 14.3096 5.1084 14.3096 4.4209C14.3096 3.7334 13.7471 3.1709 13.0596 3.1709H5.55957C4.18457 3.1709 3.05957 4.2959 3.05957 5.6709V13.1709C3.05957 13.8584 3.62207 14.4209 4.30957 14.4209C4.99707 14.4209 5.55957 13.8584 5.55957 13.1709V6.9209ZM12.5721 17.5334L8.87207 22.1584C8.54707 22.5709 8.83457 23.1709 9.35957 23.1709H21.8096C22.3221 23.1709 22.6221 22.5834 22.3096 22.1709L19.8096 18.8334C19.5596 18.4959 19.0596 18.4959 18.8096 18.8334L16.7721 21.5584L13.5471 17.5334C13.2971 17.2209 12.8221 17.2209 12.5721 17.5334ZM21.8096 11.2959C21.8096 10.2584 20.9721 9.4209 19.9346 9.4209C18.8971 9.4209 18.0596 10.2584 18.0596 11.2959C18.0596 12.3334 18.8971 13.1709 19.9346 13.1709C20.9721 13.1709 21.8096 12.3334 21.8096 11.2959ZM25.5596 3.1709H18.0596C17.3721 3.1709 16.8096 3.7334 16.8096 4.4209C16.8096 5.1084 17.3721 5.6709 18.0596 5.6709H24.3096C24.9971 5.6709 25.5596 6.2334 25.5596 6.9209V13.1709C25.5596 13.8584 26.1221 14.4209 26.8096 14.4209C27.4971 14.4209 28.0596 13.8584 28.0596 13.1709V5.6709C28.0596 4.2959 26.9346 3.1709 25.5596 3.1709ZM25.5596 24.4209C25.5596 25.1084 24.9971 25.6709 24.3096 25.6709H18.0596C17.3721 25.6709 16.8096 26.2334 16.8096 26.9209C16.8096 27.6084 17.3721 28.1709 18.0596 28.1709H25.5596C26.9346 28.1709 28.0596 27.0459 28.0596 25.6709V18.1709C28.0596 17.4834 27.4971 16.9209 26.8096 16.9209C26.1221 16.9209 25.5596 17.4834 25.5596 18.1709V24.4209ZM4.30957 16.9209C3.62207 16.9209 3.05957 17.4834 3.05957 18.1709V25.6709C3.05957 27.0459 4.18457 28.1709 5.55957 28.1709H13.0596C13.7471 28.1709 14.3096 27.6084 14.3096 26.9209C14.3096 26.2334 13.7471 25.6709 13.0596 25.6709H6.80957C6.12207 25.6709 5.55957 25.1084 5.55957 24.4209V18.1709C5.55957 17.4834 4.99707 16.9209 4.30957 16.9209Z" fill="white"/>
</g>
<defs>
<clipPath id="clip0_389_1817">
<rect width="30" height="30" fill="white" transform="translate(0.55957 0.670898)"/>
</clipPath>
</defs>
</svg>
