<svg width="60" height="60" viewBox="0 0 60 60" fill="none" xmlns="http://www.w3.org/2000/svg">
<g clip-path="url(#clip0_26_2677)">
<path fill-rule="evenodd" clip-rule="evenodd" d="M29.9882 37.5748C27.6897 39.6899 25.3746 41.7875 23.0527 43.8784C23.3243 44.7978 23.4912 45.7441 23.5325 46.6797C23.6414 49.113 22.7769 51.464 21.4946 53.5185C18.9245 57.6382 14.6459 60.2319 9.63111 59.9852C6.7452 59.8436 3.98753 58.7449 1.85586 56.828C0.803804 55.8816 -0.0221178 54.8396 -5.64371e-05 53.3338C0.0109742 52.5681 0.289499 51.8469 0.652132 51.1647C3.25537 46.2618 5.37051 43.5872 10.5012 40.2426L11.1051 39.849C10.861 39.4702 10.5729 39.0631 10.406 38.7733C8.48116 35.43 9.76623 32.8673 12.0868 30.3006C12.4977 29.845 13.6807 28.5104 13.8559 27.8714C13.8297 26.2187 14.6997 25.0499 15.8497 24.4931C13.3457 22.1798 10.8348 19.876 8.30467 17.5923C4.30742 13.9835 2.36465 8.04529 3.75313 2.866C4.10336 1.55972 4.97202 0.643026 6.01856 0.226472C8.32948 -0.688869 10.2985 1.37503 11.7462 2.7932L29.9993 20.3775L48.2578 2.78781C49.5222 1.55028 51.3767 -0.145596 53.3967 0.320837C54.8017 0.64707 56.011 1.7471 56.3791 3.40253C57.5001 8.44702 55.556 14.1062 51.6938 17.591C49.1664 19.8719 46.6583 22.1812 44.1558 24.4945C45.3016 25.0526 46.1688 26.22 46.1427 27.87C46.3178 28.509 47.5008 29.845 47.9117 30.2993C50.2323 32.866 51.5187 35.4287 49.5925 38.7719C49.4257 39.0617 49.1375 39.4689 48.8934 39.8477L49.4974 40.2413C51.5118 41.5543 52.8438 42.5168 54.0282 43.6735C55.8703 45.4745 59.9627 50.856 59.9986 53.3324C60.0206 54.8382 59.1947 55.8803 58.1427 56.8266C56.011 58.7436 53.2533 59.8409 50.3674 59.9838C45.3512 60.2305 41.0741 57.6382 38.5039 53.5171C37.2216 51.4627 36.3571 49.1116 36.466 46.6783C36.5074 45.7428 36.6742 44.7964 36.9458 43.8771C34.617 41.7795 32.2991 39.6899 29.9882 37.5735V37.5748ZM15.8483 47.7946C15.8483 47.7946 13.8421 51.0906 10.4005 51.6366L10.0489 52.6476C12.8093 52.6166 15.2926 50.55 15.8248 47.9078C15.8331 47.87 15.84 47.8323 15.8469 47.7946H15.8483ZM44.1502 47.7946C44.1571 47.8323 44.164 47.87 44.1723 47.9078C44.7045 50.5487 47.1892 52.6166 49.9496 52.6476L49.598 51.6366C46.1578 51.0906 44.1502 47.7946 44.1502 47.7946Z" fill="#07416D"/>
<path fill-rule="evenodd" clip-rule="evenodd" d="M26.0143 34.0671L22.3177 37.4697C22.0571 37.7042 22.0226 37.6584 22.2584 37.9226L23.3104 39.0981C24.2439 38.2569 25.6793 36.9453 27.4125 35.3518L26.0143 34.0671ZM51.0664 4.77082C51.3187 8.39713 49.7579 12.2674 47.0222 14.7317L35.3918 25.4368L36.772 26.7242C41.9909 21.9062 47.1326 17.1583 49.3745 15.1361C52.3349 12.4656 53.904 8.01293 53.0367 4.11431C52.9209 3.5926 52.5403 3.32973 52.0605 3.79886L51.0677 4.77082H51.0664ZM8.93331 4.77082C8.68099 8.39713 10.2418 12.2674 12.9774 14.7317L37.6806 37.4697C37.9412 37.7042 37.9757 37.6584 37.7399 37.9226L36.6879 39.0981C32.0798 34.9474 15.2305 19.2909 10.6251 15.1348C7.56275 12.3726 5.99088 7.70422 7.06086 3.71393C7.20012 3.19357 7.35731 3.22862 7.63307 3.49824L8.93331 4.77082Z" fill="white"/>
<path fill-rule="evenodd" clip-rule="evenodd" d="M20.6782 41.4708L22.1067 40.1847L20.7403 38.5778C20.1074 37.8337 20.1805 37.2526 20.8823 36.6204L24.8409 32.986L23.2773 31.5489L17.2684 37.3376C18.3273 38.4241 19.4593 39.5026 20.2784 40.7805C20.4204 41.0016 20.5541 41.2322 20.6796 41.4708H20.6782ZM34.2363 24.3583L45.4407 14.0712C47.3284 12.3699 49.0905 9.17364 49.1594 6.6123L32.4576 22.7015L34.2349 24.3583H34.2363ZM39.3215 41.4708L37.8944 40.1847L39.2608 38.5778C39.8937 37.8337 39.8206 37.2526 39.1188 36.6204L14.5576 14.0712C12.67 12.3699 10.9078 9.17364 10.8389 6.6123L42.7327 37.3376C41.6738 38.4241 40.5417 39.5026 39.7227 40.7805C39.5807 41.0016 39.4469 41.2322 39.3215 41.4708Z" fill="#E7EDEE"/>
<path fill-rule="evenodd" clip-rule="evenodd" d="M22.5865 35.0553L24.8395 32.9874L23.2759 31.5503L21.1084 33.6385L22.5879 35.0567L22.5865 35.0553ZM26.0157 34.0672L27.4138 35.3519C26.5645 36.1311 25.7868 36.8442 25.1056 37.4684L23.7406 36.1607L26.0157 34.0672ZM37.8985 23.1303L39.2677 24.4204L36.7733 26.7242L35.3931 25.4368L37.8985 23.1303ZM34.9257 20.3276L32.4603 22.7029L34.2377 24.3597L36.7527 22.0505L34.9257 20.3276Z" fill="#AEB9B8"/>
<path fill-rule="evenodd" clip-rule="evenodd" d="M15.9862 44.0401C15.698 43.8837 14.7907 43.2973 14.0558 41.832C15.8028 40.1334 14.3068 38.7314 13.3871 37.1326C12.2537 35.1644 13.3871 33.912 14.6501 32.5154C15.6801 31.375 17.3388 29.4648 17.2768 27.8511C17.2616 27.444 17.4588 27.3038 17.6132 27.6988C17.9441 28.5467 17.6091 29.5618 17.0493 30.5163C16.4757 31.4977 15.6635 32.4157 15.0775 33.0412C13.0934 35.1577 13.8421 37.0477 15.6539 38.9174C16.7018 39.9932 17.8338 41.0771 18.6418 42.3375C19.4801 43.6451 20.0455 45.2723 20.1158 46.8239C20.193 48.5912 19.505 50.2857 18.5756 51.7754C16.6508 54.8624 13.6132 56.8306 9.80348 56.6432C7.75316 56.5421 5.74282 55.7778 4.17094 54.365C3.92137 54.1412 3.41396 53.7004 3.41948 53.3809C3.42361 53.0547 4.12682 51.9587 4.34054 51.6176C4.97894 52.4278 5.9524 53.0075 6.25436 53.1747C5.48222 55.3976 8.27573 55.9813 9.93999 55.9894C14.3757 56.011 18.3261 52.7985 19.1809 48.5535C19.4595 47.1784 19.2692 46.0663 18.8735 45.1806C18.3578 44.0253 17.1996 43.025 15.9848 44.0388L15.9862 44.0401ZM44.0138 44.0401C44.3019 43.8837 45.2092 43.2973 45.9441 41.832C44.1971 40.1334 45.6932 38.7314 46.6129 37.1326C47.7463 35.1644 46.6129 33.912 45.3498 32.5154C44.3199 31.375 42.6625 29.4648 42.7232 27.8511C42.7383 27.444 42.5412 27.3038 42.3867 27.6988C42.0558 28.5467 42.3909 29.5618 42.9507 30.5163C43.5243 31.4977 44.3364 32.4157 44.9224 33.0412C46.9065 35.1577 46.1578 37.0477 44.3461 38.9174C43.2981 39.9932 42.1661 41.0771 41.3581 42.3375C40.5198 43.6451 39.9545 45.2723 39.8841 46.8239C39.8069 48.5912 40.495 50.2857 41.4243 51.7754C43.3492 54.8624 46.3867 56.8306 50.1964 56.6432C52.2468 56.5421 54.2571 55.7778 55.829 54.365C56.0786 54.1412 56.5846 53.7004 56.5805 53.3809C56.5763 53.0547 55.8731 51.9587 55.6594 51.6176C55.021 52.4278 54.0475 53.0075 53.7456 53.1747C54.5177 55.3976 51.7242 55.9813 50.0599 55.9894C45.6242 56.011 41.6739 52.7985 40.819 48.5535C40.5405 47.1784 40.7307 46.0663 41.1265 45.1806C41.6435 44.0253 42.8004 43.025 44.0151 44.0388L44.0138 44.0401Z" fill="#FEDC55"/>
<path fill-rule="evenodd" clip-rule="evenodd" d="M47.6014 43.025C50.81 45.1159 51.8055 45.7198 54.6486 49.8719C53.9441 51.0514 53.3967 51.3103 52.772 51.6338C51.9599 50.0674 47.9365 49.9487 45.2753 45.5877C46.5907 44.5996 47.1947 43.7031 47.6014 43.025ZM12.3998 43.025C9.19122 45.1159 8.1957 45.7198 5.35254 49.8719C6.05712 51.0514 6.60452 51.3103 7.22913 51.6338C8.04127 50.0674 12.0661 49.9487 14.7259 45.5877C13.4104 44.5996 12.8065 43.7031 12.3998 43.025Z" fill="#AADDF7"/>
<path fill-rule="evenodd" clip-rule="evenodd" d="M12.9348 43.8312C11.7062 44.6117 8.36254 46.9493 5.90683 50.6619C5.73034 50.4556 5.54833 50.1995 5.35254 49.8719C8.1957 45.7185 9.19122 45.1159 12.3998 43.025C12.5445 43.2677 12.7155 43.5386 12.9361 43.8312H12.9348Z" fill="white"/>
<path fill-rule="evenodd" clip-rule="evenodd" d="M47.0649 43.8312C48.2935 44.6117 51.6372 46.9493 54.0929 50.6619C54.2694 50.4556 54.4514 50.1995 54.6472 49.8719C51.804 45.7185 50.8085 45.1159 47.5999 43.025C47.4552 43.2677 47.2842 43.5386 47.0649 43.8312Z" fill="white"/>
</g>
<defs>
<clipPath id="clip0_26_2677">
<rect width="60" height="60" fill="white"/>
</clipPath>
</defs>
</svg>
