<svg width="31" height="31" viewBox="0 0 31 31" fill="none" xmlns="http://www.w3.org/2000/svg">
<g clip-path="url(#clip0_389_1791)">
<path d="M5.55957 9.4209C5.55957 8.7334 6.12207 8.1709 6.80957 8.1709H26.8096C27.4971 8.1709 28.0596 7.6084 28.0596 6.9209C28.0596 6.2334 27.4971 5.6709 26.8096 5.6709H5.55957C4.18457 5.6709 3.05957 6.7959 3.05957 8.1709V21.9209H2.43457C1.39707 21.9209 0.55957 22.7584 0.55957 23.7959C0.55957 24.8334 1.39707 25.6709 2.43457 25.6709H18.0596V21.9209H5.55957V9.4209ZM29.3096 10.6709H21.8096C21.1221 10.6709 20.5596 11.2334 20.5596 11.9209V24.4209C20.5596 25.1084 21.1221 25.6709 21.8096 25.6709H29.3096C29.9971 25.6709 30.5596 25.1084 30.5596 24.4209V11.9209C30.5596 11.2334 29.9971 10.6709 29.3096 10.6709ZM28.0596 21.9209H23.0596V13.1709H28.0596V21.9209Z" fill="white"/>
</g>
<defs>
<clipPath id="clip0_389_1791">
<rect width="30" height="30" fill="white" transform="translate(0.55957 0.670898)"/>
</clipPath>
</defs>
</svg>
