<svg width="60" height="61" viewBox="0 0 60 61" fill="none" xmlns="http://www.w3.org/2000/svg">
<g clip-path="url(#clip0_27_3394)">
<path fill-rule="evenodd" clip-rule="evenodd" d="M0.19117 34.8954C0.599639 32.2613 1.97279 29.4041 3.5212 27.5487C10.5767 19.0941 17.7148 10.7221 24.8847 2.38144C26.5084 0.493274 29.2721 -0.0919013 31.4448 0.972338C39.3564 4.84542 47.223 8.81681 55.1143 12.7336C58.0836 14.2082 58.834 18.1625 56.6265 20.7638C56.1673 21.3052 55.7096 21.8452 55.2504 22.3851L57.2131 23.3619C60.1825 24.8381 60.9284 28.7846 58.7224 31.389C51.0644 40.4257 43.3991 49.4561 35.7352 58.4865C34.1144 60.3965 31.342 60.9879 29.1635 59.9112L23.9678 57.3443C23.5709 61.2579 21.1187 61.0831 18.7722 58.6504L16.359 56.1505C13.0811 56.6967 11.9948 56.5032 11.6268 52.8454C11.5718 52.2993 11.5385 51.7484 11.5269 51.196L5.75764 48.3435C1.07619 46.0277 -0.609834 40.0621 0.19117 34.8954Z" fill="#06416D"/>
<path fill-rule="evenodd" clip-rule="evenodd" d="M27.5208 5.01065C28.0886 4.35057 29.1909 4.11338 29.9586 4.49413C39.0854 8.95551 45.1429 12.0406 53.6107 16.2476C54.3784 16.6252 54.5392 17.485 53.9743 18.1513C46.3133 27.1818 38.648 36.2169 30.987 45.2473C30.4178 45.9152 29.33 46.1477 28.5594 45.7669C21.9804 42.5134 15.3899 39.252 8.81093 36.0031C7.25528 35.2369 4.55822 34.0681 3.66162 36.3339C3.69638 34.466 4.83343 31.7399 6.19355 30.1342C13.2389 21.6671 20.3466 13.356 27.5208 5.00909V5.01065ZM39.0289 21.5657C36.2797 20.0676 31.972 17.808 29.175 16.2835C28.8954 16.1305 28.6318 16.09 28.4261 16.3787C28.0843 16.8562 26.6358 18.543 26.294 19.0221C25.8927 19.5839 25.9869 19.7009 26.4924 19.9787C29.5023 21.6296 33.2799 23.6052 36.1899 25.2C36.778 25.5214 37.004 25.5012 37.3878 24.9581C37.6297 24.6164 38.9782 23.0637 39.2216 22.7235C39.6054 22.1805 39.6025 21.8762 39.0304 21.5657H39.0289Z" fill="#F7BDA1"/>
<path fill-rule="evenodd" clip-rule="evenodd" d="M27.5211 5.01065C28.0889 4.35057 29.1911 4.11338 29.9588 4.49413L32.3865 5.68321L7.23523 35.329C5.83745 34.8499 4.29773 34.7298 3.6604 36.3355C3.69516 34.4676 4.83221 31.7415 6.19233 30.1357C13.2377 21.6686 20.3453 13.3576 27.5196 5.01065H27.5211Z" fill="white"/>
<path fill-rule="evenodd" clip-rule="evenodd" d="M12.4959 47.4164L7.25681 44.826C5.8489 44.1347 4.80455 42.4416 4.1875 40.4661C4.66839 39.2817 5.6519 38.748 6.48622 38.5077C6.62817 39.7108 7.44656 41.0731 8.86027 41.7706L13.3838 44.0083C12.9073 45.1022 12.6306 46.271 12.4974 47.418L12.4959 47.4164ZM53.1139 25.5854L55.7067 26.876C56.4773 27.2536 56.6337 28.1118 56.0688 28.7782C48.4122 37.8117 40.7426 46.8453 33.083 55.8741C32.5152 56.5405 31.4231 56.773 30.6597 56.3922L23.2103 52.7126C23.3464 51.6359 23.6202 50.4936 24.1069 49.3139L29.7574 52.1087C30.5279 52.4879 31.6143 52.2538 32.1806 51.5875L53.2168 26.7995L53.1139 25.5854Z" fill="#F08B64"/>
<path fill-rule="evenodd" clip-rule="evenodd" d="M20.2076 54.7695L17.5684 52.034L15.1987 52.4288C14.9409 49.8727 15.2176 46.4896 17.034 43.946L22.1355 46.4693C20.2829 49.5356 20.0627 52.4475 20.2061 54.7695H20.2076Z" fill="#BFE3E7"/>
<path fill-rule="evenodd" clip-rule="evenodd" d="M16.6921 52.1806L15.1987 52.4288C14.9409 49.8727 15.2176 46.4896 17.034 43.946L18.4882 44.6654C16.9456 46.9234 16.5733 49.804 16.6907 52.1806H16.6921Z" fill="white"/>
</g>
<defs>
<clipPath id="clip0_27_3394">
<rect width="60" height="60" fill="white" transform="translate(0 0.444824)"/>
</clipPath>
</defs>
</svg>
