<svg width="60" height="61" viewBox="0 0 60 61" fill="none" xmlns="http://www.w3.org/2000/svg">
<g clip-path="url(#clip0_27_3441)">
<path fill-rule="evenodd" clip-rule="evenodd" d="M0.19117 34.8953C0.599639 32.2612 1.97279 29.404 3.5212 27.5486C10.5767 19.094 17.7148 10.7221 24.8847 2.38138C26.5084 0.493213 29.2721 -0.0919623 31.4448 0.972277C39.3564 4.84536 47.223 8.81675 55.1143 12.7335C58.0836 14.2082 58.834 18.1624 56.6265 20.7637C56.1673 21.3052 55.7096 21.8451 55.2504 22.385L57.2131 23.3619C60.1825 24.8381 60.9284 28.7845 58.7224 31.3889C51.0644 40.4256 43.3991 49.456 35.7352 58.4865C34.1144 60.3965 31.342 60.9879 29.1635 59.9112L23.9678 57.3442C23.5709 61.2578 21.1187 61.0831 18.7722 58.6503L16.359 56.1504C13.0811 56.6966 11.9948 56.5031 11.6268 52.8454C11.5718 52.2992 11.5385 51.7484 11.5269 51.1959L5.75764 48.3434C1.07619 46.0277 -0.609834 40.062 0.19117 34.8953Z" fill="#06416D"/>
<path fill-rule="evenodd" clip-rule="evenodd" d="M27.5208 5.01077C28.0886 4.35069 29.1909 4.1135 29.9586 4.49425C39.0854 8.95563 45.1429 12.0407 53.6107 16.2477C54.3784 16.6253 54.5392 17.4852 53.9743 18.1515C46.3133 27.1819 38.648 36.217 30.987 45.2474C30.4178 45.9153 29.33 46.1478 28.5594 45.7671C21.9804 42.5135 15.3899 39.2521 8.81093 36.0032C7.25528 35.237 4.55822 34.0682 3.66162 36.334C3.69638 34.4662 4.83343 31.74 6.19355 30.1343C13.2389 21.6672 20.3466 13.3562 27.5208 5.00921V5.01077ZM39.0289 21.5658C36.2797 20.0677 31.972 17.8082 29.175 16.2836C28.8954 16.1307 28.6318 16.0901 28.4261 16.3788C28.0843 16.8563 26.6358 18.5431 26.294 19.0222C25.8927 19.584 25.9869 19.701 26.4924 19.9788C29.5023 21.6298 33.2799 23.6053 36.1899 25.2001C36.778 25.5216 37.004 25.5013 37.3878 24.9582C37.6297 24.6165 38.9782 23.0638 39.2216 22.7236C39.6054 22.1806 39.6025 21.8763 39.0304 21.5658H39.0289Z" fill="#F7BDA1"/>
<path fill-rule="evenodd" clip-rule="evenodd" d="M27.5211 5.01077C28.0889 4.35069 29.1911 4.1135 29.9588 4.49425L32.3865 5.68333L7.23523 35.3291C5.83745 34.85 4.29773 34.7299 3.6604 36.3356C3.69516 34.4677 4.83221 31.7416 6.19233 30.1359C13.2377 21.6688 20.3453 13.3577 27.5196 5.01077H27.5211Z" fill="white"/>
<path fill-rule="evenodd" clip-rule="evenodd" d="M12.4959 47.4165L7.25681 44.8261C5.8489 44.1348 4.80455 42.4417 4.1875 40.4661C4.66839 39.2817 5.6519 38.7481 6.48622 38.5077C6.62817 39.7109 7.44656 41.0732 8.86027 41.7707L13.3838 44.0084C12.9073 45.1023 12.6306 46.2711 12.4974 47.418L12.4959 47.4165ZM53.1139 25.5855L55.7067 26.876C56.4773 27.2537 56.6337 28.1119 56.0688 28.7782C48.4122 37.8118 40.7426 46.8453 33.083 55.8742C32.5152 56.5405 31.4231 56.773 30.6597 56.3923L23.2103 52.7127C23.3464 51.636 23.6202 50.4937 24.1069 49.314L29.7574 52.1088C30.5279 52.488 31.6143 52.2539 32.1806 51.5876L53.2168 26.7996L53.1139 25.5855Z" fill="#F08B64"/>
<path fill-rule="evenodd" clip-rule="evenodd" d="M20.2076 54.7694L17.5684 52.0339L15.1987 52.4287C14.9409 49.8726 15.2176 46.4895 17.034 43.946L22.1355 46.4693C20.2829 49.5356 20.0627 52.4474 20.2061 54.7694H20.2076Z" fill="#BFE3E7"/>
<path fill-rule="evenodd" clip-rule="evenodd" d="M16.6921 52.1806L15.1987 52.4287C14.9409 49.8726 15.2176 46.4895 17.034 43.946L18.4882 44.6654C16.9456 46.9234 16.5733 49.804 16.6907 52.1806H16.6921Z" fill="white"/>
</g>
<defs>
<clipPath id="clip0_27_3441">
<rect width="60" height="60" fill="white" transform="translate(0 0.444824)"/>
</clipPath>
</defs>
</svg>
