<svg width="31" height="31" viewBox="0 0 31 31" fill="none" xmlns="http://www.w3.org/2000/svg">
<g clip-path="url(#clip0_389_1798)">
<path d="M26.8096 4.4209H4.30957C2.93457 4.4209 1.80957 5.5459 1.80957 6.9209V21.9209C1.80957 23.2959 2.93457 24.4209 4.30957 24.4209H10.5596V25.6709C10.5596 26.3584 11.1221 26.9209 11.8096 26.9209H19.3096C19.9971 26.9209 20.5596 26.3584 20.5596 25.6709V24.4209H26.8096C28.1846 24.4209 29.3096 23.2959 29.3096 21.9209V6.9209C29.3096 5.5459 28.1846 4.4209 26.8096 4.4209ZM25.5596 21.9209H5.55957C4.87207 21.9209 4.30957 21.3584 4.30957 20.6709V8.1709C4.30957 7.4834 4.87207 6.9209 5.55957 6.9209H25.5596C26.2471 6.9209 26.8096 7.4834 26.8096 8.1709V20.6709C26.8096 21.3584 26.2471 21.9209 25.5596 21.9209ZM23.0596 10.6709H11.8096C11.1221 10.6709 10.5596 11.2334 10.5596 11.9209C10.5596 12.6084 11.1221 13.1709 11.8096 13.1709H23.0596C23.7471 13.1709 24.3096 12.6084 24.3096 11.9209C24.3096 11.2334 23.7471 10.6709 23.0596 10.6709ZM23.0596 15.6709H11.8096C11.1221 15.6709 10.5596 16.2334 10.5596 16.9209C10.5596 17.6084 11.1221 18.1709 11.8096 18.1709H23.0596C23.7471 18.1709 24.3096 17.6084 24.3096 16.9209C24.3096 16.2334 23.7471 15.6709 23.0596 15.6709ZM9.30957 10.6709H6.80957V13.1709H9.30957V10.6709ZM9.30957 15.6709H6.80957V18.1709H9.30957V15.6709Z" fill="white"/>
</g>
<defs>
<clipPath id="clip0_389_1798">
<rect width="30" height="30" fill="white" transform="translate(0.55957 0.670898)"/>
</clipPath>
</defs>
</svg>
