<svg width="60" height="61" viewBox="0 0 60 61" fill="none" xmlns="http://www.w3.org/2000/svg">
<g clip-path="url(#clip0_27_3495)">
<path fill-rule="evenodd" clip-rule="evenodd" d="M29.9991 60.7161H18.1582C15.3692 60.7161 13.1015 58.8415 13.1015 56.536V54.1896C13.1015 51.8841 15.3692 50.0095 18.1582 50.0095H20.9847V48.9279C17.7391 47.1266 13.8358 45.5168 10.6874 44.3394C8.94786 43.6887 8.56452 43.5014 7.38214 42.2028C1.874 36.151 -0.393655 28.7274 0.0544241 21.2207C0.199241 18.7927 2.40215 17.1181 5.31722 17.1181H9.07223V14.9182C9.07223 12.7169 10.5817 11.3325 14.2294 11.3325H16.6845L22.7088 8.63118C22.426 7.99318 22.2744 7.31153 22.2744 6.61156C22.2761 2.60048 26.1776 0.637192 29.9991 0.718878C33.8205 0.637192 37.722 2.60189 37.722 6.61156C37.722 7.31153 37.5721 7.99318 37.2876 8.63118L43.3119 11.3325H45.767C49.4147 11.3325 50.9242 12.7169 50.9242 14.9182V17.1181H54.6792C57.5942 17.1181 59.7972 18.7941 59.942 21.2207C60.3901 28.7274 58.1241 36.151 52.6143 42.2028C51.4319 43.5014 51.0485 43.6887 49.3091 44.3394C46.1606 45.5168 42.2573 47.1266 39.0117 48.9279V50.0095H41.8382C44.6272 50.0095 46.8949 51.8841 46.8949 54.1896V56.536C46.8949 58.8415 44.6272 60.7161 41.8382 60.7161H29.9991Z" fill="#06416D"/>
<path fill-rule="evenodd" clip-rule="evenodd" d="M13.5224 38.5946C8.90702 33.5934 7.91205 27.4204 7.73316 24.122H18.9794L13.1748 27.0613C14.0403 32.8681 17.0082 37.1355 21.2181 41.7381C17.1479 39.8677 13.5224 38.5946 13.5224 38.5946ZM46.4758 38.5946C51.0912 33.5934 52.0862 27.4204 52.2651 24.122H41.0205L46.8251 27.0613C45.9596 32.8681 42.99 37.1355 38.7818 41.7381C42.852 39.8677 46.4775 38.5946 46.4775 38.5946H46.4758ZM29.9991 20.6109H5.54558C4.89305 20.6109 4.53697 20.8236 4.5046 21.3926C4.10423 28.0965 6.08055 34.7131 10.989 40.1029C11.7352 40.924 11.5188 40.7297 12.6603 41.1578C15.3931 42.1803 22.9014 45.1436 27.2408 48.3533H32.7608C38.1344 44.376 48.3738 40.779 48.3738 40.779C53.6587 35.3651 55.8395 28.6133 55.5141 21.7489C55.4783 20.9954 55.3096 20.6109 54.0914 20.6109H29.9991ZM29.9991 37.0749L30.6687 38.7917L32.8494 38.7875L31.0827 39.8452L31.7608 41.5592L29.9991 40.4959L28.2375 41.5592L28.9138 39.8452L27.1471 38.7875L29.3278 38.7917L29.9974 37.0749H29.9991ZM18.3865 53.5023H25.4382V51.632H34.5583V53.5023H41.61C42.0666 53.5023 42.4397 53.8108 42.4397 54.1882V56.5346C42.4397 56.912 42.0666 57.2205 41.61 57.2205H18.3882C17.9316 57.2205 17.5585 56.912 17.5585 56.5346V54.1882C17.5585 53.8108 17.9316 53.5023 18.3882 53.5023H18.3865ZM29.9991 23.8671L31.8511 28.6133L37.8839 28.6035L32.996 31.5273L34.8735 36.2665L29.9991 33.3272L25.1248 36.2665L26.9989 31.5273L22.1109 28.6035L28.1455 28.6133L29.9991 23.8671Z" fill="#FEDC55"/>
<path fill-rule="evenodd" clip-rule="evenodd" d="M31.5325 48.3533H32.7592C38.1327 44.376 48.3721 40.779 48.3721 40.779C53.657 35.3651 55.8378 28.6133 55.5124 21.7489C55.4766 20.9954 55.3079 20.6109 54.0898 20.6109H42.225C42.237 21.7855 42.2063 22.9488 42.1228 24.122H52.2651C52.0879 27.4204 51.0929 33.5934 46.4758 38.5946C46.4758 38.5946 42.8486 39.8677 38.7801 41.7381C42.99 37.1355 45.9579 32.8681 46.8234 27.0613L42.0836 24.6614C41.2914 34.1891 37.3507 42.5972 31.5325 48.3533Z" fill="#DEBB28"/>
<path fill-rule="evenodd" clip-rule="evenodd" d="M34.56 53.5023H25.4399V51.632H34.56V53.5023ZM35.9195 53.5023V57.2218H41.6117C42.0683 57.2218 42.4414 56.9134 42.4414 56.536V54.1896C42.4414 53.8121 42.0683 53.5037 41.6117 53.5037H35.9195V53.5023Z" fill="#DEBB28"/>
<path fill-rule="evenodd" clip-rule="evenodd" d="M36.7391 12.455C35.4017 12.062 34.1052 11.586 32.9109 10.7748H27.0875C25.8932 11.586 24.5967 12.062 23.2593 12.455H36.7391ZM27.8917 8.5284C27.183 8.07771 26.7298 7.38761 26.7298 6.61159C26.7298 3.34977 33.2686 3.34977 33.2686 6.61159C33.2686 7.38761 32.8155 8.07771 32.1067 8.5284H27.8917Z" fill="#FEDC55"/>
<path fill-rule="evenodd" clip-rule="evenodd" d="M8.99565 30.8161C8.12335 28.1979 7.82349 25.7924 7.73319 24.122H18.9795L13.1749 27.0613C13.2993 27.8937 13.4662 28.6937 13.6741 29.4697C18.7869 27.55 22.8469 24.4164 25.0856 20.6123H5.54561C4.89309 20.6123 4.53701 20.825 4.50464 21.394C4.3036 24.7741 4.70397 28.1331 5.78243 31.3231C6.87963 31.2034 7.95127 31.033 8.99565 30.8175V30.8161ZM30.9481 4.25959C30.9652 4.43 30.9737 4.60042 30.9737 4.77506C30.9737 6.18485 30.3842 7.48338 29.3909 8.5284H27.8916C27.1829 8.07772 26.7297 7.38761 26.7297 6.61159C26.7297 4.66239 29.0672 3.87792 30.9464 4.25959H30.9481ZM14.0097 14.8253H17.579V17.4773H14.0097C13.7439 17.4773 13.5276 17.2984 13.5276 17.0787V15.2253C13.5276 15.0056 13.7456 14.8267 14.0097 14.8267V14.8253ZM45.992 14.8253H42.4227V17.4773H45.992C46.2578 17.4773 46.4741 17.2984 46.4741 17.0787V15.2253C46.4741 15.0056 46.2578 14.8267 45.992 14.8267V14.8253ZM20.8604 17.4773H24.7653V14.8253H20.8604V17.4773ZM28.0484 17.4773H31.9533V14.8253H28.0484V17.4773ZM35.2364 17.4773H39.1413V14.8253H35.2364V17.4773ZM20.3033 53.5038V57.2233H18.39C17.9334 57.2233 17.5603 56.9149 17.5603 56.5374V54.1911C17.5603 53.8136 17.9334 53.5052 18.39 53.5052H20.3033V53.5038Z" fill="white"/>
</g>
<defs>
<clipPath id="clip0_27_3495">
<rect width="60" height="60" fill="white" transform="translate(0 0.716064)"/>
</clipPath>
</defs>
</svg>
