<svg width="31" height="31" viewBox="0 0 31 31" fill="none" xmlns="http://www.w3.org/2000/svg">
<g clip-path="url(#clip0_389_1804)">
<path d="M27.6472 23.3835L21.7472 17.4835C21.1472 16.8835 20.5097 16.746 19.7722 16.746L16.5972 19.921C16.5972 20.6585 16.7347 21.3085 17.3347 21.896L23.2347 27.796C23.7222 28.2835 24.5097 28.2835 24.9972 27.796L27.6472 25.146C28.1347 24.671 28.1347 23.871 27.6472 23.3835Z" fill="white"/>
<path d="M21.3473 12.5335C21.8348 13.021 22.6223 13.021 23.1098 12.5335L23.9973 11.646L26.6473 14.296C28.1098 12.8335 28.1098 10.4585 26.6473 8.99595L23.1098 5.45845C22.6223 4.97095 21.8348 4.97095 21.3473 5.45845L20.4598 6.34595V3.17095C20.4598 2.39595 19.5098 1.98345 18.9473 2.54595L15.7723 5.72095C15.2098 6.28345 15.6223 7.23345 16.3973 7.23345H19.5723L18.6848 8.12095C18.1973 8.60845 18.1973 9.39595 18.6848 9.88345L19.1223 10.321L15.5098 13.9335L10.3723 8.77095V7.52095C10.3723 7.18345 10.2348 6.87095 10.0098 6.63345L7.48477 4.09595C6.99727 3.60845 6.20977 3.60845 5.72227 4.09595L3.94727 5.87095C3.45977 6.35845 3.45977 7.14595 3.94727 7.63345L6.47227 10.171C6.70977 10.4085 7.02227 10.5335 7.35977 10.5335H8.60977L13.7723 15.696L12.7098 16.7585H11.0848C10.4223 16.7585 9.78477 17.021 9.32227 17.496L3.42227 23.396C2.93477 23.8835 2.93477 24.671 3.42227 25.1585L6.07227 27.8085C6.55977 28.2959 7.34727 28.2959 7.83477 27.8085L13.7348 21.9085C14.2098 21.4335 14.4723 20.8085 14.4723 20.146V18.5335L20.9098 12.096L21.3473 12.5335Z" fill="white"/>
</g>
<defs>
<clipPath id="clip0_389_1804">
<rect width="30" height="30" fill="white" transform="translate(0.55957 0.670898)"/>
</clipPath>
</defs>
</svg>
