<svg width="60" height="61" viewBox="0 0 60 61" fill="none" xmlns="http://www.w3.org/2000/svg">
<g clip-path="url(#clip0_209_1057)">
<path fill-rule="evenodd" clip-rule="evenodd" d="M29.9993 60.3936H18.1584C15.3694 60.3936 13.1018 58.519 13.1018 56.2135V53.8671C13.1018 51.5616 15.3694 49.687 18.1584 49.687H20.9849V48.6054C17.7393 46.8041 13.8361 45.1943 10.6876 44.0169C8.9481 43.3662 8.56476 43.1789 7.38238 41.8803C1.87424 35.8285 -0.393411 28.4049 0.0546682 20.8982C0.199485 18.4702 2.4024 16.7956 5.31747 16.7956H9.07247V14.5957C9.07247 12.3944 10.582 11.01 14.2296 11.01H16.6847L22.7091 8.30867C22.4262 7.67067 22.2746 6.98902 22.2746 6.28905C22.2763 2.27797 26.1778 0.314682 29.9993 0.396368C33.8207 0.314682 37.7223 2.27938 37.7223 6.28905C37.7223 6.98902 37.5723 7.67067 37.2878 8.30867L43.3122 11.01H45.7673C49.4149 11.01 50.9244 12.3944 50.9244 14.5957V16.7956H54.6794C57.5945 16.7956 59.7974 18.4716 59.9422 20.8982C60.3903 28.4049 58.1244 35.8285 52.6145 41.8803C51.4321 43.1789 51.0488 43.3662 49.3093 44.0169C46.1608 45.1943 42.2576 46.8041 39.012 48.6054V49.687H41.8385C44.6275 49.687 46.8951 51.5616 46.8951 53.8671V56.2135C46.8951 58.519 44.6275 60.3936 41.8385 60.3936H29.9993Z" fill="#06416D"/>
<path fill-rule="evenodd" clip-rule="evenodd" d="M13.5227 38.2721C8.90727 33.2709 7.91229 27.098 7.7334 23.7996H18.9797L13.1751 26.7389C14.0406 32.5456 17.0085 36.813 21.2184 41.4156C17.1482 39.5453 13.5227 38.2721 13.5227 38.2721ZM46.4761 38.2721C51.0914 33.2709 52.0864 27.098 52.2653 23.7996H41.0207L46.8253 26.7389C45.9598 32.5456 42.9902 36.813 38.782 41.4156C42.8522 39.5453 46.4778 38.2721 46.4778 38.2721H46.4761ZM29.9994 20.2885H5.54582C4.8933 20.2885 4.53722 20.5011 4.50485 21.0701C4.10447 27.774 6.08079 34.3906 10.9892 39.7805C11.7354 40.6016 11.5191 40.4072 12.6606 40.8354C15.3933 41.8579 22.9016 44.8211 27.241 48.0308H32.7611C38.1346 44.0535 48.374 40.4565 48.374 40.4565C53.6589 35.0427 55.8397 28.2909 55.5143 21.4264C55.4785 20.6729 55.3099 20.2885 54.0917 20.2885H29.9994ZM29.9994 36.7525L30.6689 38.4693L32.8497 38.4651L31.0829 39.5228L31.761 41.2368L29.9994 40.1734L28.2377 41.2368L28.9141 39.5228L27.1473 38.4651L29.3281 38.4693L29.9977 36.7525H29.9994ZM18.3868 53.1799H25.4385V51.3095H34.5585V53.1799H41.6102C42.0668 53.1799 42.4399 53.4883 42.4399 53.8658V56.2121C42.4399 56.5896 42.0668 56.898 41.6102 56.898H18.3885C17.9319 56.898 17.5588 56.5896 17.5588 56.2121V53.8658C17.5588 53.4883 17.9319 53.1799 18.3885 53.1799H18.3868ZM29.9994 23.5446L31.8513 28.2909L37.8842 28.281L32.9962 31.2048L34.8737 35.9441L29.9994 33.0048L25.125 35.9441L26.9991 31.2048L22.1111 28.281L28.1457 28.2909L29.9994 23.5446Z" fill="#FEDC55"/>
<path fill-rule="evenodd" clip-rule="evenodd" d="M31.5327 48.0308H32.7594C38.1329 44.0535 48.3723 40.4565 48.3723 40.4565C53.6573 35.0427 55.838 28.2909 55.5126 21.4264C55.4768 20.6729 55.3082 20.2885 54.09 20.2885H42.2253C42.2372 21.463 42.2065 22.6264 42.1231 23.7996H52.2653C52.0881 27.098 51.0932 33.2709 46.4761 38.2721C46.4761 38.2721 42.8488 39.5453 38.7803 41.4156C42.9902 36.813 45.9581 32.5456 46.8236 26.7389L42.0839 24.339C41.2916 33.8667 37.3509 42.2747 31.5327 48.0308Z" fill="#DEBB28"/>
<path fill-rule="evenodd" clip-rule="evenodd" d="M34.56 53.1798H25.4399V51.3094H34.56V53.1798ZM35.9195 53.1798V56.8993H41.6117C42.0683 56.8993 42.4414 56.5909 42.4414 56.2134V53.8671C42.4414 53.4896 42.0683 53.1812 41.6117 53.1812H35.9195V53.1798Z" fill="#DEBB28"/>
<path fill-rule="evenodd" clip-rule="evenodd" d="M36.7391 12.1324C35.4017 11.7395 34.1052 11.2634 32.9109 10.4522H27.0875C25.8932 11.2634 24.5967 11.7395 23.2593 12.1324H36.7391ZM27.8917 8.20583C27.183 7.75514 26.7298 7.06504 26.7298 6.28902C26.7298 3.0272 33.2686 3.0272 33.2686 6.28902C33.2686 7.06504 32.8155 7.75514 32.1067 8.20583H27.8917Z" fill="#FEDC55"/>
<path fill-rule="evenodd" clip-rule="evenodd" d="M8.99565 30.4936C8.12335 27.8754 7.82349 25.4699 7.73319 23.7995H18.9795L13.1749 26.7388C13.2993 27.5712 13.4662 28.3711 13.6741 29.1472C18.7869 27.2275 22.8469 24.0939 25.0856 20.2898H5.54561C4.89309 20.2898 4.53701 20.5025 4.50464 21.0715C4.3036 24.4516 4.70397 27.8106 5.78243 31.0006C6.87963 30.8809 7.95127 30.7105 8.99565 30.495V30.4936ZM30.9481 3.93708C30.9652 4.10749 30.9737 4.27791 30.9737 4.45255C30.9737 5.86234 30.3842 7.16087 29.3909 8.20589H27.8916C27.1829 7.75521 26.7297 7.0651 26.7297 6.28908C26.7297 4.33988 29.0672 3.55541 30.9464 3.93708H30.9481ZM14.0097 14.5028H17.579V17.1548H14.0097C13.7439 17.1548 13.5276 16.9759 13.5276 16.7562V14.9028C13.5276 14.6831 13.7456 14.5042 14.0097 14.5042V14.5028ZM45.992 14.5028H42.4227V17.1548H45.992C46.2578 17.1548 46.4741 16.9759 46.4741 16.7562V14.9028C46.4741 14.6831 46.2578 14.5042 45.992 14.5042V14.5028ZM20.8604 17.1548H24.7653V14.5028H20.8604V17.1548ZM28.0484 17.1548H31.9533V14.5028H28.0484V17.1548ZM35.2364 17.1548H39.1413V14.5028H35.2364V17.1548ZM20.3033 53.1812V56.9008H18.39C17.9334 56.9008 17.5603 56.5924 17.5603 56.2149V53.8685C17.5603 53.4911 17.9334 53.1827 18.39 53.1827H20.3033V53.1812Z" fill="white"/>
</g>
<defs>
<clipPath id="clip0_209_1057">
<rect width="60" height="60" fill="white" transform="translate(0 0.393555)"/>
</clipPath>
</defs>
</svg>
