<svg width="247" height="15" viewBox="0 0 247 15" fill="none" xmlns="http://www.w3.org/2000/svg">
<path d="M43.1394 0.188993L51.9836 0.074147L38.922 14.2271L30.0779 14.342L43.1394 0.188993Z" fill="#0CFFD2"/>
<path d="M29.4305 0.188993L38.2746 0.074147L25.213 14.2271L16.3689 14.342L29.4305 0.188993Z" fill="#0CFFD2"/>
<path d="M15.7215 0.188993L24.5656 0.074147L11.504 14.2271L2.65991 14.342L15.7215 0.188993Z" fill="#0CFFD2"/>
<path d="M97.9734 0.188993L106.818 0.074147L93.756 14.2271L84.9119 14.342L97.9734 0.188993Z" fill="#0CFFD2"/>
<path d="M56.8465 0.188993L65.6906 0.074147L52.629 14.2271L43.7849 14.342L56.8465 0.188993Z" fill="#0CFFD2"/>
<path d="M111.68 0.188993L120.525 0.074147L107.463 14.2271L98.6189 14.342L111.68 0.188993Z" fill="#0CFFD2"/>
<path d="M70.5555 0.188993L79.3996 0.074147L66.338 14.2271L57.4939 14.342L70.5555 0.188993Z" fill="#0CFFD2"/>
<path d="M125.389 0.188993L134.234 0.074147L121.172 14.2271L112.328 14.342L125.389 0.188993Z" fill="#0CFFD2"/>
<path d="M84.2644 0.188993L93.1086 0.074147L80.047 14.2271L71.2029 14.342L84.2644 0.188993Z" fill="#0CFFD2"/>
<path d="M139.098 0.188993L147.943 0.074147L134.881 14.2271L126.037 14.342L139.098 0.188993Z" fill="#0CFFD2"/>
<path d="M152.807 0.188993L161.652 0.074147L148.59 14.2271L139.746 14.342L152.807 0.188993Z" fill="#0CFFD2"/>
</svg>
