<svg width="201" height="13" viewBox="0 0 201 13" fill="none" xmlns="http://www.w3.org/2000/svg">
<path d="M102.992 0.720544L110.291 0.624997L97.8821 12.3998L90.5832 12.4953L102.992 0.720544Z" fill="#0CFFD2"/>
<path d="M91.6988 0.720598L98.9977 0.62505L86.5891 12.3998L79.2902 12.4954L91.6988 0.720598Z" fill="#0CFFD2"/>
<path d="M80.4058 0.720544L87.7047 0.624997L75.2961 12.3998L67.9973 12.4953L80.4058 0.720544Z" fill="#0CFFD2"/>
<path d="M148.162 0.720598L155.461 0.62505L143.052 12.3998L135.753 12.4954L148.162 0.720598Z" fill="#0CFFD2"/>
<path d="M114.285 0.720598L121.584 0.62505L109.175 12.3998L101.876 12.4954L114.285 0.720598Z" fill="#0CFFD2"/>
<path d="M159.455 0.720544L166.754 0.624997L154.345 12.3998L147.046 12.4953L159.455 0.720544Z" fill="#0CFFD2"/>
<path d="M125.576 0.720598L132.875 0.62505L120.466 12.3998L113.167 12.4954L125.576 0.720598Z" fill="#0CFFD2"/>
<path d="M170.748 0.720598L178.046 0.62505L165.638 12.3998L158.339 12.4954L170.748 0.720598Z" fill="#0CFFD2"/>
<path d="M136.871 0.720544L144.17 0.624997L131.761 12.3998L124.462 12.4953L136.871 0.720544Z" fill="#0CFFD2"/>
<path d="M182.041 0.720598L189.339 0.62505L176.931 12.3998L169.632 12.4954L182.041 0.720598Z" fill="#0CFFD2"/>
<path d="M193.332 0.720544L200.63 0.624997L188.222 12.3998L180.923 12.4953L193.332 0.720544Z" fill="#0CFFD2"/>
</svg>
