<svg width="1096" height="21" viewBox="0 0 1096 21" fill="none" xmlns="http://www.w3.org/2000/svg">
<line x1="436" y1="9" x2="752.952" y2="9" stroke="#00BCD6" stroke-width="2"/>
<rect width="15.0511" height="29.9011" transform="matrix(1 0 -0.711865 0.702316 187.285 0)" fill="#00BCD6"/>
<rect width="15.0511" height="29.9011" transform="matrix(1 0 -0.711865 0.702316 284.469 0)" fill="#00BCD6"/>
<rect width="15.0511" height="29.9011" transform="matrix(1 0 -0.711865 0.702316 381.653 0)" fill="#00BCD6"/>
<rect width="15.0511" height="29.9011" transform="matrix(1 0 -0.711865 0.702316 211.582 0)" fill="#00BCD6"/>
<rect width="15.0511" height="29.9011" transform="matrix(1 0 -0.711865 0.702316 308.766 0)" fill="#00BCD6"/>
<rect width="15.0511" height="29.9011" transform="matrix(1 0 -0.711865 0.702316 405.949 0)" fill="#00BCD6"/>
<rect width="15.0511" height="29.9011" transform="matrix(1 0 -0.711865 0.702316 235.877 0)" fill="#00BCD6"/>
<rect width="15.0511" height="29.9011" transform="matrix(1 0 -0.711865 0.702316 333.061 0)" fill="#00BCD6"/>
<rect width="15.0511" height="29.9011" transform="matrix(1 0 -0.711865 0.702316 260.174 0)" fill="#00BCD6"/>
<rect width="15.0511" height="29.9011" transform="matrix(1 0 -0.711865 0.702316 357.357 0)" fill="#00BCD6"/>
</svg>
