<svg width="1096" height="22" viewBox="0 0 1096 22" fill="none" xmlns="http://www.w3.org/2000/svg">
<rect width="15.0511" height="29.9011" transform="matrix(1 0 -0.711865 0.702316 664.285 0.5)" fill="#00BCD6"/>
<rect width="15.0511" height="29.9011" transform="matrix(1 0 -0.711865 0.702316 761.469 0.5)" fill="#00BCD6"/>
<rect width="15.0511" height="29.9011" transform="matrix(1 0 -0.711865 0.702316 858.653 0.5)" fill="#00BCD6"/>
<rect width="15.0511" height="29.9011" transform="matrix(1 0 -0.711865 0.702316 688.582 0.5)" fill="#00BCD6"/>
<rect width="15.0511" height="29.9011" transform="matrix(1 0 -0.711865 0.702316 785.766 0.5)" fill="#00BCD6"/>
<rect width="15.0511" height="29.9011" transform="matrix(1 0 -0.711865 0.702316 882.949 0.5)" fill="#00BCD6"/>
<rect width="15.0511" height="29.9011" transform="matrix(1 0 -0.711865 0.702316 712.877 0.5)" fill="#00BCD6"/>
<rect width="15.0511" height="29.9011" transform="matrix(1 0 -0.711865 0.702316 810.061 0.5)" fill="#00BCD6"/>
<rect width="15.0511" height="29.9011" transform="matrix(1 0 -0.711865 0.702316 737.174 0.5)" fill="#00BCD6"/>
<rect width="15.0511" height="29.9011" transform="matrix(1 0 -0.711865 0.702316 834.357 0.5)" fill="#00BCD6"/>
</svg>
