<svg width="736" height="21" viewBox="0 0 736 21" fill="none" xmlns="http://www.w3.org/2000/svg">
<rect width="15.0511" height="29.9011" transform="matrix(1 0 -0.711865 0.702316 484.035 0)" fill="#00BCD6"/>
<rect width="15.0511" height="29.9011" transform="matrix(1 0 -0.711865 0.702316 581.219 0)" fill="#00BCD6"/>
<rect width="15.0511" height="29.9011" transform="matrix(1 0 -0.711865 0.702316 678.403 0)" fill="#00BCD6"/>
<rect width="15.0511" height="29.9011" transform="matrix(1 0 -0.711865 0.702316 508.332 0)" fill="#00BCD6"/>
<rect width="15.0511" height="29.9011" transform="matrix(1 0 -0.711865 0.702316 605.516 0)" fill="#00BCD6"/>
<rect width="15.0511" height="29.9011" transform="matrix(1 0 -0.711865 0.702316 702.699 0)" fill="#00BCD6"/>
<rect width="15.0511" height="29.9011" transform="matrix(1 0 -0.711865 0.702316 532.627 0)" fill="#00BCD6"/>
<rect width="15.0511" height="29.9011" transform="matrix(1 0 -0.711865 0.702316 629.811 0)" fill="#00BCD6"/>
<rect width="15.0511" height="29.9011" transform="matrix(1 0 -0.711865 0.702316 556.924 0)" fill="#00BCD6"/>
<rect width="15.0511" height="29.9011" transform="matrix(1 0 -0.711865 0.702316 654.107 0)" fill="#00BCD6"/>
</svg>
