<svg width="737" height="21" viewBox="0 0 737 21" fill="none" xmlns="http://www.w3.org/2000/svg">
<path d="M434.885 9L572.885 9" stroke="#00BCD6" stroke-width="2"/>
<rect width="15.0511" height="29.9011" transform="matrix(1 0 -0.711865 0.702316 186.17 0)" fill="#00BCD6"/>
<rect width="15.0511" height="29.9011" transform="matrix(1 0 -0.711865 0.702316 283.354 0)" fill="#00BCD6"/>
<rect width="15.0511" height="29.9011" transform="matrix(1 0 -0.711865 0.702316 380.538 0)" fill="#00BCD6"/>
<rect width="15.0511" height="29.9011" transform="matrix(1 0 -0.711865 0.702316 210.467 0)" fill="#00BCD6"/>
<rect width="15.0511" height="29.9011" transform="matrix(1 0 -0.711865 0.702316 307.65 0)" fill="#00BCD6"/>
<rect width="15.0511" height="29.9011" transform="matrix(1 0 -0.711865 0.702316 404.834 0)" fill="#00BCD6"/>
<rect width="15.0511" height="29.9011" transform="matrix(1 0 -0.711865 0.702316 234.762 0)" fill="#00BCD6"/>
<rect width="15.0511" height="29.9011" transform="matrix(1 0 -0.711865 0.702316 331.945 0)" fill="#00BCD6"/>
<rect width="15.0511" height="29.9011" transform="matrix(1 0 -0.711865 0.702316 259.059 0)" fill="#00BCD6"/>
<rect width="15.0511" height="29.9011" transform="matrix(1 0 -0.711865 0.702316 356.242 0)" fill="#00BCD6"/>
</svg>
