<svg width="32" height="32" viewBox="0 0 32 32" fill="none" xmlns="http://www.w3.org/2000/svg">
<g clip-path="url(#clip0_214_2262)">
<path d="M25.8797 9.87996L19.4397 3.43996C18.9463 2.94663 18.2663 2.66663 17.5597 2.66663H7.99967C6.53301 2.66663 5.33301 3.86663 5.33301 5.33329V26.6666C5.33301 28.1333 6.53301 29.3333 7.99967 29.3333H23.9997C25.4663 29.3333 26.6663 28.1333 26.6663 26.6666V11.7733C26.6663 11.0666 26.3863 10.3866 25.8797 9.87996ZM20.9863 24.9866C20.4663 25.5066 19.6263 25.5066 19.1063 24.9866L17.533 23.4133C15.7597 24.36 13.5197 24.12 12.0263 22.6266C9.99968 20.6 10.2263 17.1866 12.693 15.4666C14.2397 14.3866 16.3997 14.3866 17.9597 15.4666C20.0263 16.9066 20.493 19.52 19.413 21.5333L20.9863 23.1066C21.5063 23.6266 21.5063 24.4666 20.9863 24.9866ZM18.6663 12C17.933 12 17.333 11.4 17.333 10.6666V4.66663L24.6663 12H18.6663Z" fill="#3684BE"/>
<path d="M15.333 21.3333C16.4376 21.3333 17.333 20.4378 17.333 19.3333C17.333 18.2287 16.4376 17.3333 15.333 17.3333C14.2284 17.3333 13.333 18.2287 13.333 19.3333C13.333 20.4378 14.2284 21.3333 15.333 21.3333Z" fill="#3684BE"/>
</g>
<defs>
<clipPath id="clip0_214_2262">
<rect width="32" height="32" fill="white"/>
</clipPath>
</defs>
</svg>
