<svg width="32" height="32" viewBox="0 0 32 32" fill="none" xmlns="http://www.w3.org/2000/svg">
<g clip-path="url(#clip0_214_2273)">
<path d="M22.667 9.33337H18.667C17.9337 9.33337 17.3337 9.93337 17.3337 10.6667C17.3337 11.4 17.9337 12 18.667 12H22.667C24.867 12 26.667 13.8 26.667 16C26.667 18.2 24.867 20 22.667 20H18.667C17.9337 20 17.3337 20.6 17.3337 21.3334C17.3337 22.0667 17.9337 22.6667 18.667 22.6667H22.667C26.347 22.6667 29.3337 19.68 29.3337 16C29.3337 12.32 26.347 9.33337 22.667 9.33337ZM10.667 16C10.667 16.7334 11.267 17.3334 12.0003 17.3334H20.0003C20.7337 17.3334 21.3337 16.7334 21.3337 16C21.3337 15.2667 20.7337 14.6667 20.0003 14.6667H12.0003C11.267 14.6667 10.667 15.2667 10.667 16ZM13.3337 20H9.33366C7.13366 20 5.33366 18.2 5.33366 16C5.33366 13.8 7.13366 12 9.33366 12H13.3337C14.067 12 14.667 11.4 14.667 10.6667C14.667 9.93337 14.067 9.33337 13.3337 9.33337H9.33366C5.65366 9.33337 2.66699 12.32 2.66699 16C2.66699 19.68 5.65366 22.6667 9.33366 22.6667H13.3337C14.067 22.6667 14.667 22.0667 14.667 21.3334C14.667 20.6 14.067 20 13.3337 20Z" fill="#3684BE"/>
</g>
<defs>
<clipPath id="clip0_214_2273">
<rect width="32" height="32" fill="white"/>
</clipPath>
</defs>
</svg>
