<svg width="135" height="27" viewBox="0 0 135 27" fill="none" xmlns="http://www.w3.org/2000/svg">
<g clip-path="url(#clip0_207_7613)">
<path d="M40.4615 3.86947C40.4615 3.86947 39.9237 4.00514 39.9353 4.15546C39.947 4.30577 39.9353 7.67117 39.9353 7.67117C39.9353 7.67117 39.8591 7.74183 40.1612 7.74183C40.6985 7.68311 41.2423 7.78224 41.7128 8.0246C42.1833 8.26696 42.5555 8.63973 42.7747 9.08813C42.8867 9.63165 42.9213 10.186 42.8777 10.7375V26.5H50.7566V0.5H46.0865C44.5316 2.01016 42.6039 3.16489 40.4615 3.86947Z" fill="#FF0001"/>
<path d="M27.152 3.86947C27.152 3.86947 26.6141 4.00514 26.6302 4.15546C26.6463 4.30577 26.6302 7.67117 26.6302 7.67117C26.6302 7.67117 26.5486 7.74183 26.8498 7.74183C27.3867 7.68218 27.9304 7.78094 28.4003 8.02346C28.8703 8.26598 29.2415 8.63932 29.4588 9.08813C29.5715 9.63156 29.6083 10.1857 29.5682 10.7375V26.5H37.4471V0.5H32.7707C31.2193 2.01116 29.2933 3.16613 27.152 3.86947Z" fill="#FF0001"/>
<path d="M13.839 3.86947C13.839 3.86947 13.3082 4.00514 13.3172 4.15546C13.3262 4.30577 13.3172 7.67117 13.3172 7.67117C13.3172 7.67117 13.2409 7.74183 13.543 7.74183C14.0803 7.68297 14.6243 7.78203 15.0948 8.0244C15.5653 8.26677 15.9375 8.63965 16.1566 9.08813C16.2643 9.6321 16.3014 10.1857 16.2668 10.7375V26.5H24.1466V0.5H19.4684C17.9129 2.01143 15.9834 3.16633 13.839 3.86947Z" fill="#FF0001"/>
<path d="M0.532779 3.86947C0.532779 3.86947 0.00291025 4.00514 0.0100827 4.15546C0.0172551 4.30577 0.0100827 7.67117 0.0100827 7.67117C0.0100827 7.67117 -0.0733133 7.74183 0.239584 7.74183C0.775689 7.68384 1.31818 7.78333 1.7872 8.02569C2.25624 8.26806 2.62701 8.64047 2.84496 9.08813C2.96294 9.63102 2.99974 10.1858 2.95435 10.7375V26.5H10.8386V0.5H6.16222C4.60599 2.0106 2.67676 3.16535 0.532779 3.86947Z" fill="#FF0001"/>
</g>
<path d="M67.702 6.173C67.645 9.061 67.759 18.295 59.874 22.285C60.311 22.57 60.767 23.007 61.014 23.387C65.65 20.917 67.664 16.661 68.538 12.861C69.45 16.395 71.483 21.088 76.233 23.311C76.442 22.912 76.86 22.437 77.259 22.114C70.552 19.131 69.412 11.189 69.127 8.928C69.222 7.807 69.241 6.857 69.26 6.173H67.702ZM87.272 10.239C87.272 9.954 87.272 9.688 87.272 9.422V6.135H85.809V9.422C85.809 9.688 85.809 9.954 85.809 10.239H79.653V11.645H85.733C85.448 15.198 84.232 19.359 79.083 22.418C79.425 22.646 79.938 23.197 80.166 23.539C85.676 20.176 86.93 15.578 87.196 11.645H93.675C93.314 18.333 92.896 21.012 92.212 21.658C91.984 21.886 91.737 21.943 91.338 21.943C90.863 21.943 89.647 21.924 88.355 21.81C88.64 22.228 88.811 22.836 88.83 23.254C89.989 23.33 91.205 23.368 91.87 23.311C92.592 23.235 93.048 23.083 93.485 22.551C94.321 21.601 94.72 18.77 95.138 10.98C95.157 10.771 95.176 10.239 95.176 10.239H87.272ZM102.339 20.613V15.445H104.98V14.191H102.339V12.139H104.315V10.904H99.565C100.401 10.125 101.218 9.232 101.902 8.263C102.947 9.118 104.068 10.144 104.752 10.904L105.626 9.897C104.904 9.156 103.726 8.111 102.605 7.237C102.757 7.009 102.871 6.781 102.985 6.572L101.788 6.135C100.857 7.883 99.261 9.517 97.703 10.581C97.912 10.904 98.254 11.626 98.349 11.911C98.634 11.702 98.919 11.474 99.204 11.227V12.139H101.085V14.191H98.197V15.445H101.085V20.86C99.926 21.107 98.824 21.335 97.988 21.487L98.368 22.836C100.23 22.418 102.795 21.791 105.208 21.221L105.075 20.024L102.339 20.613ZM98.691 16.68C99.033 17.82 99.375 19.283 99.47 20.233L100.515 19.948C100.401 18.998 100.059 17.554 99.679 16.433L98.691 16.68ZM103.707 19.929C104.068 19.055 104.486 17.649 104.847 16.509L103.745 16.167C103.555 17.193 103.137 18.713 102.814 19.625L103.707 19.929ZM107.564 11.645H112.884V14.001H107.564V11.645ZM112.884 8.187V10.467H107.564V8.187H112.884ZM114.081 15.844C113.416 16.509 112.352 17.326 111.44 17.934C111.003 17.117 110.661 16.205 110.395 15.255H114.252V6.952H106.196V21.145C106.196 21.848 105.759 22.152 105.436 22.285C105.645 22.57 105.854 23.159 105.93 23.501C106.291 23.235 106.88 23.026 110.851 21.791C110.794 21.468 110.718 20.917 110.718 20.537L107.564 21.43V15.255H109.16C110.053 18.808 111.725 21.772 114.328 23.235C114.537 22.874 114.974 22.304 115.297 22.057C113.967 21.392 112.865 20.328 112.01 18.96C112.979 18.39 114.138 17.573 115.031 16.832L114.081 15.844ZM133.537 7.256H124.265V8.586H133.537V7.256ZM121.092 6.097C120.142 7.446 118.318 9.156 116.741 10.22C116.988 10.486 117.368 11.037 117.577 11.341C119.268 10.144 121.206 8.301 122.441 6.629L121.092 6.097ZM121.871 10.144C120.56 12.291 118.508 14.476 116.551 15.863C116.836 16.148 117.33 16.756 117.539 17.041C118.242 16.49 118.964 15.806 119.686 15.065V23.501H121.092V13.507C121.871 12.576 122.593 11.607 123.182 10.638L121.871 10.144ZM134.088 12.443H123.448V13.792H129.794V21.62C129.794 21.943 129.68 22.019 129.319 22.038C128.958 22.057 127.704 22.057 126.355 22.019C126.564 22.418 126.754 23.007 126.811 23.387C128.673 23.387 129.737 23.387 130.383 23.178C131.01 22.95 131.219 22.513 131.219 21.639V13.792H134.088V12.443Z" fill="white"/>
<defs>
<clipPath id="clip0_207_7613">
<rect width="51" height="26" fill="white" transform="translate(0 0.5)"/>
</clipPath>
</defs>
</svg>
