<svg width="128" height="145" viewBox="0 0 128 145" fill="none" xmlns="http://www.w3.org/2000/svg">
<path d="M4.17496 70.5883C4.17496 70.5883 4.17496 70.7372 4.17496 70.8364C4.72485 77.8345 6.17455 83.7408 8.824 89.9448C8.824 90.044 8.824 90.1433 8.824 90.2425C8.07415 92.8234 7.8242 93.8657 7.67423 94.6102V94.8583C7.67423 94.8583 7.62424 94.908 7.57426 94.9576C14.0229 107.514 24.6207 117.59 37.0681 123.446C37.1181 123.446 37.1681 123.347 37.2681 123.347C39.4676 122.752 40.0675 122.603 41.8671 121.957C41.9671 121.957 42.1171 121.957 42.217 121.957C43.5668 122.503 45.7663 123.198 47.366 123.695C65.7621 128.807 84.9581 125.332 100.005 114.116C115.052 102.948 123.8 85.726 124 67.0148C123.8 66.8162 124.8 56.1453 119.201 43.0425C119.201 42.9432 119.201 42.844 119.201 42.7447C119.951 40.1638 120.201 39.1216 120.351 38.3771V38.1289C120.351 38.1289 120.401 38.0793 120.451 38.0296C114.002 25.4727 103.404 15.3974 90.9569 9.54086C90.9069 9.54086 90.8569 9.64013 90.7569 9.64013C88.6074 10.1861 88.0575 10.3846 86.1579 11.0298C86.0579 11.0298 85.9079 11.0298 85.808 11.0298C79.6592 8.44896 70.6111 6.86074 62.7628 7.00963C30.1695 7.80374 4.37492 33.7117 4.02499 65.9725C4.02499 66.171 3.92502 68.4541 4.12497 70.489C4.12497 70.489 4.12497 70.5386 4.12497 70.5883H4.17496Z" fill="url(#paint0_linear_432_1513)"/>
<path d="M11.4045 29.8347C10.5541 31.0182 9.75381 32.251 8.9535 33.5332C8.75342 32.251 8.65338 30.9689 8.55334 29.7361L8.4533 28.4046L6.6526 31.1662V31.3141C6.80266 32.8921 7.25283 35.6537 7.35287 36.1961V36.2948C6.6526 37.5769 6.00235 38.9084 5.40211 40.2398C4.90192 38.3166 4.75186 37.4783 4.6018 36.7879L4.30168 35.2099L3.65143 36.492C3.35131 37.0838 3.1679 37.429 3.10121 37.5276C3.10121 37.5276 3.00117 37.7248 2.90113 37.9714V38.1194V38.2673C3.50137 40.8316 3.70145 41.522 4.05158 42.6069L4.20164 43.1493C1.95076 48.9683 0.500195 55.2312 0 61.7405C0 61.8392 7.45058e-09 61.9378 0.100039 62.0364L0.300117 62.283C0.750293 62.9241 1.30051 63.7131 3.10121 65.8336C3.20125 65.9815 3.45135 66.0308 3.60141 65.9815C3.80149 65.9322 3.90152 65.7349 3.90152 65.5377C4.20164 33.4839 30.0117 7.74222 62.6245 6.90389C70.4775 6.75595 79.5311 8.33399 85.6835 10.8983C85.7835 10.8983 85.8835 10.8983 86.0336 10.8983C87.9343 10.2572 88.4846 10.1093 90.6354 9.51751C90.6854 9.51751 90.7354 9.4682 90.8355 9.41888C103.34 15.2872 113.945 25.2485 120.347 37.7248C120.347 37.7248 120.347 37.7742 120.347 37.8235V38.07C120.147 38.8097 119.897 39.8453 119.147 42.4096C119.147 42.5083 119.147 42.6069 119.147 42.7055C121.798 48.8697 123.298 54.9846 123.848 61.9378C123.848 62.0364 123.898 62.135 123.998 62.2337L124.199 62.4309C124.699 62.9241 125.399 63.6638 127.2 65.7349C127.35 65.8829 127.55 65.9322 127.7 65.8829C127.9 65.8336 128 65.6363 128 65.4391C127.95 58.3379 126.649 51.3354 124.299 44.826C124.299 44.826 124.299 44.826 124.299 44.7767C124.649 43.7411 125.399 41.2754 125.749 40.0426C125.749 39.944 125.749 39.8453 125.749 39.7467C120.747 28.2567 112.344 18.2953 101.49 10.9476C96.1876 7.59428 93.9367 6.41076 87.4342 3.84646C83.4826 2.41636 76.5799 0.542449 69.6772 0C69.5772 0 69.4771 0 69.4271 0.0986271C67.2763 1.47941 66.676 1.92323 65.7757 2.61362L65.3255 2.95881C64.9254 2.95881 64.5252 2.95881 64.1251 2.95881C62.7745 2.95881 61.374 2.95881 59.9734 3.10675C52.1204 3.59989 44.3673 5.57243 37.1645 8.82712H37.0145C35.764 8.43261 33.163 7.98879 32.1125 7.79154H31.9625L31.8124 7.84085C25.2098 11.4901 21.2083 14.6954 16.9066 18.7391L16.8066 18.8378V18.9857C16.5565 20.2679 16.3064 23.6212 16.3064 23.9171C15.306 25.002 14.3556 26.1362 13.4553 27.2704C13.4553 26.1362 13.4553 24.854 13.5053 23.5226V22.1911L12.4048 23.5226C12.0547 23.9171 12.0547 23.9171 11.8046 24.2623L11.4545 24.7061V24.854C11.4545 27.369 11.4545 28.0594 11.5545 29.2429V29.7854L11.4045 29.8347Z" fill="url(#paint1_linear_432_1513)"/>
<path d="M58 0.818965V0C53.4937 0.215517 45.3924 1.63793 38 4.26724L38.3544 5C45.5949 2.41379 53.5949 1.03448 58 0.818965Z" fill="url(#paint2_linear_432_1513)"/>
<path d="M114.202 34L115 33.5165C110.162 26.1196 103.379 19.7379 95.4988 15L95 15.7735C102.781 20.4148 109.464 26.7481 114.202 34Z" fill="#DEEB7B"/>
<path d="M128 70.9432L127.85 70.6968C127.349 70.0067 126.799 69.2181 125.047 67.1479C124.946 67.0493 124.846 67 124.696 67C124.646 67 124.596 67 124.546 67C124.346 67.0493 124.246 67.2465 124.246 67.4436C124.045 86.0754 115.285 103.13 100.217 114.22C85.1498 125.311 65.9773 128.81 47.5057 123.733C45.9038 123.29 43.7012 122.6 42.3496 122.008C42.2495 122.008 42.1494 122.008 41.9992 122.008C40.1971 122.6 39.6465 122.797 37.3938 123.388C37.3438 123.388 37.2937 123.438 37.1936 123.487C24.6789 117.621 14.0665 107.665 7.65898 95.1942C7.65898 95.1942 7.65898 95.1449 7.65898 95.0956V94.8491C7.85921 94.1098 8.1095 93.0747 8.86038 90.5116C8.86038 90.413 8.86038 90.3144 8.86038 90.2158C6.15722 83.9559 4.70551 78.0411 4.15487 70.9925C4.15487 70.8939 4.10481 70.7954 4.00469 70.6968L3.80446 70.4996C3.30387 70.0067 2.60305 69.3167 0.800939 67.1972C0.700821 67.0986 0.600704 67.0493 0.450528 67.0493C0.400469 67.0493 0.350411 67.0493 0.300352 67.0493C0.100117 67.0986 0 67.2957 0 67.4929C0.0500587 74.4922 1.35158 81.59 3.70434 88.0963C3.70434 88.0963 3.70434 88.0963 3.70434 88.1949C3.35393 89.1314 2.60305 91.596 2.25264 92.9268C2.25264 93.0254 2.25264 93.124 2.25264 93.2226C11.964 115.453 33.9398 131.078 58.2683 133C58.3684 133 58.4685 133 58.5686 132.951C60.7212 131.571 61.3219 131.127 62.2229 130.437L62.6735 130.092C70.783 130.289 78.7423 128.958 86.2511 126.198C87.853 125.557 89.4048 124.966 90.9065 124.276H91.0067C92.2581 124.621 94.8612 125.114 95.9124 125.311H96.0626L96.2128 125.261C102.821 121.663 106.975 118.311 111.13 114.368L111.23 114.27V114.122C111.481 112.84 111.681 110.228 111.731 109.193V109.094C112.732 107.96 113.683 106.827 114.584 105.644C114.584 107.172 114.584 108.355 114.534 109.538V110.869L115.636 109.538C115.986 109.143 115.986 109.143 116.236 108.798L116.587 108.355V108.207C116.587 105.693 116.587 104.954 116.487 103.82V103.13C117.287 101.947 118.088 100.715 118.889 99.4825C119.09 100.813 119.19 102.095 119.29 103.327L119.39 104.658L121.192 101.898V101.75C121.042 100.173 120.591 97.4122 120.491 96.8701V96.7222C121.192 95.4406 121.843 94.1591 122.443 92.8282C122.944 94.7506 123.094 95.5392 123.244 96.2786L123.545 97.8559L124.196 96.5743C124.496 95.9828 124.663 95.6378 124.696 95.5392C124.696 95.5392 124.796 95.3421 124.896 95.0463V94.8984V94.7506C124.296 92.1875 124.095 91.4974 123.745 90.413L123.595 89.9201C125.898 84.1038 127.299 77.9918 127.8 71.3376C127.8 71.239 127.8 71.1404 127.7 71.0418L128 70.9432Z" fill="url(#paint3_linear_432_1513)"/>
<path d="M70 132.069V133C74.5063 132.741 82.6076 131.034 90 127.879L89.6456 127C82.4051 130.103 74.4051 131.759 70 132.017V132.069Z" fill="url(#paint4_linear_432_1513)"/>
<path d="M13 99.4835C17.8379 106.88 24.6209 113.262 32.5012 118L33 117.226C25.2195 112.585 18.5362 106.252 13.798 99L13 99.4835Z" fill="url(#paint5_linear_432_1513)"/>
<path d="M44.0441 55.84H53.5361V57.268H44.0441V55.84ZM44.0441 52.312H53.5361V53.712H44.0441V52.312ZM40.7401 50.1V59.48H57.0361V50.1H40.7401ZM36.4561 41.364V44.248H61.5441V41.364H36.4561ZM47.2081 38.228V49.316H50.5401V38.228H47.2081ZM45.6681 42.26C43.6521 45.228 39.7041 47.9719 35.6441 49.26C36.3441 49.904 37.3241 51.136 37.8001 51.948C42.0841 50.268 46.0601 47.076 48.4681 43.324L45.6681 42.26ZM51.9401 42.232L49.2241 43.268C51.6881 46.992 55.7481 50.156 60.0601 51.752C60.5361 50.912 61.5161 49.624 62.2441 49.008C58.0721 47.776 53.9841 45.1439 51.9401 42.232ZM36.7081 60.768V63.736H61.3201V60.768H36.7081Z" fill="url(#paint6_linear_432_1513)"/>
<path d="M81.2281 51.836V54.244H86.8001V51.836H81.2281ZM81.5641 42.344V45.424H91.6721V42.344H81.5641ZM81.5641 47.608V50.156H85.5401V56.036H81.5641V58.584H88.3681V47.608H81.5641ZM79.7161 47.608V59.844H82.5441V47.608H79.7161ZM90.6081 42.344V43.044C90.4401 55.168 90.2441 60.012 89.4601 60.936C89.1521 61.328 88.8441 61.412 88.3401 61.412C87.6121 61.412 86.1281 61.412 84.4481 61.3C85.0081 62.168 85.4281 63.568 85.4841 64.436C87.0801 64.52 88.7321 64.548 89.7681 64.38C90.8881 64.212 91.6161 63.876 92.3441 62.812C93.3801 61.356 93.5761 56.904 93.8001 43.912C93.8001 43.492 93.8001 42.344 93.8001 42.344H90.6081ZM81.7601 38.2C80.8081 41.784 79.0441 45.34 76.8321 47.496C77.6161 48.028 79.0161 49.176 79.6041 49.792C81.9001 47.216 83.9441 43.156 85.1481 38.984L81.7601 38.2ZM69.3001 46.8239V49.344H77.5041V46.8239H69.3001ZM69.3841 39.096V41.644H77.4201V39.096H69.3841ZM69.3001 50.632V53.18H77.5041V50.632H69.3001ZM68.0121 42.876V45.536H78.2321V42.876H68.0121ZM70.7561 54.524V57.184H74.7321V60.376H70.7561V63.036H77.5321V54.524H70.7561ZM69.2441 54.524V64.156H71.9881V54.524H69.2441Z" fill="url(#paint7_linear_432_1513)"/>
<path d="M35.8681 74.1039C40.0681 77.9959 40.7401 82.2239 40.7401 87.4599C40.7401 90.9319 40.5441 94.096 39.9561 94.852C39.7601 95.132 39.5081 95.2719 39.1161 95.3279C38.6121 95.3839 37.7721 95.3839 36.5961 95.2999C37.1561 96.2239 37.4081 97.428 37.4081 98.492C38.5561 98.548 39.6761 98.52 40.6841 98.268C41.3561 98.128 41.9721 97.7359 42.3921 97.1759C43.6521 95.4399 43.9041 91.4639 43.9041 87.5159C43.9041 81.9719 43.2601 76.932 38.2201 72.368L35.8681 74.1039ZM40.9921 82.672C39.8441 85.052 37.5201 87.7959 35.4761 89.1679C36.2041 89.7839 37.1281 90.8759 37.6321 91.66C39.7321 89.8679 42.1401 86.7039 43.4001 84.0999L40.9921 82.672ZM42.1401 72.5079C40.6841 75.42 38.1361 78.6119 35.5041 80.5719C36.2321 81.1039 37.2961 82.084 37.7721 82.756C40.5161 80.572 43.2321 77.2959 45.0801 73.9359L42.1401 72.5079ZM44.8841 74.1039V76.596H61.8521V74.1039H44.8841ZM46.3961 87.04V89.028H61.7121V87.04H46.3961ZM45.4721 89.924V92.304H58.8001V89.924H45.4721ZM47.5161 81.916V83.484H60.1721V81.916H47.5161ZM47.5161 84.464V86.032H60.2001V84.464H47.5161ZM48.4401 72.1439V77.716H51.4641V72.1439H48.4401ZM52.5001 80.068V88.104H55.4401V80.068H52.5001ZM55.0201 72.1439V77.716H58.0721V72.1439H55.0201ZM47.4041 76.9039C46.5641 79.0039 45.0801 81.0479 43.4001 82.3639C43.9881 82.8679 44.9401 83.96 45.3321 84.492C47.1801 82.84 48.9721 80.2639 50.0361 77.632L47.4041 76.9039ZM46.3961 80.88V88.4959H49.2801V79.5079L46.3961 80.88ZM47.7401 79.0039L46.7321 81.02H60.9281V79.0039H47.7401ZM53.2281 77.1559C53.0601 77.9119 52.6401 79.0039 52.3041 79.8159L54.8241 80.3479C55.2721 79.676 55.8321 78.7519 56.4201 77.688L53.2281 77.1559ZM58.0161 89.924V90.3439C55.8881 93.9559 50.2881 95.496 43.8201 96C44.2961 96.616 44.9681 97.876 45.2201 98.576C52.0241 97.764 58.1841 95.748 60.9561 90.9319L59.1641 89.868L58.6321 89.924H58.0161ZM50.3161 91.9679L47.6281 92.9199C50.3721 96.1399 55.0201 97.904 60.7041 98.548C61.0961 97.764 61.8801 96.532 62.5241 95.916C57.1761 95.524 52.5001 94.2919 50.3161 91.9679Z" fill="url(#paint8_linear_432_1513)"/>
<path d="M68.4321 90.0639V92.8079H93.9401V90.0639H68.4321ZM83.1041 90.9879L79.8001 91.464C82.0121 96.168 85.5401 97.988 92.8481 98.492C93.2121 97.54 94.0521 96.1399 94.7521 95.4399C88.3401 95.2999 84.7001 94.2079 83.1041 90.9879ZM84.6161 89.1399C86.4921 89.6439 88.9841 90.5399 90.2721 91.1559L91.7001 89.028C90.3561 88.44 87.8081 87.628 85.9881 87.236L84.6161 89.1399ZM78.2041 80.9079V83.2319H94.3881V80.9079H78.2041ZM87.5001 79.0879V84.7999C87.5001 85.1079 87.3601 85.192 87.0241 85.192C86.6881 85.22 85.4561 85.22 84.3641 85.192C84.7281 85.864 85.1201 86.8439 85.2601 87.6279C87.0801 87.6279 88.3961 87.6279 89.4041 87.264C90.3841 86.9 90.6641 86.2559 90.6641 84.9119V79.0879H87.5001ZM68.0961 80.5439V83.1759H75.9361V80.5439H68.0961ZM74.2841 72.2V88.3279H77.3361V72.2H74.2841ZM69.3841 73.0119V79.0879H76.0201V76.5119H72.1841V73.0119H69.3841ZM79.8841 84.1279C80.8641 84.9959 81.9561 86.256 82.3761 87.096L84.7561 85.6959C84.2521 84.8279 83.1041 83.652 82.1241 82.84L79.8841 84.1279ZM79.2401 76.3439C80.3881 77.0999 81.7321 78.2199 82.3761 79.0039L84.2521 78.276C83.5801 77.464 82.2081 76.3439 81.0601 75.6439L79.2401 76.3439ZM82.0961 75.3079C83.5241 76.0359 85.2041 77.1839 85.9881 78.0519L87.6681 77.1559C86.8001 76.2879 85.0921 75.1679 83.6641 74.4959L82.0961 75.3079ZM90.4401 73.5439V73.9079C88.5361 77.0159 83.6361 78.4719 78.3161 78.9759C78.7641 79.5079 79.3521 80.432 79.5761 81.048C85.5401 80.292 90.8041 78.5839 93.2401 74.2999L91.5041 73.4599L90.9721 73.5439H90.4401ZM85.5401 72.2C83.9721 73.572 81.1441 74.748 77.2521 75.532C77.8121 75.952 78.5401 76.8479 78.8761 77.4639C83.0481 76.3159 86.0721 74.888 88.2841 72.8159L85.5401 72.2ZM84.9241 73.5439L82.4321 75.3639H91.3081V73.5439H84.9241ZM69.7761 81.916V83.2319C69.7761 84.2119 69.5241 86.3119 67.9281 87.5719C68.6561 87.9079 69.9161 88.552 70.4761 89C72.3521 87.4319 72.7161 84.6319 72.7161 83.3159V81.916H69.7761ZM79.2681 87.4319V89.896C79.2681 92.08 77.7561 94.656 67.7601 95.832C68.3761 96.56 69.2161 97.792 69.5801 98.576C80.8081 97.176 82.6001 93.3679 82.6001 89.9799V87.4319H79.2681Z" fill="url(#paint9_linear_432_1513)"/>
<g clip-path="url(#clip0_432_1513)">
<path d="M29.1292 122.083C18.5117 122.769 9.34559 114.758 8.66366 104.197C7.98174 93.6365 16.0415 84.5133 26.659 83.8277C37.2764 83.1422 46.4425 91.1531 47.1245 101.714C47.8064 112.275 39.7553 121.397 29.1292 122.083ZM26.4515 80.6151C14.0572 81.4154 4.64594 92.0684 5.44199 104.397C6.23859 116.734 16.9418 126.088 29.3355 125.279C41.7385 124.478 51.1411 113.825 50.345 101.497C49.5577 89.1684 38.8545 79.8142 26.4515 80.6151Z" fill="url(#paint10_linear_432_1513)"/>
<path d="M42.8429 119.668L46.5038 122.868L50.1487 118.742L46.4879 115.542C45.4433 117.061 44.2229 118.442 42.8429 119.668Z" fill="url(#paint11_linear_432_1513)"/>
<path d="M44.7374 123.821L50.7684 117.172C50.7684 117.172 67.9671 132.244 68.5327 132.837C72.0344 136.02 70.5593 138.223 69.4772 139.569C68.5005 140.777 66.0921 142.41 61.5017 138.563C56.9112 134.715 44.7287 123.821 44.7287 123.821L44.7374 123.821Z" fill="url(#paint12_linear_432_1513)"/>
<g filter="url(#filter0_b_432_1513)">
<path d="M47.2813 101.843C47.9653 112.436 39.8976 121.579 29.2615 122.266C18.6255 122.953 9.44879 114.923 8.76481 104.33C8.08084 93.7376 16.1486 84.5939 26.7846 83.9071C37.4207 83.2203 46.5974 91.2506 47.2813 101.843Z" fill="white" fill-opacity="0.1"/>
</g>
</g>
<defs>
<filter id="filter0_b_432_1513" x="-0.275879" y="74.8661" width="56.5977" height="56.4412" filterUnits="userSpaceOnUse" color-interpolation-filters="sRGB">
<feFlood flood-opacity="0" result="BackgroundImageFix"/>
<feGaussianBlur in="BackgroundImageFix" stdDeviation="4.5"/>
<feComposite in2="SourceAlpha" operator="in" result="effect1_backgroundBlur_432_1513"/>
<feBlend mode="normal" in="SourceGraphic" in2="effect1_backgroundBlur_432_1513" result="shape"/>
</filter>
<linearGradient id="paint0_linear_432_1513" x1="64" y1="7" x2="64" y2="126" gradientUnits="userSpaceOnUse">
<stop offset="0.15625" stop-color="#042945"/>
<stop offset="1" stop-color="#004F98"/>
</linearGradient>
<linearGradient id="paint1_linear_432_1513" x1="2.10083" y1="117.366" x2="113.358" y2="-5.27465" gradientUnits="userSpaceOnUse">
<stop stop-color="#0CFFD2"/>
<stop offset="0.46875" stop-color="#00F0FF"/>
<stop offset="0.9375" stop-color="#FFEB68"/>
</linearGradient>
<linearGradient id="paint2_linear_432_1513" x1="-31.7215" y1="76.2931" x2="63.1437" y2="-44.8122" gradientUnits="userSpaceOnUse">
<stop stop-color="#FF00D9"/>
<stop offset="0.39" stop-color="#8A42FF"/>
<stop offset="0.6" stop-color="#00D5FF"/>
<stop offset="1" stop-color="#0CFFD2"/>
</linearGradient>
<linearGradient id="paint3_linear_432_1513" x1="17.3704" y1="131.768" x2="128.562" y2="9.04594" gradientUnits="userSpaceOnUse">
<stop stop-color="#2979F1"/>
<stop offset="0.515625" stop-color="#00F0FF"/>
<stop offset="1" stop-color="#0CFFD2"/>
</linearGradient>
<linearGradient id="paint4_linear_432_1513" x1="49.8481" y1="163.466" x2="166.873" y2="38.9696" gradientUnits="userSpaceOnUse">
<stop stop-color="#7500AC"/>
<stop offset="0.5" stop-color="#00D5FF"/>
<stop offset="1" stop-color="#0CFFD2"/>
</linearGradient>
<linearGradient id="paint5_linear_432_1513" x1="8.71072" y1="123.511" x2="117.59" y2="1.44238" gradientUnits="userSpaceOnUse">
<stop stop-color="#08FADE"/>
<stop offset="0.520833" stop-color="#00D5FF"/>
<stop offset="1" stop-color="#0CFFD2"/>
</linearGradient>
<linearGradient id="paint6_linear_432_1513" x1="65.5001" y1="40" x2="65.5001" y2="108" gradientUnits="userSpaceOnUse">
<stop stop-color="#FFEB68"/>
<stop offset="1" stop-color="#4BFFF4"/>
</linearGradient>
<linearGradient id="paint7_linear_432_1513" x1="65.5001" y1="40" x2="65.5001" y2="108" gradientUnits="userSpaceOnUse">
<stop stop-color="#FFEB68"/>
<stop offset="1" stop-color="#4BFFF4"/>
</linearGradient>
<linearGradient id="paint8_linear_432_1513" x1="65.5001" y1="40" x2="65.5001" y2="108" gradientUnits="userSpaceOnUse">
<stop stop-color="#FFEB68"/>
<stop offset="1" stop-color="#4BFFF4"/>
</linearGradient>
<linearGradient id="paint9_linear_432_1513" x1="65.5001" y1="40" x2="65.5001" y2="108" gradientUnits="userSpaceOnUse">
<stop stop-color="#FFEB68"/>
<stop offset="1" stop-color="#4BFFF4"/>
</linearGradient>
<linearGradient id="paint10_linear_432_1513" x1="11.03" y1="88.1689" x2="44.6682" y2="117.886" gradientUnits="userSpaceOnUse">
<stop stop-color="#FFEF8F"/>
<stop offset="1" stop-color="#BFFFFF"/>
</linearGradient>
<linearGradient id="paint11_linear_432_1513" x1="43.5" y1="117.5" x2="47.5186" y2="120.979" gradientUnits="userSpaceOnUse">
<stop stop-color="#D5A500"/>
<stop offset="1" stop-color="#FEED7F"/>
</linearGradient>
<linearGradient id="paint12_linear_432_1513" x1="48.0791" y1="120.851" x2="69.5239" y2="139.796" gradientUnits="userSpaceOnUse">
<stop stop-color="#FFF9D5"/>
<stop offset="0.0989583" stop-color="#FFEF84"/>
<stop offset="1" stop-color="#E1C300"/>
</linearGradient>
<clipPath id="clip0_432_1513">
<rect width="63.0829" height="62.8251" fill="white" transform="translate(4 82.0648) rotate(-3.69452)"/>
</clipPath>
</defs>
</svg>
