<svg width="128" height="134" viewBox="0 0 128 134" fill="none" xmlns="http://www.w3.org/2000/svg">
<path d="M4.17496 71.4973C4.17496 71.4973 4.17496 71.6462 4.17496 71.7455C4.72485 78.7436 6.17455 84.6498 8.824 90.8538C8.824 90.9531 8.824 91.0523 8.824 91.1516C8.07415 93.7325 7.8242 94.7747 7.67423 95.5192V95.7674C7.67423 95.7674 7.62424 95.817 7.57426 95.8666C14.0229 108.424 24.6207 118.499 37.0681 124.355C37.1181 124.355 37.1681 124.256 37.2681 124.256C39.4676 123.661 40.0675 123.512 41.8671 122.866C41.9671 122.866 42.1171 122.866 42.217 122.866C43.5668 123.412 45.7663 124.107 47.366 124.604C65.7621 129.716 84.9581 126.241 100.005 115.025C115.052 103.857 123.8 86.6351 124 67.9238C123.8 67.7253 124.8 57.0544 119.201 43.9515C119.201 43.8523 119.201 43.753 119.201 43.6537C119.951 41.0729 120.201 40.0306 120.351 39.2861V39.038C120.351 39.038 120.401 38.9883 120.451 38.9387C114.002 26.3818 103.404 16.3065 90.9569 10.4499C90.9069 10.4499 90.8569 10.5492 90.7569 10.5492C88.6074 11.0951 88.0575 11.2937 86.1579 11.9389C86.0579 11.9389 85.9079 11.9389 85.808 11.9389C79.6592 9.35802 70.6111 7.76979 62.7628 7.91869C30.1695 8.7128 4.37492 34.6207 4.02499 66.8815C4.02499 67.0801 3.92502 69.3631 4.12497 71.3981C4.12497 71.3981 4.12497 71.4477 4.12497 71.4973H4.17496Z" fill="url(#paint0_linear_421_1479)"/>
<path d="M11.4045 30.7437C10.5541 31.9273 9.75381 33.1601 8.9535 34.4423C8.75342 33.1601 8.65338 31.878 8.55334 30.6451L8.4533 29.3137L6.6526 32.0752V32.2231C6.80266 33.8012 7.25283 36.5627 7.35287 37.1052V37.2038C6.6526 38.486 6.00235 39.8174 5.40211 41.1489C4.90192 39.2257 4.75186 38.3873 4.6018 37.697L4.30168 36.1189L3.65143 37.4011C3.35131 37.9928 3.1679 38.338 3.10121 38.4367C3.10121 38.4367 3.00117 38.6339 2.90113 38.8805V39.0284V39.1764C3.50137 41.7407 3.70145 42.4311 4.05158 43.5159L4.20164 44.0584C1.95076 49.8774 0.500195 56.1402 0 62.6496C0 62.7482 7.45058e-09 62.8469 0.100039 62.9455L0.300117 63.192C0.750293 63.8331 1.30051 64.6221 3.10121 66.7426C3.20125 66.8906 3.45135 66.9399 3.60141 66.8906C3.80149 66.8412 3.90152 66.644 3.90152 66.4467C4.20164 34.3929 30.0117 8.65128 62.6245 7.81295C70.4775 7.66501 79.5311 9.24304 85.6835 11.8073C85.7835 11.8073 85.8835 11.8073 86.0336 11.8073C87.9343 11.1663 88.4846 11.0183 90.6354 10.4266C90.6854 10.4266 90.7354 10.3773 90.8355 10.3279C103.34 16.1963 113.945 26.1576 120.347 38.6339C120.347 38.6339 120.347 38.6832 120.347 38.7325V38.9791C120.147 39.7188 119.897 40.7544 119.147 43.3187C119.147 43.4173 119.147 43.5159 119.147 43.6146C121.798 49.7788 123.298 55.8936 123.848 62.8469C123.848 62.9455 123.898 63.0441 123.998 63.1427L124.199 63.34C124.699 63.8331 125.399 64.5728 127.2 66.644C127.35 66.7919 127.55 66.8412 127.7 66.7919C127.9 66.7426 128 66.5454 128 66.3481C127.95 59.247 126.649 52.2444 124.299 45.7351C124.299 45.7351 124.299 45.7351 124.299 45.6857C124.649 44.6502 125.399 42.1845 125.749 40.9516C125.749 40.853 125.749 40.7544 125.749 40.6558C120.747 29.1657 112.344 19.2044 101.49 11.8567C96.1876 8.50334 93.9367 7.31982 87.4342 4.75551C83.4826 3.32542 76.5799 1.45151 69.6772 0.909058C69.5772 0.909058 69.4771 0.909058 69.4271 1.00768C67.2763 2.38846 66.676 2.83229 65.7757 3.52267L65.3255 3.86787C64.9254 3.86787 64.5252 3.86787 64.1251 3.86787C62.7745 3.86787 61.374 3.86787 59.9734 4.01581C52.1204 4.50895 44.3673 6.48149 37.1645 9.73618H37.0145C35.764 9.34167 33.163 8.89785 32.1125 8.7006H31.9625L31.8124 8.74991C25.2098 12.3991 21.2083 15.6045 16.9066 19.6482L16.8066 19.7468V19.8948C16.5565 21.1769 16.3064 24.5302 16.3064 24.8261C15.306 25.911 14.3556 27.0452 13.4553 28.1794C13.4553 27.0452 13.4553 25.7631 13.5053 24.4316V23.1001L12.4048 24.4316C12.0547 24.8261 12.0547 24.8261 11.8046 25.1713L11.4545 25.6151V25.7631C11.4545 28.2781 11.4545 28.9685 11.5545 30.152V30.6944L11.4045 30.7437Z" fill="url(#paint1_linear_421_1479)"/>
<path d="M58 1.72802V0.909058C53.4937 1.12457 45.3924 2.54699 38 5.1763L38.3544 5.90906C45.5949 3.32285 53.5949 1.94354 58 1.72802Z" fill="url(#paint2_linear_421_1479)"/>
<path d="M114.202 34.9091L115 34.4256C110.162 27.0287 103.379 20.647 95.4988 15.9091L95 16.6826C102.781 21.3238 109.464 27.6571 114.202 34.9091Z" fill="url(#paint3_linear_421_1479)"/>
<path d="M128 71.8523L127.85 71.6058C127.349 70.9158 126.799 70.1271 125.047 68.0569C124.946 67.9583 124.846 67.9091 124.696 67.9091C124.646 67.9091 124.596 67.9091 124.546 67.9091C124.346 67.9583 124.246 68.1555 124.246 68.3527C124.045 86.9845 115.285 104.039 100.217 115.129C85.1498 126.22 65.9773 129.719 47.5057 124.642C45.9038 124.199 43.7012 123.509 42.3496 122.917C42.2495 122.917 42.1494 122.917 41.9992 122.917C40.1971 123.509 39.6465 123.706 37.3938 124.297C37.3438 124.297 37.2937 124.347 37.1936 124.396C24.6789 118.53 14.0665 108.574 7.65898 96.1032C7.65898 96.1032 7.65898 96.0539 7.65898 96.0047V95.7582C7.85921 95.0188 8.1095 93.9837 8.86038 91.4206C8.86038 91.3221 8.86038 91.2235 8.86038 91.1249C6.15722 84.865 4.70551 78.9501 4.15487 71.9016C4.15487 71.803 4.10481 71.7044 4.00469 71.6058L3.80446 71.4087C3.30387 70.9158 2.60305 70.2257 0.800939 68.1062C0.700821 68.0076 0.600704 67.9583 0.450528 67.9583C0.400469 67.9583 0.350411 67.9583 0.300352 67.9583C0.100117 68.0076 0 68.2048 0 68.402C0.0500587 75.4012 1.35158 82.4991 3.70434 89.0054C3.70434 89.0054 3.70434 89.0054 3.70434 89.104C3.35393 90.0405 2.60305 92.505 2.25264 93.8359C2.25264 93.9345 2.25264 94.033 2.25264 94.1316C11.964 116.362 33.9398 131.987 58.2683 133.909C58.3684 133.909 58.4685 133.909 58.5686 133.86C60.7212 132.48 61.3219 132.036 62.2229 131.346L62.6735 131.001C70.783 131.198 78.7423 129.867 86.2511 127.107C87.853 126.466 89.4048 125.875 90.9065 125.185H91.0067C92.2581 125.53 94.8612 126.023 95.9124 126.22H96.0626L96.2128 126.17C102.821 122.572 106.975 119.22 111.13 115.277L111.23 115.179V115.031C111.481 113.749 111.681 111.137 111.731 110.102V110.003C112.732 108.869 113.683 107.736 114.584 106.553C114.584 108.081 114.584 109.264 114.534 110.447V111.778L115.636 110.447C115.986 110.052 115.986 110.052 116.236 109.707L116.587 109.264V109.116C116.587 106.602 116.587 105.863 116.487 104.729V104.039C117.287 102.856 118.088 101.624 118.889 100.392C119.09 101.722 119.19 103.004 119.29 104.236L119.39 105.567L121.192 102.807V102.659C121.042 101.082 120.591 98.3213 120.491 97.7791V97.6312C121.192 96.3497 121.843 95.0681 122.443 93.7373C122.944 95.6596 123.094 96.4483 123.244 97.1876L123.545 98.7649L124.196 97.4834C124.496 96.8919 124.663 96.5468 124.696 96.4483C124.696 96.4483 124.796 96.2511 124.896 95.9554V95.8075V95.6596C124.296 93.0965 124.095 92.4064 123.745 91.3221L123.595 90.8291C125.898 85.0129 127.299 78.9008 127.8 72.2466C127.8 72.148 127.8 72.0495 127.7 71.9509L128 71.8523Z" fill="url(#paint4_linear_421_1479)"/>
<path d="M70 132.978V133.909C74.5063 133.65 82.6076 131.944 90 128.788L89.6456 127.909C82.4051 131.013 74.4051 132.668 70 132.926V132.978Z" fill="url(#paint5_linear_421_1479)"/>
<path d="M13 100.393C17.8379 107.789 24.6209 114.171 32.5012 118.909L33 118.136C25.2195 113.494 18.5362 107.161 13.798 99.9091L13 100.393Z" fill="url(#paint6_linear_421_1479)"/>
<path d="M50.82 49.9731V52.6331H59.388V49.9731H50.82ZM49.168 40.3131V65.4291H52.192V43.2531H59.472V40.3131H49.168ZM57.764 40.3131V45.5491C57.764 45.8571 57.652 45.9411 57.204 45.9691C56.812 45.9691 55.272 45.9691 53.9 45.9131C54.292 46.7251 54.712 47.9291 54.824 48.7971C56.896 48.7971 58.408 48.7691 59.5 48.3211C60.592 47.8731 60.872 47.0331 60.872 45.6051V40.3131H57.764ZM54.348 51.9331L51.828 52.5771C53.424 58.1771 56.168 62.9651 60.312 65.4571C60.816 64.6171 61.796 63.4131 62.524 62.7971C58.576 60.8091 55.748 56.5811 54.348 51.9331ZM58.408 49.9731V50.6171C57.708 55.6851 55.384 60.5291 51.548 63.1891C52.276 63.7491 53.256 64.7291 53.76 65.4851C57.96 62.3771 60.536 56.9451 61.544 50.5611L59.528 49.8331L58.996 49.9731H58.408ZM36.848 41.6291V44.4011H47.6V41.6291H36.848ZM36.652 57.4211V60.2491H47.908V57.4211H36.652ZM35.84 46.3331V49.1611H48.636V46.3331H35.84ZM36.4 52.4091V55.2371H48.216V52.4091H36.4ZM40.824 39.2211V47.3971H43.932V39.2211H40.824ZM40.824 53.5851V65.3451H43.932V53.5851H40.824ZM44.632 48.7411C44.408 49.7491 43.932 51.2051 43.54 52.1571L45.92 52.8291C46.368 51.9611 46.844 50.7011 47.404 49.4131L44.632 48.7411ZM37.604 49.4131C38.08 50.5331 38.5 51.9891 38.612 52.8851L41.244 52.1571C41.132 51.2891 40.628 49.8331 40.096 48.7971L37.604 49.4131Z" fill="url(#paint7_linear_421_1479)"/>
<path d="M77.868 61.2851V64.3371H90.412V61.2851H77.868ZM76.468 41.8811V44.8491H86.38V41.8811H76.468ZM77.196 38.9691C75.572 42.0771 72.464 45.4931 67.844 47.9291C68.6 48.5171 69.72 49.7491 70.196 50.5891C75.236 47.5651 78.596 43.8131 80.976 39.7251L77.196 38.9691ZM85.316 41.8811V42.4411C82.74 49.4971 75.516 54.9291 67.788 57.1691C68.488 57.8691 69.328 59.2411 69.748 60.1651C78.092 57.3651 85.568 51.6531 88.844 42.9451L86.52 41.7131L85.96 41.8811H85.316ZM72.8 48.0411C74.732 49.4971 77.224 51.6531 78.288 53.1091L81.004 50.6731C79.772 49.2171 77.224 47.2291 75.292 45.8571L72.8 48.0411ZM88.844 52.7451V65.4571H92.344V52.7451H88.844ZM79.296 52.7451H78.484L75.936 55.2371V65.4011H79.296V55.7971H90.524V52.7451H79.296Z" fill="url(#paint8_linear_421_1479)"/>
<path d="M44.296 73.0251C43.764 74.3971 42.728 76.2731 41.832 77.5611L44.66 78.1211C45.612 76.9731 46.816 75.2651 47.852 73.5011L44.296 73.0251ZM50.876 74.7331C52.976 76.2171 55.524 78.4571 56.728 79.8851L59.416 78.5691C58.072 77.0851 55.412 74.9571 53.368 73.5571L50.876 74.7331ZM42.644 81.3411C43.344 82.5451 44.016 84.1971 44.24 85.2331L46.704 84.5051C46.452 83.4411 45.696 81.8731 44.996 80.6691L42.644 81.3411ZM38.22 76.4691L38.388 79.1571C42.924 78.9891 49.672 78.6811 56 78.3451L56.112 75.8531C49.644 76.1051 42.7 76.3571 38.22 76.4691ZM39.816 79.3811C39.396 80.7531 38.556 82.7131 37.828 84.0011L39.984 84.6731C40.824 83.5251 41.86 81.7331 42.84 80.0811L39.816 79.3811ZM36.232 83.3011L36.512 85.7091C38.78 85.4851 41.608 85.1771 44.436 84.8691L44.38 82.6571C41.356 82.9371 38.36 83.1891 36.232 83.3011ZM56.896 81.4811C57.988 82.8811 59.08 84.7571 59.5 85.9891L61.992 84.9251C61.516 83.6651 60.368 81.8451 59.248 80.5291L56.896 81.4811ZM53.536 79.2411C53.228 80.6131 52.556 82.4891 51.968 83.7771L54.18 84.4491C54.908 83.3291 55.776 81.5371 56.616 79.9411L53.536 79.2411ZM51.548 83.0771L51.912 85.4571C54.264 85.2331 57.148 84.9251 60.032 84.6171L60.004 82.6291C56.84 82.8251 53.732 82.9931 51.548 83.0771ZM49.504 86.0731C47.6 87.3611 43.988 88.5931 41.244 89.2091C41.888 89.7691 42.616 90.6371 43.036 91.2251C45.948 90.3851 49.532 88.9851 51.884 87.2771L49.504 86.0731ZM52.472 88.6211C49.952 90.6091 45.052 92.0651 40.74 92.7651C41.384 93.4371 42.056 94.4451 42.42 95.1451C47.04 94.1651 51.94 92.4291 54.992 89.8811L52.472 88.6211ZM55.524 91.4211C52.416 94.5851 46.088 96.1251 39.34 96.7411C39.956 97.4971 40.572 98.6451 40.852 99.4571C48.076 98.5051 54.544 96.6291 58.268 92.7091L55.524 91.4211ZM48.86 83.3291C51.436 86.5491 56.42 89.3491 60.788 90.7211C61.208 89.9371 61.796 88.9011 62.44 88.1731C57.904 87.1091 53.256 84.5891 50.204 80.8091H47.264C45.052 83.9171 40.6 87.0251 35.644 88.5091C36.176 89.1531 36.848 90.2171 37.128 90.9171C41.86 89.2931 46.536 86.3531 48.86 83.3291Z" fill="url(#paint9_linear_421_1479)"/>
<path d="M79.492 73.1091V76.1891H82.852V73.1091H79.492ZM68.992 74.6771V79.4091H72.044V77.1971H90.272V79.4091H93.464V74.6771H68.992ZM75.516 77.5051V85.0371H78.596V77.5051H75.516ZM83.776 77.5051V85.0371H86.884V77.5051H83.776ZM71.848 78.4011V80.2211H90.636V78.4011H71.848ZM72.184 81.0331V82.7691H90.44V81.0331H72.184ZM68.852 83.5811V85.8771H93.66V83.5811H68.852ZM76.076 84.2531C74.368 86.0731 71.036 87.6971 67.844 88.4531C68.46 89.0411 69.356 90.1331 69.776 90.8891C73.108 89.8251 76.524 87.6971 78.484 85.2051L76.076 84.2531ZM86.66 84.0571L84.252 85.0091C86.128 87.4731 89.348 89.6571 92.568 90.6931C93.016 89.9091 93.94 88.7331 94.64 88.1171C91.504 87.4171 88.312 85.8491 86.66 84.0571ZM76.132 90.8051H86.156V91.6451H76.132V90.8051ZM76.132 93.2131H86.156V94.0811H76.132V93.2131ZM76.132 88.3971H86.156V89.2371H76.132V88.3971ZM73.08 86.7451V95.7331H89.376V86.7451H73.08ZM82.376 96.7971C85.512 97.6651 88.676 98.7011 90.496 99.4291L93.324 97.6371C91.196 96.8811 87.64 95.8451 84.532 95.0331L82.376 96.7971ZM77.448 94.9771C75.656 95.9011 71.82 96.8811 68.656 97.3011C69.272 97.8611 70.168 98.8131 70.616 99.4291C73.808 98.9531 77.672 97.9171 79.996 96.7131L77.448 94.9771Z" fill="url(#paint10_linear_421_1479)"/>
<defs>
<linearGradient id="paint0_linear_421_1479" x1="64" y1="7.90906" x2="64" y2="126.909" gradientUnits="userSpaceOnUse">
<stop offset="0.15625" stop-color="#042945"/>
<stop offset="1" stop-color="#004F98"/>
</linearGradient>
<linearGradient id="paint1_linear_421_1479" x1="2.10083" y1="118.275" x2="113.358" y2="-4.36559" gradientUnits="userSpaceOnUse">
<stop stop-color="#7500AC"/>
<stop offset="0.536458" stop-color="#00D5FF"/>
<stop offset="1" stop-color="#0CFFD2"/>
</linearGradient>
<linearGradient id="paint2_linear_421_1479" x1="-31.7215" y1="77.2022" x2="63.1437" y2="-43.9031" gradientUnits="userSpaceOnUse">
<stop stop-color="#FF00D9"/>
<stop offset="0.39" stop-color="#8A42FF"/>
<stop offset="0.6" stop-color="#00D5FF"/>
<stop offset="1" stop-color="#0CFFD2"/>
</linearGradient>
<linearGradient id="paint3_linear_421_1479" x1="11.01" y1="124.349" x2="119.891" y2="2.32837" gradientUnits="userSpaceOnUse">
<stop stop-color="#FF00D9"/>
<stop offset="0.39" stop-color="#8A42FF"/>
<stop offset="0.6" stop-color="#00D5FF"/>
<stop offset="1" stop-color="#0CFFD2"/>
</linearGradient>
<linearGradient id="paint4_linear_421_1479" x1="17.3704" y1="132.677" x2="128.562" y2="9.95499" gradientUnits="userSpaceOnUse">
<stop stop-color="#7500AC"/>
<stop offset="0.515625" stop-color="#00D5FF"/>
<stop offset="1" stop-color="#0CFFD2"/>
</linearGradient>
<linearGradient id="paint5_linear_421_1479" x1="49.8481" y1="164.375" x2="166.873" y2="39.8787" gradientUnits="userSpaceOnUse">
<stop stop-color="#7500AC"/>
<stop offset="0.5" stop-color="#00D5FF"/>
<stop offset="1" stop-color="#0CFFD2"/>
</linearGradient>
<linearGradient id="paint6_linear_421_1479" x1="8.71072" y1="124.421" x2="117.59" y2="2.35143" gradientUnits="userSpaceOnUse">
<stop stop-color="#7500AC"/>
<stop offset="0.520833" stop-color="#00D5FF"/>
<stop offset="1" stop-color="#0CFFD2"/>
</linearGradient>
<linearGradient id="paint7_linear_421_1479" x1="65.5" y1="40.9091" x2="65.5" y2="108.909" gradientUnits="userSpaceOnUse">
<stop stop-color="#0CFFD2"/>
<stop offset="1" stop-color="#00D1FF"/>
</linearGradient>
<linearGradient id="paint8_linear_421_1479" x1="65.5" y1="40.9091" x2="65.5" y2="108.909" gradientUnits="userSpaceOnUse">
<stop stop-color="#0CFFD2"/>
<stop offset="1" stop-color="#00D1FF"/>
</linearGradient>
<linearGradient id="paint9_linear_421_1479" x1="65.5" y1="40.9091" x2="65.5" y2="108.909" gradientUnits="userSpaceOnUse">
<stop stop-color="#0CFFD2"/>
<stop offset="1" stop-color="#00D1FF"/>
</linearGradient>
<linearGradient id="paint10_linear_421_1479" x1="65.5" y1="40.9091" x2="65.5" y2="108.909" gradientUnits="userSpaceOnUse">
<stop stop-color="#0CFFD2"/>
<stop offset="1" stop-color="#00D1FF"/>
</linearGradient>
</defs>
</svg>
